<svg xmlns="http://www.w3.org/2000/svg" width="360" height="540"><g transform="translate(0 -512.362)"><rect width="359" height="539" x=".5" y="512.862" rx="29.944" ry="29.944" style="fill:#fff;stroke:#000;stroke-width:.99999976"/><g style="fill:#f55"><path d="m10 80-5 7v7l5-7v43h5V80z" style="fill:#f55;fill-opacity:1;stroke:none" transform="translate(5 462.362)"/><path d="M30 520c-5.54 0-10 4.46-10 10v30c0 5.54 4.46 10 10 10s10-4.46 10-10v-30c0-5.54-4.46-10-10-10m0 5c2.77 0 5 2.23 5 5v30c0 2.77-2.23 5-5 5s-5-2.23-5-5v-30c0-2.77 2.23-5 5-5" style="fill:#f55;fill-opacity:1;stroke:none" transform="translate(5 22.362)"/></g><g style="fill:#f55"><path d="m10 80-5 7v7l5-7v43h5V80z" style="fill:#f55;fill-opacity:1;stroke:none" transform="rotate(180 177.5 551.181)"/><path d="M30 520c-5.54 0-10 4.46-10 10v30c0 5.54 4.46 10 10 10s10-4.46 10-10v-30c0-5.54-4.46-10-10-10m0 5c2.77 0 5 2.23 5 5v30c0 2.77-2.23 5-5 5s-5-2.23-5-5v-30c0-2.77 2.23-5 5-5" style="fill:#f55;fill-opacity:1;stroke:none" transform="rotate(180 177.5 771.181)"/></g><path d="M90 557.362s6 15 13 25 17 20 17 20-10 10-17 20-13 25-13 25-6-15-13-25-17-20-17-20 10-10 17-20 13-25 13-25m180 0s6 15 13 25 17 20 17 20-10 10-17 20-13 25-13 25-6-15-13-25-17-20-17-20 10-10 17-20 13-25 13-25m-90 60s6 15 13 25 17 20 17 20-10 10-17 20-13 25-13 25-6-15-13-25-17-20-17-20 10-10 17-20 13-25 13-25m-90 60s6 15 13 25 17 20 17 20-10 10-17 20-13 25-13 25-6-15-13-25-17-20-17-20 10-10 17-20 13-25 13-25m180 0s6 15 13 25 17 20 17 20-10 10-17 20-13 25-13 25-6-15-13-25-17-20-17-20 10-10 17-20 13-25 13-25m-180 120s6 15 13 25 17 20 17 20-10 10-17 20-13 25-13 25-6-15-13-25-17-20-17-20 10-10 17-20 13-25 13-25m180 0s6 15 13 25 17 20 17 20-10 10-17 20-13 25-13 25-6-15-13-25-17-20-17-20 10-10 17-20 13-25 13-25m-90 60s6 15 13 25 17 20 17 20-10 10-17 20-13 25-13 25-6-15-13-25-17-20-17-20 10-10 17-20 13-25 13-25m-90 60s6 15 13 25 17 20 17 20-10 10-17 20-13 25-13 25-6-15-13-25-17-20-17-20 10-10 17-20 13-25 13-25m180 0s6 15 13 25 17 20 17 20-10 10-17 20-13 25-13 25-6-15-13-25-17-20-17-20 10-10 17-20 13-25 13-25m-240-315s3 7.5 6.5 12.5 8.5 10 8.5 10-5 5-8.5 10-6.5 12.5-6.5 12.5-3-7.5-6.5-12.5-8.5-10-8.5-10 5-5 8.5-10 6.5-12.5 6.5-12.5m300 315s3 7.5 6.5 12.5 8.5 10 8.5 10-5 5-8.5 10-6.5 12.5-6.5 12.5-3-7.5-6.5-12.5-8.5-10-8.5-10 5-5 8.5-10 6.5-12.5 6.5-12.5" style="fill:#f55;stroke:none"/></g></svg>