<svg xmlns="http://www.w3.org/2000/svg" width="360" height="540"><g transform="translate(0 -512.362)"><rect width="359" height="539" x=".5" y="512.862" rx="29.944" ry="29.944" style="fill:#fff;stroke:#000;stroke-width:.99999976"/><path d="m30 542.362-10 35v5h12v10h5v-10h3v-5h-3v-15h-5v15h-6.8l10-35zm300 480 10-35v-5h-12v-10h-5v10h-3v5h3v15h5v-15h6.8l-10 35z" style="fill:#f55;fill-opacity:1;stroke:none"/><path d="M90 557.362s6 15 13 25 17 20 17 20-10 10-17 20-13 25-13 25-6-15-13-25-17-20-17-20 10-10 17-20 13-25 13-25m180 0s6 15 13 25 17 20 17 20-10 10-17 20-13 25-13 25-6-15-13-25-17-20-17-20 10-10 17-20 13-25 13-25m-180 360s6 15 13 25 17 20 17 20-10 10-17 20-13 25-13 25-6-15-13-25-17-20-17-20 10-10 17-20 13-25 13-25m180 0s6 15 13 25 17 20 17 20-10 10-17 20-13 25-13 25-6-15-13-25-17-20-17-20 10-10 17-20 13-25 13-25m-240-315s3 7.5 6.5 12.5 8.5 10 8.5 10-5 5-8.5 10-6.5 12.5-6.5 12.5-3-7.5-6.5-12.5-8.5-10-8.5-10 5-5 8.5-10 6.5-12.5 6.5-12.5m300 315s3 7.5 6.5 12.5 8.5 10 8.5 10-5 5-8.5 10-6.5 12.5-6.5 12.5-3-7.5-6.5-12.5-8.5-10-8.5-10 5-5 8.5-10 6.5-12.5 6.5-12.5" style="fill:#f55;stroke:none"/></g></svg>