<svg xmlns="http://www.w3.org/2000/svg" width="360" height="540"><g transform="translate(0 -512.362)"><rect width="359" height="539" x=".5" y="512.862" rx="29.944" ry="29.944" style="fill:#fff;stroke:#000;stroke-width:.99999976"/><path d="M30 542.362v5h5v35a5 5 0 0 1-10 0v-5h-5v5c0 5.523 4.477 10 10 10s10-4.477 10-10v-40zm300 480v-5h-5v-35a5 5 0 0 1 10 0v5h5v-5c0-5.523-4.477-10-10-10s-10 4.477-10 10v40z" style="fill:#f55;fill-opacity:1;stroke:none"/><path d="M30 662.362v360h270" style="fill:none;stroke:#55a;stroke-width:2;stroke-miterlimit:4;stroke-opacity:1;stroke-dasharray:none"/><path d="M292.458 165.01c-5.222 4.597-9.395 9.447-13.523 14.657-5.262 6.639-10.225 13.59-14.246 21.045-3.748 6.949-6.76 14.327-9.096 21.868-2.128 6.87-3.585 13.973-4.428 21.116-.748 6.343-.865 12.775-.54 19.155.273 5.346 1.353 10.621 2.085 15.924.838 6.07 1.017 12.284 2.642 18.192 1.852 6.733 4.84 13.136 8.016 19.355 2.532 4.957 5.917 9 8.755 14.221l6.13-5.449c-3.405-6.244-7.125-12.347-9.876-18.902-2.424-5.777-4.274-11.802-5.79-17.88-1.73-6.937-3.188-13.99-3.746-21.116-.462-5.887-.226-11.833.34-17.71.696-7.227 1.854-14.448 3.747-21.457 1.704-6.311 4.08-12.452 6.811-18.391 2.93-6.372 6.202-12.642 10.218-18.392 3.78-5.41 7.606-10.5 12.942-14.985-.455-3.633-.668-7.108-.44-11.251" style="fill:#f55;fill-opacity:1;stroke:none" transform="translate(0 512.362)"/><path d="M297.338 194.578c-4.007 6.01-8.787 11.572-12.02 18.032-3.637 7.266-6.262 15.073-8.132 22.98-1.53 6.473-2.317 13.15-2.475 19.8-.183 7.68.307 15.438 1.768 22.98 1.34 6.916 3.72 13.624 6.364 20.153 2.077 5.13 4.95 9.9 7.424 14.85l15.91-11.314.354-105.713c-1.414-.118-2.847-.098-4.243-.353-1.688-.309-3.3-.943-4.95-1.415" style="fill:#f55;fill-opacity:1;stroke:none" transform="translate(0 512.362)"/><path d="m329 190.159-3.024 3.712-3.889 2.652h-5.126l-3.89-.707.354 174.478L329 380.371zm-16.282-75.484v46.67l13.435-2.299 2.847 3.182v-45.255l-8.327-.53zm16.867-17.255-11.752-1.045-11.752-1.828-10.447-2.96-8.009-3.482-7.138-2.96 4.7 6.268 6.356 6.964 11.49 6.529 13.059 4.44 7.312 1.305 6.181.697z" style="fill:#000;fill-opacity:1;stroke:none" transform="translate(0 512.362)"/><path d="M138.593 257.157s3.099 4.455 4.596 6.718c1.93 2.917 5.657 8.839 5.657 8.839l131.168-126.219s-7.246-5.643-10.606-7.778c-1.105-.173-3.182 1.06-3.182 1.06s-.886 2.935-2.122 3.536c-.854.416-2.828-.353-2.828-.353l-2.828 2.828s-1.993 4.935-3.536 7.071c-3.323 4.602-7.687 8.406-12.063 12.02-3.393 2.804-7.075 5.28-10.918 7.425-2.756 1.539-5.751 2.604-8.643 3.868a638 638 0 0 1-5.589 2.386z" style="fill:#ff5;fill-opacity:1;stroke:none" transform="translate(0 512.362)"/><path d="m142.493 262.54 3.884 6.31 128.656-125.5-6.069-4.126z" style="fill:#000;fill-opacity:1;stroke:none" transform="translate(0 512.362)"/><path d="m112.25 177.75.25 62.75s7.36 2.97 10.75 5c3.575 2.14 10 7.5 10 7.5l-.75-83-10.75-9.25z" style="fill:#ff5;fill-opacity:1;stroke:none" transform="translate(0 512.362)"/><path d="m118.75 167.5.25 75 7.25 4-.5-81.25-4-3.75z" style="fill:#000;fill-opacity:1;stroke:none" transform="translate(0 512.362)"/><path d="M110.22 148.32c4.818-3.162 10.526-6.917 15.344-10.078 3.613 3.914 6.795 8.276 10.84 11.743 3.994 3.424 8.464 6.315 13.098 8.808 3.557 1.913 7.337 3.434 11.184 4.663a70 70 0 0 0 11.743 2.67c4.331.594 8.73.786 13.099.639 4.287-.145 8.585-.607 12.783-1.491 3.921-.827 7.736-2.138 11.489-3.546 3.336-1.25 6.627-2.66 9.768-4.342 2.257-1.208 4.604-3.132 6.485-4.111 1.882.903 2.851 3.773 4.975 4.388 1.83.531 3.885-.175 5.646-.903 1.544-.639 2.71-1.957 4.065-2.936.978 0 2.032.375 2.936 0 1.573-.652 1.978-3.137 3.613-3.613.666-.194 1.362.631 2.032.452 1.184-.317 1.807-1.657 2.71-2.485.678 0 1.407.26 2.033 0 1.082-.448 1.656-1.656 2.484-2.484l2.259.452c-2.259 3.463-4.042 7.287-6.776 10.388-3.46 3.927-7.67 7.178-11.969 10.163-4.817 3.343-10.046 6.095-15.356 8.581-5.33 2.496-10.833 4.687-16.486 6.324-4.793 1.388-9.718 2.405-14.68 2.936-4.716.504-9.487.407-14.227.225-4.08-.156-8.172-.433-12.195-1.129-3.598-.622-7.137-1.596-10.614-2.71-6.151-1.969-12.415-3.875-18.067-7-4.848-2.682-9.051-6.41-13.324-9.937-2.671-2.205-5.285-4.497-7.678-7.001-2.597-2.717-5.106-5.58-7.214-8.666" style="fill:#ff5;fill-opacity:1;stroke:#55a;stroke-width:2;stroke-linecap:round;stroke-linejoin:round;stroke-miterlimit:4;stroke-opacity:1;stroke-dasharray:none" transform="translate(0 512.362)"/><path d="m115.804 145.79 5.437-3.678s2.847 3.87 4.463 5.642a64 64 0 0 0 6.281 5.984c2.834 2.365 5.82 4.566 8.949 6.524 4.533 2.837 9.189 5.574 14.167 7.526 4.968 1.947 10.205 3.255 15.473 4.1 5.163.83 10.433 1.085 15.66.933 4.972-.145 9.974-.63 14.82-1.752 5.23-1.211 10.31-3.104 15.193-5.332 4.947-2.257 14.168-8.084 14.168-8.084s4.072-.406 5.966-1.119c1.825-.687 5.033-2.983 5.033-2.983s2.064.38 2.983 0c1.218-.504 2.796-2.796 2.796-2.796s1.098.669 1.678.56c.954-.18 2.237-1.865 2.237-1.865s-2.463 3.008-3.915 4.288c-3.48 3.066-7.494 5.471-11.372 8.016-3.529 2.316-7.05 4.678-10.812 6.593-5.266 2.68-10.704 5.122-16.368 6.804-6.555 1.948-13.347 3.287-20.17 3.747-6.325.427-12.727.015-18.996-.932-6.095-.92-12.203-2.27-17.916-4.586-5.838-2.367-11.216-5.814-16.404-9.39-3.31-2.279-6.363-4.923-9.321-7.642-2.233-2.052-4.259-4.32-6.339-6.525a345 345 0 0 1-3.691-4.033" style="fill:#000;fill-opacity:1;stroke:none" transform="translate(0 512.362)"/><path d="M146.002 114.755c-.603 2.56-1.02 5.17-1.807 7.678-.643 2.048-1.473 4.036-2.371 5.985-.607 1.315-1.355 2.56-2.033 3.84-.15-1.318-.08-2.68-.452-3.953-.48-1.648-.924-3.549-2.258-4.63-1.567-1.27-3.855-1.538-5.872-1.467-1.7.059-3.514.532-4.855 1.58-1.399 1.094-2.385 2.796-2.823 4.517-.465 1.827-.285 3.867.339 5.646.518 1.478 1.607 2.726 2.71 3.839.816.824 1.882 1.355 2.823 2.033.113 1.053-.164 2.228.339 3.161.531.99 1.571 1.688 2.597 2.146.695.31 1.505.225 2.258.338.113.904-.085 1.905.339 2.71.422.803 1.194 1.463 2.032 1.807.663.272 1.43.075 2.146.113.263.866.221 1.893.79 2.597.487.603 1.265 1.023 2.033 1.13 1.302.18 2.559-.603 3.839-.904.451.753.622 1.775 1.355 2.258.697.46 1.652.417 2.484.339.948-.089 1.807-.602 2.71-.903.414.752.484 1.853 1.242 2.258.766.41 1.764.02 2.597-.226.694-.205 1.28-.677 1.92-1.016.64.677 1.072 1.644 1.92 2.032.753.346 1.699.38 2.483.113.607-.206 1.02-.784 1.468-1.242.712-.727 1.28-1.58 1.92-2.371-1.205-.753-2.472-1.413-3.613-2.258-1.244-.921-2.46-1.904-3.5-3.05-1.09-1.198-1.97-2.576-2.824-3.951-.968-1.56-1.776-3.214-2.597-4.856-.836-1.671-1.71-3.332-2.371-5.08-.943-2.496-1.579-5.1-2.258-7.68-.591-2.242-1.095-4.507-1.581-6.774-.41-1.913-.753-3.84-1.13-5.759" style="fill:#ff5;fill-opacity:1;stroke:none" transform="translate(0 512.362)"/><path d="M132.607 128.395c-1.43-.006-2.972 1.27-3.181 2.629-.245 1.587 1.177 3.334 2.617 4.044 1.784.88 4.273.597 5.948-.475 2.721-1.743 3.512-5.466 4.746-8.452 1.578-3.818 2.22-8.447 3.33-11.937" style="fill:none;stroke:#55a;stroke-width:2;stroke-linecap:round;stroke-linejoin:round;stroke-miterlimit:4;stroke-opacity:1;stroke-dasharray:none;stroke-dashoffset:0" transform="translate(0 512.362)"/><path d="M137.954 134.408c1.242-1.291 1.935-4.102 1.694-6.245-.186-1.65-1.02-3.395-2.343-4.4-1.711-1.299-4.156-1.6-6.294-1.39-1.954.192-4.024.958-5.397 2.362-1.285 1.316-1.86 3.28-2.095 5.105-.23 1.784-.063 3.729.719 5.35.8 1.661 2.253 3.038 3.832 3.992 1.233.744 2.719 1.058 4.152 1.197 1.835.179 3.744.053 5.51-.479a12.4 12.4 0 0 0 4.438-2.414c1.273-1.086 2.166-2.563 3.067-3.973 1.243-1.947 2.129-4.099 3.194-6.148" style="fill:none;stroke:#55a;stroke-width:2;stroke-linecap:round;stroke-linejoin:round;stroke-miterlimit:4;stroke-opacity:1;stroke-dasharray:none;stroke-dashoffset:0" transform="translate(0 512.362)"/><path d="M129.507 140.38c-.16 1.17.033 2.391.72 3.273.877 1.127 2.42 1.702 3.832 1.916 1.626.247 3.289-.345 4.87-.798 1.525-.438 3.023-1.033 4.392-1.837 1.225-.72 2.333-1.644 3.353-2.635 1.49-1.448 2.661-3.193 3.992-4.79m-15.889 10.779c.16.825.001 1.784.48 2.475.461.668 1.277 1.128 2.075 1.277 1.304.244 2.647-.321 3.913-.718 1.227-.385 2.383-.981 3.513-1.597 1.555-.848 3.103-1.748 4.471-2.874 1.395-1.149 2.502-2.609 3.753-3.913m-13.574 9.502c.186.718.071 1.596.56 2.155.642.738 1.735 1.095 2.714 1.118 1.186.028 2.28-.69 3.353-1.197 1.403-.664 2.732-1.49 3.992-2.396 1.136-.814 2.107-1.837 3.194-2.714.783-.632 1.597-1.225 2.396-1.837m-9.662 7.42c.187 1.682.926 2.168 1.917 2.56 1.004.4 2.185-.168 3.193-.558 1.205-.466 2.234-1.31 3.274-2.076 1.52-1.12 2.874-2.449 4.312-3.673m-6.228 5.669c.08.931.87 1.65 1.676 1.916.957.317 2.02-.26 2.955-.639.842-.34 1.599-.878 2.315-1.437.935-.73 1.704-1.65 2.555-2.475m-3.434 3.912c.4.613.922 1.267 1.598 1.597.578.283 1.293.401 1.916.24.83-.215 1.498-.884 2.076-1.517.523-.573.798-1.33 1.198-1.996" style="fill:none;stroke:#55a;stroke-width:2;stroke-linecap:round;stroke-linejoin:round;stroke-miterlimit:4;stroke-opacity:1;stroke-dasharray:none;stroke-dashoffset:0" transform="translate(0 512.362)"/><path d="M-176.762 559.48c-7.071.117-14.156-.097-21.213.353a192 192 0 0 0-17.501 1.944c-3.802.597-7.543 1.532-11.314 2.299-.59 4.124-1.212 8.245-1.768 12.374-.626 4.65-1.12 9.318-1.768 13.965-.486 3.483-.782 7.008-1.59 10.43-.485 2.05-1.297 4.007-1.945 6.01l-2.652.354c-.884-.884-1.459-2.277-2.651-2.652-1.6-.502-3.478.083-4.95.884-2.124 1.156-3.673 3.25-4.95 5.304-1.23 1.98-2.239 4.221-2.475 6.54a8.9 8.9 0 0 0 .707 4.42c.458 1.035 1.101 2.161 2.122 2.651 1.009.485 2.239 0 3.358 0 .59.825.986 1.83 1.768 2.475 1.2.99 2.829 1.297 4.243 1.945.766.884 1.234 2.166 2.298 2.651.911.417 2.003 0 3.005 0 .884.825 1.527 2.032 2.652 2.475.932.368 2.003 0 3.005 0 1.002 1.179 1.585 2.924 3.005 3.536 1.03.443 2.24-.118 3.359-.177.884 1.06 1.401 2.596 2.652 3.182 1.013.475 2.239 0 3.358 0 1.12.943 2.111 2.063 3.36 2.828 1.417.87 2.977 1.558 4.595 1.945 1.666.398 3.44.654 5.127.354 1.843-.329 3.606-1.205 5.126-2.299 1.693-1.217 3.09-2.859 4.243-4.596 1.575-2.373 2.664-5.066 3.535-7.778 1.58-4.918 2.098-10.117 3.006-15.203 1.184-6.637 2.03-13.332 3.182-19.975 1.147-6.616 2.421-13.21 3.712-19.8 1.075-5.488 2.24-10.96 3.359-16.44" style="fill:#ff5;fill-opacity:1;stroke:none" transform="matrix(-.8489 -.1148 0 1.02257 57.78 -14.306)"/><path d="M205 65s-3.468 16.64-5 25c-1.828 9.972-2.936 20.074-5 30-1.4 6.728-1.614 14.02-5 20-2.323 4.102-5.444 8.79-10 10-4.421 1.175-10.194-.195-13.241-3.607-2.56-2.866-3.086-7.787-1.759-11.393 1.442-3.919 5.309-8.34 9.482-8.188 4.345.16 9.165 4.876 9.224 9.224.052 3.903-4.161 8.235-8.056 8.5-2.41.164-5.335-2.141-5.65-4.536-.367-2.793 2.183-6.837 5-6.812 1.691.015 4.024 1.985 2.929 4.142" style="fill:none;stroke:#55a;stroke-width:2.14661908;stroke-linecap:round;stroke-linejoin:round;stroke-miterlimit:4;stroke-opacity:1;stroke-dasharray:none" transform="matrix(-.8489 -.1148 0 1.02257 382.06 536.091)"/><path d="M199.17 64.171c-2.935 8.975-3.689 18.08-5.26 27.171-1.562 9.032-2.022 18.267-4.143 27.184-1.684 7.078-3.586 14.621-6.779 20.749" style="fill:none;stroke:#55a;stroke-width:2.14661908;stroke-linecap:round;stroke-linejoin:round;stroke-miterlimit:4;stroke-opacity:1;stroke-dasharray:none;stroke-dashoffset:0" transform="matrix(-.8489 -.1148 0 1.02257 382.06 536.091)"/><path d="M192.485 576.52c-2.237 7.815-2.914 16.047-4.146 24.118-1.2 7.862-1.633 15.88-3.16 23.667-1.109 5.66-1.908 11.345-4.344 16.68" style="fill:none;stroke:#55a;stroke-width:2.14661908;stroke-linecap:round;stroke-linejoin:round;stroke-miterlimit:4;stroke-opacity:1;stroke-dasharray:none;stroke-dashoffset:0" transform="matrix(-.8489 -.1148 0 1.02257 382.06 12.166)"/><path d="M186.53 576.909c-1.988 7.469-2.59 15.338-3.685 23.052-1.067 7.514-1.452 15.178-2.808 22.621-.986 5.41-1.697 10.844-3.862 15.943m4.531-60.969c-1.79 7.092-2.332 14.565-3.317 21.89-.96 7.136-1.307 14.413-2.528 21.48-.887 5.138-1.527 10.298-3.475 15.14m3.624-57.992c-1.79 6.747-2.331 13.856-3.317 20.824-.96 6.789-1.307 13.712-2.528 20.436-.887 4.887-1.527 9.796-3.475 14.402m2.93-54.743c-1.74 6.276-2.132 12.545-3.048 18.84-.92 6.324-1.27 12.755-2.458 19.01-.862 4.547-1.484 9.113-3.378 13.398m2.718-50.355c-1.641 5.743-2.137 11.794-3.04 17.725-.88 5.778-1.198 11.67-2.318 17.394-.813 4.16-1.4 8.338-3.185 12.258m2.352-47.102c-1.392 5.147-2.452 11.31-3.38 17.034-.835 5.158-1.015 10.459-1.965 15.588-.69 3.728-1.188 7.472-2.703 10.985" style="fill:none;stroke:#55a;stroke-width:2.14661884;stroke-linecap:round;stroke-linejoin:round;stroke-miterlimit:4;stroke-opacity:1;stroke-dasharray:none;stroke-dashoffset:0" transform="matrix(-.8489 -.1148 0 1.02257 382.06 12.166)"/><path d="M174.856 638.8c-1.62-1.11-2.81-2.32-4.472-2.377-3.557-.122-6.414 2.04-8.5 4.468-2.22 2.585-3.566 6.262-3.337 9.661.165 2.437 1.352 5.07 3.303 6.54.974.734 2.014.559 3.596.684" style="fill:none;stroke:#55a;stroke-width:2.14661908;stroke-linecap:round;stroke-linejoin:round;stroke-miterlimit:4;stroke-opacity:1;stroke-dasharray:none;stroke-dashoffset:0" transform="matrix(-.8489 -.1148 0 1.02257 382.06 12.166)"/><path d="M168.96 636.343c-1.361-1.499-2.383-2.654-3.997-2.75-3.195-.19-6.414 2.04-8.5 4.469-2.22 2.584-3.567 6.261-3.337 9.66.165 2.437 1.005 5.088 3.302 6.54.795.502 1.23 1.016 2.811.234" style="fill:none;stroke:#55a;stroke-width:2.14661908;stroke-linecap:round;stroke-linejoin:round;stroke-miterlimit:4;stroke-opacity:1;stroke-dasharray:none;stroke-dashoffset:0" transform="matrix(-.8489 -.1148 0 1.02257 382.06 12.166)"/><path d="M164.04 633.365c-1.619-1.11-3.056-3.065-5.031-3.138-3.2-.117-6.414 2.041-8.5 4.47-2.22 2.584-3.567 6.26-3.337 9.66.165 2.436 1.237 5.236 3.302 6.54.905.57 1.629.595 3.21.073" style="fill:none;stroke:#55a;stroke-width:2.14661908;stroke-linecap:round;stroke-linejoin:round;stroke-miterlimit:4;stroke-opacity:1;stroke-dasharray:none;stroke-dashoffset:0" transform="matrix(-.8489 -.1148 0 1.02257 382.06 12.166)"/><path d="M157.31 630c-1.232-1.757-2.476-2.664-4.126-2.75-3.197-.166-6.414 2.04-8.5 4.469-2.22 2.584-3.567 6.262-3.337 9.66.165 2.437 1.315 5.12 3.302 6.54.915.653 1.629.855 3.34.462" style="fill:none;stroke:#55a;stroke-width:2.14661908;stroke-linecap:round;stroke-linejoin:round;stroke-miterlimit:4;stroke-opacity:1;stroke-dasharray:none;stroke-dashoffset:0" transform="matrix(-.8489 -.1148 0 1.02257 382.06 12.166)"/><path d="M151.614 626.634c-.584-1.498-2.22-2.523-3.738-2.62-3.194-.204-6.414 2.04-8.5 4.469-2.22 2.584-3.566 6.261-3.336 9.66.164 2.437 1.311 5.126 3.302 6.54.757.538 1.18.242 2.762.367" style="fill:none;stroke:#55a;stroke-width:2.14661908;stroke-linecap:round;stroke-linejoin:round;stroke-miterlimit:4;stroke-opacity:1;stroke-dasharray:none;stroke-dashoffset:0" transform="matrix(-.8489 -.1148 0 1.02257 382.06 12.166)"/><path d="M145.66 624.045c-.584-1.757-1.774-2.362-3.09-2.49-3.187-.311-6.415 2.04-8.5 4.468-2.22 2.585-3.423 6.255-3.338 9.661.045 1.791.668 3.797 2.008 4.986 1.063.943 2.535.984 4.117 1.109" style="fill:none;stroke:#55a;stroke-width:2.14661908;stroke-linecap:round;stroke-linejoin:round;stroke-miterlimit:4;stroke-opacity:1;stroke-dasharray:none;stroke-dashoffset:0" transform="matrix(-.8489 -.1148 0 1.02257 382.06 12.166)"/><path d="m143.085 541.88 32.53 40s9.167-2.898 13.881-3.782c6.946-1.303 14.02-2.066 21.086-2.218 11.092-.238 22.25.398 33.22 2.057 12.486 1.888 36.813 8.943 36.813 8.943l28.962-45z" style="fill:#f55;fill-opacity:1;stroke:#55a;stroke-width:2;stroke-linecap:round;stroke-linejoin:round;stroke-miterlimit:4;stroke-opacity:1;stroke-dasharray:none;stroke-dashoffset:0" transform="translate(-30.615 .482)"/><path d="m159.769 543.362 18.65 27.14c7.298-2.252 11.526-1.796 20.83-2.723l-4.652-24.417h-6.444l5.759 20.882c-5.344.332-7.737.279-13.142 1.119l-13.597-22zm44.838 0 4.485 23.706c11.335-.936 19.892-.957 31.227.041l5.643-23.747h-7.268l-3.428 19.278c-8.905-.473-13.602-.52-21.08-.041l-3.032-19.237zm52.38 0-8.227 25.047c8.274.612 19.523 4.998 28.526 6.905l16.231-31.952h-7.13l-12.212 24.575c-5.027-1.219-12.983-2.81-18.01-3.428l6.993-21.147z" style="fill:#fff;fill-opacity:1;stroke:#fff;stroke-width:2;stroke-linecap:round;stroke-linejoin:round;stroke-miterlimit:4;stroke-opacity:1;stroke-dasharray:none;stroke-dashoffset:0" transform="translate(-30.615 .482)"/><path d="M60 542.362h270v360" style="fill:none;stroke:#55a;stroke-width:2;stroke-linecap:butt;stroke-linejoin:miter;stroke-miterlimit:4;stroke-opacity:1;stroke-dasharray:none;stroke-dashoffset:0"/><path d="M-137.44 590.546c-.328.44-.169 1.257.077 1.767.26.543.792 1.01 1.314 1.023.508.009 1.052-.407 1.314-.93.293-.585.481-1.565.078-2.046-.66-.786-2.163-.645-2.784.186" style="fill:#55a;fill-opacity:1;stroke:#55a;stroke-width:1.81709158;stroke-linecap:round;stroke-linejoin:round;stroke-miterlimit:4;stroke-opacity:1;stroke-dasharray:none;stroke-dashoffset:0" transform="matrix(-1.20804 0 0 1.00282 -8.38 14.435)"/><path d="M-179.03 579.247c3.936-1.136 7.76-2.775 11.806-3.406 2.618-.408 5.398-1.099 7.946-.227 1.6.547 4.366 2.516 4.183 3.28-.092.384-.746.366-1.135.34-1.806-.118-3.31-1.875-5.09-2.258-2.161-.464-4.401-.22-6.585 0-3.765.38-7.416 1.514-11.125 2.27" style="fill:#55a;fill-opacity:1;stroke:#55a;stroke-width:1.8170917;stroke-linecap:round;stroke-linejoin:round;stroke-miterlimit:4;stroke-opacity:1;stroke-dasharray:none;stroke-dashoffset:0" transform="matrix(-1.20804 0 0 1.00282 -8.38 14.435)"/><path d="M-157.784 588.282c.454-.492 2.504-.727 2.14-1.288-.481-.739-3.258-3.293-5.205-4.202-1.814-.848-3.817-.997-5.772-1.048-2.07-.055-4.197.025-6.165.786-2.382.921-4.972 3.804-6.53 4.46" style="fill:none;stroke:#55a;stroke-width:1.8170917;stroke-linecap:round;stroke-linejoin:round;stroke-miterlimit:4;stroke-opacity:1;stroke-dasharray:none;stroke-dashoffset:0" transform="matrix(-1.20804 0 0 1.00282 -8.38 14.435)"/><path d="M-181.187 593.393c3.33-.887 6.424-4.72 9.99-5.654 2.373-.62 4.869-.33 7.265.121 1.45.273 2.886.792 4.226 1.552.802.455 1.406.687 2.238 1.776-1.627.766-1.781 3.454-3.172 4.293-2.54 1.533-5.6.966-8.4.726-2.206-.19-4.324-1.201-6.5-1.7-1.875-.43-3.868.055-5.647-1.114" style="fill:none;stroke:#55a;stroke-width:1.8170917;stroke-linecap:round;stroke-linejoin:round;stroke-miterlimit:4;stroke-opacity:1;stroke-dasharray:none;stroke-dashoffset:0" transform="matrix(-1.20804 0 0 1.00282 -8.38 14.435)"/><path d="M-172.786 589.3c.076 1.174-.338 2.489.227 3.52.676 1.234 2.068 2.06 3.405 2.497 1.043.342 2.263.38 3.292 0 .982-.363 1.848-1.144 2.384-2.043.734-1.23.606-2.8.908-4.2" style="fill:none;stroke:#55a;stroke-width:1.8170917;stroke-linecap:round;stroke-linejoin:round;stroke-miterlimit:4;stroke-opacity:1;stroke-dasharray:none;stroke-dashoffset:0" transform="matrix(-1.20804 0 0 1.00282 -8.38 14.435)"/><path d="M-169.013 589.336c-.328.439-.168 1.256.077 1.766.261.543.793 1.01 1.315 1.023.508.009 1.052-.406 1.314-.93.293-.584.48-1.565.077-2.045-.66-.786-2.163-.646-2.783.186" style="fill:#55a;fill-opacity:1;stroke:#55a;stroke-width:1.81709158;stroke-linecap:round;stroke-linejoin:round;stroke-miterlimit:4;stroke-opacity:1;stroke-dasharray:none;stroke-dashoffset:0" transform="matrix(-1.20804 0 0 1.00282 -8.38 14.435)"/><path d="M-169.552 603.841c2.384-.454 4.937-2.207 7.001-4.103 1.942-1.782 3.567-4.558 4.833-6.628m13.79-11.814c-.606 1.476-1.526 2.859-1.817 4.427-.592 3.2-.164 6.531.227 9.763.485 4 1.82 7.846 2.611 11.805.51 2.544 2.474 5.417 1.375 7.674-.642 1.318-2.481.717-3.64 1.34-1.512.813-3.043 2.374-4.254 3.093m-8.716-12.794c-1.552 1.703-3.823 2.96-4.655 5.109-.396 1.023-.461 2.296 0 3.292.543 1.169 1.695 2.21 2.952 2.497 1.029.235 2.129-.307 3.065-.795 1.19-.619 1.857-2.025 3.065-2.61.868-.421 1.94-.923 2.838-.568.303.12.661.483.567.795-.303 1.01-1.962.77-2.951 1.135-1.28.472-2.573.908-3.86 1.362" style="fill:none;stroke:#55a;stroke-width:1.8170917;stroke-linecap:round;stroke-linejoin:round;stroke-miterlimit:4;stroke-opacity:1;stroke-dasharray:none;stroke-dashoffset:0" transform="matrix(-1.20804 0 0 1.00282 -8.38 14.435)"/><path d="M-163.647 627.613c1.598-.8 3.84-.633 5.774-.586 1.967.047 3.872.968 5.837.877 2.241-.102 4.293-1.584 6.536-1.606 1.646-.015 3.527.72 4.816 1.088-.103.563-.266 1.295 0 1.735-1.653-.618-3.983-1.496-6.016-1.249-1.915.232-3.293 2.447-5.222 2.497-2.253.06-3.99-2.51-6.243-2.595-2.15-.08-4.45 1.638-6.13 2.028.446-.664.667-1.727.648-2.189" style="fill:#55a;fill-opacity:1;stroke:#55a;stroke-width:1.8170917;stroke-linecap:round;stroke-linejoin:round;stroke-miterlimit:4;stroke-opacity:1;stroke-dasharray:none;stroke-dashoffset:0" transform="matrix(-1.20804 0 0 1.00282 -8.38 14.435)"/><path d="M-158.624 633.812c1.587.68 3.067 1.7 4.76 2.04 1.259.253 2.59.199 3.853-.032.86-.157 1.654-.57 2.46-.907.749-.313 1.468-.69 2.202-1.036m-2.713 7.355c-1.155-.464-2.249-.917-3.432-.906-.987.009-1.91.377-2.85.81" style="fill:none;stroke:#55a;stroke-width:1.8170917;stroke-linecap:round;stroke-linejoin:round;stroke-miterlimit:4;stroke-opacity:1;stroke-dasharray:none;stroke-dashoffset:0" transform="matrix(-1.20804 0 0 1.00282 -8.38 14.435)"/><path d="M-143.715 578.925c1.573-1.842 5.013-2.308 7.707-2.517 1.96-.152 3.944.27 5.82.944 1.062.382 1.74 1.153 2.999 1.73-2.15-.42-3.752-1.177-5.673-1.258-1.951-.083-3.913.345-5.82.786-1.343.31-2.587.93-3.775 1.573-.522.282-1.643-.807-1.258-1.258" style="fill:#55a;fill-opacity:1;stroke:#55a;stroke-width:1.8170917;stroke-linecap:round;stroke-linejoin:round;stroke-miterlimit:4;stroke-opacity:1;stroke-dasharray:none;stroke-dashoffset:0" transform="matrix(-1.20804 0 0 1.00282 -8.38 14.435)"/><path d="M-144.266 587.015c1.537-.757 2.874-2.894 4.612-3.582 2.315-.917 4.894-.975 7.296-.55 1.587.28 2.936 1.33 4.405 1.995m-16.102 5.137c1.7-.753 2.959-.975 4.47-1.18 2.236-.306 4.516-.408 6.745-.076 1.324.196 2.703.466 3.854 1.213.727.472 1.193 1.315 1.79 1.972l-.344 3.034c-1.193.455-2.339 1.107-3.58 1.366-1.692.352-3.443.344-5.162.227-1.833-.124-3.69-.27-5.437-.986-.942-.386-1.884-.925-2.647-1.754-.534-.58-.953-1.79-1.274-2.169.298-.656 1.326-1.3 1.585-1.647" style="fill:none;stroke:#55a;stroke-width:1.8170917;stroke-linecap:round;stroke-linejoin:round;stroke-miterlimit:4;stroke-opacity:1;stroke-dasharray:none;stroke-dashoffset:0" transform="matrix(-1.20804 0 0 1.00282 -8.38 14.435)"/><path d="M-140.902 590.268c.076 1.173-.337 2.489.227 3.52.677 1.234 2.068 2.059 3.406 2.497 1.043.341 2.263.38 3.292 0 .982-.363 1.848-1.145 2.384-2.044.733-1.23.605-2.8.908-4.2m-13.809 6.372c1.265 1.396 2.312 3.026 3.796 4.186 1.19.93 2.66 1.428 3.99 2.141" style="fill:none;stroke:#55a;stroke-width:1.8170917;stroke-linecap:round;stroke-linejoin:round;stroke-miterlimit:4;stroke-opacity:1;stroke-dasharray:none;stroke-dashoffset:0" transform="matrix(-1.20804 0 0 1.00282 -8.38 14.435)"/><path d="M144.415 70.831c.079 6.741-.005 13.486.237 20.223.238 6.59.397 13.2 1.19 19.747.795 6.563 1.552 13.213 3.569 19.51 1.764 5.506 3.96 11.035 7.375 15.702 2.552 3.487 5.738 6.707 9.517 8.802 3.163 1.755 6.859 2.616 10.468 2.855 4.152.276 8.35-.594 12.372-1.665 4.468-1.19 8.71-3.166 12.847-5.234 3.309-1.655 6.362-3.778 9.517-5.71 2.552-1.563 5.075-3.172 7.613-4.758" style="fill:none;stroke:#55a;stroke-width:2;stroke-linecap:round;stroke-linejoin:round;stroke-miterlimit:4;stroke-opacity:1;stroke-dasharray:none;stroke-dashoffset:0" transform="translate(0 512.362)"/><path d="M110.839 147.91c-18.859 9.05-37.744 18.168-55.685 24.925l-.353 46.492s12.964-11.549 18.915-17.854a197 197 0 0 0 14.85-17.678c3.656-4.918 6.829-10.181 10.075-15.38 4.214-6.745 12.198-20.506 12.198-20.506" style="fill:#000;fill-opacity:1;stroke:#55a;stroke-width:2;stroke-linecap:round;stroke-linejoin:round;stroke-miterlimit:4;stroke-opacity:1;stroke-dasharray:none" transform="translate(0 512.362)"/><path d="m54.5 218.75.25 19.5c5.167-4.167 10.44-8.203 15.5-12.5 5.623-4.775 11.473-9.35 16.5-14.75 4.736-5.088 8.677-10.867 12.75-16.5 4.36-6.03 8.44-12.263 12.5-18.5 3.167-4.863 6.167-9.833 9.25-14.75l-11-12.5c-3.083 5.333-6.034 10.746-9.25 16-3.524 5.757-7.048 11.528-11 17-4.13 5.719-8.573 11.22-13.25 16.5a145 145 0 0 1-10 10.25c-3.906 3.618-8.167 6.833-12.25 10.25" style="fill:#55a;fill-opacity:1;stroke:#55a;stroke-width:2;stroke-linecap:round;stroke-linejoin:round;stroke-miterlimit:4;stroke-opacity:1;stroke-dasharray:none;stroke-dashoffset:0" transform="translate(0 512.362)"/><path d="M107.781 669.112c-1.012-.287-1.555 1.64-1.656 2.688-.306 3.156 5.324 6.43 3.344 8.906-1.616 2.02-5.273-1.99-7.688-1.063-1.056.406-1.971 1.484-2.187 2.594-.66 3.389 5.48 7.235 3.219 9.844-1.822 2.102-5.579-2.311-8.22-1.438-1.049.348-1.985 1.342-2.28 2.407-.963 3.475 4.837 7.957 2.343 10.562-1.946 2.033-5.634-2.332-8.312-1.469-1.052.34-2.003 1.315-2.313 2.375-.98 3.36 4.593 7.8 2.125 10.282-2.277 2.29-6.393-2.789-9.5-1.907-1.042.296-2.007 1.2-2.375 2.22-1.185 3.278 4.08 8.255 1.313 10.374-2.244 1.719-5.029-3.469-7.844-3.219-1.082.097-2.204.811-2.75 1.75-1.893 3.255 2.79 9.566-.562 11.282-1.978 1.012-3.41-3.222-5.594-3.625-.933-.172-2.266-.202-2.781.593-.516.796.055 2.001.593 2.782 1.915 2.778 5.13 5.333 8.5 5.5 1.159.057 2.466-.619 3.094-1.594 2.158-3.35-2.768-9.8.594-11.938 2.554-1.624 5.406 3.842 8.406 3.438 1.134-.153 2.28-1.037 2.719-2.094 1.418-3.414-4.112-8.481-1.406-11 2.434-2.266 6.597 2.93 9.78 1.969 1.072-.324 2.056-1.302 2.376-2.375 1.007-3.375-4.608-7.815-2.156-10.344 1.965-2.028 5.662 2.354 8.343 1.469 1.05-.347 1.986-1.341 2.281-2.406.967-3.485-4.843-7.98-2.343-10.594 2.003-2.094 5.832 2.47 8.562 1.5 1.079-.383 2.023-1.472 2.25-2.594.694-3.425-5.489-7.285-3.25-9.969 1.684-2.017 5.37 2.03 7.813 1.063 1.06-.42 1.972-1.53 2.156-2.656.499-3.052-5.243-6.324-3.25-8.688 1.257-1.492 3.84 1.49 5.75 1.094.925-.192 2.167-.666 2.344-1.594s-.804-1.826-1.594-2.344c-2.624-1.72-6.134-1.375-9.25-1.75-.197-.023-.457.113-.594-.03" style="font-size:medium;font-style:normal;font-variant:normal;font-weight:400;font-stretch:normal;text-indent:0;text-align:start;text-decoration:none;line-height:normal;letter-spacing:normal;word-spacing:normal;text-transform:none;direction:ltr;block-progression:tb;writing-mode:lr-tb;text-anchor:start;baseline-shift:baseline;color:#000;fill:#fff;fill-opacity:1;fill-rule:nonzero;stroke:none;stroke-width:4;marker:none;visibility:visible;display:inline;overflow:visible;font-family:Sans;-inkscape-font-specification:Sans"/><path d="M133.269 246.275c.242-3.641-.265-5.782-.022-9.423 6.23-8.092 11.284-19.37 17.515-27.46 1.688-6.067 11.218-17.357 13.853-19.285 1.849.37 3.528 1.105 2.9 3.34-.627 2.236-2.717 5.974-7.082 11.628-1.86 2.185-5.438 10.114-8.473 14.984-2.956 4.742-6.22 9.288-9.467 13.836-2.991 4.188-6.15 8.254-9.225 12.38" style="fill:#ff5;fill-opacity:1;stroke:#55a;stroke-width:2;stroke-linecap:round;stroke-linejoin:round;stroke-miterlimit:4;stroke-opacity:1;stroke-dasharray:none" transform="translate(0 512.362)"/><path d="m165.315 705.139-1.33-10.218 5.453-3.037 2.206 6.068z" style="fill:#ff5;fill-opacity:1;stroke:#55a;stroke-width:2;stroke-linecap:round;stroke-linejoin:round;stroke-miterlimit:4;stroke-opacity:1;stroke-dasharray:none;stroke-dashoffset:0"/><path d="M164.824 209.657s-2.412 10.154-5.096 14.528c-2.693 4.39-7.36 7.23-10.68 11.167-2.015 2.387-4.446 4.616-5.584 7.525-1.097 2.804-.037 6.119-.971 8.981-.754 2.31-3.641 6.312-3.641 6.312l-5.826-5.098.485-6.797s6.389-7.259 9.225-11.166c2.307-3.18 4.14-6.678 6.311-9.953 1.414-2.133 2.995-4.153 4.37-6.311 4.455-6.993 12.555-21.474 12.555-21.474l4.483-2.888zm-32.284-38.634.478 80.778m83.027-72.039-72.824 71.854m-9.71-72.825 4.37-3.884m-4.612 11.167 10.68-8.496m-10.68 14.807 17.235-12.38m-16.75 19.177 23.547-17.478m-23.304 25.003 24.916-19.591m-25.159 26.874 24.196-21.04m-23.71 27.109 19.63-16.954m-19.388 23.022 11.404-10.164m.976 23.758.729 6.554m3.641-12.623.485 8.254m4.613-13.594.97 8.739m4.37-14.322 1.214 7.525m2.192-18.193 2.42 14.794m.27-24.698 4.831 20.314" style="fill:#f55;fill-opacity:1;stroke:#55a;stroke-width:2;stroke-linecap:round;stroke-linejoin:round;stroke-miterlimit:4;stroke-opacity:1;stroke-dasharray:none;stroke-dashoffset:0" transform="translate(0 512.362)"/><path d="m171.648 704.832 5.558 24.662" style="fill:#f55;fill-opacity:1;stroke:#55a;stroke-width:2;stroke-linecap:round;stroke-linejoin:round;stroke-miterlimit:4;stroke-opacity:1;stroke-dasharray:none;stroke-dashoffset:0"/><path d="m176.235 186.074 4.855 26.702m1.456-26.702 3.642 20.876m1.456-21.119 3.398 16.264m2.185-16.507 2.913 12.38m3.158-13.836 1.93 9.725m2.195-10.453 1.213 5.826m3.884-7.283.723 4.129" style="fill:#f55;fill-opacity:1;stroke:#55a;stroke-width:2;stroke-linecap:round;stroke-linejoin:round;stroke-miterlimit:4;stroke-opacity:1;stroke-dasharray:none;stroke-dashoffset:0" transform="translate(0 512.362)"/><path d="M303.827 695.512c-1.14-1.838 2.08-5.635 2.093-8.578.018-3.756-2.897-7.23-2.57-10.972.202-2.289 1.982-4.158 2.716-6.335.584-1.733 1.76-3.544 1.333-5.322-.454-1.896-1.89-4.305-3.836-4.413-1.715-.095-2.743 2.129-3.79 3.492-2.428 3.164-4.3 6.812-5.557 10.598-1.365 4.114-2.069 5.817-2.043 8.841.032 3.772.26 5.92 2.736 10.981-.133 2.287-.688 4.588-.4 6.86.217 1.701.485 3.574 1.575 4.897 1.227 1.49 3.19 2.365 5.071 2.799 3.3.759 7.112.874 10.144-.525" style="fill:none;stroke:#55a;stroke-width:2;stroke-linecap:round;stroke-linejoin:round;stroke-miterlimit:4;stroke-opacity:1;stroke-dasharray:none;stroke-dashoffset:0"/><path d="M297.232 667.7c.96.905 1.583 2.48 2.881 2.717.95.173 1.935-.492 2.67-1.116.853-.726 1.281-1.848 1.78-2.851.566-1.138.96-2.782 1.36-3.561m8.999 19.921c.184-.447.458-.867.551-1.341.13-.658.172-1.364 0-2.012-.237-.895-.63-1.867-1.378-2.413-.872-.637-2.096-.793-3.168-.671-1.158.132-2.33.667-3.17 1.475-.579.557-1.025 1.345-1.101 2.146-.062.649.125 1.383.55 1.877.629.727 1.683.989 2.618 1.207 1.656.386 3.4.227 5.098.134 2.141-.117 4.362-.129 6.375-.869 1.79-.658 3.457-1.765 4.822-3.084.822-.795 1.78-1.697 1.929-2.816.199-1.5-.172-3.414-1.516-4.291-.795-.519-1.965-.071-2.936.037-2.44.273-4.772 1.098-7.18 1.532-2.074.373-4.231.33-6.254.92-2.045.596-3.929 1.765-5.833 2.611" style="fill:none;stroke:#55a;stroke-width:2;stroke-linecap:round;stroke-linejoin:round;stroke-miterlimit:4;stroke-opacity:1;stroke-dasharray:none;stroke-dashoffset:0"/><path d="M325.52 679.393c1.001.939 2.423 1.499 3.004 2.817.41.93.47 2.149.13 3.114-.536 1.526-1.942 2.479-3.134 3.41-1.428 1.115-3.045 1.945-4.703 2.52-1.643.57-3.383.716-5.094.89-1.692.172-3.41.399-5.094.148-.765-.114-1.608-.21-2.221-.741-.528-.458-.969-1.178-1.045-1.928-.079-.776.257-1.584.653-2.224.606-.979 1.465-1.909 2.482-2.224.933-.288 1.96.086 2.874.445.811.32 1.745.67 2.22 1.483.365.623.318 1.479.262 2.224-.063.825-.436 1.581-.654 2.372" style="fill:none;stroke:#55a;stroke-width:1.99999988;stroke-linecap:round;stroke-linejoin:round;stroke-miterlimit:4;stroke-opacity:1;stroke-dasharray:none;stroke-dashoffset:0"/><path d="M326.429 689.03c.682 1.137 1.77 2.088 2.048 3.41.317 1.506.24 3.31-.546 4.597-.903 1.475-2.69 2.093-4.233 2.669-1.91.712-3.99.74-6.007.89-1.725.126-3.5.413-5.187 0-1.033-.254-2.094-.699-2.867-1.483-.61-.62-1.187-1.467-1.229-2.373-.04-.862.392-1.764.956-2.372.738-.795 1.84-1.156 2.867-1.334 1.037-.181 2.207-.228 3.14.296.688.387 1.197 1.154 1.501 1.928.342.868.45 1.892.273 2.817-.169.888-.819 1.581-1.228 2.372" style="fill:none;stroke:#55a;stroke-width:1.99999988;stroke-linecap:round;stroke-linejoin:round;stroke-miterlimit:4;stroke-opacity:1;stroke-dasharray:none;stroke-dashoffset:0"/><path d="M325.306 699.557c.922.445 2.514.82 2.91 1.928.4 1.116-.398 2.404-1.018 3.41-.877 1.421-2.125 2.745-3.638 3.41-1.25.55-2.713.318-4.074.297-1.901-.03-3.837-.095-5.674-.593-1.385-.376-3.059-.62-3.929-1.78-.387-.516-.451-1.298-.291-1.927.278-1.09 1.089-2.09 2.037-2.669 1.224-.748 2.905-1.309 4.22-.741 1.189.513 1.84 1.993 2.182 3.262a3.78 3.78 0 0 1-.145 2.372c-.31.74-1.067 1.186-1.601 1.78" style="fill:none;stroke:#55a;stroke-width:1.99999988;stroke-linecap:round;stroke-linejoin:round;stroke-miterlimit:4;stroke-opacity:1;stroke-dasharray:none;stroke-dashoffset:0"/><path d="m111.793 176.748.712 63.152s-4.556-13.944-7.795-20.498c-3.023-6.116-10.779-17.4-10.779-17.4s6.297-8.01 9.24-12.165c3.018-4.264 8.622-13.089 8.622-13.089" style="fill:#f55;fill-opacity:1;stroke:#55a;stroke-width:2;stroke-linecap:round;stroke-linejoin:round;stroke-miterlimit:4;stroke-opacity:1;stroke-dasharray:none;stroke-dashoffset:0" transform="translate(0 512.362)"/><path d="m329 51.553-16.194 14.952.2 23.326s5.015 1.192 7.575 1.396c2.798.222 8.419-.2 8.419-.2z" style="fill:#000;fill-opacity:1;stroke:none" transform="translate(0 512.362)"/><path d="m330 43.584-23.175 20.13v25.718l5.781.798.4-23.725L330 52.35z" style="fill:#ff5;fill-opacity:1;stroke:#55a;stroke-width:2;stroke-linecap:round;stroke-linejoin:round;stroke-miterlimit:4;stroke-opacity:1;stroke-dasharray:none;stroke-dashoffset:0" transform="translate(0 512.362)"/><path d="M330 91.227c-5.117-.2-11.001-.494-16.422-1.382-6.07-.994-12.11-2.375-17.918-4.4-5.868-2.046-11.456-4.862-16.946-7.775-3.846-2.041-7.443-4.52-11.164-6.779 2.458 5.383 4.192 11.16 7.376 16.149 3.905 6.118 8.436 12.077 14.155 16.547 5.854 4.576 12.897 7.592 19.937 9.969 5.063 1.71 10.452 2.287 15.75 2.99 1.734.23 3.57.266 5.232.399v-5.782c-3.92-.163-8.31-.544-12.359-1.446-5.487-1.222-10.902-2.963-16-5.332-3.814-1.773-7.524-3.9-10.766-6.58-2.557-2.114-4.674-4.735-6.694-7.367-1.406-1.833-3.005-3.474-3.748-5.83 2.593 1.205 5.783 2.991 8.772 4.274 3.491 1.498 7.04 2.893 10.678 3.987 3.507 1.054 7.103 1.805 10.704 2.468a114 114 0 0 0 9.719 1.345c3.221.31 6.504.261 9.694.527z" style="fill:#ff5;fill-opacity:1;stroke:#55a;stroke-width:2;stroke-linecap:round;stroke-linejoin:round;stroke-miterlimit:4;stroke-opacity:1;stroke-dasharray:none;stroke-dashoffset:0" transform="translate(0 512.362)"/><path d="M293.023 94.024a.827 1.045 0 1 1-1.654 0 .827 1.045 0 1 1 1.654 0" style="fill:#ff5;fill-opacity:1;stroke:none" transform="matrix(1.81376 0 0 1.4359 -236.757 471.88)"/><path d="M301.554 97.68a1.959 2.002 0 1 1-3.918 0 1.959 2.002 0 1 1 3.918 0" style="fill:#ff5;fill-opacity:1;stroke:none" transform="matrix(1.27635 0 0 1.2486 -81.469 488.451)"/><path d="M312.784 101.424a2.699 2.873 0 1 1-5.398 0 2.699 2.873 0 1 1 5.398 0" style="fill:#ff5;fill-opacity:1;stroke:none" transform="matrix(1.29694 0 0 1.21834 -90.927 490.2)"/><path d="M326.19 104.035a3.09 3.134 0 1 1-6.18 0 3.09 3.134 0 1 1 6.18 0" style="fill:#ff5;fill-opacity:1;stroke:none" transform="matrix(1.45612 0 0 1.4359 -148.052 466.692)"/><path d="M306.884 113.261v50.205l5.48-1.768v-46.492z" style="fill:#ff5;fill-opacity:1;stroke:#55a;stroke-width:2;stroke-linecap:round;stroke-linejoin:round;stroke-miterlimit:4;stroke-opacity:1;stroke-dasharray:none" transform="translate(0 512.362)"/><path d="m306.53 197.23 4.774-1.945 2.298.884-.354 174.479 16.617 10.253L330 390l-23.646-14.933z" style="fill:#ff5;fill-opacity:1;stroke:#55a;stroke-width:2;stroke-linecap:round;stroke-linejoin:round;stroke-miterlimit:4;stroke-opacity:1;stroke-dasharray:none;stroke-dashoffset:0" transform="translate(0 512.362)"/><path d="M294.156 186.447c-3.889 5.067-8.3 9.774-11.667 15.202-3.528 5.689-6.437 11.784-8.839 18.032-2.463 6.406-4.392 13.052-5.657 19.799-1.177 6.281-1.846 12.7-1.767 19.091.075 6.052 1.137 12.06 2.121 18.032.921 5.587 1.925 11.188 3.536 16.617 1.4 4.72 3.29 9.294 5.303 13.788 1.896 4.233 4.243 8.25 6.364 12.375l7.424-6.718c-3.3-6.482-7.366-12.627-9.899-19.445-2.24-6.029-3.609-12.384-4.596-18.739-1.07-6.886-1.742-13.898-1.414-20.86.275-5.844 1.477-11.63 2.828-17.323 1.454-6.13 3.19-12.236 5.657-18.032 2.21-5.192 5.06-10.114 8.132-14.849 2.013-3.104 4.478-5.892 6.717-8.839-1.178-.942-2.793-1.514-3.535-2.828-.878-1.553-.472-3.536-.708-5.303" style="fill:#55a;fill-opacity:1;stroke:none" transform="translate(0 512.362)"/><path d="M296.601 156.167c-1.475-1.136-4.951-2.27-6.427-3.406-3.52 4.087-7.072 8.145-10.558 12.26-2.293 2.707-4.604 5.399-6.812 8.175-2.572 3.234-5.125 6.49-7.492 9.876-2.166 3.098-4.239 6.265-6.13 9.537-1.857 3.208-3.495 6.54-5.11 9.877-1.682 3.475-3.345 6.967-4.768 10.557-1.547 3.906-3.049 7.85-4.087 11.92-1.166 4.576-1.837 9.274-2.384 13.965-.65 5.577-1.077 11.197-1.063 16.812.014 5.193.525 10.378 1.063 15.543.678 6.499 1.264 13.044 2.725 19.413 1.573 6.858 3.948 13.525 6.471 20.094a168 168 0 0 0 7.493 16.688c1.749 3.392 3.86 6.585 5.79 9.877l7.152-7.152c-3.633-6.244-7.99-12.12-10.899-18.732-2.92-6.64-4.792-13.719-6.47-20.775-1.759-7.39-3.182-14.904-3.747-22.479-.524-7.02-.246-14.1.34-21.116.541-6.469 1.295-12.97 2.925-19.254 1.747-6.74 4.39-13.244 7.293-19.572 2.648-5.772 5.898-11.26 9.195-16.688 2.763-4.548 5.465-9.181 8.856-13.283 3.694-4.47 8.428-8.456 12.401-12.202.909-3.633 3.335-6.302 4.243-9.935" style="fill:#55a;fill-opacity:1;stroke:none" transform="translate(0 512.362)"/><path d="m270.689 139.988 26.082 16.617" style="fill:none;stroke:#55a;stroke-width:2;stroke-linecap:round;stroke-linejoin:round;stroke-miterlimit:4;stroke-opacity:1;stroke-dasharray:none" transform="translate(0 512.362)"/><path d="m227.34 198.268 53.463-51.778 9.633 7.466s-10.5 10.75-15.172 16.617c-5.715 7.176-11.045 14.704-15.653 22.637-2.237 3.85-3.99 7.965-5.78 12.042-2.087 4.749-5.78 14.45-5.78 14.45z" style="fill:#55a;fill-opacity:1;stroke:#55a;stroke-width:2;stroke-linecap:round;stroke-linejoin:round;stroke-miterlimit:4;stroke-opacity:1;stroke-dasharray:none;stroke-dashoffset:0" transform="translate(0 512.362)"/><path d="M276.375 663.83c-.946.373-1.644 1.417-1.875 2.407-.716 3.066 4.29 7.194 1.906 9.25-1.93 1.666-4.672-3.048-7.187-2.625-1.14.192-2.27 1.111-2.688 2.188-1.11 2.856 3.842 7.32 1.344 9.093-2.032 1.444-4.18-2.98-6.625-3.468-.705-.141-1.578-.25-2.147.19-.569.439-.686 1.311-.728 2.028-.205 3.534 5.175 8.139 2.406 10.344-2.321 1.849-5.075-3.404-8-3.906-.698-.12-1.558-.2-2.112.243-.553.442-.661 1.3-.7 2.007-.214 3.896 5.705 9.011 2.625 11.406-2.858 2.222-6.1-4.298-9.656-4.969-.711-.133-1.595-.23-2.159.223s-.62 1.338-.685 2.059c-.507 5.54 7.327 14.12 2.312 16.53-4.004 1.926-4.885-8.463-9.156-9.687-.91-.26-2.271-.099-2.75.719s.2 1.957.719 2.75c3.566 5.45 9.127 10.154 15.344 12.094.702.219 1.615.305 2.202-.138s.704-1.346.735-2.08c.243-5.8-8.937-13.218-4.406-16.845 2.782-2.227 6.003 4.219 9.5 4.907.705.138 1.578.249 2.147-.19.569-.44.686-1.312.728-2.03.23-3.95-5.785-9.1-2.688-11.562 2.334-1.855 5.097 3.413 8.031 3.938.706.126 1.577.226 2.14-.219.561-.445.667-1.315.704-2.031.183-3.482-5.129-8.05-2.375-10.188 1.855-1.44 3.952 2.77 6.25 3.25.682.143 1.517.262 2.085-.14.568-.404.732-1.231.821-1.922.418-3.238-3.968-7.625-1.437-9.688 2.046-1.667 4.842 3.198 7.438 2.72 1.14-.211 2.253-1.184 2.625-2.282 1.012-2.992-4.294-7.213-1.907-9.281 2.326-2.016 5.611 3.202 8.688 3.125.985-.025 2.395-.211 2.728-1.139.332-.927-.64-1.965-1.385-2.611-3.22-2.796-7.902-3.279-12.03-4.344-.256-.066-.537-.222-.782-.125" style="font-size:medium;font-style:normal;font-variant:normal;font-weight:400;font-stretch:normal;text-indent:0;text-align:start;text-decoration:none;line-height:normal;letter-spacing:normal;word-spacing:normal;text-transform:none;direction:ltr;block-progression:tb;writing-mode:lr-tb;text-anchor:start;baseline-shift:baseline;color:#000;fill:#fff;fill-opacity:1;stroke:none;stroke-width:4;marker:none;visibility:visible;display:inline;overflow:visible;font-family:Sans;-inkscape-font-specification:Sans"/><path d="m166.77 704.237 5.212-5.088 1.928 7.515-5.694 6.07zm-10.417-3.974 6.54-4.736 1.493 7.304-6.105 6.29z" style="fill:#f55;fill-opacity:1;stroke:#55a;stroke-width:2;stroke-linecap:round;stroke-linejoin:round;stroke-miterlimit:4;stroke-opacity:1;stroke-dasharray:none;stroke-dashoffset:0"/><path d="m150.5 273 62-5.5s3.048 5.341 4.836 7.836c2.183 3.046 4.5 6.029 7.164 8.664 2.52 2.492 5.338 4.69 8.268 6.682 2.552 1.736 5.374 3.04 8.06 4.56l6.172 3.5s-2.867-10.918-3.755-16.482c-.803-5.026-1.115-10.123-1.414-15.203-.278-4.708-.547-9.43-.354-14.142.271-6.632.898-13.276 2.121-19.8.833-4.439 3.536-13.08 3.536-13.08l-19.86-21.275z" style="fill:#000;fill-opacity:1;stroke:#000;stroke-width:2;stroke-linecap:round;stroke-linejoin:round;stroke-miterlimit:4;stroke-opacity:1;stroke-dasharray:none;stroke-dashoffset:0" transform="translate(0 512.362)"/><path d="m221.094 718.3-4.062 4 8.437.062-1.562 1.469h-.626l-7.78.156-3.938 4 8-.094-2.313 2.156-6.719-.812-4.5 3.969 7.438.406-1.344 1.281-7.5.219-3.875 4 6.969-.094-1.25 1.188h-6.875l-4.031 4h6.625l-2.125 2-5.656-.625-4.438 3.968 9.375.594.361 13.696 4-3.969-.361-11.258 2.094-2 .156 11.406 4-4.062-.219-11.032 1.875-1.75.344 11.5 4-4.187-.5-10.938 1.531-1.437.344 10.875 4-4.188-.5-10.28 1.188-1.126.406 9.938 4-4.25-.625-9.25 2.5-2.344.281 10.562 3.969-4.156-.438-11.531-.062-1.906-1.906-.032zm13.922 15.497-4.062 4 8.437.063-1.562 1.469h-.625l-7.781.156-3.938 4 8-.094-2.312 2.156-6.72-.812-4.5 3.969 7.438.406-1.343 1.281-7.5.219-3.875 4 6.968-.094-1.25 1.188h-6.875l-4.031 4h6.625l-2.125 2-5.656-.625-4.438 3.968 9.375.594.467 13.378 4-3.968-.467-10.941 2.094-2 .156 11.406 4-4.062-.218-11.032 1.875-1.75.343 11.5 4-4.187-.5-10.938 1.532-1.437.343 10.875 4-4.188-.5-10.28 1.188-1.126.406 9.938 4-4.25-.625-9.25 2.5-2.344.281 10.562 1.428-7.862 2.104-7.825-.063-1.906-1.906-.032zm3.633 24.926-4.5 3.969 5.955.406-.39 1.493-6.971.007-3.875 4 6.969-.094-1.25 1.188h-6.875l-4.032 4h6.625l-2.125 2-5.656-.625-4.437 3.969 9.375.593.466 13.379 4-3.969-.466-10.94 2.093-2 .156 11.405 4-4.062-.218-11.031 1.875-1.75.344 11.5 1.035-2.282-.077-11.679.472-9.132z" style="font-size:medium;font-style:normal;font-variant:normal;font-weight:400;font-stretch:normal;text-indent:0;text-align:start;text-decoration:none;line-height:normal;letter-spacing:normal;word-spacing:normal;text-transform:none;direction:ltr;block-progression:tb;writing-mode:lr-tb;text-anchor:start;baseline-shift:baseline;color:#000;fill:#ff5;fill-opacity:1;stroke:none;stroke-width:4;marker:none;visibility:visible;display:inline;overflow:visible;font-family:Sans;-inkscape-font-specification:Sans"/><path d="M324.688 575.425c-.555-.013-1.042.427-1.47.78-2.921 2.42-5.794 5.323-7.124 8.876a3.9 3.9 0 0 0-.094 2.344c.978 3.54 3.023 7.112 6.031 9.218.791.554 2.012 1.19 2.82.661s.714-1.902.524-2.848c-.63-3.136-5.405-4.837-5.25-8.031.16-3.294 4.912-4.678 6.188-7.72.281-.671.58-1.517.258-2.17-.324-.653-1.155-1.094-1.883-1.11m-6.969 55.75c-.94.6-1.464 1.919-1.406 3.03.237 4.615 7.483 7.304 7.093 11.907-.314 3.71-5.896 5.031-7.25 8.5a3.87 3.87 0 0 0-.093 2.469c1.108 3.637 3.478 7.228 6.718 9.219.805.494 2.031 1.005 2.797.453s.673-1.878.453-2.797c-.765-3.198-5.935-4.683-5.812-7.969.137-3.663 5.699-4.998 7.125-8.375a3.9 3.9 0 0 0 .219-2.312c-1.118-4.968-4.073-9.67-7.813-13.125-.554-.512-1.296-.83-2.031-1m4.219 79.125c-.67.18-1.465.44-1.794 1.05-.33.609-.109 1.416.106 2.075.75 2.296 3.877 3.649 3.969 6.062.18 4.743-5.613 7.894-6.875 12.469a3.9 3.9 0 0 0-.063 1.812c.931 4.514 6.21 7.902 5.906 12.5-.291 4.406-5.807 6.932-7.187 11.125a3.94 3.94 0 0 0-.125 2c1.152 5.523 7.722 9.421 7.719 15.063-.003 5.106-5.757 8.673-7 13.625a3.95 3.95 0 0 0-.031 1.781c1.155 5.304 7.226 9.263 7.03 14.688-.168 4.685-5.73 7.696-6.968 12.218a3.94 3.94 0 0 0-.031 1.907c1.154 4.96 7.047 8.502 6.969 13.593-.074 4.783-5.705 7.94-6.938 12.563a3.9 3.9 0 0 0-.031 1.875c1.145 4.819 7.143 8.209 6.906 13.156-.197 4.127-5.406 6.48-6.781 10.375a4 4 0 0 0-.188 1.875c.495 3.408 1.547 7.055 3.907 9.563.677.72 1.756 1.658 2.671 1.285.916-.372 1.034-1.797 1.016-2.785-.057-3.093-3.798-5.515-3.5-8.594.403-4.164 5.587-6.52 6.875-10.5.209-.645.24-1.37.094-2.031-1.079-4.868-6.996-8.265-6.938-13.25.056-4.774 5.705-7.919 6.938-12.532a3.9 3.9 0 0 0 .031-1.875c-1.154-4.96-7.075-8.502-6.969-13.593.098-4.669 5.64-7.693 6.907-12.188a3.94 3.94 0 0 0 .062-1.844c-1.106-5.319-7.078-9.286-7-14.718.074-5.124 5.8-8.706 7-13.688a3.9 3.9 0 0 0 0-1.812c-1.313-5.44-7.936-9.35-7.656-14.938.22-4.41 5.803-6.933 7.187-11.125a3.9 3.9 0 0 0 .125-1.937c-.868-4.55-6.08-7.933-5.937-12.563.148-4.79 5.814-7.934 6.937-12.594a3.93 3.93 0 0 0-.062-2.062c-.845-2.693-2.568-5.161-4.625-7.094a3.9 3.9 0 0 0-1.656-.937" style="font-size:medium;font-style:normal;font-variant:normal;font-weight:400;font-stretch:normal;text-indent:0;text-align:start;text-decoration:none;line-height:normal;letter-spacing:normal;word-spacing:normal;text-transform:none;direction:ltr;block-progression:tb;writing-mode:lr-tb;text-anchor:start;baseline-shift:baseline;color:#000;fill:#ff5;fill-opacity:1;fill-rule:nonzero;stroke:none;stroke-width:4;marker:none;visibility:visible;display:inline;overflow:visible;font-family:Sans;-inkscape-font-specification:Sans"/><path d="M112.5 240.25c3.167 1.25 6.55 2.051 9.5 3.75 3.959 2.28 7.382 5.413 10.75 8.5a81 81 0 0 1 8.25 8.75c2.862 3.542 5.167 7.5 7.75 11.25" style="fill:none;stroke:#000;stroke-width:2;stroke-linecap:round;stroke-linejoin:round;stroke-miterlimit:4;stroke-opacity:1;stroke-dasharray:none;stroke-dashoffset:0" transform="translate(0 512.362)"/><path d="M292.458 165.01c-5.222 4.597-9.395 9.447-13.523 14.657-5.262 6.639-10.225 13.59-14.246 21.045-3.748 6.949-6.76 14.327-9.096 21.868-2.128 6.87-3.585 13.973-4.428 21.116-.748 6.343-.865 12.775-.54 19.155.273 5.346 1.353 10.621 2.085 15.924.838 6.07 1.017 12.284 2.642 18.192 1.852 6.733 4.84 13.136 8.016 19.355 2.532 4.957 5.917 9 8.755 14.221l6.13-5.449c-3.405-6.244-7.125-12.347-9.876-18.902-2.424-5.777-4.274-11.802-5.79-17.88-1.73-6.937-3.188-13.99-3.746-21.116-.462-5.887-.226-11.833.34-17.71.696-7.227 1.854-14.448 3.747-21.457 1.704-6.311 4.08-12.452 6.811-18.391 2.93-6.372 6.202-12.642 10.218-18.392 3.78-5.41 7.606-10.5 12.942-14.985-.455-3.633-.668-7.108-.44-11.251" style="fill:#f55;fill-opacity:1;stroke:none" transform="rotate(180 180 526.181)"/><path d="M297.338 194.578c-4.007 6.01-8.787 11.572-12.02 18.032-3.637 7.266-6.262 15.073-8.132 22.98-1.53 6.473-2.317 13.15-2.475 19.8-.183 7.68.307 15.438 1.768 22.98 1.34 6.916 3.72 13.624 6.364 20.153 2.077 5.13 4.95 9.9 7.424 14.85l15.91-11.314.354-105.713c-1.414-.118-2.847-.098-4.243-.353-1.688-.309-3.3-.943-4.95-1.415" style="fill:#f55;fill-opacity:1;stroke:none" transform="rotate(180 180 526.181)"/><path d="m329 190.159-3.024 3.712-3.889 2.652h-5.126l-3.89-.707.354 174.478L329 380.371zm-16.282-75.484v46.67l13.435-2.299 2.847 3.182v-45.255l-8.327-.53zm16.867-17.255-11.752-1.045-11.752-1.828-10.447-2.96-8.009-3.482-7.138-2.96 4.7 6.268 6.356 6.964 11.49 6.529 13.059 4.44 7.312 1.305 6.181.697z" style="fill:#000;fill-opacity:1;stroke:none" transform="rotate(180 180 526.181)"/><path d="M138.593 257.157s3.099 4.455 4.596 6.718c1.93 2.917 5.657 8.839 5.657 8.839l131.168-126.219s-7.246-5.643-10.606-7.778c-1.105-.173-3.182 1.06-3.182 1.06s-.886 2.935-2.122 3.536c-.854.416-2.828-.353-2.828-.353l-2.828 2.828s-1.993 4.935-3.536 7.071c-3.323 4.602-7.687 8.406-12.063 12.02-3.393 2.804-7.075 5.28-10.918 7.425-2.756 1.539-5.751 2.604-8.643 3.868a638 638 0 0 1-5.589 2.386z" style="fill:#ff5;fill-opacity:1;stroke:none" transform="rotate(180 180 526.181)"/><path d="m142.493 262.54 3.884 6.31 128.656-125.5-6.069-4.126z" style="fill:#000;fill-opacity:1;stroke:none" transform="rotate(180 180 526.181)"/><path d="m112.25 177.75.25 62.75s7.36 2.97 10.75 5c3.575 2.14 10 7.5 10 7.5l-.75-83-10.75-9.25z" style="fill:#ff5;fill-opacity:1;stroke:none" transform="rotate(180 180 526.181)"/><path d="m118.75 167.5.25 75 7.25 4-.5-81.25-4-3.75z" style="fill:#000;fill-opacity:1;stroke:none" transform="rotate(180 180 526.181)"/><path d="M110.22 148.32c4.818-3.162 10.526-6.917 15.344-10.078 3.613 3.914 6.795 8.276 10.84 11.743 3.994 3.424 8.464 6.315 13.098 8.808 3.557 1.913 7.337 3.434 11.184 4.663a70 70 0 0 0 11.743 2.67c4.331.594 8.73.786 13.099.639 4.287-.145 8.585-.607 12.783-1.491 3.921-.827 7.736-2.138 11.489-3.546 3.336-1.25 6.627-2.66 9.768-4.342 2.257-1.208 4.604-3.132 6.485-4.111 1.882.903 2.851 3.773 4.975 4.388 1.83.531 3.885-.175 5.646-.903 1.544-.639 2.71-1.957 4.065-2.936.978 0 2.032.375 2.936 0 1.573-.652 1.978-3.137 3.613-3.613.666-.194 1.362.631 2.032.452 1.184-.317 1.807-1.657 2.71-2.485.678 0 1.407.26 2.033 0 1.082-.448 1.656-1.656 2.484-2.484l2.259.452c-2.259 3.463-4.042 7.287-6.776 10.388-3.46 3.927-7.67 7.178-11.969 10.163-4.817 3.343-10.046 6.095-15.356 8.581-5.33 2.496-10.833 4.687-16.486 6.324-4.793 1.388-9.718 2.405-14.68 2.936-4.716.504-9.487.407-14.227.225-4.08-.156-8.172-.433-12.195-1.129-3.598-.622-7.137-1.596-10.614-2.71-6.151-1.969-12.415-3.875-18.067-7-4.848-2.682-9.051-6.41-13.324-9.937-2.671-2.205-5.285-4.497-7.678-7.001-2.597-2.717-5.106-5.58-7.214-8.666" style="fill:#ff5;fill-opacity:1;stroke:#55a;stroke-width:2;stroke-linecap:round;stroke-linejoin:round;stroke-miterlimit:4;stroke-opacity:1;stroke-dasharray:none" transform="rotate(180 180 526.181)"/><path d="m115.804 145.79 5.437-3.678s2.847 3.87 4.463 5.642a64 64 0 0 0 6.281 5.984c2.834 2.365 5.82 4.566 8.949 6.524 4.533 2.837 9.189 5.574 14.167 7.526 4.968 1.947 10.205 3.255 15.473 4.1 5.163.83 10.433 1.085 15.66.933 4.972-.145 9.974-.63 14.82-1.752 5.23-1.211 10.31-3.104 15.193-5.332 4.947-2.257 14.168-8.084 14.168-8.084s4.072-.406 5.966-1.119c1.825-.687 5.033-2.983 5.033-2.983s2.064.38 2.983 0c1.218-.504 2.796-2.796 2.796-2.796s1.098.669 1.678.56c.954-.18 2.237-1.865 2.237-1.865s-2.463 3.008-3.915 4.288c-3.48 3.066-7.494 5.471-11.372 8.016-3.529 2.316-7.05 4.678-10.812 6.593-5.266 2.68-10.704 5.122-16.368 6.804-6.555 1.948-13.347 3.287-20.17 3.747-6.325.427-12.727.015-18.996-.932-6.095-.92-12.203-2.27-17.916-4.586-5.838-2.367-11.216-5.814-16.404-9.39-3.31-2.279-6.363-4.923-9.321-7.642-2.233-2.052-4.259-4.32-6.339-6.525a345 345 0 0 1-3.691-4.033" style="fill:#000;fill-opacity:1;stroke:none" transform="rotate(180 180 526.181)"/><path d="M146.002 114.755c-.603 2.56-1.02 5.17-1.807 7.678-.643 2.048-1.473 4.036-2.371 5.985-.607 1.315-1.355 2.56-2.033 3.84-.15-1.318-.08-2.68-.452-3.953-.48-1.648-.924-3.549-2.258-4.63-1.567-1.27-3.855-1.538-5.872-1.467-1.7.059-3.514.532-4.855 1.58-1.399 1.094-2.385 2.796-2.823 4.517-.465 1.827-.285 3.867.339 5.646.518 1.478 1.607 2.726 2.71 3.839.816.824 1.882 1.355 2.823 2.033.113 1.053-.164 2.228.339 3.161.531.99 1.571 1.688 2.597 2.146.695.31 1.505.225 2.258.338.113.904-.085 1.905.339 2.71.422.803 1.194 1.463 2.032 1.807.663.272 1.43.075 2.146.113.263.866.221 1.893.79 2.597.487.603 1.265 1.023 2.033 1.13 1.302.18 2.559-.603 3.839-.904.451.753.622 1.775 1.355 2.258.697.46 1.652.417 2.484.339.948-.089 1.807-.602 2.71-.903.414.752.484 1.853 1.242 2.258.766.41 1.764.02 2.597-.226.694-.205 1.28-.677 1.92-1.016.64.677 1.072 1.644 1.92 2.032.753.346 1.699.38 2.483.113.607-.206 1.02-.784 1.468-1.242.712-.727 1.28-1.58 1.92-2.371-1.205-.753-2.472-1.413-3.613-2.258-1.244-.921-2.46-1.904-3.5-3.05-1.09-1.198-1.97-2.576-2.824-3.951-.968-1.56-1.776-3.214-2.597-4.856-.836-1.671-1.71-3.332-2.371-5.08-.943-2.496-1.579-5.1-2.258-7.68-.591-2.242-1.095-4.507-1.581-6.774-.41-1.913-.753-3.84-1.13-5.759" style="fill:#ff5;fill-opacity:1;stroke:none" transform="rotate(180 180 526.181)"/><path d="M132.607 128.395c-1.43-.006-2.972 1.27-3.181 2.629-.245 1.587 1.177 3.334 2.617 4.044 1.784.88 4.273.597 5.948-.475 2.721-1.743 3.512-5.466 4.746-8.452 1.578-3.818 2.22-8.447 3.33-11.937" style="fill:none;stroke:#55a;stroke-width:2;stroke-linecap:round;stroke-linejoin:round;stroke-miterlimit:4;stroke-opacity:1;stroke-dasharray:none;stroke-dashoffset:0" transform="rotate(180 180 526.181)"/><path d="M137.954 134.408c1.242-1.291 1.935-4.102 1.694-6.245-.186-1.65-1.02-3.395-2.343-4.4-1.711-1.299-4.156-1.6-6.294-1.39-1.954.192-4.024.958-5.397 2.362-1.285 1.316-1.86 3.28-2.095 5.105-.23 1.784-.063 3.729.719 5.35.8 1.661 2.253 3.038 3.832 3.992 1.233.744 2.719 1.058 4.152 1.197 1.835.179 3.744.053 5.51-.479a12.4 12.4 0 0 0 4.438-2.414c1.273-1.086 2.166-2.563 3.067-3.973 1.243-1.947 2.129-4.099 3.194-6.148" style="fill:none;stroke:#55a;stroke-width:2;stroke-linecap:round;stroke-linejoin:round;stroke-miterlimit:4;stroke-opacity:1;stroke-dasharray:none;stroke-dashoffset:0" transform="rotate(180 180 526.181)"/><path d="M129.507 140.38c-.16 1.17.033 2.391.72 3.273.877 1.127 2.42 1.702 3.832 1.916 1.626.247 3.289-.345 4.87-.798 1.525-.438 3.023-1.033 4.392-1.837 1.225-.72 2.333-1.644 3.353-2.635 1.49-1.448 2.661-3.193 3.992-4.79m-15.889 10.779c.16.825.001 1.784.48 2.475.461.668 1.277 1.128 2.075 1.277 1.304.244 2.647-.321 3.913-.718 1.227-.385 2.383-.981 3.513-1.597 1.555-.848 3.103-1.748 4.471-2.874 1.395-1.149 2.502-2.609 3.753-3.913m-13.574 9.502c.186.718.071 1.596.56 2.155.642.738 1.735 1.095 2.714 1.118 1.186.028 2.28-.69 3.353-1.197 1.403-.664 2.732-1.49 3.992-2.396 1.136-.814 2.107-1.837 3.194-2.714.783-.632 1.597-1.225 2.396-1.837m-9.662 7.42c.187 1.682.926 2.168 1.917 2.56 1.004.4 2.185-.168 3.193-.558 1.205-.466 2.234-1.31 3.274-2.076 1.52-1.12 2.874-2.449 4.312-3.673m-6.228 5.669c.08.931.87 1.65 1.676 1.916.957.317 2.02-.26 2.955-.639.842-.34 1.599-.878 2.315-1.437.935-.73 1.704-1.65 2.555-2.475m-3.434 3.912c.4.613.922 1.267 1.598 1.597.578.283 1.293.401 1.916.24.83-.215 1.498-.884 2.076-1.517.523-.573.798-1.33 1.198-1.996" style="fill:none;stroke:#55a;stroke-width:2;stroke-linecap:round;stroke-linejoin:round;stroke-miterlimit:4;stroke-opacity:1;stroke-dasharray:none;stroke-dashoffset:0" transform="rotate(180 180 526.181)"/><path d="M-176.762 559.48c-7.071.117-14.156-.097-21.213.353a192 192 0 0 0-17.501 1.944c-3.802.597-7.543 1.532-11.314 2.299-.59 4.124-1.212 8.245-1.768 12.374-.626 4.65-1.12 9.318-1.768 13.965-.486 3.483-.782 7.008-1.59 10.43-.485 2.05-1.297 4.007-1.945 6.01l-2.652.354c-.884-.884-1.459-2.277-2.651-2.652-1.6-.502-3.478.083-4.95.884-2.124 1.156-3.673 3.25-4.95 5.304-1.23 1.98-2.239 4.221-2.475 6.54a8.9 8.9 0 0 0 .707 4.42c.458 1.035 1.101 2.161 2.122 2.651 1.009.485 2.239 0 3.358 0 .59.825.986 1.83 1.768 2.475 1.2.99 2.829 1.297 4.243 1.945.766.884 1.234 2.166 2.298 2.651.911.417 2.003 0 3.005 0 .884.825 1.527 2.032 2.652 2.475.932.368 2.003 0 3.005 0 1.002 1.179 1.585 2.924 3.005 3.536 1.03.443 2.24-.118 3.359-.177.884 1.06 1.401 2.596 2.652 3.182 1.013.475 2.239 0 3.358 0 1.12.943 2.111 2.063 3.36 2.828 1.417.87 2.977 1.558 4.595 1.945 1.666.398 3.44.654 5.127.354 1.843-.329 3.606-1.205 5.126-2.299 1.693-1.217 3.09-2.859 4.243-4.596 1.575-2.373 2.664-5.066 3.535-7.778 1.58-4.918 2.098-10.117 3.006-15.203 1.184-6.637 2.03-13.332 3.182-19.975 1.147-6.616 2.421-13.21 3.712-19.8 1.075-5.488 2.24-10.96 3.359-16.44" style="fill:#ff5;fill-opacity:1;stroke:none" transform="matrix(.8489 .1148 0 -1.02257 302.22 1579.03)"/><path d="M205 65s-3.468 16.64-5 25c-1.828 9.972-2.936 20.074-5 30-1.4 6.728-1.614 14.02-5 20-2.323 4.102-5.444 8.79-10 10-4.421 1.175-10.194-.195-13.241-3.607-2.56-2.866-3.086-7.787-1.759-11.393 1.442-3.919 5.309-8.34 9.482-8.188 4.345.16 9.165 4.876 9.224 9.224.052 3.903-4.161 8.235-8.056 8.5-2.41.164-5.335-2.141-5.65-4.536-.367-2.793 2.183-6.837 5-6.812 1.691.015 4.024 1.985 2.929 4.142" style="fill:none;stroke:#55a;stroke-width:2.14661908;stroke-linecap:round;stroke-linejoin:round;stroke-miterlimit:4;stroke-opacity:1;stroke-dasharray:none" transform="matrix(.8489 .1148 0 -1.02257 -22.06 1028.633)"/><path d="M199.17 64.171c-2.935 8.975-3.689 18.08-5.26 27.171-1.562 9.032-2.022 18.267-4.143 27.184-1.684 7.078-3.586 14.621-6.779 20.749" style="fill:none;stroke:#55a;stroke-width:2.14661908;stroke-linecap:round;stroke-linejoin:round;stroke-miterlimit:4;stroke-opacity:1;stroke-dasharray:none;stroke-dashoffset:0" transform="matrix(.8489 .1148 0 -1.02257 -22.06 1028.633)"/><path d="M192.485 576.52c-2.237 7.815-2.914 16.047-4.146 24.118-1.2 7.862-1.633 15.88-3.16 23.667-1.109 5.66-1.908 11.345-4.344 16.68" style="fill:none;stroke:#55a;stroke-width:2.14661908;stroke-linecap:round;stroke-linejoin:round;stroke-miterlimit:4;stroke-opacity:1;stroke-dasharray:none;stroke-dashoffset:0" transform="matrix(.8489 .1148 0 -1.02257 -22.06 1552.559)"/><path d="M186.53 576.909c-1.988 7.469-2.59 15.338-3.685 23.052-1.067 7.514-1.452 15.178-2.808 22.621-.986 5.41-1.697 10.844-3.862 15.943m4.531-60.969c-1.79 7.092-2.332 14.565-3.317 21.89-.96 7.136-1.307 14.413-2.528 21.48-.887 5.138-1.527 10.298-3.475 15.14m3.624-57.992c-1.79 6.747-2.331 13.856-3.317 20.824-.96 6.789-1.307 13.712-2.528 20.436-.887 4.887-1.527 9.796-3.475 14.402m2.93-54.743c-1.74 6.276-2.132 12.545-3.048 18.84-.92 6.324-1.27 12.755-2.458 19.01-.862 4.547-1.484 9.113-3.378 13.398m2.718-50.355c-1.641 5.743-2.137 11.794-3.04 17.725-.88 5.778-1.198 11.67-2.318 17.394-.813 4.16-1.4 8.338-3.185 12.258m2.352-47.102c-1.392 5.147-2.452 11.31-3.38 17.034-.835 5.158-1.015 10.459-1.965 15.588-.69 3.728-1.188 7.472-2.703 10.985" style="fill:none;stroke:#55a;stroke-width:2.14661884;stroke-linecap:round;stroke-linejoin:round;stroke-miterlimit:4;stroke-opacity:1;stroke-dasharray:none;stroke-dashoffset:0" transform="matrix(.8489 .1148 0 -1.02257 -22.06 1552.559)"/><path d="M174.856 638.8c-1.62-1.11-2.81-2.32-4.472-2.377-3.557-.122-6.414 2.04-8.5 4.468-2.22 2.585-3.566 6.262-3.337 9.661.165 2.437 1.352 5.07 3.303 6.54.974.734 2.014.559 3.596.684" style="fill:none;stroke:#55a;stroke-width:2.14661908;stroke-linecap:round;stroke-linejoin:round;stroke-miterlimit:4;stroke-opacity:1;stroke-dasharray:none;stroke-dashoffset:0" transform="matrix(.8489 .1148 0 -1.02257 -22.06 1552.559)"/><path d="M168.96 636.343c-1.361-1.499-2.383-2.654-3.997-2.75-3.195-.19-6.414 2.04-8.5 4.469-2.22 2.584-3.567 6.261-3.337 9.66.165 2.437 1.005 5.088 3.302 6.54.795.502 1.23 1.016 2.811.234" style="fill:none;stroke:#55a;stroke-width:2.14661908;stroke-linecap:round;stroke-linejoin:round;stroke-miterlimit:4;stroke-opacity:1;stroke-dasharray:none;stroke-dashoffset:0" transform="matrix(.8489 .1148 0 -1.02257 -22.06 1552.559)"/><path d="M164.04 633.365c-1.619-1.11-3.056-3.065-5.031-3.138-3.2-.117-6.414 2.041-8.5 4.47-2.22 2.584-3.567 6.26-3.337 9.66.165 2.436 1.237 5.236 3.302 6.54.905.57 1.629.595 3.21.073" style="fill:none;stroke:#55a;stroke-width:2.14661908;stroke-linecap:round;stroke-linejoin:round;stroke-miterlimit:4;stroke-opacity:1;stroke-dasharray:none;stroke-dashoffset:0" transform="matrix(.8489 .1148 0 -1.02257 -22.06 1552.559)"/><path d="M157.31 630c-1.232-1.757-2.476-2.664-4.126-2.75-3.197-.166-6.414 2.04-8.5 4.469-2.22 2.584-3.567 6.262-3.337 9.66.165 2.437 1.315 5.12 3.302 6.54.915.653 1.629.855 3.34.462" style="fill:none;stroke:#55a;stroke-width:2.14661908;stroke-linecap:round;stroke-linejoin:round;stroke-miterlimit:4;stroke-opacity:1;stroke-dasharray:none;stroke-dashoffset:0" transform="matrix(.8489 .1148 0 -1.02257 -22.06 1552.559)"/><path d="M151.614 626.634c-.584-1.498-2.22-2.523-3.738-2.62-3.194-.204-6.414 2.04-8.5 4.469-2.22 2.584-3.566 6.261-3.336 9.66.164 2.437 1.311 5.126 3.302 6.54.757.538 1.18.242 2.762.367" style="fill:none;stroke:#55a;stroke-width:2.14661908;stroke-linecap:round;stroke-linejoin:round;stroke-miterlimit:4;stroke-opacity:1;stroke-dasharray:none;stroke-dashoffset:0" transform="matrix(.8489 .1148 0 -1.02257 -22.06 1552.559)"/><path d="M145.66 624.045c-.584-1.757-1.774-2.362-3.09-2.49-3.187-.311-6.415 2.04-8.5 4.468-2.22 2.585-3.423 6.255-3.338 9.661.045 1.791.668 3.797 2.008 4.986 1.063.943 2.535.984 4.117 1.109" style="fill:none;stroke:#55a;stroke-width:2.14661908;stroke-linecap:round;stroke-linejoin:round;stroke-miterlimit:4;stroke-opacity:1;stroke-dasharray:none;stroke-dashoffset:0" transform="matrix(.8489 .1148 0 -1.02257 -22.06 1552.559)"/><path d="m143.085 541.88 32.53 40s9.167-2.898 13.881-3.782c6.946-1.303 14.02-2.066 21.086-2.218 11.092-.238 22.25.398 33.22 2.057 12.486 1.888 36.813 8.943 36.813 8.943l28.962-45z" style="fill:#f55;fill-opacity:1;stroke:#55a;stroke-width:2;stroke-linecap:round;stroke-linejoin:round;stroke-miterlimit:4;stroke-opacity:1;stroke-dasharray:none;stroke-dashoffset:0" transform="rotate(180 195.307 782.121)"/><path d="m159.769 543.362 18.65 27.14c7.298-2.252 11.526-1.796 20.83-2.723l-4.652-24.417h-6.444l5.759 20.882c-5.344.332-7.737.279-13.142 1.119l-13.597-22zm44.838 0 4.485 23.706c11.335-.936 19.892-.957 31.227.041l5.643-23.747h-7.268l-3.428 19.278c-8.905-.473-13.602-.52-21.08-.041l-3.032-19.237zm52.38 0-8.227 25.047c8.274.612 19.523 4.998 28.526 6.905l16.231-31.952h-7.13l-12.212 24.575c-5.027-1.219-12.983-2.81-18.01-3.428l6.993-21.147z" style="fill:#fff;fill-opacity:1;stroke:#fff;stroke-width:2;stroke-linecap:round;stroke-linejoin:round;stroke-miterlimit:4;stroke-opacity:1;stroke-dasharray:none;stroke-dashoffset:0" transform="rotate(180 195.307 782.121)"/><path d="M60 542.362h270v360" style="fill:none;stroke:#55a;stroke-width:2;stroke-linecap:butt;stroke-linejoin:miter;stroke-miterlimit:4;stroke-opacity:1;stroke-dasharray:none;stroke-dashoffset:0" transform="rotate(180 180 782.362)"/><path d="M-137.44 590.546c-.328.44-.169 1.257.077 1.767.26.543.792 1.01 1.314 1.023.508.009 1.052-.407 1.314-.93.293-.585.481-1.565.078-2.046-.66-.786-2.163-.645-2.784.186" style="fill:#55a;fill-opacity:1;stroke:#55a;stroke-width:1.81709158;stroke-linecap:round;stroke-linejoin:round;stroke-miterlimit:4;stroke-opacity:1;stroke-dasharray:none;stroke-dashoffset:0" transform="matrix(1.20804 0 0 -1.00282 368.38 1550.29)"/><path d="M-179.03 579.247c3.936-1.136 7.76-2.775 11.806-3.406 2.618-.408 5.398-1.099 7.946-.227 1.6.547 4.366 2.516 4.183 3.28-.092.384-.746.366-1.135.34-1.806-.118-3.31-1.875-5.09-2.258-2.161-.464-4.401-.22-6.585 0-3.765.38-7.416 1.514-11.125 2.27" style="fill:#55a;fill-opacity:1;stroke:#55a;stroke-width:1.8170917;stroke-linecap:round;stroke-linejoin:round;stroke-miterlimit:4;stroke-opacity:1;stroke-dasharray:none;stroke-dashoffset:0" transform="matrix(1.20804 0 0 -1.00282 368.38 1550.29)"/><path d="M-157.784 588.282c.454-.492 2.504-.727 2.14-1.288-.481-.739-3.258-3.293-5.205-4.202-1.814-.848-3.817-.997-5.772-1.048-2.07-.055-4.197.025-6.165.786-2.382.921-4.972 3.804-6.53 4.46" style="fill:none;stroke:#55a;stroke-width:1.8170917;stroke-linecap:round;stroke-linejoin:round;stroke-miterlimit:4;stroke-opacity:1;stroke-dasharray:none;stroke-dashoffset:0" transform="matrix(1.20804 0 0 -1.00282 368.38 1550.29)"/><path d="M-181.187 593.393c3.33-.887 6.424-4.72 9.99-5.654 2.373-.62 4.869-.33 7.265.121 1.45.273 2.886.792 4.226 1.552.802.455 1.406.687 2.238 1.776-1.627.766-1.781 3.454-3.172 4.293-2.54 1.533-5.6.966-8.4.726-2.206-.19-4.324-1.201-6.5-1.7-1.875-.43-3.868.055-5.647-1.114" style="fill:none;stroke:#55a;stroke-width:1.8170917;stroke-linecap:round;stroke-linejoin:round;stroke-miterlimit:4;stroke-opacity:1;stroke-dasharray:none;stroke-dashoffset:0" transform="matrix(1.20804 0 0 -1.00282 368.38 1550.29)"/><path d="M-172.786 589.3c.076 1.174-.338 2.489.227 3.52.676 1.234 2.068 2.06 3.405 2.497 1.043.342 2.263.38 3.292 0 .982-.363 1.848-1.144 2.384-2.043.734-1.23.606-2.8.908-4.2" style="fill:none;stroke:#55a;stroke-width:1.8170917;stroke-linecap:round;stroke-linejoin:round;stroke-miterlimit:4;stroke-opacity:1;stroke-dasharray:none;stroke-dashoffset:0" transform="matrix(1.20804 0 0 -1.00282 368.38 1550.29)"/><path d="M-169.013 589.336c-.328.439-.168 1.256.077 1.766.261.543.793 1.01 1.315 1.023.508.009 1.052-.406 1.314-.93.293-.584.48-1.565.077-2.045-.66-.786-2.163-.646-2.783.186" style="fill:#55a;fill-opacity:1;stroke:#55a;stroke-width:1.81709158;stroke-linecap:round;stroke-linejoin:round;stroke-miterlimit:4;stroke-opacity:1;stroke-dasharray:none;stroke-dashoffset:0" transform="matrix(1.20804 0 0 -1.00282 368.38 1550.29)"/><path d="M-169.552 603.841c2.384-.454 4.937-2.207 7.001-4.103 1.942-1.782 3.567-4.558 4.833-6.628m13.79-11.814c-.606 1.476-1.526 2.859-1.817 4.427-.592 3.2-.164 6.531.227 9.763.485 4 1.82 7.846 2.611 11.805.51 2.544 2.474 5.417 1.375 7.674-.642 1.318-2.481.717-3.64 1.34-1.512.813-3.043 2.374-4.254 3.093m-8.716-12.794c-1.552 1.703-3.823 2.96-4.655 5.109-.396 1.023-.461 2.296 0 3.292.543 1.169 1.695 2.21 2.952 2.497 1.029.235 2.129-.307 3.065-.795 1.19-.619 1.857-2.025 3.065-2.61.868-.421 1.94-.923 2.838-.568.303.12.661.483.567.795-.303 1.01-1.962.77-2.951 1.135-1.28.472-2.573.908-3.86 1.362" style="fill:none;stroke:#55a;stroke-width:1.8170917;stroke-linecap:round;stroke-linejoin:round;stroke-miterlimit:4;stroke-opacity:1;stroke-dasharray:none;stroke-dashoffset:0" transform="matrix(1.20804 0 0 -1.00282 368.38 1550.29)"/><path d="M-163.647 627.613c1.598-.8 3.84-.633 5.774-.586 1.967.047 3.872.968 5.837.877 2.241-.102 4.293-1.584 6.536-1.606 1.646-.015 3.527.72 4.816 1.088-.103.563-.266 1.295 0 1.735-1.653-.618-3.983-1.496-6.016-1.249-1.915.232-3.293 2.447-5.222 2.497-2.253.06-3.99-2.51-6.243-2.595-2.15-.08-4.45 1.638-6.13 2.028.446-.664.667-1.727.648-2.189" style="fill:#55a;fill-opacity:1;stroke:#55a;stroke-width:1.8170917;stroke-linecap:round;stroke-linejoin:round;stroke-miterlimit:4;stroke-opacity:1;stroke-dasharray:none;stroke-dashoffset:0" transform="matrix(1.20804 0 0 -1.00282 368.38 1550.29)"/><path d="M-158.624 633.812c1.587.68 3.067 1.7 4.76 2.04 1.259.253 2.59.199 3.853-.032.86-.157 1.654-.57 2.46-.907.749-.313 1.468-.69 2.202-1.036m-2.713 7.355c-1.155-.464-2.249-.917-3.432-.906-.987.009-1.91.377-2.85.81" style="fill:none;stroke:#55a;stroke-width:1.8170917;stroke-linecap:round;stroke-linejoin:round;stroke-miterlimit:4;stroke-opacity:1;stroke-dasharray:none;stroke-dashoffset:0" transform="matrix(1.20804 0 0 -1.00282 368.38 1550.29)"/><path d="M-143.715 578.925c1.573-1.842 5.013-2.308 7.707-2.517 1.96-.152 3.944.27 5.82.944 1.062.382 1.74 1.153 2.999 1.73-2.15-.42-3.752-1.177-5.673-1.258-1.951-.083-3.913.345-5.82.786-1.343.31-2.587.93-3.775 1.573-.522.282-1.643-.807-1.258-1.258" style="fill:#55a;fill-opacity:1;stroke:#55a;stroke-width:1.8170917;stroke-linecap:round;stroke-linejoin:round;stroke-miterlimit:4;stroke-opacity:1;stroke-dasharray:none;stroke-dashoffset:0" transform="matrix(1.20804 0 0 -1.00282 368.38 1550.29)"/><path d="M-144.266 587.015c1.537-.757 2.874-2.894 4.612-3.582 2.315-.917 4.894-.975 7.296-.55 1.587.28 2.936 1.33 4.405 1.995m-16.102 5.137c1.7-.753 2.959-.975 4.47-1.18 2.236-.306 4.516-.408 6.745-.076 1.324.196 2.703.466 3.854 1.213.727.472 1.193 1.315 1.79 1.972l-.344 3.034c-1.193.455-2.339 1.107-3.58 1.366-1.692.352-3.443.344-5.162.227-1.833-.124-3.69-.27-5.437-.986-.942-.386-1.884-.925-2.647-1.754-.534-.58-.953-1.79-1.274-2.169.298-.656 1.326-1.3 1.585-1.647" style="fill:none;stroke:#55a;stroke-width:1.8170917;stroke-linecap:round;stroke-linejoin:round;stroke-miterlimit:4;stroke-opacity:1;stroke-dasharray:none;stroke-dashoffset:0" transform="matrix(1.20804 0 0 -1.00282 368.38 1550.29)"/><path d="M-140.902 590.268c.076 1.173-.337 2.489.227 3.52.677 1.234 2.068 2.059 3.406 2.497 1.043.341 2.263.38 3.292 0 .982-.363 1.848-1.145 2.384-2.044.733-1.23.605-2.8.908-4.2m-13.809 6.372c1.265 1.396 2.312 3.026 3.796 4.186 1.19.93 2.66 1.428 3.99 2.141" style="fill:none;stroke:#55a;stroke-width:1.8170917;stroke-linecap:round;stroke-linejoin:round;stroke-miterlimit:4;stroke-opacity:1;stroke-dasharray:none;stroke-dashoffset:0" transform="matrix(1.20804 0 0 -1.00282 368.38 1550.29)"/><path d="M144.415 70.831c.079 6.741-.005 13.486.237 20.223.238 6.59.397 13.2 1.19 19.747.795 6.563 1.552 13.213 3.569 19.51 1.764 5.506 3.96 11.035 7.375 15.702 2.552 3.487 5.738 6.707 9.517 8.802 3.163 1.755 6.859 2.616 10.468 2.855 4.152.276 8.35-.594 12.372-1.665 4.468-1.19 8.71-3.166 12.847-5.234 3.309-1.655 6.362-3.778 9.517-5.71 2.552-1.563 5.075-3.172 7.613-4.758" style="fill:none;stroke:#55a;stroke-width:2;stroke-linecap:round;stroke-linejoin:round;stroke-miterlimit:4;stroke-opacity:1;stroke-dasharray:none;stroke-dashoffset:0" transform="rotate(180 180 526.181)"/><path d="M110.839 147.91c-18.859 9.05-37.744 18.168-55.685 24.925l-.353 46.492s12.964-11.549 18.915-17.854a197 197 0 0 0 14.85-17.678c3.656-4.918 6.829-10.181 10.075-15.38 4.214-6.745 12.198-20.506 12.198-20.506" style="fill:#000;fill-opacity:1;stroke:#55a;stroke-width:2;stroke-linecap:round;stroke-linejoin:round;stroke-miterlimit:4;stroke-opacity:1;stroke-dasharray:none" transform="rotate(180 180 526.181)"/><path d="m54.5 218.75.25 19.5c5.167-4.167 10.44-8.203 15.5-12.5 5.623-4.775 11.473-9.35 16.5-14.75 4.736-5.088 8.677-10.867 12.75-16.5 4.36-6.03 8.44-12.263 12.5-18.5 3.167-4.863 6.167-9.833 9.25-14.75l-11-12.5c-3.083 5.333-6.034 10.746-9.25 16-3.524 5.757-7.048 11.528-11 17-4.13 5.719-8.573 11.22-13.25 16.5a145 145 0 0 1-10 10.25c-3.906 3.618-8.167 6.833-12.25 10.25" style="fill:#55a;fill-opacity:1;stroke:#55a;stroke-width:2;stroke-linecap:round;stroke-linejoin:round;stroke-miterlimit:4;stroke-opacity:1;stroke-dasharray:none;stroke-dashoffset:0" transform="rotate(180 180 526.181)"/><path d="M107.781 669.112c-1.012-.287-1.555 1.64-1.656 2.688-.306 3.156 5.324 6.43 3.344 8.906-1.616 2.02-5.273-1.99-7.688-1.063-1.056.406-1.971 1.484-2.187 2.594-.66 3.389 5.48 7.235 3.219 9.844-1.822 2.102-5.579-2.311-8.22-1.438-1.049.348-1.985 1.342-2.28 2.407-.963 3.475 4.837 7.957 2.343 10.562-1.946 2.033-5.634-2.332-8.312-1.469-1.052.34-2.003 1.315-2.313 2.375-.98 3.36 4.593 7.8 2.125 10.282-2.277 2.29-6.393-2.789-9.5-1.907-1.042.296-2.007 1.2-2.375 2.22-1.185 3.278 4.08 8.255 1.313 10.374-2.244 1.719-5.029-3.469-7.844-3.219-1.082.097-2.204.811-2.75 1.75-1.893 3.255 2.79 9.566-.562 11.282-1.978 1.012-3.41-3.222-5.594-3.625-.933-.172-2.266-.202-2.781.593-.516.796.055 2.001.593 2.782 1.915 2.778 5.13 5.333 8.5 5.5 1.159.057 2.466-.619 3.094-1.594 2.158-3.35-2.768-9.8.594-11.938 2.554-1.624 5.406 3.842 8.406 3.438 1.134-.153 2.28-1.037 2.719-2.094 1.418-3.414-4.112-8.481-1.406-11 2.434-2.266 6.597 2.93 9.78 1.969 1.072-.324 2.056-1.302 2.376-2.375 1.007-3.375-4.608-7.815-2.156-10.344 1.965-2.028 5.662 2.354 8.343 1.469 1.05-.347 1.986-1.341 2.281-2.406.967-3.485-4.843-7.98-2.343-10.594 2.003-2.094 5.832 2.47 8.562 1.5 1.079-.383 2.023-1.472 2.25-2.594.694-3.425-5.489-7.285-3.25-9.969 1.684-2.017 5.37 2.03 7.813 1.063 1.06-.42 1.972-1.53 2.156-2.656.499-3.052-5.243-6.324-3.25-8.688 1.257-1.492 3.84 1.49 5.75 1.094.925-.192 2.167-.666 2.344-1.594s-.804-1.826-1.594-2.344c-2.624-1.72-6.134-1.375-9.25-1.75-.197-.023-.457.113-.594-.03" style="font-size:medium;font-style:normal;font-variant:normal;font-weight:400;font-stretch:normal;text-indent:0;text-align:start;text-decoration:none;line-height:normal;letter-spacing:normal;word-spacing:normal;text-transform:none;direction:ltr;block-progression:tb;writing-mode:lr-tb;text-anchor:start;baseline-shift:baseline;color:#000;fill:#fff;fill-opacity:1;fill-rule:nonzero;stroke:none;stroke-width:4;marker:none;visibility:visible;display:inline;overflow:visible;font-family:Sans;-inkscape-font-specification:Sans" transform="rotate(180 180 782.362)"/><path d="M133.269 246.275c.242-3.641-.265-5.782-.022-9.423 6.23-8.092 11.284-19.37 17.515-27.46 1.688-6.067 11.218-17.357 13.853-19.285 1.849.37 3.528 1.105 2.9 3.34-.627 2.236-2.717 5.974-7.082 11.628-1.86 2.185-5.438 10.114-8.473 14.984-2.956 4.742-6.22 9.288-9.467 13.836-2.991 4.188-6.15 8.254-9.225 12.38" style="fill:#ff5;fill-opacity:1;stroke:#55a;stroke-width:2;stroke-linecap:round;stroke-linejoin:round;stroke-miterlimit:4;stroke-opacity:1;stroke-dasharray:none" transform="rotate(180 180 526.181)"/><path d="m165.315 705.139-1.33-10.218 5.453-3.037 2.206 6.068z" style="fill:#ff5;fill-opacity:1;stroke:#55a;stroke-width:2;stroke-linecap:round;stroke-linejoin:round;stroke-miterlimit:4;stroke-opacity:1;stroke-dasharray:none;stroke-dashoffset:0" transform="rotate(180 180 782.362)"/><path d="M164.824 209.657s-2.412 10.154-5.096 14.528c-2.693 4.39-7.36 7.23-10.68 11.167-2.015 2.387-4.446 4.616-5.584 7.525-1.097 2.804-.037 6.119-.971 8.981-.754 2.31-3.641 6.312-3.641 6.312l-5.826-5.098.485-6.797s6.389-7.259 9.225-11.166c2.307-3.18 4.14-6.678 6.311-9.953 1.414-2.133 2.995-4.153 4.37-6.311 4.455-6.993 12.555-21.474 12.555-21.474l4.483-2.888zm-32.284-38.634.478 80.778m83.027-72.039-72.824 71.854m-9.71-72.825 4.37-3.884m-4.612 11.167 10.68-8.496m-10.68 14.807 17.235-12.38m-16.75 19.177 23.547-17.478m-23.304 25.003 24.916-19.591m-25.159 26.874 24.196-21.04m-23.71 27.109 19.63-16.954m-19.388 23.022 11.404-10.164m.976 23.758.729 6.554m3.641-12.623.485 8.254m4.613-13.594.97 8.739m4.37-14.322 1.214 7.525m2.192-18.193 2.42 14.794m.27-24.698 4.831 20.314" style="fill:#f55;fill-opacity:1;stroke:#55a;stroke-width:2;stroke-linecap:round;stroke-linejoin:round;stroke-miterlimit:4;stroke-opacity:1;stroke-dasharray:none;stroke-dashoffset:0" transform="rotate(180 180 526.181)"/><path d="m171.648 704.832 5.558 24.662" style="fill:#f55;fill-opacity:1;stroke:#55a;stroke-width:2;stroke-linecap:round;stroke-linejoin:round;stroke-miterlimit:4;stroke-opacity:1;stroke-dasharray:none;stroke-dashoffset:0" transform="rotate(180 180 782.362)"/><path d="m176.235 186.074 4.855 26.702m1.456-26.702 3.642 20.876m1.456-21.119 3.398 16.264m2.185-16.507 2.913 12.38m3.158-13.836 1.93 9.725m2.195-10.453 1.213 5.826m3.884-7.283.723 4.129" style="fill:#f55;fill-opacity:1;stroke:#55a;stroke-width:2;stroke-linecap:round;stroke-linejoin:round;stroke-miterlimit:4;stroke-opacity:1;stroke-dasharray:none;stroke-dashoffset:0" transform="rotate(180 180 526.181)"/><path d="M303.827 695.512c-1.14-1.838 2.08-5.635 2.093-8.578.018-3.756-2.897-7.23-2.57-10.972.202-2.289 1.982-4.158 2.716-6.335.584-1.733 1.76-3.544 1.333-5.322-.454-1.896-1.89-4.305-3.836-4.413-1.715-.095-2.743 2.129-3.79 3.492-2.428 3.164-4.3 6.812-5.557 10.598-1.365 4.114-2.069 5.817-2.043 8.841.032 3.772.26 5.92 2.736 10.981-.133 2.287-.688 4.588-.4 6.86.217 1.701.485 3.574 1.575 4.897 1.227 1.49 3.19 2.365 5.071 2.799 3.3.759 7.112.874 10.144-.525" style="fill:none;stroke:#55a;stroke-width:2;stroke-linecap:round;stroke-linejoin:round;stroke-miterlimit:4;stroke-opacity:1;stroke-dasharray:none;stroke-dashoffset:0" transform="rotate(180 180 782.362)"/><path d="M297.232 667.7c.96.905 1.583 2.48 2.881 2.717.95.173 1.935-.492 2.67-1.116.853-.726 1.281-1.848 1.78-2.851.566-1.138.96-2.782 1.36-3.561m8.999 19.921c.184-.447.458-.867.551-1.341.13-.658.172-1.364 0-2.012-.237-.895-.63-1.867-1.378-2.413-.872-.637-2.096-.793-3.168-.671-1.158.132-2.33.667-3.17 1.475-.579.557-1.025 1.345-1.101 2.146-.062.649.125 1.383.55 1.877.629.727 1.683.989 2.618 1.207 1.656.386 3.4.227 5.098.134 2.141-.117 4.362-.129 6.375-.869 1.79-.658 3.457-1.765 4.822-3.084.822-.795 1.78-1.697 1.929-2.816.199-1.5-.172-3.414-1.516-4.291-.795-.519-1.965-.071-2.936.037-2.44.273-4.772 1.098-7.18 1.532-2.074.373-4.231.33-6.254.92-2.045.596-3.929 1.765-5.833 2.611" style="fill:none;stroke:#55a;stroke-width:2;stroke-linecap:round;stroke-linejoin:round;stroke-miterlimit:4;stroke-opacity:1;stroke-dasharray:none;stroke-dashoffset:0" transform="rotate(180 180 782.362)"/><path d="M325.52 679.393c1.001.939 2.423 1.499 3.004 2.817.41.93.47 2.149.13 3.114-.536 1.526-1.942 2.479-3.134 3.41-1.428 1.115-3.045 1.945-4.703 2.52-1.643.57-3.383.716-5.094.89-1.692.172-3.41.399-5.094.148-.765-.114-1.608-.21-2.221-.741-.528-.458-.969-1.178-1.045-1.928-.079-.776.257-1.584.653-2.224.606-.979 1.465-1.909 2.482-2.224.933-.288 1.96.086 2.874.445.811.32 1.745.67 2.22 1.483.365.623.318 1.479.262 2.224-.063.825-.436 1.581-.654 2.372" style="fill:none;stroke:#55a;stroke-width:1.99999988;stroke-linecap:round;stroke-linejoin:round;stroke-miterlimit:4;stroke-opacity:1;stroke-dasharray:none;stroke-dashoffset:0" transform="rotate(180 180 782.362)"/><path d="M326.429 689.03c.682 1.137 1.77 2.088 2.048 3.41.317 1.506.24 3.31-.546 4.597-.903 1.475-2.69 2.093-4.233 2.669-1.91.712-3.99.74-6.007.89-1.725.126-3.5.413-5.187 0-1.033-.254-2.094-.699-2.867-1.483-.61-.62-1.187-1.467-1.229-2.373-.04-.862.392-1.764.956-2.372.738-.795 1.84-1.156 2.867-1.334 1.037-.181 2.207-.228 3.14.296.688.387 1.197 1.154 1.501 1.928.342.868.45 1.892.273 2.817-.169.888-.819 1.581-1.228 2.372" style="fill:none;stroke:#55a;stroke-width:1.99999988;stroke-linecap:round;stroke-linejoin:round;stroke-miterlimit:4;stroke-opacity:1;stroke-dasharray:none;stroke-dashoffset:0" transform="rotate(180 180 782.362)"/><path d="M325.306 699.557c.922.445 2.514.82 2.91 1.928.4 1.116-.398 2.404-1.018 3.41-.877 1.421-2.125 2.745-3.638 3.41-1.25.55-2.713.318-4.074.297-1.901-.03-3.837-.095-5.674-.593-1.385-.376-3.059-.62-3.929-1.78-.387-.516-.451-1.298-.291-1.927.278-1.09 1.089-2.09 2.037-2.669 1.224-.748 2.905-1.309 4.22-.741 1.189.513 1.84 1.993 2.182 3.262a3.78 3.78 0 0 1-.145 2.372c-.31.74-1.067 1.186-1.601 1.78" style="fill:none;stroke:#55a;stroke-width:1.99999988;stroke-linecap:round;stroke-linejoin:round;stroke-miterlimit:4;stroke-opacity:1;stroke-dasharray:none;stroke-dashoffset:0" transform="rotate(180 180 782.362)"/><path d="m111.793 176.748.712 63.152s-4.556-13.944-7.795-20.498c-3.023-6.116-10.779-17.4-10.779-17.4s6.297-8.01 9.24-12.165c3.018-4.264 8.622-13.089 8.622-13.089" style="fill:#f55;fill-opacity:1;stroke:#55a;stroke-width:2;stroke-linecap:round;stroke-linejoin:round;stroke-miterlimit:4;stroke-opacity:1;stroke-dasharray:none;stroke-dashoffset:0" transform="rotate(180 180 526.181)"/><path d="m329 51.553-16.194 14.952.2 23.326s5.015 1.192 7.575 1.396c2.798.222 8.419-.2 8.419-.2z" style="fill:#000;fill-opacity:1;stroke:none" transform="rotate(180 180 526.181)"/><path d="m330 43.584-23.175 20.13v25.718l5.781.798.4-23.725L330 52.35z" style="fill:#ff5;fill-opacity:1;stroke:#55a;stroke-width:2;stroke-linecap:round;stroke-linejoin:round;stroke-miterlimit:4;stroke-opacity:1;stroke-dasharray:none;stroke-dashoffset:0" transform="rotate(180 180 526.181)"/><path d="M330 91.227c-5.117-.2-11.001-.494-16.422-1.382-6.07-.994-12.11-2.375-17.918-4.4-5.868-2.046-11.456-4.862-16.946-7.775-3.846-2.041-7.443-4.52-11.164-6.779 2.458 5.383 4.192 11.16 7.376 16.149 3.905 6.118 8.436 12.077 14.155 16.547 5.854 4.576 12.897 7.592 19.937 9.969 5.063 1.71 10.452 2.287 15.75 2.99 1.734.23 3.57.266 5.232.399v-5.782c-3.92-.163-8.31-.544-12.359-1.446-5.487-1.222-10.902-2.963-16-5.332-3.814-1.773-7.524-3.9-10.766-6.58-2.557-2.114-4.674-4.735-6.694-7.367-1.406-1.833-3.005-3.474-3.748-5.83 2.593 1.205 5.783 2.991 8.772 4.274 3.491 1.498 7.04 2.893 10.678 3.987 3.507 1.054 7.103 1.805 10.704 2.468a114 114 0 0 0 9.719 1.345c3.221.31 6.504.261 9.694.527z" style="fill:#ff5;fill-opacity:1;stroke:#55a;stroke-width:2;stroke-linecap:round;stroke-linejoin:round;stroke-miterlimit:4;stroke-opacity:1;stroke-dasharray:none;stroke-dashoffset:0" transform="rotate(180 180 526.181)"/><path d="M293.023 94.024a.827 1.045 0 1 1-1.654 0 .827 1.045 0 1 1 1.654 0" style="fill:#ff5;fill-opacity:1;stroke:none" transform="matrix(-1.81376 0 0 -1.4359 596.757 1092.845)"/><path d="M301.554 97.68a1.959 2.002 0 1 1-3.918 0 1.959 2.002 0 1 1 3.918 0" style="fill:#ff5;fill-opacity:1;stroke:none" transform="matrix(-1.27635 0 0 -1.2486 441.469 1076.273)"/><path d="M312.784 101.424a2.699 2.873 0 1 1-5.398 0 2.699 2.873 0 1 1 5.398 0" style="fill:#ff5;fill-opacity:1;stroke:none" transform="matrix(-1.29694 0 0 -1.21834 450.927 1074.525)"/><path d="M326.19 104.035a3.09 3.134 0 1 1-6.18 0 3.09 3.134 0 1 1 6.18 0" style="fill:#ff5;fill-opacity:1;stroke:none" transform="matrix(-1.45612 0 0 -1.4359 508.052 1098.032)"/><path d="M306.884 113.261v50.205l5.48-1.768v-46.492z" style="fill:#ff5;fill-opacity:1;stroke:#55a;stroke-width:2;stroke-linecap:round;stroke-linejoin:round;stroke-miterlimit:4;stroke-opacity:1;stroke-dasharray:none" transform="rotate(180 180 526.181)"/><path d="m306.53 197.23 4.774-1.945 2.298.884-.354 174.479 16.617 10.253L330 390l-23.646-14.933z" style="fill:#ff5;fill-opacity:1;stroke:#55a;stroke-width:2;stroke-linecap:round;stroke-linejoin:round;stroke-miterlimit:4;stroke-opacity:1;stroke-dasharray:none;stroke-dashoffset:0" transform="rotate(180 180 526.181)"/><path d="M294.156 186.447c-3.889 5.067-8.3 9.774-11.667 15.202-3.528 5.689-6.437 11.784-8.839 18.032-2.463 6.406-4.392 13.052-5.657 19.799-1.177 6.281-1.846 12.7-1.767 19.091.075 6.052 1.137 12.06 2.121 18.032.921 5.587 1.925 11.188 3.536 16.617 1.4 4.72 3.29 9.294 5.303 13.788 1.896 4.233 4.243 8.25 6.364 12.375l7.424-6.718c-3.3-6.482-7.366-12.627-9.899-19.445-2.24-6.029-3.609-12.384-4.596-18.739-1.07-6.886-1.742-13.898-1.414-20.86.275-5.844 1.477-11.63 2.828-17.323 1.454-6.13 3.19-12.236 5.657-18.032 2.21-5.192 5.06-10.114 8.132-14.849 2.013-3.104 4.478-5.892 6.717-8.839-1.178-.942-2.793-1.514-3.535-2.828-.878-1.553-.472-3.536-.708-5.303" style="fill:#55a;fill-opacity:1;stroke:none" transform="rotate(180 180 526.181)"/><path d="M296.601 156.167c-1.475-1.136-4.951-2.27-6.427-3.406-3.52 4.087-7.072 8.145-10.558 12.26-2.293 2.707-4.604 5.399-6.812 8.175-2.572 3.234-5.125 6.49-7.492 9.876-2.166 3.098-4.239 6.265-6.13 9.537-1.857 3.208-3.495 6.54-5.11 9.877-1.682 3.475-3.345 6.967-4.768 10.557-1.547 3.906-3.049 7.85-4.087 11.92-1.166 4.576-1.837 9.274-2.384 13.965-.65 5.577-1.077 11.197-1.063 16.812.014 5.193.525 10.378 1.063 15.543.678 6.499 1.264 13.044 2.725 19.413 1.573 6.858 3.948 13.525 6.471 20.094a168 168 0 0 0 7.493 16.688c1.749 3.392 3.86 6.585 5.79 9.877l7.152-7.152c-3.633-6.244-7.99-12.12-10.899-18.732-2.92-6.64-4.792-13.719-6.47-20.775-1.759-7.39-3.182-14.904-3.747-22.479-.524-7.02-.246-14.1.34-21.116.541-6.469 1.295-12.97 2.925-19.254 1.747-6.74 4.39-13.244 7.293-19.572 2.648-5.772 5.898-11.26 9.195-16.688 2.763-4.548 5.465-9.181 8.856-13.283 3.694-4.47 8.428-8.456 12.401-12.202.909-3.633 3.335-6.302 4.243-9.935" style="fill:#55a;fill-opacity:1;stroke:none" transform="rotate(180 180 526.181)"/><path d="m270.689 139.988 26.082 16.617" style="fill:none;stroke:#55a;stroke-width:2;stroke-linecap:round;stroke-linejoin:round;stroke-miterlimit:4;stroke-opacity:1;stroke-dasharray:none" transform="rotate(180 180 526.181)"/><path d="m227.34 198.268 53.463-51.778 9.633 7.466s-10.5 10.75-15.172 16.617c-5.715 7.176-11.045 14.704-15.653 22.637-2.237 3.85-3.99 7.965-5.78 12.042-2.087 4.749-5.78 14.45-5.78 14.45z" style="fill:#55a;fill-opacity:1;stroke:#55a;stroke-width:2;stroke-linecap:round;stroke-linejoin:round;stroke-miterlimit:4;stroke-opacity:1;stroke-dasharray:none;stroke-dashoffset:0" transform="rotate(180 180 526.181)"/><path d="M276.375 663.83c-.946.373-1.644 1.417-1.875 2.407-.716 3.066 4.29 7.194 1.906 9.25-1.93 1.666-4.672-3.048-7.187-2.625-1.14.192-2.27 1.111-2.688 2.188-1.11 2.856 3.842 7.32 1.344 9.093-2.032 1.444-4.18-2.98-6.625-3.468-.705-.141-1.578-.25-2.147.19-.569.439-.686 1.311-.728 2.028-.205 3.534 5.175 8.139 2.406 10.344-2.321 1.849-5.075-3.404-8-3.906-.698-.12-1.558-.2-2.112.243-.553.442-.661 1.3-.7 2.007-.214 3.896 5.705 9.011 2.625 11.406-2.858 2.222-6.1-4.298-9.656-4.969-.711-.133-1.595-.23-2.159.223s-.62 1.338-.685 2.059c-.507 5.54 7.327 14.12 2.312 16.53-4.004 1.926-4.885-8.463-9.156-9.687-.91-.26-2.271-.099-2.75.719s.2 1.957.719 2.75c3.566 5.45 9.127 10.154 15.344 12.094.702.219 1.615.305 2.202-.138s.704-1.346.735-2.08c.243-5.8-8.937-13.218-4.406-16.845 2.782-2.227 6.003 4.219 9.5 4.907.705.138 1.578.249 2.147-.19.569-.44.686-1.312.728-2.03.23-3.95-5.785-9.1-2.688-11.562 2.334-1.855 5.097 3.413 8.031 3.938.706.126 1.577.226 2.14-.219.561-.445.667-1.315.704-2.031.183-3.482-5.129-8.05-2.375-10.188 1.855-1.44 3.952 2.77 6.25 3.25.682.143 1.517.262 2.085-.14.568-.404.732-1.231.821-1.922.418-3.238-3.968-7.625-1.437-9.688 2.046-1.667 4.842 3.198 7.438 2.72 1.14-.211 2.253-1.184 2.625-2.282 1.012-2.992-4.294-7.213-1.907-9.281 2.326-2.016 5.611 3.202 8.688 3.125.985-.025 2.395-.211 2.728-1.139.332-.927-.64-1.965-1.385-2.611-3.22-2.796-7.902-3.279-12.03-4.344-.256-.066-.537-.222-.782-.125" style="font-size:medium;font-style:normal;font-variant:normal;font-weight:400;font-stretch:normal;text-indent:0;text-align:start;text-decoration:none;line-height:normal;letter-spacing:normal;word-spacing:normal;text-transform:none;direction:ltr;block-progression:tb;writing-mode:lr-tb;text-anchor:start;baseline-shift:baseline;color:#000;fill:#fff;fill-opacity:1;stroke:none;stroke-width:4;marker:none;visibility:visible;display:inline;overflow:visible;font-family:Sans;-inkscape-font-specification:Sans" transform="rotate(180 180 782.362)"/><path d="m166.77 704.237 5.212-5.088 1.928 7.515-5.694 6.07zm-10.417-3.974 6.54-4.736 1.493 7.304-6.105 6.29z" style="fill:#f55;fill-opacity:1;stroke:#55a;stroke-width:2;stroke-linecap:round;stroke-linejoin:round;stroke-miterlimit:4;stroke-opacity:1;stroke-dasharray:none;stroke-dashoffset:0" transform="rotate(180 180 782.362)"/><path d="m150.5 273 62-5.5s3.048 5.341 4.836 7.836c2.183 3.046 4.5 6.029 7.164 8.664 2.52 2.492 5.338 4.69 8.268 6.682 2.552 1.736 5.374 3.04 8.06 4.56l6.172 3.5s-2.867-10.918-3.755-16.482c-.803-5.026-1.115-10.123-1.414-15.203-.278-4.708-.547-9.43-.354-14.142.271-6.632.898-13.276 2.121-19.8.833-4.439 3.536-13.08 3.536-13.08l-19.86-21.275z" style="fill:#000;fill-opacity:1;stroke:#000;stroke-width:2;stroke-linecap:round;stroke-linejoin:round;stroke-miterlimit:4;stroke-opacity:1;stroke-dasharray:none;stroke-dashoffset:0" transform="rotate(180 180 526.181)"/><path d="m221.094 718.3-4.062 4 8.437.062-1.562 1.469h-.626l-7.78.156-3.938 4 8-.094-2.313 2.156-6.719-.812-4.5 3.969 7.438.406-1.344 1.281-7.5.219-3.875 4 6.969-.094-1.25 1.188h-6.875l-4.031 4h6.625l-2.125 2-5.656-.625-4.438 3.968 9.375.594.361 13.696 4-3.969-.361-11.258 2.094-2 .156 11.406 4-4.062-.219-11.032 1.875-1.75.344 11.5 4-4.187-.5-10.938 1.531-1.437.344 10.875 4-4.188-.5-10.28 1.188-1.126.406 9.938 4-4.25-.625-9.25 2.5-2.344.281 10.562 3.969-4.156-.438-11.531-.062-1.906-1.906-.032zm13.922 15.497-4.062 4 8.437.063-1.562 1.469h-.625l-7.781.156-3.938 4 8-.094-2.312 2.156-6.72-.812-4.5 3.969 7.438.406-1.343 1.281-7.5.219-3.875 4 6.968-.094-1.25 1.188h-6.875l-4.031 4h6.625l-2.125 2-5.656-.625-4.438 3.968 9.375.594.467 13.378 4-3.968-.467-10.941 2.094-2 .156 11.406 4-4.062-.218-11.032 1.875-1.75.343 11.5 4-4.187-.5-10.938 1.532-1.437.343 10.875 4-4.188-.5-10.28 1.188-1.126.406 9.938 4-4.25-.625-9.25 2.5-2.344.281 10.562 1.428-7.862 2.104-7.825-.063-1.906-1.906-.032zm3.633 24.926-4.5 3.969 5.955.406-.39 1.493-6.971.007-3.875 4 6.969-.094-1.25 1.188h-6.875l-4.032 4h6.625l-2.125 2-5.656-.625-4.437 3.969 9.375.593.466 13.379 4-3.969-.466-10.94 2.093-2 .156 11.405 4-4.062-.218-11.031 1.875-1.75.344 11.5 1.035-2.282-.077-11.679.472-9.132z" style="font-size:medium;font-style:normal;font-variant:normal;font-weight:400;font-stretch:normal;text-indent:0;text-align:start;text-decoration:none;line-height:normal;letter-spacing:normal;word-spacing:normal;text-transform:none;direction:ltr;block-progression:tb;writing-mode:lr-tb;text-anchor:start;baseline-shift:baseline;color:#000;fill:#ff5;fill-opacity:1;stroke:none;stroke-width:4;marker:none;visibility:visible;display:inline;overflow:visible;font-family:Sans;-inkscape-font-specification:Sans" transform="rotate(180 180 782.362)"/><path d="M324.688 575.425c-.555-.013-1.042.427-1.47.78-2.921 2.42-5.794 5.323-7.124 8.876a3.9 3.9 0 0 0-.094 2.344c.978 3.54 3.023 7.112 6.031 9.218.791.554 2.012 1.19 2.82.661s.714-1.902.524-2.848c-.63-3.136-5.405-4.837-5.25-8.031.16-3.294 4.912-4.678 6.188-7.72.281-.671.58-1.517.258-2.17-.324-.653-1.155-1.094-1.883-1.11m-6.969 55.75c-.94.6-1.464 1.919-1.406 3.03.237 4.615 7.483 7.304 7.093 11.907-.314 3.71-5.896 5.031-7.25 8.5a3.87 3.87 0 0 0-.093 2.469c1.108 3.637 3.478 7.228 6.718 9.219.805.494 2.031 1.005 2.797.453s.673-1.878.453-2.797c-.765-3.198-5.935-4.683-5.812-7.969.137-3.663 5.699-4.998 7.125-8.375a3.9 3.9 0 0 0 .219-2.312c-1.118-4.968-4.073-9.67-7.813-13.125-.554-.512-1.296-.83-2.031-1m4.219 79.125c-.67.18-1.465.44-1.794 1.05-.33.609-.109 1.416.106 2.075.75 2.296 3.877 3.649 3.969 6.062.18 4.743-5.613 7.894-6.875 12.469a3.9 3.9 0 0 0-.063 1.812c.931 4.514 6.21 7.902 5.906 12.5-.291 4.406-5.807 6.932-7.187 11.125a3.94 3.94 0 0 0-.125 2c1.152 5.523 7.722 9.421 7.719 15.063-.003 5.106-5.757 8.673-7 13.625a3.95 3.95 0 0 0-.031 1.781c1.155 5.304 7.226 9.263 7.03 14.688-.168 4.685-5.73 7.696-6.968 12.218a3.94 3.94 0 0 0-.031 1.907c1.154 4.96 7.047 8.502 6.969 13.593-.074 4.783-5.705 7.94-6.938 12.563a3.9 3.9 0 0 0-.031 1.875c1.145 4.819 7.143 8.209 6.906 13.156-.197 4.127-5.406 6.48-6.781 10.375a4 4 0 0 0-.188 1.875c.495 3.408 1.547 7.055 3.907 9.563.677.72 1.756 1.658 2.671 1.285.916-.372 1.034-1.797 1.016-2.785-.057-3.093-3.798-5.515-3.5-8.594.403-4.164 5.587-6.52 6.875-10.5.209-.645.24-1.37.094-2.031-1.079-4.868-6.996-8.265-6.938-13.25.056-4.774 5.705-7.919 6.938-12.532a3.9 3.9 0 0 0 .031-1.875c-1.154-4.96-7.075-8.502-6.969-13.593.098-4.669 5.64-7.693 6.907-12.188a3.94 3.94 0 0 0 .062-1.844c-1.106-5.319-7.078-9.286-7-14.718.074-5.124 5.8-8.706 7-13.688a3.9 3.9 0 0 0 0-1.812c-1.313-5.44-7.936-9.35-7.656-14.938.22-4.41 5.803-6.933 7.187-11.125a3.9 3.9 0 0 0 .125-1.937c-.868-4.55-6.08-7.933-5.937-12.563.148-4.79 5.814-7.934 6.937-12.594a3.93 3.93 0 0 0-.062-2.062c-.845-2.693-2.568-5.161-4.625-7.094a3.9 3.9 0 0 0-1.656-.937" style="font-size:medium;font-style:normal;font-variant:normal;font-weight:400;font-stretch:normal;text-indent:0;text-align:start;text-decoration:none;line-height:normal;letter-spacing:normal;word-spacing:normal;text-transform:none;direction:ltr;block-progression:tb;writing-mode:lr-tb;text-anchor:start;baseline-shift:baseline;color:#000;fill:#ff5;fill-opacity:1;fill-rule:nonzero;stroke:none;stroke-width:4;marker:none;visibility:visible;display:inline;overflow:visible;font-family:Sans;-inkscape-font-specification:Sans" transform="rotate(180 180 782.362)"/><path d="M112.5 240.25c3.167 1.25 6.55 2.051 9.5 3.75 3.959 2.28 7.382 5.413 10.75 8.5a81 81 0 0 1 8.25 8.75c2.862 3.542 5.167 7.5 7.75 11.25" style="fill:none;stroke:#000;stroke-width:2;stroke-linecap:round;stroke-linejoin:round;stroke-miterlimit:4;stroke-opacity:1;stroke-dasharray:none;stroke-dashoffset:0" transform="rotate(180 180 526.181)"/><path d="M180 767.362s3 5.167 6.5 8.5 8.5 6.5 8.5 6.5-5 3.334-8.5 6.667-6.5 8.333-6.5 8.333-3-5-6.5-8.333-8.5-6.5-8.5-6.5 5-3.5 8.5-6.833 6.5-8.334 6.5-8.334" style="fill:#ff5;stroke:none"/><path d="M180 772.362s2 3.445 4.333 5.667 5.667 4.333 5.667 4.333-3.333 2.222-5.667 4.445C182 789.029 180 792.362 180 792.362s-2-3.333-4.333-5.555c-2.334-2.223-5.667-4.334-5.667-4.334s3.333-2.333 5.667-4.555 4.333-5.556 4.333-5.556m-90-215s6 15 13 25 17 20 17 20-10 10-17 20-13 25-13 25-6-15-13-25-17-20-17-20 10-10 17-20 13-25 13-25m-60 45s3 7.5 6.5 12.5 8.5 10 8.5 10-5 5-8.5 10-6.5 12.5-6.5 12.5-3-7.5-6.5-12.5-8.5-10-8.5-10 5-5 8.5-10 6.5-12.5 6.5-12.5m240 405s-6-15-13-25-17-20-17-20 10-10 17-20 13-25 13-25 6 15 13 25 17 20 17 20-10 10-17 20-13 25-13 25m60-45s-3-7.5-6.5-12.5-8.5-10-8.5-10 5-5 8.5-10 6.5-12.5 6.5-12.5 3 7.5 6.5 12.5 8.5 10 8.5 10-5 5-8.5 10-6.5 12.5-6.5 12.5" style="fill:#f55;stroke:none"/></g></svg>