<svg xmlns="http://www.w3.org/2000/svg" width="360" height="540"><g transform="translate(0 -512.362)"><rect width="359" height="539" x=".5" y="512.862" rx="29.944" ry="29.944" style="fill:#fff;stroke:#000;stroke-width:.99999976"/><path d="m206.99 765.132-4.696-.09-1.174 10.475-1.084 13.547v18.423l.723 24.474 2.528 16.256 3.252 10.837-7.225 1.987-6.683 3.07 6.502 14.992 1.987 1.445 3.793-3.251 4.696.541 2.529-1.445 3.793-1.264 3.612.723-4.877-14.27-3.25-12.462-3.794-14.45-1.625-16.436.361-28.357zm-53.734 34.543 4.696.09 1.174-10.475 1.084-13.547V757.32l-.723-24.474-2.529-16.256-3.25-10.837 7.224-1.987 6.683-3.07-6.502-14.992-1.987-1.445-3.793 3.251-4.696-.541-2.529 1.445-3.793 1.264-3.612-.723 4.876 14.27 3.252 12.462 3.793 14.45 1.625 16.436-.361 28.357z" style="fill:#ff5;fill-opacity:1;stroke:none"/><path d="M340 1022.362v-50h-5v15l-3 7-7-22h-5l9 28-9 22h5l10-24v24zm-320-480v50h5v-15l3-7 7 22h5l-9-28 9-22h-5l-10 24v-24z" style="fill:#f55;fill-opacity:1;stroke:none"/><path d="M140.5 689.362s4.25 11.587 6 17.5c1.95 6.59 3.738 13.245 5 20a165 165 0 0 1 2.5 20c.383 6.155.081 12.334 0 18.5-.083 6.335-.206 12.671-.5 19-.233 5.006-1 15-1 15m66.765 76.319s-4.25-11.587-6-17.5c-1.95-6.59-3.738-13.245-5-20a165 165 0 0 1-2.5-20c-.383-6.155-.081-12.334 0-18.5.083-6.335.206-12.671.5-19 .232-5.006 1-15 1-15" style="fill:none;stroke:#55a;stroke-width:2;stroke-linecap:round;stroke-linejoin:round;stroke-miterlimit:4;stroke-opacity:1;stroke-dasharray:none"/><path d="m220.25 765.862-18-.25-1.07 10.709-13.555-.584.25-10.625-14.375.125-.75 10.75-12.625-.75.625-17.75v-13l47.125 1.625z" style="fill:#000;fill-opacity:1;stroke:none"/><path d="m159.302 729.88 13.714-5.68 11.497-6.372 8.727-7.757 6.788-7.342 4.294-5.54 25.073.554-6.372 11.081-5.957 12.052-5.264 13.021-3.601 12.744-47.652-1.385-.416-6.926z" style="fill:#f55;fill-opacity:1;stroke:none"/><path d="m270.845 687.62 15.763-14.407 16.101 14.915 6.61 6.61 19.661 20.508.509 29.153-11.017 7.966z" style="fill:#000;fill-opacity:1;stroke:none"/><path d="m231.333 764.856 3.319-14.043 2.809-12.767 39.066 50.3-6.894 9.448-10.214 14.299-5.362 10.213-4.596 10.469-4.596 11.235-5.106-13.788-3.83-11.746-3.575-18.64-2.043-10.468v-9.192z" style="fill:#55a;fill-opacity:1;stroke:none"/><path d="m256.355 860.096 72.515-31.917v9.447l-61.79 36.258-6.129-7.66z" style="fill:#000;fill-opacity:1;stroke:none"/><path d="m252.57 711.004 3.449-5.46 43.388 59.48-3.735 4.022z" style="fill:#ff5;fill-opacity:1;stroke:none"/><path d="m256.306 705.257 4.885-6.609 4.885-6.321 47.123 63.502 16.379-11.207v12.643l-16.379 10.057-18.677 15.23-14.941 15.228-10.632 14.942-9.77 17.527-6.896 15.23-2.873 6.895-4.885-8.907 4.598-12.068 11.78-21.263 9.483-12.93 8.62-11.494 10.344-10.057 5.747-6.321 4.885-3.736zm40.075 130.519 4.16-9.55 6.007-8.473 5.854-6.624 6.008-5.392 6.623-5.083 4.776-3.543v24.493z" style="fill:#f55;fill-opacity:1;stroke:none"/><path d="m251.664 854.771 28.819-11.83 3.037-7.629 5.03-9.205 6.014-10.603 10.423-13.304 10.176-8.467 7.995-5.019 6.141-3.65.77-24.695-3.83 1.802-11.716 7.66-14.419 10.815-12.617 11.266-11.941 14.644-9.012 13.744-8.336 16.672-6.76 16.447z" style="fill:#ff5;fill-opacity:1;stroke:none"/><path d="m251.94 855.635 76.93-33.84" style="fill:#000;fill-opacity:1;stroke:#000;stroke-width:2;stroke-linecap:round;stroke-linejoin:round;stroke-miterlimit:4;stroke-opacity:1;stroke-dasharray:none"/><path d="M132.702 62.989s-.709 6.145.598 8.767c.588 1.18 2.334 1.446 2.989 2.59.906 1.583.996 5.38.996 5.38s5.446-.283 8.17-.398c5.51-.234 11.026-.819 16.538-.598 4.008.16 8.021.605 11.955 1.395 5.42 1.087 10.732 2.726 15.94 4.582 5.24 1.869 10.121 4.653 15.342 6.576 3.785 1.394 7.615 2.73 11.557 3.586 3.599.781 7.289 1.091 10.959 1.395 3.444.285 6.906.489 10.361.399 2.934-.077 8.767-.797 8.767-.797s3.268-1.466 3.587-2.99c.334-1.598-2.088-2.752-2.192-4.383-.09-1.404 1.738-2.62 1.395-3.985-.264-1.049-2.391-2.192-2.391-2.192s-14.277-.672-21.32-1.793c-5.998-.954-11.953-2.32-17.734-4.184-5.13-1.654-9.87-4.358-14.944-6.177-4.707-1.688-9.43-3.465-14.346-4.384-5.368-1.003-10.882-.996-16.339-1.195-4.845-.177-9.713-.4-14.545 0-4.026.333-11.955 1.992-11.955 1.992z" style="fill:#f55;fill-opacity:1;stroke:#55a;stroke-width:2;stroke-linecap:round;stroke-linejoin:round;stroke-miterlimit:4;stroke-opacity:1;stroke-dasharray:none" transform="translate(0 512.362)"/><path d="M139.477 70.56s14.862-1.816 22.316-1.594c7.634.228 15.33 1.041 22.715 2.99 8.038 2.12 15.248 6.675 23.113 9.364 5.81 1.986 11.678 3.97 17.734 4.981 5.709.955 17.335.997 17.335.997" style="fill:none;stroke:#000;stroke-width:2;stroke-linecap:round;stroke-linejoin:round;stroke-miterlimit:4;stroke-opacity:1;stroke-dasharray:none;stroke-dashoffset:0" transform="translate(0 512.362)"/><path d="M141.47 75.143s13.287-.903 19.925-.598c7.085.327 14.258.797 21.12 2.59 8.127 2.125 15.399 6.752 23.313 9.565 5.623 1.998 11.27 4.085 17.136 5.18 4.321.807 8.754 1.008 13.15.997 2.466-.007 7.373-.598 7.373-.598" style="fill:none;stroke:#000;stroke-width:2;stroke-linecap:round;stroke-linejoin:round;stroke-miterlimit:4;stroke-opacity:1;stroke-dasharray:none;stroke-dashoffset:0" transform="translate(0 512.362)"/><path d="M117 542.362c9.723 17.202 9.077 19.479 18.8 36.681 10.452-3.776 29.586-2.729 44.12-.48 12.04 1.863 22.845 8.689 34.716 11.424 10.57 2.434 22.243 4.376 32.243 4.376l28.121-52z" style="fill:#ff5;fill-opacity:1;stroke:#55a;stroke-width:2;stroke-linecap:butt;stroke-linejoin:miter;stroke-miterlimit:4;stroke-opacity:1;stroke-dasharray:none;stroke-dashoffset:0"/><path d="M171.737 571.2c1.64.008 3.282-.121 4.78-.482.816-.197 1.517-.526 2.224-.9 1.183-.628 2.027-1.633 3.338-2.237-.579 2.128-2.458 3.218-4.11 4.325-1.484.996-3.215 1.627-4.998 1.94-1.918.338-3.976.357-5.895-.104-2.26-.542-4.4-1.677-6.249-3.044-1.254-.927-2.476-2.027-3.144-3.393-.359-.733-.381-1.759-.371-2.39.716 1.136 1.677 2.473 2.999 3.428 1.328.96 3.01 1.668 4.698 2.127 2.188.595 4.505.717 6.728.73" style="fill:#000;stroke:none"/><path d="M154.243 562.085c-.69-.566-.528-2.415.283-3.24.234-.238.716-.335 1.054-.218.952.33 1.571 1.338 1.629 2.21.036.55-.648.96-.837 1.485-.164.457-.247 1.42-.247 1.42 1.01 1.21 1.483 2.689 2.95 3.156 2.183.695 5.334.347 6.859-1.118 1.407-1.352 1.082-3.694.384-5.418-.473-1.168-1.512-2.374-2.884-2.812-1.244-.398-2.652.162-3.921.46 1.154-1.524 2.458-3.3 2.146-5.096-.298-1.722-1.905-3.303-3.644-4.267-.732-.406-1.696-.36-2.558-.473-1.705.31-3.56.961-4.524 2.174-.973 1.221-.842 2.919-.685 4.397.12 1.132.727 2.2 1.23 3.261-1.01-.571-2.286-.887-3.435-.702-2.174.35-4.745 1.46-5.362 3.243-.595 1.717.726 3.846 2.332 5.057 1.485 1.12 3.848 1.754 5.76 1.294 1.603-.386 2.24-1.954 3.492-3.092z" style="fill:#000;stroke:none"/><path d="M141.219 571.252c-1.308.009-2.622-.012-3.815-.482-1.241-.49-2.118-1.63-3.246-2.344-.84-.533-1.54-1.49-2.616-1.443.462 2.127 2.864 3.625 4.704 4.976 1.192.874 2.565 1.626 3.988 1.94 1.53.337 3.173.356 4.704-.104 1.804-.543 3.511-1.678 4.986-3.044 1.001-.928 1.813-2.171 2.51-3.394.63-1.107 1.492-2.89 1.484-3.521-1.477.117-2.116 3.299-3.581 4.56a11.5 11.5 0 0 1-3.75 2.126c-1.745.596-3.595.717-5.369.73" style="fill:#000;stroke:none"/><path d="M131.161 565.082c.06-.681.54-.673.534-1.503-.005-.825-1.218-1.403-2.022-1.354-.286.017-.712 1.149-.795 1.43l-4.436-9.462a9 9 0 0 1 1.078-1.01c.657-.206 1.31-.606 1.987-.512 1.61.225 3.388 1.03 4.27 2.422.921 1.453.685 3.455.458 5.188.786-.706 1.56-1.678 2.598-1.771 1.146-.104 2.354.573 3.144 1.422 1.167 1.252 2.318 3.19 1.845 4.861-.513 1.813-2.623 3.023-4.433 3.374-1.346.26-2.762-.421-3.95-1.117m51.153-1.183c-.585-.673-.116-2.47.822-3.146.27-.196.762-.211 1.076-.039.883.485 1.324 1.582 1.235 2.452-.057.548-.8.837-1.074 1.323-.239.423-.482 1.358-.482 1.358.793 1.363 1.011 2.9 2.38 3.607 2.036 1.05 5.2 1.236 6.95.047 1.613-1.096 1.685-3.46 1.286-5.277-.27-1.23-1.092-2.593-2.372-3.256-1.16-.6-2.642-.284-3.943-.204 1.394-1.308 2.977-2.84 2.97-4.663-.006-1.748-1.324-3.576-2.877-4.818-.653-.522-1.612-.64-2.443-.894-1.732.018-3.67.35-4.824 1.384-1.164 1.041-1.32 2.737-1.412 4.22-.071 1.136.348 2.291.665 3.421-.9-.732-2.104-1.258-3.268-1.267-2.202-.019-4.922.644-5.83 2.298-.875 1.593.071 3.913 1.452 5.376 1.276 1.353 3.5 2.375 5.46 2.241 1.647-.112 2.537-1.55 3.962-2.462z" style="fill:#000;stroke:none"/><path d="M195.609 576.71c1.415.322 2.932.388 4.354.094 1.25-.258 2.347-1.01 3.483-1.593 1.29-.662 2.46-1.951 3.778-2.158-1.069 1.876-3.633 4.885-6.288 6.103-1.5.688-3.27.648-4.929.443-1.785-.22-3.61-.786-5.187-1.772-1.857-1.161-3.453-2.857-4.73-4.691-.868-1.245-1.661-2.647-1.895-4.146-.125-.805.123-1.795.297-2.397.337 1.292.837 2.847 1.756 4.137.925 1.298 2.227 2.454 3.6 3.373 1.78 1.191 3.705 2.141 5.76 2.608" style="fill:#000;stroke:none"/><path d="M209.981 571.768c.809-.313 1.337-2.08.924-3.096-.12-.294-.506-.534-.845-.53-.954.013-1.861.758-2.227 1.55-.23.5.221 1.09.197 1.637-.022.476-.297 1.395-.297 1.395-1.323.812-2.273 2.04-3.728 2.02-2.165-.03-4.8-1.327-5.607-3.159-.745-1.69.388-3.765 1.623-5.15.837-.939 2.183-1.738 3.545-1.72 1.234.015 2.266.97 3.27 1.638-.46-1.772-.96-3.823-.038-5.396.885-1.507 2.865-2.478 4.738-2.836.788-.15 1.617.19 2.413.352 1.383.814 2.772 1.993 3.18 3.417.41 1.435-.32 2.971-.992 4.295-.514 1.014-1.432 1.819-2.256 2.65 1.091-.22 2.358-.21 3.263.409 1.462.999 2.647 2.902 2.532 4.67-.106 1.632-1.384 3.308-2.878 3.975-1.688.754-4.008.44-5.516-.578-1.266-.855-1.257-2.508-1.943-3.952z" style="fill:#000;stroke:none"/><path d="M220.768 582.786c1.391.253 2.867.245 4.233-.117 1.201-.318 2.265-1.069 3.303-1.76 1.133-.752 1.892-2.307 3.162-2.577-.945 1.926-2.92 5.235-5.403 6.64-1.396.79-3.143.804-4.764.68-1.744-.135-3.545-.612-5.126-1.52-1.86-1.071-3.494-2.687-4.826-4.458-.903-1.202-1.743-2.563-2.044-4.05-.162-.798.03-1.798.17-2.407.39 1.274.953 2.802 1.91 4.047.962 1.251 2.283 2.343 3.662 3.195 1.787 1.104 3.704 1.96 5.723 2.327" style="fill:#000;stroke:none"/><path d="M233.758 577.244c.727-.397 1.044-2.21.554-3.177-.142-.28-.53-.476-.847-.435-.893.114-1.67.952-1.933 1.779-.166.521.318 1.06.35 1.607.028.474-.137 1.418-.137 1.418-1.16.95-1.937 2.308-3.294 2.408-1.866.137-4.061-.979-4.968-2.616-.845-1.526-.492-3.714.39-5.219.637-1.088 1.872-1.961 3.152-2.09 1.16-.117 2.224.723 3.234 1.279-.61-1.712-1.288-3.698-.581-5.36.678-1.594 2.437-2.772 4.158-3.329.725-.234 1.537.016 2.3.092 1.38.66 2.803 1.684 3.33 3.057.53 1.383.001 2.988-.496 4.376-.38 1.064-1.16 1.962-1.85 2.876 1.002-.334 1.883-.976 2.901-.957 1.182.022 2.799.176 3.323 1.235 1.11 2.245-.098 5.807-2.188 7.187-1.336.882-3.264.011-4.774-.52-1.144-.403-2.276-.597-3.066-1.96z" style="fill:#000;stroke:none"/><path d="M241.16 585.66c-1.235-.104-2.535-.422-3.52-1.169-1.054-.797-1.442-2.216-2.224-3.28-.595-.813-.884-1.794-1.877-2.37.276 2.086.817 5.594 2.59 7.597.937 1.058 2.421 1.558 3.815 1.843 1.5.307 3.14.298 4.71-.18 1.848-.564 3.653-1.71 5.246-3.078 1.082-.93 2.152-2.028 2.804-3.38.35-.727.457-1.736.504-2.356-.67 1.126-1.553 2.454-2.69 3.411-1.143.963-2.545 1.682-3.931 2.156-1.796.614-3.635.958-5.428.806" style="fill:#000;stroke:none"/><path d="M253.653 578.294c.195-.718.012-.823.28-1.68.264-.851.906-1.16 1.193-.919.102.086-.1 1.357-.158 1.667l4.691-8.724a13 13 0 0 0-.083-1.299c-.181-.37-.299-.938-.584-1.002-.678-.15-1.604.26-2.38 1.489-.811 1.282-1.361 3.407-1.83 5.251-.07-.916-.815-.665-1.303-.664-1.086.002-2.202.658-2.897 1.493-1.088 1.307-1.954 3.25-1.477 4.883.243.83 1.144 1.436 1.972 1.688.592.18 1.174.222 1.843-.215" style="fill:#000;stroke:none"/><path d="M133.83 60.952s6.61 2.206 10.004 2.001c4.262-.257 12.167-4.002 12.167-4.002s8.314 3.98 12.806 4.322c4.322.33 12.807-2.24 12.807-2.24s6.803 6.106 11.046 7.363c4.221 1.25 13.207-.16 13.207-.16s5.578 6.945 9.605 8.084C220.508 77.744 231 73.999 231 73.999s7.22 5.046 11.365 5.042c2.425-.002 6.644-2.961 6.644-2.961l-2.722 5.004c-5.713-.182-9.991-.508-15.848-1.407-5.852-.9-11.74-1.75-17.449-3.324-5.399-1.488-10.513-3.864-15.785-5.754-4.228-1.517-8.357-3.37-12.71-4.483-3.286-.84-6.68-1.196-10.044-1.634-2.868-.373-5.749-.67-8.635-.847-4.392-.27-8.797-.398-13.197-.328a89 89 0 0 0-8.696.56c-2.595.293-7.557 1.706-7.557 1.706z" style="fill:#000;fill-opacity:1;stroke:none" transform="translate(0 512.362)"/><path d="M163.962 684.764c2.399.247 5.29-.655 7.935-3.199l6.434-8.182 4.185-4.582 3.785 3.387 6.177 2.192-4.782 9.165-8.368 8.568-8.568 6.376-3.597 2.79-2.58-5.779-1.99-4.903-1.397-4.063z" style="fill:#f55;fill-opacity:1;stroke:none"/><path d="M183.512 595.874c.867 8.681 3.144 17.138 5.12 25.62 2.686 11.542 8.775 22.508 9.15 34.352.129 4.088 1.258 10.208-2.402 12.03-2.841 1.416-8.612.432-8.576-4.137.03-3.742 5.647-5.674 6.87-1.713" style="fill:none;stroke:#55a;stroke-width:2;stroke-linecap:round;stroke-linejoin:round;stroke-miterlimit:4;stroke-opacity:1;stroke-dasharray:none"/><path d="M188.692 598.066c2.241 12.558 7.243 24.448 9.969 36.89 2.044 9.334 5.603 19.276 4.776 28.265-.429 4.664-4.481 10.696-9.296 11.133-5.567.505-12.784-3.344-12.89-10.726-.067-4.674 5.666-9.81 10.43-9.771 2.865.023 4.637 3.537 6.177 5.977" style="fill:none;stroke:#55a;stroke-width:2;stroke-linecap:round;stroke-linejoin:round;stroke-miterlimit:4;stroke-opacity:1;stroke-dasharray:none;stroke-dashoffset:0"/><path d="M193.873 600.058c1.903 11.085 6.317 21.56 8.957 32.473 2.38 9.842 7.592 19.708 6.198 29.737-.534 3.844-2.694 7.509-5.392 10.318" style="fill:none;stroke:#55a;stroke-width:2;stroke-linecap:round;stroke-linejoin:round;stroke-miterlimit:4;stroke-opacity:1;stroke-dasharray:none;stroke-dashoffset:0"/><path d="M200.632 602.649c1.75 10.609 5.822 20.676 8.252 31.134 2.195 9.441 7.005 18.906 5.711 28.512-.492 3.657-2.453 7.17-4.968 9.893" style="fill:none;stroke:#55a;stroke-width:1.99999976;stroke-linecap:round;stroke-linejoin:round;stroke-miterlimit:4;stroke-opacity:1;stroke-dasharray:none;stroke-dashoffset:0"/><path d="M206.188 604.74c1.753 10.348 5.821 20.14 8.253 30.332 2.194 9.195 6.998 18.413 5.711 27.777-.492 3.58-2.472 7.004-4.968 9.638" style="fill:none;stroke:#55a;stroke-width:1.99999988;stroke-linecap:round;stroke-linejoin:round;stroke-miterlimit:4;stroke-opacity:1;stroke-dasharray:none;stroke-dashoffset:0"/><path d="M212.166 607.43c1.754 10 5.82 19.424 8.253 29.262 2.192 8.865 6.988 17.753 5.71 26.796-.491 3.48-2.498 6.78-4.967 9.298" style="fill:none;stroke:#55a;stroke-width:1.99999988;stroke-linecap:round;stroke-linejoin:round;stroke-miterlimit:4;stroke-opacity:1;stroke-dasharray:none;stroke-dashoffset:0"/><path d="M217.952 607.43c1.754 10 5.82 19.424 8.253 29.262 2.192 8.865 6.988 17.753 5.71 26.796-.491 3.48-2.498 6.78-4.968 9.298" style="fill:none;stroke:#55a;stroke-width:1.99999988;stroke-linecap:round;stroke-linejoin:round;stroke-miterlimit:4;stroke-opacity:1;stroke-dasharray:none;stroke-dashoffset:0"/><path d="M223.53 608.825c1.757 9.796 5.82 19.006 8.254 28.637 2.191 8.674 6.983 17.37 5.71 26.225-.49 3.42-2.515 6.65-4.968 9.099" style="fill:none;stroke:#55a;stroke-width:1.99999988;stroke-linecap:round;stroke-linejoin:round;stroke-miterlimit:4;stroke-opacity:1;stroke-dasharray:none;stroke-dashoffset:0"/><path d="M229.31 609.921c1.756 9.622 5.794 18.653 8.252 28.102 2.175 8.364 6.888 16.717 5.74 25.283-.47 3.511-2.454 6.891-4.997 9.38" style="fill:none;stroke:#55a;stroke-width:1.99999988;stroke-linecap:round;stroke-linejoin:round;stroke-miterlimit:4;stroke-opacity:1;stroke-dasharray:none;stroke-dashoffset:0"/><path d="M234.49 609.722c1.757 9.622 5.795 18.653 8.252 28.101 2.176 8.364 6.888 16.718 5.74 25.284-.47 3.511-2.453 6.891-4.997 9.38" style="fill:none;stroke:#55a;stroke-width:1.99999988;stroke-linecap:round;stroke-linejoin:round;stroke-miterlimit:4;stroke-opacity:1;stroke-dasharray:none;stroke-dashoffset:0"/><path d="M239.67 610.12c1.757 9.623 5.796 18.654 8.253 28.102 2.175 8.364 6.888 16.717 5.74 25.283-.47 3.512-2.454 6.892-4.997 9.38" style="fill:none;stroke:#55a;stroke-width:1.99999988;stroke-linecap:round;stroke-linejoin:round;stroke-miterlimit:4;stroke-opacity:1;stroke-dasharray:none;stroke-dashoffset:0"/><path d="M245.05 609.921c1.757 9.622 5.795 18.653 8.253 28.102 2.175 8.364 6.888 16.717 5.74 25.283-.47 3.511-2.454 6.891-4.997 9.38" style="fill:none;stroke:#55a;stroke-width:1.99999988;stroke-linecap:round;stroke-linejoin:round;stroke-miterlimit:4;stroke-opacity:1;stroke-dasharray:none;stroke-dashoffset:0"/><path d="M193.14 675.416s-2.909 5.005-4.667 7.294c-2.81 3.658-5.908 7.126-9.336 10.212-2.74 2.466-5.723 4.693-8.899 6.564-2.718 1.602-5.69 2.737-8.606 3.939-2.348.966-7.148 2.626-7.148 2.626m43.325-32.823h88.401M155.259 687.67l4.96 14.734m-11.862-13.421s3.392 11.285 5.105 16.922c.725 2.384 1.565 4.735 2.189 7.148 1.467 5.678 2.86 11.4 3.647 17.213.652 4.828.752 9.718.875 14.588.253 10.063-.292 30.196-.292 30.196h0" style="fill:none;stroke:#55a;stroke-width:2;stroke-linecap:round;stroke-linejoin:round;stroke-miterlimit:4;stroke-opacity:1;stroke-dasharray:none;stroke-dashoffset:0"/><path d="M155.952 713.704s8.837-3.143 12.973-5.32a73 73 0 0 0 11.816-7.73c3.027-2.438 5.778-5.227 8.315-8.17 1.728-2.004 3.183-4.23 4.668-6.419 1.227-1.808 3.501-5.543 3.501-5.543s28.496.157 42.742 0c6.615-.073 19.84-.438 19.84-.438s-9.905 10.586-14.296 16.339c-2.832 3.709-5.378 7.64-7.732 11.67-2.48 4.243-4.743 8.625-6.71 13.129-1.846 4.226-3.319 8.61-4.756 12.993-1.324 4.038-2.783 8.065-3.56 12.243-1.158 6.238-1.604 18.964-1.604 18.964l-12.837-18.818s2.207-9.339 3.793-13.858c1.42-4.049 3.321-7.914 5.106-11.816 1.999-4.37 3.997-8.75 6.272-12.983 1.983-3.687 6.419-10.795 6.419-10.795h-25.82s-4.577 5.641-7.032 8.315c-2.693 2.933-5.387 5.895-8.431 8.46a73.3 73.3 0 0 1-10.357 7.295c-3.253 1.893-6.772 3.287-10.212 4.814-2.889 1.282-8.752 3.647-8.752 3.647z" style="fill:#ff5;fill-opacity:1;stroke:#55a;stroke-width:2;stroke-linecap:round;stroke-linejoin:round;stroke-miterlimit:4;stroke-opacity:1;stroke-dasharray:none;stroke-dashoffset:0"/><path d="m240.93 680.824-11.028 16.182m14.442.73-14.004-.292m-7.148 10.941 14.004.437m-19.402 12.108 12.4.146m-17.651 12.837 13.128-.292m-16.484 13.421 12.692-.292" style="fill:none;stroke:#55a;stroke-width:2;stroke-linecap:round;stroke-linejoin:round;stroke-miterlimit:4;stroke-opacity:1;stroke-dasharray:none;stroke-dashoffset:0"/><path d="M258.582 877.767s-5.19-7.648-7.674-11.544c-2.206-3.46-4.46-6.897-6.418-10.503-3.063-5.638-5.975-11.385-8.315-17.36-2.581-6.587-4.539-13.417-6.273-20.276-1.106-4.373-1.888-8.825-2.626-13.275-.778-4.695-1.634-9.398-1.896-14.15-.467-8.45-.255-16.96.583-25.382.637-6.399 1.71-12.78 3.365-18.994 1.181-4.434 2.937-8.7 4.658-12.953 1.641-4.055 3.424-8.059 5.398-11.962 2.014-3.983 4.303-7.822 6.564-11.67 2.168-3.689 4.246-7.444 6.71-10.941 4.424-6.276 9.431-12.127 14.442-17.943 2.205-2.559 6.867-7.45 6.867-7.45l12.097-.136s-10.688 8.84-15.608 13.713c-2.227 2.205-4.27 4.591-6.273 7.002-3.057 3.68-5.945 7.503-8.753 11.378-1.52 2.097-3.034 4.204-4.376 6.419a204 204 0 0 0-10.211 19.11 102 102 0 0 0-3.89 9.58 110 110 0 0 0-3.122 10.56c-1.17 4.855-2.286 9.753-2.762 14.724-.83 8.665-.803 17.433-.146 26.112.423 5.596 1.456 11.141 2.626 16.63 1.212 5.684 2.752 11.305 4.542 16.834 1.852 5.72 4.008 11.347 6.399 16.864a77 77 0 0 0 3.355 6.856c.978 1.756 2.088 3.437 3.209 5.106 1.417 2.109 2.92 4.16 4.439 6.196 3.345 4.482 10.295 13.247 10.295 13.247z" style="fill:#ff5;fill-opacity:1;stroke:#55a;stroke-width:2;stroke-linecap:round;stroke-linejoin:round;stroke-miterlimit:4;stroke-opacity:1;stroke-dasharray:none;stroke-dashoffset:0"/><path d="m287.086 673.082 15.754 14.734 7.878 8.315 18.672 19.693" style="fill:none;stroke:#55a;stroke-width:2;stroke-linecap:round;stroke-linejoin:round;stroke-miterlimit:4;stroke-opacity:1;stroke-dasharray:none;stroke-dashoffset:0"/><path d="m330 552.082-27.769 27.438 1.031 108.564L330 716.381z" style="fill:#ff5;fill-opacity:1;stroke:#55a;stroke-width:2;stroke-linecap:round;stroke-linejoin:round;stroke-miterlimit:4;stroke-opacity:1;stroke-dasharray:none;stroke-dashoffset:0"/><path d="m309.989 695.255.081-113.053L330 564.254v152.278z" style="fill:#f55;fill-opacity:1;stroke:#55a;stroke-width:2;stroke-linecap:round;stroke-linejoin:round;stroke-miterlimit:4;stroke-opacity:1;stroke-dasharray:none;stroke-dashoffset:0"/><path d="m301.818 597.056-5.57-1.65s-4.052-3.955-5.776-6.19c-2.832-3.67-6.052-7.331-7.427-11.759-.796-2.563-.313-8.045-.313-8.045s-6.252 6.29-8.813 9.885a50 50 0 0 0-5.315 9.507c-1.312 3.106-2.182 6.398-2.888 9.696-.7 3.27-1.282 6.602-1.325 9.946-.052 4.135.343 8.317 1.325 12.334.673 2.755 1.873 5.364 3.094 7.923 1.316 2.757 2.863 5.409 4.539 7.963 1.886 2.874 6.189 8.252 6.189 8.252s1.952-5.212 3.3-7.633c2.284-4.1 4.89-8.08 8.046-11.553 2.002-2.203 4.041-4.682 6.808-5.777 1.28-.506 4.126-.206 4.126-.206z" style="fill:none;stroke:#55a;stroke-width:2;stroke-linecap:round;stroke-linejoin:round;stroke-miterlimit:4;stroke-opacity:1;stroke-dasharray:none;stroke-dashoffset:0"/><path d="M296.455 619.955s-1.703-3.087-2.278-4.745c-.651-1.875-1.188-3.829-1.304-5.81-.16-2.72.129-5.5.842-8.13.578-2.128 2.74-6.022 2.74-6.022s-5.106-4.742-7.254-7.467c-2.474-3.14-6.411-10.135-6.411-10.135s-4.185 4.895-5.85 7.633c-1.666 2.737-3.073 5.66-4.087 8.7-1.132 3.392-1.82 6.946-2.186 10.504a37.4 37.4 0 0 0 0 7.84c.311 2.869.894 5.736 1.857 8.457.769 2.175 2.006 4.156 3.094 6.19 1.047 1.955 2.074 3.929 3.301 5.776 1.152 1.734 3.797 4.96 3.797 4.96s3.774-7.073 6.237-10.21c2.19-2.788 7.502-7.54 7.502-7.54" style="fill:#ff5;fill-opacity:1;stroke:#55a;stroke-width:2;stroke-linecap:round;stroke-linejoin:round;stroke-miterlimit:4;stroke-opacity:1;stroke-dasharray:none;stroke-dashoffset:0"/><path d="M290.266 590.66s-2.67 3.4-3.508 5.364c-.936 2.195-1.313 4.608-1.614 6.975-.411 3.236-.672 6.549-.25 9.784.348 2.683 1.065 5.372 2.277 7.791.825 1.646 3.318 4.416 3.318 4.416" style="fill:none;stroke:#55a;stroke-width:2;stroke-linecap:round;stroke-linejoin:round;stroke-miterlimit:4;stroke-opacity:1;stroke-dasharray:none;stroke-dashoffset:0"/><path d="M287.584 585.503h-4.333c.312 3.413 1.04 6.66 2.682 9.49-2.917.036-5.584.489-8.252 1.857 1.48 3.477 4.542 5.041 6.855 6.272-2.617.876-5.65 2.667-7.517 4.542 2.226 2.204 4.951 3.742 7.676 4.864-2.7 1.387-5.4 3.106-7.184 5.657 2.168 1.586 6.084 3.004 8.835 3.008-2.262 2.53-3.276 4.727-4.539 7.84l4.745.412" style="fill:none;stroke:#55a;stroke-width:2;stroke-linecap:round;stroke-linejoin:round;stroke-miterlimit:4;stroke-opacity:1;stroke-dasharray:none;stroke-dashoffset:0"/><path d="M162.397 640.74s2.498-.384 3.354-.165c.856.22 1.296.55 1.67 1.102.673.988.878 2.311.737 3.506-.15 1.278-.645 2.712-1.638 3.48-1.566 1.21-3.822 1.21-5.727.935-1.839-.266-3.392-1.553-5.041-2.43-1.114-.593-2.118-1.413-3.274-1.91-1.28-.552-2.615-1.136-4.007-1.17-.854-.02-2.237-.26-2.51.597-.207.645.686 1.226 1.265 1.513 1.566.774 3.52-.185 5.221.183 1.86.403 3.479 1.586 5.286 2.183 1.696.56 3.408 1.468 5.191 1.307 1.468-.131 3.021-.742 4.088-1.827.72-.733 1.169-1.819 1.265-2.86.1-1.077-.12-2.285-.746-3.13-.788-1.064-2.441-1.826-3.393-1.913s-1.74.6-1.74.6m-12.997-8.697c1.105-.241 2.549 1.299 3.05 2.296.658 1.305-.143 3.33-1.249 4.223-1.49 1.204-3.816.76-5.612.199-1.5-.47-2.397-2.244-3.857-2.839-.884-.36-1.993-.877-2.816-.382-.488.293-.91 1.094-.676 1.634.332.767 1.507.545 2.281.733 1.065.258 2.192.203 3.238.537 1.187.38 2.147 1.528 3.381 1.648 1.4.135 3.087-.052 4.087-1.102 1.079-1.133 1.688-3.155 1.175-4.673-.416-1.229-3.002-2.274-3.002-2.274" style="fill:#55a;fill-opacity:1;stroke:#55a;stroke-width:1.99999988;stroke-linecap:round;stroke-linejoin:round;stroke-miterlimit:4;stroke-opacity:1;stroke-dasharray:none;stroke-dashoffset:0"/><path d="M139.107 592.161s-.296 5.556 0 8.31c.279 2.593 1.346 5.057 1.662 7.645.229 1.87.514 3.799.166 5.651-1.362 7.272-6.554 13.345-8.642 20.442-.365 1.241-1.207 2.649-.665 3.823 1.187 2.57 5.656 2.025 7.313 4.321 1.227 1.7 1.328 4.052 1.33 6.15 0 .793-.499 2.326-.499 2.326 2.493-.118 4.79.336 7.147.499 2.801.193 6.253.083 8.143 2.16.454.499.333 1.995.333 1.995s-2.565-1.57-3.99-1.995c-3.633-1.086-7.502-.428-11.3-1.33-.65-.153.115 1.884.166 2.826.123 2.326.562 4.662.332 6.98-.09.91-.665 2.66-.665 2.66m6.706-63.779c.494-.721 5.264-.36 7.882-.27 3.15.11 6.382.01 9.37.974 3.396 1.095 6.37 3.267 9.287 5.32 1.117.787 3.118 2.66 3.118 2.66s-5.603-4.166-8.809-5.565c-2.472-1.079-5.174-1.701-7.88-2.112-2.645-.401-5.397-.091-8.071-.33-1.646-.147-5.845.709-4.897-.677m5.554 7.131s6.37-.038 9.407.784c4.432 1.2 12.431 5.936 12.431 5.936m-24.084-1.929s6.151-.933 9.133-.31c4.495.937 12.431 5.935 12.431 5.935m-22.79 3.583c3.696.448 5.152 4.48 8.4 5.6" style="fill:none;stroke:#55a;stroke-width:2;stroke-linecap:round;stroke-linejoin:round;stroke-miterlimit:4;stroke-opacity:1;stroke-dasharray:none;stroke-dashoffset:0"/><path d="M168.636 619.657s-2.623-3.2-4.306-4.347c-1.246-.848-2.675-1.485-4.151-1.78-1.94-.387-3.985-.279-5.936.063-1.232.216-2.36.842-3.547 1.237-.482.16-1.451.458-1.451.458s1.13 2.573 2.059 3.594c.909.999 2.095 1.79 3.31 2.334 1.768.791 3.71 1.382 5.636 1.282 2.94-.153 8.386-2.841 8.386-2.841" style="fill:none;stroke:#55a;stroke-width:2;stroke-linecap:round;stroke-linejoin:round;stroke-miterlimit:4;stroke-opacity:1;stroke-dasharray:none;stroke-dashoffset:0"/><path d="M213.463 106.494a5.399 3.948 0 1 1-10.798 0 5.399 3.948 0 1 1 10.798 0" style="fill:none;stroke:#55a;stroke-width:2.21733117;stroke-linecap:round;stroke-linejoin:round;stroke-miterlimit:4;stroke-opacity:1;stroke-dasharray:none;stroke-dashoffset:0" transform="matrix(-.86252 -.13343 .11957 -.92476 324.485 744.218)"/><path d="M210.358 105.212a1.957 1.518 0 1 1-3.914 0 1.957 1.518 0 1 1 3.914 0" style="fill:#55a;fill-opacity:1;stroke:#55a;stroke-width:2.13034296;stroke-linecap:round;stroke-linejoin:round;stroke-miterlimit:4;stroke-opacity:1;stroke-dasharray:none;stroke-dashoffset:0" transform="matrix(-.86252 -.13343 .12953 -1.00182 322.697 750.865)"/><path d="M147.41 609.858c1.095.73 1.095 2.828 1.643 4.243" style="fill:none;stroke:#55a;stroke-width:2;stroke-linecap:round;stroke-linejoin:round;stroke-miterlimit:4;stroke-opacity:1;stroke-dasharray:none;stroke-dashoffset:0"/><path d="m238.079 692.335 3.804-6.489 8.055-1.118-4.252 6.712zm-9.822 10.552 6.171-4.283 5.004 4.326-6.495 4.206zm-6.507 12.065 6.172-4.283 5.004 4.326-6.495 4.206zm-5.37 12.307 6.172-4.283 5.004 4.325-6.496 4.206zm-4.645 13.509 5.536-5.078 5.543 3.61-5.868 5.045zm10.177-52.635 5.22-5.485 4.658 5.468-5.017 6.286zm-11.65.281 4.638-5.984 5.188 4.97-4.357 6.76zm-12.807 2.42 2.993-6.954 6.266 3.513-2.526 7.636zm-7.924 11.236-.202-7.568 7.161.558.914 7.99zm-8.801 8.19-.026-7.57 7.146.723.728 8.01zm-10.118 5.826 2.017-7.297 6.686 2.624-1.46 7.91zm-10.386 4.834 2.427-7.172 6.527 3-1.907 7.814z" style="fill:#000;fill-opacity:1;stroke:none"/><path d="m238.717 739.186 37.79 49.016" style="fill:#ff5;fill-opacity:1;stroke:#55a;stroke-width:2;stroke-linecap:round;stroke-linejoin:round;stroke-miterlimit:4;stroke-opacity:1;stroke-dasharray:none"/><path d="m295.667 769.046-43.48-58.597c-4.997 6.604-7.895 13.508-11.392 20.711l40.71 52.086z" style="fill:#000;fill-opacity:1;stroke:#55a;stroke-width:2;stroke-linecap:round;stroke-linejoin:round;stroke-miterlimit:4;stroke-opacity:1;stroke-dasharray:none;stroke-dashoffset:0"/><path d="m256.303 705.885 43.704 59.868m-33.602-72.589 47.145 62.86M270.895 688.3l47.406 64.155m-4.577 3.829 15.541-11.485" style="fill:#ff5;fill-opacity:1;stroke:#55a;stroke-width:2;stroke-linecap:round;stroke-linejoin:round;stroke-miterlimit:4;stroke-opacity:1;stroke-dasharray:none;stroke-dashoffset:0"/><path d="M299.782 765.975s-2.846 2.285-4.19 3.517c-4.682 4.291-9.066 8.898-13.472 13.471-1.959 2.034-3.937 4.057-5.763 6.211a180 180 0 0 0-9.952 12.872c-2.856 4.065-5.449 8.312-8.006 12.573-2.167 3.61-4.279 7.258-6.212 11a94 94 0 0 0-2.993 6.36c-1.368 3.214-3.742 9.788-3.742 9.788" style="fill:none;stroke:#55a;stroke-width:2;stroke-linecap:round;stroke-linejoin:round;stroke-miterlimit:4;stroke-opacity:1;stroke-dasharray:none;stroke-dashoffset:0"/><path d="m241.71 755.65 25.818 33.674s-8.544 10.897-12.198 16.763c-3.592 5.768-9.504 18.035-9.504 18.035s-4.274-9.302-5.612-14.219c-1.691-6.212-2.558-12.658-2.993-19.082-.413-6.099-.42-12.273.374-18.334.75-5.73 4.116-16.838 4.116-16.838" style="fill:#fff;fill-opacity:1;stroke:#55a;stroke-width:2;stroke-linecap:round;stroke-linejoin:round;stroke-miterlimit:4;stroke-opacity:1;stroke-dasharray:none;stroke-dashoffset:0"/><path d="M245.826 772.487s-.977 9.727-.748 14.592c.284 6.019 2.62 17.886 2.62 17.886l10.476-16.015z" style="fill:#55a;fill-opacity:1;stroke:none"/><path d="M247.682 722.443c1.455-.65 3.146-1.186 4.704-.85 2.845.61 5.438 2.625 7.194 4.945 1.688 2.23 2.304 5.175 2.698 7.943.317 2.228-.325 4.494-.3 6.745.017 1.502.02 3.02.3 4.496.215 1.133 1.05 3.297 1.05 3.297s.523-3.343 1.498-4.646c.797-1.065 1.995-1.974 3.297-2.248 1.342-.283 2.833.11 4.047.75 1.063.558 2.088 1.437 2.547 2.547.339.816.304 1.821 0 2.651-.239.654-.723 1.287-1.346 1.598-.522.26-1.746.097-1.746.097s.875-1.484.694-2.248c-.232-.984-1.134-1.883-2.098-2.191-.92-.294-2.12-.094-2.847.543-1.07.936-1.295 2.625-1.35 4.046-.047 1.235.321 2.505.9 3.597.597 1.125 1.481 2.152 2.548 2.848 1.892 1.234 4.267 1.496 6.444 2.098 1.73.478 3.624.433 5.246 1.199 1.256.593 2.266 1.617 3.297 2.548 1.023.923 2.09 1.846 2.848 2.997.628.953 1.12 2.03 1.349 3.148a7.3 7.3 0 0 1 0 2.847c-.28 1.43-.803 2.86-1.649 4.047-.308.432-1.199 1.049-1.199 1.049s.704-2.386.6-3.597a6.4 6.4 0 0 0-1.05-2.998c-.483-.712-1.14-1.4-1.95-1.695-.844-.307-1.826-.179-2.696.047-.583.151-1.221.38-1.596.852-.523.661-.625 1.602-.648 2.445-.01.408.106.817.25 1.199.188.501.791 1.397.791 1.397s-1.753-.376-2.394-.947c-.633-.566-.993-1.425-1.199-2.248-.254-1.018-.301-2.143 0-3.148a4.63 4.63 0 0 1 1.45-2.195c.64-.528 1.483-.8 2.297-.952.639-.12 1.949.046 1.949.046s-2.164-1.021-3.298-1.395c-1.415-.467-2.921-.612-4.346-1.05-1.224-.375-2.401-.89-3.597-1.348-1.152-.441-2.386-.718-3.447-1.349-1.067-.634-2.017-1.476-2.848-2.398-1.131-1.255-2.024-2.72-2.847-4.196-.774-1.387-1.493-2.825-1.948-4.347-.45-1.502-.51-3.095-.75-4.646-.208-1.347-.418-2.695-.6-4.046-.166-1.247-.25-2.505-.449-3.747-.16-1.006-.156-2.08-.6-2.998a5.3 5.3 0 0 0-1.648-1.948c-.742-.54-1.63-1.031-2.548-1.049-.87-.017-1.829.29-2.448.9-.496.487-.694 1.254-.75 1.948-.066.813.5 2.398.5 2.398s-2.134-1.144-2.697-2.145c-.388-.689-.454-1.577-.3-2.352.157-.79.632-1.526 1.199-2.098.488-.493 1.146-.813 1.798-1.049 1.33-.48 4.185-.699 4.185-.699s-2.201-1.795-3.49-2.347c-.782-.335-1.645-.482-2.493-.55-.896-.074-2.692.147-2.692.147s1.342-1.32 2.184-1.695" style="fill:#ff5;fill-opacity:1;stroke:none"/><path d="M329.38 797.539s-5.578 3.566-8.17 5.617c-3.874 3.066-7.613 6.341-10.98 9.958-2.725 2.93-5.238 6.083-7.404 9.448-2.699 4.193-6.894 13.277-6.894 13.277M280.25 842.9s3.707-8.165 5.724-12.168c1.707-3.386 3.405-6.788 5.393-10.017 2.328-3.781 4.825-7.478 7.63-10.92a95 95 0 0 1 9.702-10.262c3.355-3.053 7-5.789 10.724-8.378 2.133-1.483 4.44-2.701 6.639-4.085 1.199-.754 3.574-2.298 3.574-2.298" style="fill:none;stroke:#000;stroke-width:2;stroke-linecap:round;stroke-linejoin:round;stroke-miterlimit:4;stroke-opacity:1;stroke-dasharray:none;stroke-dashoffset:0"/><path d="M329.126 777.112s-10.538 6.585-15.576 10.213c-4.081 2.94-8.177 5.906-11.846 9.346-3.957 3.71-7.543 7.825-10.879 12.102-3.28 4.207-6.158 8.723-8.936 13.278-3.035 4.976-5.794 10.12-8.426 15.32-1.87 3.693-5.228 11.266-5.228 11.266" style="fill:none;stroke:#000;stroke-width:2;stroke-linecap:round;stroke-linejoin:round;stroke-miterlimit:4;stroke-opacity:1;stroke-dasharray:none;stroke-dashoffset:0"/><path d="M252.314 854.404s4.512-10.359 6.85-15.501c2.412-5.303 4.626-10.71 7.405-15.83 2.918-5.377 6.146-10.6 9.702-15.576 3.447-4.824 7.173-9.47 11.235-13.788 4.045-4.3 8.496-8.212 13.022-12 4.425-3.705 9.087-7.123 13.788-10.47 3.75-2.67 7.564-5.257 11.49-7.66 1.04-.636 3.194-1.787 3.194-1.787v-5.617s-11.557 6.622-16.982 10.468c-5.183 3.675-10.024 7.82-14.81 12.001-4.488 3.922-8.947 7.905-13.021 12.256-4.298 4.59-8.292 9.477-12 14.554-3.524 4.823-6.798 9.846-9.704 15.065-2.796 5.023-5.04 10.335-7.404 15.575-1.996 4.423-5.723 13.383-5.723 13.383z" style="fill:#000;fill-opacity:1;stroke:none"/><path d="m266.263 849.199-6.454-11.328 14.355-2.301-8.036-14.49 15.528.722-6.5-14.625 15.346 1.625-2.888-16.79 13.902 3.971-1.264-15.166 13.18 5.778 1.264-16.43 11.736 7.041 2.433-15.75" style="fill:none;stroke:#000;stroke-width:2;stroke-linecap:round;stroke-linejoin:round;stroke-miterlimit:4;stroke-opacity:1;stroke-dasharray:none"/><path d="M326.014 257.244a1.464 1.577 0 1 1-2.929 0 1.464 1.577 0 1 1 2.929 0" style="fill:#000;fill-opacity:1;stroke:none" transform="matrix(1.36568 0 0 1.26813 -120.174 443.64)"/><path d="M326.014 257.244a1.464 1.577 0 1 1-2.929 0 1.464 1.577 0 1 1 2.929 0" style="fill:#000;fill-opacity:1;stroke:none" transform="matrix(1.36568 0 0 1.26813 -133.89 453.075)"/><path d="M326.014 257.244a1.464 1.577 0 1 1-2.929 0 1.464 1.577 0 1 1 2.929 0" style="fill:#000;fill-opacity:1;stroke:none" transform="matrix(1.36568 0 0 1.26813 -146.28 463.214)"/><path d="M326.014 257.244a1.464 1.577 0 1 1-2.929 0 1.464 1.577 0 1 1 2.929 0" style="fill:#000;fill-opacity:1;stroke:none" transform="matrix(1.36568 0 0 1.26813 -158.898 476.732)"/><path d="M326.014 257.244a1.464 1.577 0 1 1-2.929 0 1.464 1.577 0 1 1 2.929 0" style="fill:#000;fill-opacity:1;stroke:none" transform="matrix(1.36568 0 0 1.26813 -168.586 491.151)"/><path d="M326.014 257.244a1.464 1.577 0 1 1-2.929 0 1.464 1.577 0 1 1 2.929 0" style="fill:#000;fill-opacity:1;stroke:none" transform="matrix(1.36568 0 0 1.26813 -176.922 505.345)"/><path d="M326.014 257.244a1.464 1.577 0 1 1-2.929 0 1.464 1.577 0 1 1 2.929 0" style="fill:#000;fill-opacity:1;stroke:none" transform="matrix(1.36568 0 0 1.26813 -183.681 520.44)"/><path d="M326.014 257.244a1.464 1.577 0 1 1-2.929 0 1.464 1.577 0 1 1 2.929 0" style="fill:#55a;fill-opacity:1;stroke:none" transform="matrix(1.36568 0 0 1.26813 -153.265 507.824)"/><path d="M326.014 257.244a1.464 1.577 0 1 1-2.929 0 1.464 1.577 0 1 1 2.929 0" style="fill:#55a;fill-opacity:1;stroke:none" transform="matrix(1.36568 0 0 1.26813 -150.111 502.191)"/><path d="M326.014 257.244a1.464 1.577 0 1 1-2.929 0 1.464 1.577 0 1 1 2.929 0" style="fill:#55a;fill-opacity:1;stroke:none" transform="matrix(1.36568 0 0 1.26813 -146.796 496.717)"/><path d="M326.014 257.244a1.464 1.577 0 1 1-2.929 0 1.464 1.577 0 1 1 2.929 0" style="fill:#55a;fill-opacity:1;stroke:none" transform="matrix(1.36568 0 0 1.26813 -143.19 490.983)"/><path d="M326.014 257.244a1.464 1.577 0 1 1-2.929 0 1.464 1.577 0 1 1 2.929 0" style="fill:#55a;fill-opacity:1;stroke:none" transform="matrix(1.36568 0 0 1.26813 -139.267 485.598)"/><path d="M326.014 257.244a1.464 1.577 0 1 1-2.929 0 1.464 1.577 0 1 1 2.929 0" style="fill:#55a;fill-opacity:1;stroke:none" transform="matrix(1.36568 0 0 1.26813 -134.449 480.438)"/><path d="M326.014 257.244a1.464 1.577 0 1 1-2.929 0 1.464 1.577 0 1 1 2.929 0" style="fill:#55a;fill-opacity:1;stroke:none" transform="matrix(1.36568 0 0 1.26813 -129.297 476.048)"/><path d="M326.014 257.244a1.464 1.577 0 1 1-2.929 0 1.464 1.577 0 1 1 2.929 0" style="fill:#55a;fill-opacity:1;stroke:none" transform="matrix(1.36568 0 0 1.26813 -124.144 471.812)"/><path d="M326.014 257.244a1.464 1.577 0 1 1-2.929 0 1.464 1.577 0 1 1 2.929 0" style="fill:#55a;fill-opacity:1;stroke:none" transform="matrix(1.36568 0 0 1.26813 -118.542 467.772)"/><path d="M276.62 356.48s1.806 5.658 2.427 8.557c.307 1.43.576 2.88.639 4.342.12 2.812-1.677 5.867-.51 8.429.288.635.962 1.25 1.66 1.277 2.182.085 4.186-1.824 5.49-3.576 1.618-2.171 2.3-7.79 2.3-7.79s1.784 7.4 4.725 9.195c.254.155.692-.219.894 0 .377.407-.288 1.128-.128 1.66.979 3.254 3.04 6.957 6.258 8.046.792.268 1.833-.05 2.427-.639 1.157-1.15 1.567-3.12 1.277-4.725-.495-2.732-2.741-4.967-4.853-6.769-.218-.185-.63-.132-.767-.383-.346-.641.35-1.448.256-2.171-.195-1.497-1.66-4.214-1.66-4.214l.51-.384s1.367 4.62 2.427 6.77c1.321 2.678 3.234 5.023 4.853 7.534.85 1.32 1.219 3.132 2.554 3.959 1.311.812 3.327 1.385 4.598.51 1.667-1.146 2.099-3.93 1.532-5.874-.455-1.561-2.675-1.966-3.576-3.32-.753-1.133-.789-2.619-1.404-3.832-.487-.958-1.288-1.73-1.788-2.682-.747-1.42-.923-3.118-1.788-4.47-.601-.938-2.3-2.426-2.3-2.426l1.15-.894s1.286 3.608 2.427 5.109c.511.672 1.45.954 1.915 1.66 1.082 1.641.876 3.878 1.788 5.619.874 1.667 1.76 3.64 3.449 4.47.802.394 2.039.621 2.681 0 1.807-1.747.95-5.12.256-7.535-.652-2.27-2.312-4.182-3.96-5.875-.255-.262-.681-.34-.893-.638-.616-.868-.47-2.089-.894-3.065-.532-1.226-1.151-2.454-2.043-3.448-.285-.317-1.022-.767-1.022-.767l1.022-1.021s.503 1.025.766 1.532c.869 1.674 1.452 3.552 2.682 4.98.277.323.831.386 1.021.767.172.343-.117.785 0 1.15.56 1.743 1.596 3.574 3.193 4.47.521.292 1.31.485 1.788.127 1.29-.967 1.154-3.12 1.022-4.725-.238-2.876-1.924-5.455-3.193-8.046-.848-1.731-2.036-3.277-2.937-4.98-1.122-2.122-1.91-4.411-3.065-6.514-1.263-2.297-4.215-6.64-4.215-6.64" style="fill:none;stroke:#55a;stroke-width:2;stroke-linecap:round;stroke-linejoin:round;stroke-miterlimit:4;stroke-opacity:1;stroke-dasharray:none" transform="translate(0 512.362)"/><path d="M280.07 368.102s2.616 1.802 3.192 3.192c.88 2.124 0 6.897 0 6.897m11.749-28.607s-.88 5.912-2.17 8.556c-.945 1.936-3.96 5.109-3.96 5.109m12.133-11.239c-1.533 1.746-3.32 4.385-5.62 6.13m8.812-3.193c-2.639 2.697-4.85 5.107-8.429 8.43" style="fill:none;stroke:#55a;stroke-width:2;stroke-linecap:round;stroke-linejoin:round;stroke-miterlimit:4;stroke-opacity:1;stroke-dasharray:none;stroke-dashoffset:0" transform="translate(0 512.362)"/><g style="stroke:#55a;stroke-opacity:1"><path d="M181.908 155.76s-2.961 5.159-4.731 7.54c-2.007 2.701-4.074 5.32-6.637 7.604-1.348 1.201-3.447 2.466-5.116 1.778-.294-.121-.419-.857-.419-.857" style="fill:none;stroke:#55a;stroke-width:2;stroke-linecap:round;stroke-linejoin:round;stroke-miterlimit:4;stroke-opacity:1;stroke-dasharray:none;stroke-dashoffset:0" transform="translate(0 512.362)"/><path d="M140.137 664.08c-3.008 5.974-6.95 8.699-11.985 11.179-2.06 2.51-5.583 4.828-7.618 3.008-1.804-1.612-1.664-6.865 1.897-7.006" style="fill:none;stroke:#55a;stroke-width:2;stroke-linecap:round;stroke-linejoin:round;stroke-miterlimit:4;stroke-opacity:1;stroke-dasharray:none"/><path d="M145.023 665.335c-3.583 8.091-11.49 17.33-20.67 18.584-3.998.546-9.48-1.586-10.842-5.385-1.63-4.542 1.228-11.207 5.92-13.211 2.922-1.25 6.712-.212 8.6 2.05 1.66 1.988 1.112 5.986.42 7.757" style="fill:none;stroke:#55a;stroke-width:2;stroke-linecap:round;stroke-linejoin:round;stroke-miterlimit:4;stroke-opacity:1;stroke-dasharray:none;stroke-dashoffset:0"/><path d="M150.55 666.635c-2.46 6.782-8.675 16.903-16.87 19.478-2.605.819-6.283.73-7.94-2.011" style="fill:none;stroke:#55a;stroke-width:2;stroke-linecap:round;stroke-linejoin:round;stroke-miterlimit:4;stroke-opacity:1;stroke-dasharray:none;stroke-dashoffset:0"/><path d="M157.424 666.364c-2.599 6.808-7.726 16.908-15.448 20.74-2.73 1.355-6.608 1.47-9.143-.084" style="fill:none;stroke:#55a;stroke-width:1.99999988;stroke-linecap:round;stroke-linejoin:round;stroke-miterlimit:4;stroke-opacity:1;stroke-dasharray:none;stroke-dashoffset:0"/><path d="M163.911 666.289c-1.75 6.237-7.495 16.029-14.505 20.706-2.59 1.728-6.547 3.502-9.12 2.012" style="fill:none;stroke:#55a;stroke-width:1.99999988;stroke-linecap:round;stroke-linejoin:round;stroke-miterlimit:4;stroke-opacity:1;stroke-dasharray:none;stroke-dashoffset:0"/><path d="M170.486 663.662c-.927 4.746-6.041 15.662-12.186 20.873-1.842 1.562-4.757 4.124-6.771 2.582" style="fill:none;stroke:#55a;stroke-width:1.99999976;stroke-linecap:round;stroke-linejoin:round;stroke-miterlimit:4;stroke-opacity:1;stroke-dasharray:none;stroke-dashoffset:0"/><path d="M176.954 663.675c-.976 4.22-4.969 11.21-8.856 16.177-2.04 2.606-5.004 7.48-8.41 5.276" style="fill:none;stroke:#55a;stroke-width:2;stroke-linecap:round;stroke-linejoin:round;stroke-miterlimit:4;stroke-opacity:1;stroke-dasharray:none;stroke-dashoffset:0"/></g><path d="m161.325 686.222 5.877 14.399" style="fill:#000;fill-opacity:1;stroke:#55a;stroke-width:2;stroke-linecap:round;stroke-linejoin:round;stroke-miterlimit:4;stroke-opacity:1;stroke-dasharray:none;stroke-dashoffset:0"/><path d="m211.625 253 14.125.25s-1.066 9.82-1.125 14.75c-.058 4.798.214 9.607.75 14.375.463 4.118 1.392 8.171 2.125 12.25.645 3.587 1.185 7.197 2 10.75 1.13 4.926 2.432 9.82 4 14.625a113 113 0 0 0 4 10.5c2.241 5.08 4.727 10.064 7.5 14.875 2.51 4.355 5.345 8.522 8.25 12.625 1.94 2.741 6.125 8 6.125 8l-14 8.625s-.818-4.186-2.375-5.375c-1.833-1.4-4.628-.387-6.842-1.033-1.456-.424-2.742-1.302-4.158-1.844-1.943-.743-5.938-1.922-5.938-1.922s-4.475-11.82-6.437-17.826c-2.117-6.48-4.205-12.986-5.75-19.625-1.102-4.737-1.974-9.54-2.5-14.375-.811-7.463-.833-14.994-1-22.5-.14-6.29-.159-12.585 0-18.875.104-4.129.302-8.257.625-12.375.154-1.963.625-5.875.625-5.875" style="fill:#55a;fill-opacity:1;stroke:none" transform="translate(0 512.362)"/><path d="m213.125 265.875 4.5-5.375 3.75 5.5-4.125 5.75z" style="fill:#fff;fill-opacity:1;stroke:none" transform="translate(0 512.362)"/><path d="m212.88 792.81 3.713-5.946 4.475 4.929-3.29 6.265zm1.299 14.358 3.407-6.126 4.719 4.695-2.968 6.424zm1.494 15.31 4.208-6.933 5.67 5.346-3.678 7.272zm3.509 16.839 3.401-7.362 6.235 4.674-2.837 7.64zm5.156 16.086 2.764-8.748 7.518 4.375-2.104 8.98zm8.713 18.1.509-10.748 9.303 2.73.267 10.817z" style="fill:#fff;fill-opacity:1;stroke:none"/><path d="m139.75 798.862 18 .25 1-10.125h13.625l-.25 10.625 15.875-.125.5-10h11.375l-.625 17.75v13l-47.125-1.625z" style="fill:#000;fill-opacity:1;stroke:none"/><path d="m200.698 834.844-13.714 5.68-11.497 6.372-8.727 7.757-6.788 7.342-4.294 5.54-25.073-.553 6.372-11.082 5.957-12.052 5.264-13.02 3.601-12.745 47.652 1.385.416 6.927z" style="fill:#f55;fill-opacity:1;stroke:none"/><path d="m89.155 877.105-15.763 14.407-16.101-14.916-6.61-6.61-19.661-20.508-.509-29.152 11.017-7.966z" style="fill:#000;fill-opacity:1;stroke:none"/><path d="m128.667 799.868-3.319 14.044-2.809 12.766-39.066-50.3 6.894-9.448 10.214-14.298 5.362-10.214 4.596-10.469 4.596-11.234 5.106 13.788 3.83 11.745 3.575 18.64 2.043 10.468v9.192z" style="fill:#55a;fill-opacity:1;stroke:none"/><path d="M103.645 704.629 31.13 736.545v-9.447l61.79-36.257 6.129 7.66z" style="fill:#000;fill-opacity:1;stroke:none"/><path d="m107.43 853.72-3.449 5.46-43.388-59.48 3.735-4.022z" style="fill:#ff5;fill-opacity:1;stroke:none"/><path d="m103.694 859.467-4.885 6.61-4.885 6.32-47.123-63.501-16.379 11.206v-12.643l16.379-10.057 18.677-15.229 14.941-15.229 10.632-14.941 9.77-17.528 6.896-15.229 2.873-6.896 4.885 8.907-4.598 12.069-11.78 21.263-9.483 12.93-8.62 11.494-10.344 10.056-5.747 6.322-4.885 3.735zM63.619 728.948l-4.16 9.551-6.007 8.473-5.854 6.624-6.008 5.391-6.623 5.084-4.776 3.543V743.12z" style="fill:#f55;fill-opacity:1;stroke:none"/><path d="m108.336 709.953-28.819 11.831-3.037 7.628-5.03 9.205-6.014 10.603-10.423 13.304-10.176 8.468-7.995 5.018-6.141 3.651-.77 24.694 3.83-1.802 11.716-7.66 14.419-10.815 12.617-11.265 11.941-14.645 9.012-13.743 8.336-16.673 6.76-16.447z" style="fill:#ff5;fill-opacity:1;stroke:none"/><path d="m108.06 709.09-76.93 33.839" style="fill:#000;fill-opacity:1;stroke:#000;stroke-width:2;stroke-linecap:round;stroke-linejoin:round;stroke-miterlimit:4;stroke-opacity:1;stroke-dasharray:none"/><path d="M132.702 62.989s-.709 6.145.598 8.767c.588 1.18 2.334 1.446 2.989 2.59.906 1.583.996 5.38.996 5.38s5.446-.283 8.17-.398c5.51-.234 11.026-.819 16.538-.598 4.008.16 8.021.605 11.955 1.395 5.42 1.087 10.732 2.726 15.94 4.582 5.24 1.869 10.121 4.653 15.342 6.576 3.785 1.394 7.615 2.73 11.557 3.586 3.599.781 7.289 1.091 10.959 1.395 3.444.285 6.906.489 10.361.399 2.934-.077 8.767-.797 8.767-.797s3.268-1.466 3.587-2.99c.334-1.598-2.088-2.752-2.192-4.383-.09-1.404 1.738-2.62 1.395-3.985-.264-1.049-2.391-2.192-2.391-2.192s-14.277-.672-21.32-1.793c-5.998-.954-11.953-2.32-17.734-4.184-5.13-1.654-9.87-4.358-14.944-6.177-4.707-1.688-9.43-3.465-14.346-4.384-5.368-1.003-10.882-.996-16.339-1.195-4.845-.177-9.713-.4-14.545 0-4.026.333-11.955 1.992-11.955 1.992z" style="fill:#f55;fill-opacity:1;stroke:#55a;stroke-width:2;stroke-linecap:round;stroke-linejoin:round;stroke-miterlimit:4;stroke-opacity:1;stroke-dasharray:none" transform="rotate(180 180 526.181)"/><path d="M139.477 70.56s14.862-1.816 22.316-1.594c7.634.228 15.33 1.041 22.715 2.99 8.038 2.12 15.248 6.675 23.113 9.364 5.81 1.986 11.678 3.97 17.734 4.981 5.709.955 17.335.997 17.335.997" style="fill:none;stroke:#000;stroke-width:2;stroke-linecap:round;stroke-linejoin:round;stroke-miterlimit:4;stroke-opacity:1;stroke-dasharray:none;stroke-dashoffset:0" transform="rotate(180 180 526.181)"/><path d="M141.47 75.143s13.287-.903 19.925-.598c7.085.327 14.258.797 21.12 2.59 8.127 2.125 15.399 6.752 23.313 9.565 5.623 1.998 11.27 4.085 17.136 5.18 4.321.807 8.754 1.008 13.15.997 2.466-.007 7.373-.598 7.373-.598" style="fill:none;stroke:#000;stroke-width:2;stroke-linecap:round;stroke-linejoin:round;stroke-miterlimit:4;stroke-opacity:1;stroke-dasharray:none;stroke-dashoffset:0" transform="rotate(180 180 526.181)"/><path d="M117 542.362c9.723 17.202 9.077 19.479 18.8 36.681 10.452-3.776 29.586-2.729 44.12-.48 12.04 1.863 22.845 8.689 34.716 11.424 10.57 2.434 22.243 4.376 32.243 4.376l28.121-52z" style="fill:#ff5;fill-opacity:1;stroke:#55a;stroke-width:2;stroke-linecap:butt;stroke-linejoin:miter;stroke-miterlimit:4;stroke-opacity:1;stroke-dasharray:none;stroke-dashoffset:0" transform="rotate(180 180 782.362)"/><path d="M171.737 571.2c1.64.008 3.282-.121 4.78-.482.816-.197 1.517-.526 2.224-.9 1.183-.628 2.027-1.633 3.338-2.237-.579 2.128-2.458 3.218-4.11 4.325-1.484.996-3.215 1.627-4.998 1.94-1.918.338-3.976.357-5.895-.104-2.26-.542-4.4-1.677-6.249-3.044-1.254-.927-2.476-2.027-3.144-3.393-.359-.733-.381-1.759-.371-2.39.716 1.136 1.677 2.473 2.999 3.428 1.328.96 3.01 1.668 4.698 2.127 2.188.595 4.505.717 6.728.73" style="fill:#000;stroke:none" transform="rotate(180 180 782.362)"/><path d="M154.243 562.085c-.69-.566-.528-2.415.283-3.24.234-.238.716-.335 1.054-.218.952.33 1.571 1.338 1.629 2.21.036.55-.648.96-.837 1.485-.164.457-.247 1.42-.247 1.42 1.01 1.21 1.483 2.689 2.95 3.156 2.183.695 5.334.347 6.859-1.118 1.407-1.352 1.082-3.694.384-5.418-.473-1.168-1.512-2.374-2.884-2.812-1.244-.398-2.652.162-3.921.46 1.154-1.524 2.458-3.3 2.146-5.096-.298-1.722-1.905-3.303-3.644-4.267-.732-.406-1.696-.36-2.558-.473-1.705.31-3.56.961-4.524 2.174-.973 1.221-.842 2.919-.685 4.397.12 1.132.727 2.2 1.23 3.261-1.01-.571-2.286-.887-3.435-.702-2.174.35-4.745 1.46-5.362 3.243-.595 1.717.726 3.846 2.332 5.057 1.485 1.12 3.848 1.754 5.76 1.294 1.603-.386 2.24-1.954 3.492-3.092z" style="fill:#000;stroke:none" transform="rotate(180 180 782.362)"/><path d="M141.219 571.252c-1.308.009-2.622-.012-3.815-.482-1.241-.49-2.118-1.63-3.246-2.344-.84-.533-1.54-1.49-2.616-1.443.462 2.127 2.864 3.625 4.704 4.976 1.192.874 2.565 1.626 3.988 1.94 1.53.337 3.173.356 4.704-.104 1.804-.543 3.511-1.678 4.986-3.044 1.001-.928 1.813-2.171 2.51-3.394.63-1.107 1.492-2.89 1.484-3.521-1.477.117-2.116 3.299-3.581 4.56a11.5 11.5 0 0 1-3.75 2.126c-1.745.596-3.595.717-5.369.73" style="fill:#000;stroke:none" transform="rotate(180 180 782.362)"/><path d="M131.161 565.082c.06-.681.54-.673.534-1.503-.005-.825-1.218-1.403-2.022-1.354-.286.017-.712 1.149-.795 1.43l-4.436-9.462a9 9 0 0 1 1.078-1.01c.657-.206 1.31-.606 1.987-.512 1.61.225 3.388 1.03 4.27 2.422.921 1.453.685 3.455.458 5.188.786-.706 1.56-1.678 2.598-1.771 1.146-.104 2.354.573 3.144 1.422 1.167 1.252 2.318 3.19 1.845 4.861-.513 1.813-2.623 3.023-4.433 3.374-1.346.26-2.762-.421-3.95-1.117m51.153-1.183c-.585-.673-.116-2.47.822-3.146.27-.196.762-.211 1.076-.039.883.485 1.324 1.582 1.235 2.452-.057.548-.8.837-1.074 1.323-.239.423-.482 1.358-.482 1.358.793 1.363 1.011 2.9 2.38 3.607 2.036 1.05 5.2 1.236 6.95.047 1.613-1.096 1.685-3.46 1.286-5.277-.27-1.23-1.092-2.593-2.372-3.256-1.16-.6-2.642-.284-3.943-.204 1.394-1.308 2.977-2.84 2.97-4.663-.006-1.748-1.324-3.576-2.877-4.818-.653-.522-1.612-.64-2.443-.894-1.732.018-3.67.35-4.824 1.384-1.164 1.041-1.32 2.737-1.412 4.22-.071 1.136.348 2.291.665 3.421-.9-.732-2.104-1.258-3.268-1.267-2.202-.019-4.922.644-5.83 2.298-.875 1.593.071 3.913 1.452 5.376 1.276 1.353 3.5 2.375 5.46 2.241 1.647-.112 2.537-1.55 3.962-2.462z" style="fill:#000;stroke:none" transform="rotate(180 180 782.362)"/><path d="M195.609 576.71c1.415.322 2.932.388 4.354.094 1.25-.258 2.347-1.01 3.483-1.593 1.29-.662 2.46-1.951 3.778-2.158-1.069 1.876-3.633 4.885-6.288 6.103-1.5.688-3.27.648-4.929.443-1.785-.22-3.61-.786-5.187-1.772-1.857-1.161-3.453-2.857-4.73-4.691-.868-1.245-1.661-2.647-1.895-4.146-.125-.805.123-1.795.297-2.397.337 1.292.837 2.847 1.756 4.137.925 1.298 2.227 2.454 3.6 3.373 1.78 1.191 3.705 2.141 5.76 2.608" style="fill:#000;stroke:none" transform="rotate(180 180 782.362)"/><path d="M209.981 571.768c.809-.313 1.337-2.08.924-3.096-.12-.294-.506-.534-.845-.53-.954.013-1.861.758-2.227 1.55-.23.5.221 1.09.197 1.637-.022.476-.297 1.395-.297 1.395-1.323.812-2.273 2.04-3.728 2.02-2.165-.03-4.8-1.327-5.607-3.159-.745-1.69.388-3.765 1.623-5.15.837-.939 2.183-1.738 3.545-1.72 1.234.015 2.266.97 3.27 1.638-.46-1.772-.96-3.823-.038-5.396.885-1.507 2.865-2.478 4.738-2.836.788-.15 1.617.19 2.413.352 1.383.814 2.772 1.993 3.18 3.417.41 1.435-.32 2.971-.992 4.295-.514 1.014-1.432 1.819-2.256 2.65 1.091-.22 2.358-.21 3.263.409 1.462.999 2.647 2.902 2.532 4.67-.106 1.632-1.384 3.308-2.878 3.975-1.688.754-4.008.44-5.516-.578-1.266-.855-1.257-2.508-1.943-3.952z" style="fill:#000;stroke:none" transform="rotate(180 180 782.362)"/><path d="M220.768 582.786c1.391.253 2.867.245 4.233-.117 1.201-.318 2.265-1.069 3.303-1.76 1.133-.752 1.892-2.307 3.162-2.577-.945 1.926-2.92 5.235-5.403 6.64-1.396.79-3.143.804-4.764.68-1.744-.135-3.545-.612-5.126-1.52-1.86-1.071-3.494-2.687-4.826-4.458-.903-1.202-1.743-2.563-2.044-4.05-.162-.798.03-1.798.17-2.407.39 1.274.953 2.802 1.91 4.047.962 1.251 2.283 2.343 3.662 3.195 1.787 1.104 3.704 1.96 5.723 2.327" style="fill:#000;stroke:none" transform="rotate(180 180 782.362)"/><path d="M233.758 577.244c.727-.397 1.044-2.21.554-3.177-.142-.28-.53-.476-.847-.435-.893.114-1.67.952-1.933 1.779-.166.521.318 1.06.35 1.607.028.474-.137 1.418-.137 1.418-1.16.95-1.937 2.308-3.294 2.408-1.866.137-4.061-.979-4.968-2.616-.845-1.526-.492-3.714.39-5.219.637-1.088 1.872-1.961 3.152-2.09 1.16-.117 2.224.723 3.234 1.279-.61-1.712-1.288-3.698-.581-5.36.678-1.594 2.437-2.772 4.158-3.329.725-.234 1.537.016 2.3.092 1.38.66 2.803 1.684 3.33 3.057.53 1.383.001 2.988-.496 4.376-.38 1.064-1.16 1.962-1.85 2.876 1.002-.334 1.883-.976 2.901-.957 1.182.022 2.799.176 3.323 1.235 1.11 2.245-.098 5.807-2.188 7.187-1.336.882-3.264.011-4.774-.52-1.144-.403-2.276-.597-3.066-1.96z" style="fill:#000;stroke:none" transform="rotate(180 180 782.362)"/><path d="M241.16 585.66c-1.235-.104-2.535-.422-3.52-1.169-1.054-.797-1.442-2.216-2.224-3.28-.595-.813-.884-1.794-1.877-2.37.276 2.086.817 5.594 2.59 7.597.937 1.058 2.421 1.558 3.815 1.843 1.5.307 3.14.298 4.71-.18 1.848-.564 3.653-1.71 5.246-3.078 1.082-.93 2.152-2.028 2.804-3.38.35-.727.457-1.736.504-2.356-.67 1.126-1.553 2.454-2.69 3.411-1.143.963-2.545 1.682-3.931 2.156-1.796.614-3.635.958-5.428.806" style="fill:#000;stroke:none" transform="rotate(180 180 782.362)"/><path d="M253.653 578.294c.195-.718.012-.823.28-1.68.264-.851.906-1.16 1.193-.919.102.086-.1 1.357-.158 1.667l4.691-8.724a13 13 0 0 0-.083-1.299c-.181-.37-.299-.938-.584-1.002-.678-.15-1.604.26-2.38 1.489-.811 1.282-1.361 3.407-1.83 5.251-.07-.916-.815-.665-1.303-.664-1.086.002-2.202.658-2.897 1.493-1.088 1.307-1.954 3.25-1.477 4.883.243.83 1.144 1.436 1.972 1.688.592.18 1.174.222 1.843-.215" style="fill:#000;stroke:none" transform="rotate(180 180 782.362)"/><path d="M133.83 60.952s6.61 2.206 10.004 2.001c4.262-.257 12.167-4.002 12.167-4.002s8.314 3.98 12.806 4.322c4.322.33 12.807-2.24 12.807-2.24s6.803 6.106 11.046 7.363c4.221 1.25 13.207-.16 13.207-.16s5.578 6.945 9.605 8.084C220.508 77.744 231 73.999 231 73.999s7.22 5.046 11.365 5.042c2.425-.002 6.644-2.961 6.644-2.961l-2.722 5.004c-5.713-.182-9.991-.508-15.848-1.407-5.852-.9-11.74-1.75-17.449-3.324-5.399-1.488-10.513-3.864-15.785-5.754-4.228-1.517-8.357-3.37-12.71-4.483-3.286-.84-6.68-1.196-10.044-1.634-2.868-.373-5.749-.67-8.635-.847-4.392-.27-8.797-.398-13.197-.328a89 89 0 0 0-8.696.56c-2.595.293-7.557 1.706-7.557 1.706z" style="fill:#000;fill-opacity:1;stroke:none" transform="rotate(180 180 526.181)"/><path d="M196.038 879.96c-2.399-.246-5.29.656-7.935 3.2l-6.434 8.181-4.185 4.583-3.785-3.387-6.177-2.192 4.782-9.166 8.368-8.568 8.568-6.376 3.597-2.79 2.58 5.779 1.99 4.903 1.397 4.063z" style="fill:#f55;fill-opacity:1;stroke:none"/><path d="M183.512 595.874c.867 8.681 3.144 17.138 5.12 25.62 2.686 11.542 8.775 22.508 9.15 34.352.129 4.088 1.258 10.208-2.402 12.03-2.841 1.416-8.612.432-8.576-4.137.03-3.742 5.647-5.674 6.87-1.713" style="fill:none;stroke:#55a;stroke-width:2;stroke-linecap:round;stroke-linejoin:round;stroke-miterlimit:4;stroke-opacity:1;stroke-dasharray:none" transform="rotate(180 180 782.362)"/><path d="M188.692 598.066c2.241 12.558 7.243 24.448 9.969 36.89 2.044 9.334 5.603 19.276 4.776 28.265-.429 4.664-4.481 10.696-9.296 11.133-5.567.505-12.784-3.344-12.89-10.726-.067-4.674 5.666-9.81 10.43-9.771 2.865.023 4.637 3.537 6.177 5.977" style="fill:none;stroke:#55a;stroke-width:2;stroke-linecap:round;stroke-linejoin:round;stroke-miterlimit:4;stroke-opacity:1;stroke-dasharray:none;stroke-dashoffset:0" transform="rotate(180 180 782.362)"/><path d="M193.873 600.058c1.903 11.085 6.317 21.56 8.957 32.473 2.38 9.842 7.592 19.708 6.198 29.737-.534 3.844-2.694 7.509-5.392 10.318" style="fill:none;stroke:#55a;stroke-width:2;stroke-linecap:round;stroke-linejoin:round;stroke-miterlimit:4;stroke-opacity:1;stroke-dasharray:none;stroke-dashoffset:0" transform="rotate(180 180 782.362)"/><path d="M200.632 602.649c1.75 10.609 5.822 20.676 8.252 31.134 2.195 9.441 7.005 18.906 5.711 28.512-.492 3.657-2.453 7.17-4.968 9.893" style="fill:none;stroke:#55a;stroke-width:1.99999976;stroke-linecap:round;stroke-linejoin:round;stroke-miterlimit:4;stroke-opacity:1;stroke-dasharray:none;stroke-dashoffset:0" transform="rotate(180 180 782.362)"/><path d="M206.188 604.74c1.753 10.348 5.821 20.14 8.253 30.332 2.194 9.195 6.998 18.413 5.711 27.777-.492 3.58-2.472 7.004-4.968 9.638" style="fill:none;stroke:#55a;stroke-width:1.99999988;stroke-linecap:round;stroke-linejoin:round;stroke-miterlimit:4;stroke-opacity:1;stroke-dasharray:none;stroke-dashoffset:0" transform="rotate(180 180 782.362)"/><path d="M212.166 607.43c1.754 10 5.82 19.424 8.253 29.262 2.192 8.865 6.988 17.753 5.71 26.796-.491 3.48-2.498 6.78-4.967 9.298" style="fill:none;stroke:#55a;stroke-width:1.99999988;stroke-linecap:round;stroke-linejoin:round;stroke-miterlimit:4;stroke-opacity:1;stroke-dasharray:none;stroke-dashoffset:0" transform="rotate(180 180 782.362)"/><path d="M217.952 607.43c1.754 10 5.82 19.424 8.253 29.262 2.192 8.865 6.988 17.753 5.71 26.796-.491 3.48-2.498 6.78-4.968 9.298" style="fill:none;stroke:#55a;stroke-width:1.99999988;stroke-linecap:round;stroke-linejoin:round;stroke-miterlimit:4;stroke-opacity:1;stroke-dasharray:none;stroke-dashoffset:0" transform="rotate(180 180 782.362)"/><path d="M223.53 608.825c1.757 9.796 5.82 19.006 8.254 28.637 2.191 8.674 6.983 17.37 5.71 26.225-.49 3.42-2.515 6.65-4.968 9.099" style="fill:none;stroke:#55a;stroke-width:1.99999988;stroke-linecap:round;stroke-linejoin:round;stroke-miterlimit:4;stroke-opacity:1;stroke-dasharray:none;stroke-dashoffset:0" transform="rotate(180 180 782.362)"/><path d="M229.31 609.921c1.756 9.622 5.794 18.653 8.252 28.102 2.175 8.364 6.888 16.717 5.74 25.283-.47 3.511-2.454 6.891-4.997 9.38" style="fill:none;stroke:#55a;stroke-width:1.99999988;stroke-linecap:round;stroke-linejoin:round;stroke-miterlimit:4;stroke-opacity:1;stroke-dasharray:none;stroke-dashoffset:0" transform="rotate(180 180 782.362)"/><path d="M234.49 609.722c1.757 9.622 5.795 18.653 8.252 28.101 2.176 8.364 6.888 16.718 5.74 25.284-.47 3.511-2.453 6.891-4.997 9.38" style="fill:none;stroke:#55a;stroke-width:1.99999988;stroke-linecap:round;stroke-linejoin:round;stroke-miterlimit:4;stroke-opacity:1;stroke-dasharray:none;stroke-dashoffset:0" transform="rotate(180 180 782.362)"/><path d="M239.67 610.12c1.757 9.623 5.796 18.654 8.253 28.102 2.175 8.364 6.888 16.717 5.74 25.283-.47 3.512-2.454 6.892-4.997 9.38" style="fill:none;stroke:#55a;stroke-width:1.99999988;stroke-linecap:round;stroke-linejoin:round;stroke-miterlimit:4;stroke-opacity:1;stroke-dasharray:none;stroke-dashoffset:0" transform="rotate(180 180 782.362)"/><path d="M245.05 609.921c1.757 9.622 5.795 18.653 8.253 28.102 2.175 8.364 6.888 16.717 5.74 25.283-.47 3.511-2.454 6.891-4.997 9.38" style="fill:none;stroke:#55a;stroke-width:1.99999988;stroke-linecap:round;stroke-linejoin:round;stroke-miterlimit:4;stroke-opacity:1;stroke-dasharray:none;stroke-dashoffset:0" transform="rotate(180 180 782.362)"/><path d="M166.86 889.308s2.909-5.005 4.667-7.294c2.81-3.657 5.908-7.126 9.336-10.211 2.74-2.466 5.723-4.694 8.899-6.565 2.718-1.601 5.69-2.737 8.606-3.938 2.348-.967 7.148-2.626 7.148-2.626m-43.325 32.822H73.79m130.951-14.442-4.96-14.733m11.862 13.42s-3.392-11.284-5.105-16.921c-.725-2.384-1.565-4.736-2.189-7.148-1.467-5.679-2.86-11.401-3.647-17.214-.652-4.827-.752-9.718-.875-14.587-.253-10.063.292-30.197.292-30.197h0" style="fill:none;stroke:#55a;stroke-width:2;stroke-linecap:round;stroke-linejoin:round;stroke-miterlimit:4;stroke-opacity:1;stroke-dasharray:none;stroke-dashoffset:0"/><path d="M204.048 851.02s-8.837 3.144-12.973 5.32a73 73 0 0 0-11.816 7.731c-3.027 2.437-5.778 5.227-8.315 8.17-1.728 2.003-3.183 4.229-4.668 6.418-1.227 1.809-3.501 5.543-3.501 5.543s-28.496-.157-42.742 0c-6.615.073-19.84.438-19.84.438s9.905-10.586 14.296-16.338c2.832-3.71 5.378-7.642 7.732-11.67 2.48-4.244 4.743-8.625 6.71-13.13 1.846-4.226 3.319-8.61 4.756-12.992 1.324-4.039 2.783-8.065 3.56-12.244 1.158-6.237 1.604-18.964 1.604-18.964l12.837 18.818s-2.207 9.34-3.793 13.858c-1.42 4.049-3.321 7.914-5.106 11.816-1.999 4.371-3.997 8.75-6.272 12.983-1.983 3.688-6.419 10.795-6.419 10.795h25.82s4.577-5.641 7.032-8.315c2.693-2.932 5.387-5.894 8.431-8.46a73.3 73.3 0 0 1 10.357-7.294c3.253-1.893 6.772-3.288 10.212-4.814 2.889-1.282 8.752-3.647 8.752-3.647z" style="fill:#ff5;fill-opacity:1;stroke:#55a;stroke-width:2;stroke-linecap:round;stroke-linejoin:round;stroke-miterlimit:4;stroke-opacity:1;stroke-dasharray:none;stroke-dashoffset:0"/><path d="m119.07 883.9 11.028-16.182m-14.442-.729 14.004.292m7.148-10.941-14.004-.438m19.402-12.108-12.4-.145m17.651-12.838-13.128.292m16.484-13.421-12.692.292" style="fill:none;stroke:#55a;stroke-width:2;stroke-linecap:round;stroke-linejoin:round;stroke-miterlimit:4;stroke-opacity:1;stroke-dasharray:none;stroke-dashoffset:0"/><path d="M101.418 686.957s5.19 7.648 7.674 11.544c2.206 3.46 4.46 6.898 6.418 10.503 3.063 5.638 5.975 11.386 8.315 17.36 2.581 6.587 4.539 13.417 6.273 20.276 1.106 4.373 1.888 8.825 2.626 13.275.778 4.695 1.634 9.399 1.896 14.15.467 8.45.255 16.961-.583 25.383-.637 6.398-1.71 12.78-3.365 18.993-1.181 4.434-2.937 8.7-4.658 12.954-1.641 4.055-3.424 8.058-5.398 11.962-2.014 3.983-4.303 7.822-6.564 11.67-2.168 3.688-4.246 7.444-6.71 10.94-4.424 6.276-9.431 12.127-14.442 17.944-2.205 2.558-6.867 7.45-6.867 7.45l-12.097.135s10.688-8.839 15.608-13.712c2.227-2.205 4.27-4.592 6.273-7.002 3.057-3.681 5.945-7.504 8.753-11.379 1.52-2.097 3.034-4.203 4.376-6.418a204 204 0 0 0 10.211-19.11 102 102 0 0 0 3.89-9.58 110 110 0 0 0 3.122-10.561c1.17-4.855 2.286-9.753 2.762-14.724.83-8.664.803-17.432.146-26.112-.423-5.596-1.456-11.141-2.626-16.63-1.212-5.684-2.752-11.304-4.542-16.834-1.852-5.72-4.008-11.347-6.399-16.863a77 77 0 0 0-3.355-6.856c-.978-1.757-2.088-3.437-3.209-5.106-1.417-2.11-2.92-4.16-4.439-6.196-3.345-4.482-10.295-13.247-10.295-13.247z" style="fill:#ff5;fill-opacity:1;stroke:#55a;stroke-width:2;stroke-linecap:round;stroke-linejoin:round;stroke-miterlimit:4;stroke-opacity:1;stroke-dasharray:none;stroke-dashoffset:0"/><path d="M72.914 891.642 57.16 876.908l-7.878-8.315L30.61 848.9" style="fill:none;stroke:#55a;stroke-width:2;stroke-linecap:round;stroke-linejoin:round;stroke-miterlimit:4;stroke-opacity:1;stroke-dasharray:none;stroke-dashoffset:0"/><path d="m30 1012.642 27.769-27.438-1.031-108.564L30 848.343z" style="fill:#ff5;fill-opacity:1;stroke:#55a;stroke-width:2;stroke-linecap:round;stroke-linejoin:round;stroke-miterlimit:4;stroke-opacity:1;stroke-dasharray:none;stroke-dashoffset:0"/><path d="m50.011 869.47-.081 113.052L30 1000.47V848.192z" style="fill:#f55;fill-opacity:1;stroke:#55a;stroke-width:2;stroke-linecap:round;stroke-linejoin:round;stroke-miterlimit:4;stroke-opacity:1;stroke-dasharray:none;stroke-dashoffset:0"/><path d="m58.182 967.669 5.57 1.65s4.052 3.955 5.776 6.189c2.832 3.67 5.997 7.349 7.427 11.76.829 2.555.513 8.045.513 8.045s6.098-6.311 8.613-9.885c2.09-2.97 3.902-6.163 5.315-9.507 1.312-3.107 2.182-6.399 2.888-9.697.7-3.27 1.282-6.601 1.325-9.945.052-4.135-.343-8.318-1.325-12.335-.673-2.754-1.873-5.364-3.094-7.923-1.316-2.757-2.863-5.408-4.539-7.962-1.886-2.875-6.189-8.252-6.189-8.252s-1.952 5.211-3.3 7.633c-2.284 4.1-4.89 8.08-8.046 11.553-2.002 2.202-4.041 4.681-6.808 5.776-1.28.507-4.126.206-4.126.206z" style="fill:none;stroke:#55a;stroke-width:2;stroke-linecap:round;stroke-linejoin:round;stroke-miterlimit:4;stroke-opacity:1;stroke-dasharray:none;stroke-dashoffset:0"/><path d="M63.545 944.77s1.703 3.087 2.278 4.744c.651 1.875 1.188 3.83 1.304 5.811.16 2.72-.129 5.5-.842 8.129-.578 2.128-2.74 6.023-2.74 6.023s5.106 4.741 7.254 7.466c2.474 3.14 6.411 10.135 6.411 10.135s4.185-4.894 5.85-7.633c1.666-2.737 3.073-5.66 4.087-8.7 1.132-3.392 1.82-6.946 2.186-10.503a37.4 37.4 0 0 0 0-7.84c-.311-2.87-.894-5.737-1.857-8.458-.769-2.175-2.006-4.156-3.094-6.19-1.047-1.954-2.074-3.928-3.301-5.776-1.152-1.734-3.797-4.96-3.797-4.96s-3.775 7.073-6.237 10.21c-2.19 2.789-7.502 7.541-7.502 7.541" style="fill:#ff5;fill-opacity:1;stroke:#55a;stroke-width:2;stroke-linecap:round;stroke-linejoin:round;stroke-miterlimit:4;stroke-opacity:1;stroke-dasharray:none;stroke-dashoffset:0"/><path d="M69.734 974.064s2.67-3.4 3.508-5.364c.936-2.195 1.313-4.607 1.614-6.974.411-3.237.672-6.55.25-9.785-.348-2.683-1.065-5.372-2.277-7.79-.825-1.647-3.318-4.416-3.318-4.416" style="fill:none;stroke:#55a;stroke-width:2;stroke-linecap:round;stroke-linejoin:round;stroke-miterlimit:4;stroke-opacity:1;stroke-dasharray:none;stroke-dashoffset:0"/><path d="M72.416 979.221h4.333c-.312-3.413-1.04-6.66-2.682-9.49 2.917-.036 5.584-.488 8.252-1.856-1.48-3.478-4.542-5.042-6.855-6.272 2.617-.876 5.65-2.668 7.517-4.543-2.226-2.204-4.951-3.742-7.676-4.864 2.7-1.386 5.4-3.106 7.184-5.657-2.168-1.585-6.084-3.004-8.835-3.008 2.262-2.53 3.276-4.727 4.539-7.84l-4.745-.412" style="fill:none;stroke:#55a;stroke-width:2;stroke-linecap:round;stroke-linejoin:round;stroke-miterlimit:4;stroke-opacity:1;stroke-dasharray:none;stroke-dashoffset:0"/><path d="M197.603 923.984s-2.498.384-3.354.165-1.296-.55-1.67-1.102c-.673-.987-.878-2.311-.737-3.506.15-1.278.645-2.712 1.638-3.48 1.566-1.209 3.822-1.21 5.727-.934 1.839.265 3.392 1.553 5.041 2.43 1.114.592 2.118 1.412 3.274 1.91 1.28.551 2.615 1.135 4.007 1.17.854.02 2.237.26 2.51-.597.207-.646-.686-1.227-1.265-1.513-1.566-.775-3.52.185-5.221-.184-1.86-.403-3.479-1.585-5.286-2.183-1.696-.56-3.408-1.467-5.191-1.307-1.468.132-3.021.743-4.088 1.828-.72.732-1.169 1.818-1.265 2.859-.1 1.077.12 2.286.746 3.131.788 1.063 2.441 1.825 3.393 1.912s1.74-.599 1.74-.599m12.997 8.696c-1.105.242-2.549-1.298-3.05-2.295-.658-1.306.143-3.331 1.249-4.224 1.49-1.203 3.816-.76 5.612-.198 1.5.469 2.397 2.243 3.857 2.838.884.36 1.993.877 2.816.382.488-.293.91-1.093.676-1.634-.332-.767-1.507-.545-2.281-.733-1.065-.258-2.192-.202-3.238-.537-1.187-.38-2.147-1.528-3.381-1.647-1.4-.136-3.087.052-4.087 1.101-1.079 1.133-1.688 3.156-1.175 4.673.416 1.23 3.002 2.274 3.002 2.274" style="fill:#55a;fill-opacity:1;stroke:#55a;stroke-width:1.99999988;stroke-linecap:round;stroke-linejoin:round;stroke-miterlimit:4;stroke-opacity:1;stroke-dasharray:none;stroke-dashoffset:0"/><path d="M220.893 972.563s.296-5.556 0-8.31c-.279-2.593-1.346-5.056-1.662-7.645-.229-1.87-.514-3.799-.166-5.65 1.362-7.272 6.554-13.346 8.642-20.443.365-1.24 1.207-2.648.665-3.823-1.187-2.57-5.656-2.025-7.313-4.32-1.227-1.701-1.328-4.053-1.33-6.15 0-.793.499-2.327.499-2.327-2.493.118-4.79-.336-7.147-.498-2.801-.194-6.253-.084-8.143-2.161-.454-.498-.333-1.994-.333-1.994s2.565 1.568 3.99 1.994c3.633 1.086 7.502.429 11.3 1.33.65.154-.115-1.884-.166-2.826-.123-2.326-.562-4.662-.332-6.98.09-.91.665-2.66.665-2.66m-6.706 63.78c-.494.72-5.264.359-7.882.268-3.15-.108-6.382-.01-9.37-.973-3.396-1.095-6.37-3.267-9.287-5.32-1.117-.786-3.118-2.66-3.118-2.66s5.603 4.167 8.809 5.565c2.472 1.08 5.174 1.701 7.88 2.112 2.645.402 5.397.091 8.071.33 1.646.147 5.845-.708 4.897.677m-5.554-7.131s-6.37.038-9.407-.784c-4.432-1.2-12.431-5.935-12.431-5.935m24.084 1.928s-6.151.934-9.133.311c-4.495-.938-12.431-5.935-12.431-5.935m22.79-3.584c-3.696-.448-5.152-4.48-8.4-5.6" style="fill:none;stroke:#55a;stroke-width:2;stroke-linecap:round;stroke-linejoin:round;stroke-miterlimit:4;stroke-opacity:1;stroke-dasharray:none;stroke-dashoffset:0"/><path d="M191.364 945.067s2.623 3.2 4.306 4.347c1.246.848 2.675 1.485 4.151 1.78 1.94.388 3.985.279 5.936-.063 1.232-.215 2.36-.842 3.547-1.237.482-.16 1.451-.458 1.451-.458s-1.13-2.573-2.059-3.594c-.909-.998-2.095-1.79-3.31-2.333-1.768-.792-3.71-1.382-5.636-1.282-2.94.153-8.386 2.84-8.386 2.84" style="fill:none;stroke:#55a;stroke-width:2;stroke-linecap:round;stroke-linejoin:round;stroke-miterlimit:4;stroke-opacity:1;stroke-dasharray:none;stroke-dashoffset:0"/><path d="M213.463 106.494a5.399 3.948 0 1 1-10.798 0 5.399 3.948 0 1 1 10.798 0" style="fill:none;stroke:#55a;stroke-width:2.21733117;stroke-linecap:round;stroke-linejoin:round;stroke-miterlimit:4;stroke-opacity:1;stroke-dasharray:none;stroke-dashoffset:0" transform="matrix(.86252 .13343 -.11957 .92476 35.515 820.507)"/><path d="M210.358 105.212a1.957 1.518 0 1 1-3.914 0 1.957 1.518 0 1 1 3.914 0" style="fill:#55a;fill-opacity:1;stroke:#55a;stroke-width:2.13034296;stroke-linecap:round;stroke-linejoin:round;stroke-miterlimit:4;stroke-opacity:1;stroke-dasharray:none;stroke-dashoffset:0" transform="matrix(.86252 .13343 -.12953 1.00182 37.303 813.86)"/><path d="M212.59 954.867c-1.095-.73-1.095-2.829-1.643-4.243" style="fill:none;stroke:#55a;stroke-width:2;stroke-linecap:round;stroke-linejoin:round;stroke-miterlimit:4;stroke-opacity:1;stroke-dasharray:none;stroke-dashoffset:0"/><path d="m121.921 872.39-3.804 6.488-8.055 1.119 4.252-6.713zm9.822-10.553-6.171 4.283-5.004-4.325 6.495-4.206zm6.507-12.065-6.172 4.283-5.004-4.325 6.495-4.206zm5.37-12.307-6.172 4.284-5.004-4.326 6.496-4.206zm4.645-13.509-5.536 5.078-5.543-3.61 5.868-5.045zm-10.177 52.636-5.22 5.484-4.658-5.467 5.017-6.287zm11.65-.282-4.638 5.984-5.188-4.969 4.357-6.761zm12.807-2.42-2.993 6.954-6.266-3.513 2.526-7.636zm7.924-11.236.202 7.568-7.161-.558-.914-7.99zm8.801-8.19.026 7.57-7.146-.723-.728-8.01zm10.118-5.825-2.017 7.297-6.686-2.625 1.46-7.91zm10.386-4.834-2.427 7.171-6.527-3 1.907-7.813z" style="fill:#000;fill-opacity:1;stroke:none"/><path d="m121.283 825.538-37.79-49.015" style="fill:#ff5;fill-opacity:1;stroke:#55a;stroke-width:2;stroke-linecap:round;stroke-linejoin:round;stroke-miterlimit:4;stroke-opacity:1;stroke-dasharray:none"/><path d="m64.333 795.678 43.48 58.598c4.997-6.604 7.895-13.508 11.392-20.712l-40.71-52.085z" style="fill:#000;fill-opacity:1;stroke:#55a;stroke-width:2;stroke-linecap:round;stroke-linejoin:round;stroke-miterlimit:4;stroke-opacity:1;stroke-dasharray:none;stroke-dashoffset:0"/><path d="m103.697 858.839-43.704-59.867m33.602 72.588L46.45 808.7m42.655 67.725-47.406-64.156m4.577-3.829-15.541 11.486" style="fill:#ff5;fill-opacity:1;stroke:#55a;stroke-width:2;stroke-linecap:round;stroke-linejoin:round;stroke-miterlimit:4;stroke-opacity:1;stroke-dasharray:none;stroke-dashoffset:0"/><path d="M60.218 798.75s2.846-2.286 4.19-3.518c4.682-4.29 9.066-8.898 13.472-13.471 1.959-2.034 3.937-4.056 5.763-6.21a180 180 0 0 0 9.952-12.872c2.856-4.065 5.449-8.313 8.006-12.573 2.167-3.61 4.279-7.259 6.212-11a94 94 0 0 0 2.993-6.36c1.368-3.214 3.742-9.789 3.742-9.789" style="fill:none;stroke:#55a;stroke-width:2;stroke-linecap:round;stroke-linejoin:round;stroke-miterlimit:4;stroke-opacity:1;stroke-dasharray:none;stroke-dashoffset:0"/><path d="M118.29 809.075 92.471 775.4s8.544-10.897 12.198-16.763c3.592-5.768 9.504-18.034 9.504-18.034s4.274 9.302 5.612 14.218c1.691 6.213 2.559 12.659 2.993 19.083.413 6.098.42 12.273-.374 18.334-.75 5.729-4.116 16.837-4.116 16.837" style="fill:#fff;fill-opacity:1;stroke:#55a;stroke-width:2;stroke-linecap:round;stroke-linejoin:round;stroke-miterlimit:4;stroke-opacity:1;stroke-dasharray:none;stroke-dashoffset:0"/><path d="M114.174 792.238s.977-9.728.748-14.593c-.284-6.019-2.62-17.885-2.62-17.885l-10.476 16.014z" style="fill:#55a;fill-opacity:1;stroke:none"/><path d="M112.318 842.282c-1.455.649-3.146 1.185-4.704.85-2.845-.611-5.438-2.625-7.194-4.946-1.688-2.23-2.304-5.175-2.698-7.943-.317-2.228.325-4.494.3-6.744-.017-1.502-.02-3.02-.3-4.496-.215-1.134-1.05-3.298-1.05-3.298s-.523 3.343-1.498 4.646c-.797 1.066-1.995 1.974-3.297 2.249-1.342.282-2.833-.111-4.047-.75-1.063-.559-2.088-1.438-2.547-2.548-.339-.816-.304-1.82 0-2.65.239-.655.723-1.288 1.346-1.599.522-.26 1.746-.097 1.746-.097s-.875 1.485-.694 2.248c.232.984 1.134 1.884 2.098 2.192.92.294 2.12.093 2.847-.543 1.07-.936 1.295-2.626 1.35-4.047.047-1.235-.321-2.505-.9-3.597-.597-1.125-1.481-2.152-2.548-2.847-1.892-1.234-4.267-1.497-6.444-2.099-1.73-.477-3.624-.432-5.246-1.199-1.256-.593-2.266-1.617-3.297-2.547-1.023-.924-2.09-1.847-2.848-2.998-.628-.953-1.12-2.03-1.349-3.147a7.3 7.3 0 0 1 0-2.848c.28-1.43.803-2.86 1.649-4.046.308-.433 1.199-1.05 1.199-1.05s-.704 2.386-.6 3.598a6.4 6.4 0 0 0 1.05 2.997c.483.713 1.14 1.4 1.95 1.695.844.308 1.826.18 2.696-.046.583-.152 1.221-.38 1.596-.853.523-.661.625-1.602.648-2.445.01-.408-.106-.817-.25-1.199-.188-.5-.791-1.397-.791-1.397s1.753.376 2.394.948c.633.565.993 1.424 1.199 2.248.254 1.018.301 2.142 0 3.147a4.63 4.63 0 0 1-1.45 2.196c-.64.527-1.483.8-2.297.952-.639.119-1.949-.047-1.949-.047s2.164 1.022 3.298 1.395c1.415.467 2.921.612 4.346 1.05 1.224.375 2.401.89 3.597 1.348 1.152.442 2.386.719 3.447 1.35 1.067.633 2.017 1.475 2.848 2.397 1.131 1.256 2.024 2.72 2.847 4.197.774 1.386 1.493 2.825 1.948 4.346.45 1.503.51 3.096.75 4.646.208 1.348.418 2.695.6 4.047.166 1.246.25 2.504.449 3.746.16 1.007.156 2.08.6 2.998a5.3 5.3 0 0 0 1.648 1.948c.742.541 1.63 1.032 2.548 1.05.87.016 1.829-.29 2.448-.9.496-.488.694-1.255.75-1.948.066-.814-.5-2.398-.5-2.398s2.134 1.144 2.697 2.145c.388.688.454 1.576.3 2.351-.157.79-.632 1.526-1.199 2.098-.488.493-1.146.813-1.798 1.05-1.33.48-4.185.698-4.185.698s2.201 1.795 3.49 2.347c.782.336 1.645.482 2.493.551.896.073 2.692-.148 2.692-.148s-1.342 1.32-2.184 1.696" style="fill:#ff5;fill-opacity:1;stroke:none"/><path d="M30.62 767.186s5.578-3.567 8.17-5.618c3.874-3.066 7.613-6.34 10.98-9.958 2.725-2.929 5.238-6.083 7.404-9.447 2.699-4.194 6.894-13.278 6.894-13.278m15.682-7.06s-3.707 8.165-5.724 12.167c-1.707 3.387-3.405 6.788-5.393 10.017-2.328 3.782-4.825 7.478-7.63 10.92a95 95 0 0 1-9.702 10.262c-3.355 3.053-7 5.789-10.724 8.378-2.133 1.483-4.44 2.702-6.639 4.085-1.199.755-3.574 2.298-3.574 2.298" style="fill:none;stroke:#000;stroke-width:2;stroke-linecap:round;stroke-linejoin:round;stroke-miterlimit:4;stroke-opacity:1;stroke-dasharray:none;stroke-dashoffset:0"/><path d="M30.874 787.612s10.538-6.585 15.576-10.213c4.081-2.94 8.177-5.906 11.846-9.346 3.957-3.71 7.543-7.825 10.879-12.102 3.28-4.207 6.158-8.723 8.936-13.277 3.035-4.976 5.794-10.12 8.426-15.32 1.87-3.694 5.228-11.267 5.228-11.267" style="fill:none;stroke:#000;stroke-width:2;stroke-linecap:round;stroke-linejoin:round;stroke-miterlimit:4;stroke-opacity:1;stroke-dasharray:none;stroke-dashoffset:0"/><path d="M107.686 710.32s-4.512 10.36-6.85 15.501c-2.412 5.303-4.626 10.711-7.405 15.831-2.918 5.376-6.146 10.599-9.702 15.576-3.447 4.823-7.173 9.47-11.235 13.788-4.045 4.299-8.496 8.211-13.022 12-4.425 3.705-9.087 7.122-13.788 10.469-3.75 2.67-7.564 5.258-11.49 7.66-1.04.637-3.194 1.787-3.194 1.787v5.618s11.557-6.623 16.982-10.469c5.183-3.675 10.024-7.82 14.81-12 4.488-3.922 8.947-7.906 13.021-12.257 4.298-4.59 8.292-9.476 12-14.554 3.524-4.823 6.798-9.846 9.704-15.064 2.796-5.023 5.04-10.336 7.404-15.576 1.996-4.422 5.723-13.383 5.723-13.383z" style="fill:#000;fill-opacity:1;stroke:none"/><path d="m93.737 715.525 6.454 11.329-14.355 2.3 8.036 14.49-15.528-.721 6.5 14.624-15.346-1.625 2.888 16.791-13.902-3.972 1.264 15.166-13.18-5.777-1.264 16.43-11.736-7.042-2.433 15.751" style="fill:none;stroke:#000;stroke-width:2;stroke-linecap:round;stroke-linejoin:round;stroke-miterlimit:4;stroke-opacity:1;stroke-dasharray:none"/><path d="M326.014 257.244a1.464 1.577 0 1 1-2.929 0 1.464 1.577 0 1 1 2.929 0" style="fill:#000;fill-opacity:1;stroke:none" transform="matrix(-1.36568 0 0 -1.26813 480.174 1121.085)"/><path d="M326.014 257.244a1.464 1.577 0 1 1-2.929 0 1.464 1.577 0 1 1 2.929 0" style="fill:#000;fill-opacity:1;stroke:none" transform="matrix(-1.36568 0 0 -1.26813 493.89 1111.65)"/><path d="M326.014 257.244a1.464 1.577 0 1 1-2.929 0 1.464 1.577 0 1 1 2.929 0" style="fill:#000;fill-opacity:1;stroke:none" transform="matrix(-1.36568 0 0 -1.26813 506.281 1101.51)"/><path d="M326.014 257.244a1.464 1.577 0 1 1-2.929 0 1.464 1.577 0 1 1 2.929 0" style="fill:#000;fill-opacity:1;stroke:none" transform="matrix(-1.36568 0 0 -1.26813 518.898 1087.993)"/><path d="M326.014 257.244a1.464 1.577 0 1 1-2.929 0 1.464 1.577 0 1 1 2.929 0" style="fill:#000;fill-opacity:1;stroke:none" transform="matrix(-1.36568 0 0 -1.26813 528.586 1073.573)"/><path d="M326.014 257.244a1.464 1.577 0 1 1-2.929 0 1.464 1.577 0 1 1 2.929 0" style="fill:#000;fill-opacity:1;stroke:none" transform="matrix(-1.36568 0 0 -1.26813 536.922 1059.38)"/><path d="M326.014 257.244a1.464 1.577 0 1 1-2.929 0 1.464 1.577 0 1 1 2.929 0" style="fill:#000;fill-opacity:1;stroke:none" transform="matrix(-1.36568 0 0 -1.26813 543.681 1044.284)"/><path d="M326.014 257.244a1.464 1.577 0 1 1-2.929 0 1.464 1.577 0 1 1 2.929 0" style="fill:#55a;fill-opacity:1;stroke:none" transform="matrix(-1.36568 0 0 -1.26813 513.265 1056.9)"/><path d="M326.014 257.244a1.464 1.577 0 1 1-2.929 0 1.464 1.577 0 1 1 2.929 0" style="fill:#55a;fill-opacity:1;stroke:none" transform="matrix(-1.36568 0 0 -1.26813 510.111 1062.533)"/><path d="M326.014 257.244a1.464 1.577 0 1 1-2.929 0 1.464 1.577 0 1 1 2.929 0" style="fill:#55a;fill-opacity:1;stroke:none" transform="matrix(-1.36568 0 0 -1.26813 506.796 1068.008)"/><path d="M326.014 257.244a1.464 1.577 0 1 1-2.929 0 1.464 1.577 0 1 1 2.929 0" style="fill:#55a;fill-opacity:1;stroke:none" transform="matrix(-1.36568 0 0 -1.26813 503.19 1073.742)"/><path d="M326.014 257.244a1.464 1.577 0 1 1-2.929 0 1.464 1.577 0 1 1 2.929 0" style="fill:#55a;fill-opacity:1;stroke:none" transform="matrix(-1.36568 0 0 -1.26813 499.267 1079.127)"/><path d="M326.014 257.244a1.464 1.577 0 1 1-2.929 0 1.464 1.577 0 1 1 2.929 0" style="fill:#55a;fill-opacity:1;stroke:none" transform="matrix(-1.36568 0 0 -1.26813 494.449 1084.286)"/><path d="M326.014 257.244a1.464 1.577 0 1 1-2.929 0 1.464 1.577 0 1 1 2.929 0" style="fill:#55a;fill-opacity:1;stroke:none" transform="matrix(-1.36568 0 0 -1.26813 489.297 1088.676)"/><path d="M326.014 257.244a1.464 1.577 0 1 1-2.929 0 1.464 1.577 0 1 1 2.929 0" style="fill:#55a;fill-opacity:1;stroke:none" transform="matrix(-1.36568 0 0 -1.26813 484.144 1092.912)"/><path d="M326.014 257.244a1.464 1.577 0 1 1-2.929 0 1.464 1.577 0 1 1 2.929 0" style="fill:#55a;fill-opacity:1;stroke:none" transform="matrix(-1.36568 0 0 -1.26813 478.542 1096.953)"/><path d="M276.62 356.48s1.806 5.658 2.427 8.557c.307 1.43.576 2.88.639 4.342.12 2.812-1.677 5.867-.51 8.429.288.635.962 1.25 1.66 1.277 2.182.085 4.186-1.824 5.49-3.576 1.618-2.171 2.3-7.79 2.3-7.79s1.784 7.4 4.725 9.195c.254.155.692-.219.894 0 .377.407-.288 1.128-.128 1.66.979 3.254 3.04 6.957 6.258 8.046.792.268 1.833-.05 2.427-.639 1.157-1.15 1.567-3.12 1.277-4.725-.495-2.732-2.741-4.967-4.853-6.769-.218-.185-.63-.132-.767-.383-.346-.641.35-1.448.256-2.171-.195-1.497-1.66-4.214-1.66-4.214l.51-.384s1.367 4.62 2.427 6.77c1.321 2.678 3.234 5.023 4.853 7.534.85 1.32 1.219 3.132 2.554 3.959 1.311.812 3.327 1.385 4.598.51 1.667-1.146 2.099-3.93 1.532-5.874-.455-1.561-2.675-1.966-3.576-3.32-.753-1.133-.789-2.619-1.404-3.832-.487-.958-1.288-1.73-1.788-2.682-.747-1.42-.923-3.118-1.788-4.47-.601-.938-2.3-2.426-2.3-2.426l1.15-.894s1.286 3.608 2.427 5.109c.511.672 1.45.954 1.915 1.66 1.082 1.641.876 3.878 1.788 5.619.874 1.667 1.76 3.64 3.449 4.47.802.394 2.039.621 2.681 0 1.807-1.747.95-5.12.256-7.535-.652-2.27-2.312-4.182-3.96-5.875-.255-.262-.681-.34-.893-.638-.616-.868-.47-2.089-.894-3.065-.532-1.226-1.151-2.454-2.043-3.448-.285-.317-1.022-.767-1.022-.767l1.022-1.021s.503 1.025.766 1.532c.869 1.674 1.452 3.552 2.682 4.98.277.323.831.386 1.021.767.172.343-.117.785 0 1.15.56 1.743 1.596 3.574 3.193 4.47.521.292 1.31.485 1.788.127 1.29-.967 1.154-3.12 1.022-4.725-.238-2.876-1.924-5.455-3.193-8.046-.848-1.731-2.036-3.277-2.937-4.98-1.122-2.122-1.91-4.411-3.065-6.514-1.263-2.297-4.215-6.64-4.215-6.64" style="fill:none;stroke:#55a;stroke-width:2;stroke-linecap:round;stroke-linejoin:round;stroke-miterlimit:4;stroke-opacity:1;stroke-dasharray:none" transform="rotate(180 180 526.181)"/><path d="M280.07 368.102s2.616 1.802 3.192 3.192c.88 2.124 0 6.897 0 6.897m11.749-28.607s-.88 5.912-2.17 8.556c-.945 1.936-3.96 5.109-3.96 5.109m12.133-11.239c-1.533 1.746-3.32 4.385-5.62 6.13m8.812-3.193c-2.639 2.697-4.85 5.107-8.429 8.43" style="fill:none;stroke:#55a;stroke-width:2;stroke-linecap:round;stroke-linejoin:round;stroke-miterlimit:4;stroke-opacity:1;stroke-dasharray:none;stroke-dashoffset:0" transform="rotate(180 180 526.181)"/><g style="stroke:#55a;stroke-opacity:1"><path d="M181.908 155.76s-2.961 5.159-4.731 7.54c-2.007 2.701-4.074 5.32-6.637 7.604-1.348 1.201-3.447 2.466-5.116 1.778-.294-.121-.419-.857-.419-.857" style="fill:none;stroke:#55a;stroke-width:2;stroke-linecap:round;stroke-linejoin:round;stroke-miterlimit:4;stroke-opacity:1;stroke-dasharray:none;stroke-dashoffset:0" transform="rotate(180 180 526.181)"/><path d="M140.137 664.08c-3.008 5.974-6.95 8.699-11.985 11.179-2.06 2.51-5.583 4.828-7.618 3.008-1.804-1.612-1.664-6.865 1.897-7.006" style="fill:none;stroke:#55a;stroke-width:2;stroke-linecap:round;stroke-linejoin:round;stroke-miterlimit:4;stroke-opacity:1;stroke-dasharray:none" transform="rotate(180 180 782.362)"/><path d="M145.023 665.335c-3.583 8.091-11.49 17.33-20.67 18.584-3.998.546-9.48-1.586-10.842-5.385-1.63-4.542 1.228-11.207 5.92-13.211 2.922-1.25 6.712-.212 8.6 2.05 1.66 1.988 1.112 5.986.42 7.757" style="fill:none;stroke:#55a;stroke-width:2;stroke-linecap:round;stroke-linejoin:round;stroke-miterlimit:4;stroke-opacity:1;stroke-dasharray:none;stroke-dashoffset:0" transform="rotate(180 180 782.362)"/><path d="M150.55 666.635c-2.46 6.782-8.675 16.903-16.87 19.478-2.605.819-6.283.73-7.94-2.011" style="fill:none;stroke:#55a;stroke-width:2;stroke-linecap:round;stroke-linejoin:round;stroke-miterlimit:4;stroke-opacity:1;stroke-dasharray:none;stroke-dashoffset:0" transform="rotate(180 180 782.362)"/><path d="M157.424 666.364c-2.599 6.808-7.726 16.908-15.448 20.74-2.73 1.355-6.608 1.47-9.143-.084" style="fill:none;stroke:#55a;stroke-width:1.99999988;stroke-linecap:round;stroke-linejoin:round;stroke-miterlimit:4;stroke-opacity:1;stroke-dasharray:none;stroke-dashoffset:0" transform="rotate(180 180 782.362)"/><path d="M163.911 666.289c-1.75 6.237-7.495 16.029-14.505 20.706-2.59 1.728-6.547 3.502-9.12 2.012" style="fill:none;stroke:#55a;stroke-width:1.99999988;stroke-linecap:round;stroke-linejoin:round;stroke-miterlimit:4;stroke-opacity:1;stroke-dasharray:none;stroke-dashoffset:0" transform="rotate(180 180 782.362)"/><path d="M170.486 663.662c-.927 4.746-6.041 15.662-12.186 20.873-1.842 1.562-4.757 4.124-6.771 2.582" style="fill:none;stroke:#55a;stroke-width:1.99999976;stroke-linecap:round;stroke-linejoin:round;stroke-miterlimit:4;stroke-opacity:1;stroke-dasharray:none;stroke-dashoffset:0" transform="rotate(180 180 782.362)"/><path d="M176.954 663.675c-.976 4.22-4.969 11.21-8.856 16.177-2.04 2.606-5.004 7.48-8.41 5.276" style="fill:none;stroke:#55a;stroke-width:2;stroke-linecap:round;stroke-linejoin:round;stroke-miterlimit:4;stroke-opacity:1;stroke-dasharray:none;stroke-dashoffset:0" transform="rotate(180 180 782.362)"/></g><path d="m198.675 878.502-5.877-14.399" style="fill:#000;fill-opacity:1;stroke:#55a;stroke-width:2;stroke-linecap:round;stroke-linejoin:round;stroke-miterlimit:4;stroke-opacity:1;stroke-dasharray:none;stroke-dashoffset:0"/><path d="m211.625 253 14.125.25s-1.066 9.82-1.125 14.75c-.058 4.798.214 9.607.75 14.375.463 4.118 1.392 8.171 2.125 12.25.645 3.587 1.185 7.197 2 10.75 1.13 4.926 2.432 9.82 4 14.625a113 113 0 0 0 4 10.5c2.241 5.08 4.727 10.064 7.5 14.875 2.51 4.355 5.345 8.522 8.25 12.625 1.94 2.741 6.125 8 6.125 8l-12.58 7.408s-2.15-3.255-3.795-4.158c-2.09-1.148-4.753-.58-7.045-1.236-1.928-.55-3.706-1.531-5.578-2.25-1.564-.6-4.721-1.719-4.721-1.719s-4.161-11.566-6.031-17.42c-2.074-6.494-4.205-12.986-5.75-19.625-1.102-4.737-1.974-9.54-2.5-14.375-.811-7.463-.833-14.994-1-22.5-.14-6.29-.159-12.585 0-18.875.104-4.129.302-8.257.625-12.375.154-1.963.625-5.875.625-5.875" style="fill:#55a;fill-opacity:1;stroke:none" transform="rotate(180 180 526.181)"/><path d="m213.125 265.875 4.5-5.375 3.75 5.5-4.125 5.75z" style="fill:#fff;fill-opacity:1;stroke:none" transform="rotate(180 180 526.181)"/><path d="m212.88 792.81 3.713-5.946 4.475 4.929-3.29 6.265zm1.299 14.358 3.407-6.126 4.719 4.695-2.968 6.424zm1.494 15.31 4.208-6.933 5.67 5.346-3.678 7.272zm3.509 16.839 3.401-7.362 6.235 4.674-2.837 7.64zm5.156 16.086 2.764-8.748 7.518 4.375-2.104 8.98zm8.713 18.1.509-10.748 9.303 2.73.267 10.817z" style="fill:#fff;fill-opacity:1;stroke:none" transform="rotate(180 180 782.362)"/><path d="M30 662.362v360h270" style="fill:none;stroke:#55a;stroke-width:2;stroke-miterlimit:4;stroke-opacity:1;stroke-dasharray:none"/><path d="M60 542.362h270v360" style="fill:none;stroke:#55a;stroke-width:2;stroke-linecap:butt;stroke-linejoin:miter;stroke-miterlimit:4;stroke-opacity:1;stroke-dasharray:none;stroke-dashoffset:0"/><path d="m158.374 775.293 13.626.57.5-10.75 15.75-.25v10.75l13.584.222.042 13.708-13.376-.18-.25 10.75-16.09-.278-.049-10.515-13.361.042z" style="fill:#ff5;fill-opacity:1;stroke:none"/><path d="M174.479 777.82H186.4v9.392h-11.921z" style="fill:#010000;fill-opacity:1;stroke:none"/><path d="M90 557.362s6 15 13 25 17 20 17 20-10 10-17 20-13 25-13 25-6-15-13-25-17-20-17-20 10-10 17-20 13-25 13-25m-60 45s3 7.5 6.5 12.5 8.5 10 8.5 10-5 5-8.5 10-6.5 12.5-6.5 12.5-3-7.5-6.5-12.5-8.5-10-8.5-10 5-5 8.5-10 6.5-12.5 6.5-12.5m240 405s-6-15-13-25-17-20-17-20 10-10 17-20 13-25 13-25 6 15 13 25 17 20 17 20-10 10-17 20-13 25-13 25m60-45s-3-7.5-6.5-12.5-8.5-10-8.5-10 5-5 8.5-10 6.5-12.5 6.5-12.5 3 7.5 6.5 12.5 8.5 10 8.5 10-5 5-8.5 10-6.5 12.5-6.5 12.5" style="fill:#f55;stroke:none"/></g></svg>