<svg xmlns="http://www.w3.org/2000/svg" width="360" height="540"><g transform="translate(0 -512.362)"><rect width="359" height="539" x=".5" y="512.862" rx="29.944" ry="29.944" style="fill:#fff;stroke:#000;stroke-width:.99999976"/><path d="M30 542.362c-5.523 0-10 4.477-10 10v30c0 5.523 4.477 10 10 10 .434 0 .862-.04 1.281-.094A9.97 9.97 0 0 0 40 597.362v-5c-1.64 0-3.088-.812-4-2.031 2.424-1.825 4-4.7 4-7.969v-30c0-5.523-4.477-10-10-10m0 5a5 5 0 0 1 5 5v30c0 .716-.167 1.385-.437 2a10.03 10.03 0 0 0-9.563-7v-25a5 5 0 0 1 5-5m-5 35a5 5 0 0 1 5 5 5 5 0 0 1-5-5m305 440c5.523 0 10-4.478 10-10v-30c0-5.523-4.477-10-10-10-.434 0-.862.04-1.281.094a9.97 9.97 0 0 0-8.719-5.094v5c1.64 0 3.088.812 4 2.031-2.424 1.825-4 4.7-4 7.969v30c0 5.523 4.477 10 10 10m0-5a5 5 0 0 1-5-5v-30c0-.716.167-1.385.438-2a10.03 10.03 0 0 0 9.562 7v25a5 5 0 0 1-5 5m5-35a5 5 0 0 1-5-5 5 5 0 0 1 5 5" style="fill:#f55;fill-opacity:1;stroke:none"/><path d="M60 542.362h270v360" style="fill:none;stroke:#55a;stroke-width:2;stroke-linecap:butt;stroke-linejoin:miter;stroke-miterlimit:4;stroke-opacity:1;stroke-dasharray:none;stroke-dashoffset:0"/><path d="M30 662.362v360h270" style="fill:none;stroke:#55a;stroke-width:2;stroke-miterlimit:4;stroke-opacity:1;stroke-dasharray:none"/><path d="m145.061 197.625 1.95-7.604s8.623 3.267 13.063 4.484c5.25 1.439 10.627 2.377 15.988 3.315 3.169.554 6.347 1.104 9.554 1.364 6.479.526 12.998.518 19.497.39 6.575-.129 13.143-.59 19.693-1.17 3.324-.293 6.64-.69 9.943-1.17 3.786-.548 11.309-1.949 11.309-1.949l-12.868 12.478-24.177.195-12.479 31.196 19.108 1.365-3.705 21.057s-14.706-.68-22.032-1.364c-6.782-.634-13.544-1.503-20.277-2.535-4.31-.66-8.571-1.605-12.868-2.34-3.244-.554-9.75-1.56-9.75-1.56s-2.68-6.969-4.289-10.333c-2.521-5.274-8.384-15.403-8.384-15.403l17.743 4.29 9.749-29.052z" style="fill:#000;fill-opacity:1;stroke:none" transform="translate(0 512.362)"/><path d="M121.023 177.623s8.463 5.516 12.974 7.763c4.211 2.098 13.081 5.303 13.081 5.303l-11.667 37.477s-6.506-9.228-10.253-13.435c-3.5-3.93-7.412-7.482-11.36-10.96-3.388-2.985-10.56-8.486-10.56-8.486zm2.367 66.807s4.468 13.495 5.303 20.505c.879 7.374.915 14.958-.353 22.274-1.127 6.5-3.58 12.758-6.364 18.739-2.499 5.369-5.353 10.694-9.192 15.202-3.308 3.883-7.518 6.935-11.668 9.9-5.245 3.748-16.617 9.9-16.617 9.9l-3.535-3.183s1.358-14.232 2.828-21.213c1.568-7.445 3.644-14.815 6.364-21.92 2.526-6.596 5.867-12.86 9.193-19.092 3.283-6.152 6.302-12.545 10.606-18.031 3.858-4.918 13.435-13.082 13.435-13.082" style="fill:#55a;fill-opacity:1;stroke:none" transform="translate(0 512.362)"/><path d="M117.026 251.147s4.25 12.794 4.596 19.445c.382 7.358-.834 14.828-2.828 21.92-1.956 6.958-4.833 13.784-8.839 19.8-3.05 4.58-7.084 8.5-11.314 12.02-4.85 4.036-15.91 10.253-15.91 10.253s1.499-14.674 2.829-21.92c1.006-5.482 2.06-10.998 3.889-16.263 2.3-6.625 5.59-12.877 8.839-19.092 2.593-4.962 5.208-9.956 8.485-14.496 3.03-4.198 10.253-11.667 10.253-11.667" style="fill:#f55;fill-opacity:1;stroke:none" transform="translate(0 512.362)"/><path d="m38.859 737.583-5.804 10.369s.832 3.374 2.536 3.977c1.026.363 2.321-.101 3.25-.707 1.187-.775 2.5-3.44 2.5-3.44l4.96-8.328" style="fill:#ff5;fill-opacity:1;stroke:#55a;stroke-width:1.78660917;stroke-linecap:round;stroke-linejoin:round;stroke-miterlimit:4;stroke-opacity:1;stroke-dasharray:none;stroke-dashoffset:0" transform="matrix(1 0 0 1.25314 8.906 -186.298)"/><path d="M34.043 747.656s2.483-.805 3.798-.874c1.052-.054 3.128.379 3.128.379" style="fill:none;stroke:#55a;stroke-width:1.78660917;stroke-linecap:round;stroke-linejoin:round;stroke-miterlimit:4;stroke-opacity:1;stroke-dasharray:none;stroke-dashoffset:0" transform="matrix(1 0 0 1.25314 8.906 -186.298)"/><path d="M166.208 65.782s-13.782 14.046-19.08 22.258c-5.543 8.593-9.702 18.11-12.99 27.794-2.852 8.398-4.356 17.22-5.74 25.982-.82 5.196-1.101 10.465-1.51 15.71-.393 5.029-.907 15.105-.907 15.105l45.015-41.691s-2.716-9.173-3.324-13.898c-.604-4.695-.251-9.465-.302-14.199-.067-6.344.205-12.692 0-19.033-.194-6.019-1.162-18.028-1.162-18.028" style="fill:#000;fill-opacity:1;stroke:none" transform="translate(0 512.362)"/><path d="M299.778 686.73c-5.067 2.594-12.066 6.076-18.247 8.794-5.833 2.565-11.714 5.06-17.756 7.084-5.083 1.703-10.308 2.954-15.511 4.243-4.822 1.195-9.636 2.49-14.548 3.234-5.08.77-10.237.889-15.36 1.266-4.12.304-8.237.725-12.368.803-5.003.095-10.01-.118-15.006-.406-4.59-.264-9.195-.5-13.736-1.211-5.119-.802-10.147-2.121-15.157-3.437-4.317-1.134-8.584-2.453-12.827-3.837-4.652-1.518-9.352-2.948-13.84-4.897-5.264-2.287-11.74-6.175-15.276-7.942l45.292-42.05s2.742.51 4.104.807c2.589.566 2.447.947 7.73 1.859 2.495 1.037 4.165 3.57 6.645 4.644 3.023 1.308 6.377 2.038 9.67 2.03 6.29-.014 13.867-1.696 18.448-3.96 2.383-.003 4.485-.4 6.727-.617 3.11-.3 6.23-.523 9.325-.946 3.326-.455 6.69-.812 9.924-1.71 2.766-.769 5.391-1.985 8.026-3.125 2.891-1.25 8.528-4.07 8.528-4.07 3.982 6.638 9.038 15.502 17.592 23.604 4.277 4.051 9.276 9.738 13.55 12.983s11.071 5.267 14.071 6.858" style="fill:#ffff58;fill-opacity:1;stroke:none"/><path d="M167.193 103.658s-6.095 9.733-8.584 14.895c-1.787 3.706-3.387 7.529-4.532 11.48a52 52 0 0 0-1.817 9.555c-.258 2.744.005 8.27.005 8.27l19.033-16.918s-2.644-8.573-3.323-12.991c-.725-4.716-.782-14.291-.782-14.291" style="fill:#f55;fill-opacity:1;stroke:none" transform="translate(0 512.362)"/><path d="m224 30 65.5 84.167 7.833-1.667L238 30z" style="fill:#000;fill-opacity:1;stroke:none" transform="translate(0 512.362)"/><path d="M307 542.362a149.6 149.6 0 0 0-2 30c.348 10.168 1.752 20.359 5 30a81 81 0 0 0 10 20 76 76 0 0 0-23 2l-59-82z" style="fill:#ff5;fill-opacity:1;stroke:#55a;stroke-width:2;stroke-linecap:round;stroke-linejoin:round;stroke-miterlimit:4;stroke-opacity:1;stroke-dasharray:none"/><path d="M273.592 567.832c.396.991.852 1.982 1.518 2.81.88 1.092 1.844 2.313 3.192 2.743 1.695.54 3.992.724 5.39-.45 1.364-1.146 1.79-3.435 1.347-5.106-.512-1.93-4.227-4.184-4.227-4.184s4.728-1.58 5.556-3.612c.777-1.909-.034-4.453-1.44-5.88-1.387-1.406-3.928-2.34-5.796-1.518-2.098.923-3.3 6.023-3.3 6.023s-.838-3.753-2.05-5.13c-1.078-1.221-2.628-2.416-4.291-2.38-1.475.033-3.177.958-3.867 2.28-1.085 2.08-.611 4.967.625 6.878 1.24 1.915 5.998 3.342 5.998 3.342s-1.275-2.703.982-4.263c1.804-1.246 5.046.239 6.047 2.108.847 1.582.4 4.62-1.3 5.348-3.395 1.453-5.119-1.722-5.119-1.722s.389 1.846.735 2.713m19.576 27.238c.353.896.76 1.793 1.355 2.541.784.988 1.645 2.092 2.847 2.48 1.513.49 3.562.656 4.81-.407 1.217-1.035 1.597-3.105 1.202-4.617-.457-1.745-3.772-3.783-3.772-3.783s3.707-1.827 4.29-3.6c.57-1.733.011-4.035-1.284-5.318-1.096-1.084-3.1-1.674-4.505-1.04-1.881.85-2.945 5.447-2.945 5.447s-.747-3.394-1.83-4.638c-.96-1.106-2.344-2.186-3.827-2.153-1.316.029-2.835.866-3.45 2.06-.968 1.882-.546 4.494.558 6.222 1.106 1.732 5.351 3.022 5.351 3.022s-1.137-2.445.876-3.855c1.61-1.127 4.503.215 5.395 1.906.756 1.431.358 4.178-1.16 4.837-3.029 1.314-4.567-1.558-4.567-1.558s.347 1.67.656 2.454" style="fill:#000;fill-opacity:1;stroke:#000100;stroke-width:1.99999988;stroke-linecap:round;stroke-linejoin:round;stroke-miterlimit:4;stroke-opacity:1;stroke-dasharray:none;stroke-dashoffset:0"/><path d="M247.333 31.667s.588 11.227 5.5 16.833c4.723 5.389 10.278 5.611 15.167 5.167 0 0-2.3 13.14 2 18.5 4.664 5.814 20 10.333 20 10.333s-3.58 10.047 1.333 17c2.72 3.85 11.834 9.5 11.834 9.5" style="fill:none;stroke:#000;stroke-width:2;stroke-linecap:round;stroke-linejoin:round;stroke-miterlimit:4;stroke-opacity:1;stroke-dasharray:none;stroke-dashoffset:0" transform="translate(0 512.362)"/><path d="M252.094 543c-.69.002-1.34.541-1.469 1.219 0 0-1.823 8.333 4.063 14.218.91.91 2.217 1.694 3.812 2.563s3.437 1.76 5.188 2.563c3.054 1.4 5.149 2.2 5.812 2.468.003.707-.023 2.231.375 5.032.48 3.374 1.087 8.16 3.323 11.322 4.14 5.858 8.887 8.365 12.302 10.052 2.235 1.105 3.76 1.49 4.781 1.688.099.77.278 2.426.844 5.281.683 3.448 1.614 7.37 3.188 9.907 1.649 2.659 4.928 5.496 7.875 7.843a102 102 0 0 0 5.562 4.125c.654.442 1.652.249 2.094-.406.442-.654-3.085-3.152-3.74-3.594 0 0-2.356-3.363-2.875-6.802-2.852-2.272-4.934-2.322-6.552-4.396-1.584-2.03-1.956-3.947-2.615-7.27-.658-3.324-1-6.126-1-6.126-.083-.68-.69-1.26-1.375-1.312 0 0-5.7-1.434-7.843-3.292-2.471-2.142-5.685-2.96-5.042-8.416-1.73-2.45-5.512-5.903-5.958-9.042s-.438-5.562-.438-5.562a1.54 1.54 0 0 0-.937-1.438s-3.108-1.243-6.531-2.812c-1.712-.785-3.8-1.05-5-2.47-1.468-1.735-1.552-6.123-1.959-6.53-4.655-4.656-4.416-6.97-4.416-6.97.207-.88-.565-1.848-1.47-1.843" style="font-size:medium;font-style:normal;font-variant:normal;font-weight:400;font-stretch:normal;text-indent:0;text-align:start;text-decoration:none;line-height:normal;letter-spacing:normal;word-spacing:normal;text-transform:none;direction:ltr;block-progression:tb;writing-mode:lr-tb;text-anchor:start;baseline-shift:baseline;color:#000;fill:#000;fill-opacity:1;stroke:none;stroke-width:3;marker:none;visibility:visible;display:inline;overflow:visible;font-family:Sans;-inkscape-font-specification:Sans"/><path d="M211 30h13.333L330 168.667V201z" style="fill:#f55;fill-opacity:1;stroke:#55a;stroke-width:2;stroke-miterlimit:4;stroke-opacity:1;stroke-dasharray:none" transform="translate(0 512.362)"/><path d="M186.993 542.362s1.77 11.296 14.652 22.174 34.358 15.23 34.358 15.23" style="fill:none;stroke:#55a;stroke-width:2;stroke-linecap:round;stroke-linejoin:round;stroke-miterlimit:4;stroke-opacity:1;stroke-dasharray:none;stroke-dashoffset:0"/><path d="M192.16 542.362s5.213 11.83 12.429 17.843 27.532 13.114 27.532 13.114" style="fill:none;stroke:#55a;stroke-width:2;stroke-linecap:round;stroke-linejoin:round;stroke-miterlimit:4;stroke-opacity:1;stroke-dasharray:none;stroke-dashoffset:0"/><path d="M198.267 542.362s4.41 10.059 9.792 14.64 19.925 10.533 19.925 10.533" style="fill:none;stroke:#55a;stroke-width:2;stroke-linecap:round;stroke-linejoin:round;stroke-miterlimit:4;stroke-opacity:1;stroke-dasharray:none;stroke-dashoffset:0"/><path d="M203.288 542.362s2.732 6.832 7.03 10.382 12.89 7.391 12.89 7.391" style="fill:none;stroke:#55a;stroke-width:1.99999988;stroke-linecap:round;stroke-linejoin:round;stroke-miterlimit:4;stroke-opacity:1;stroke-dasharray:none;stroke-dashoffset:0"/><path d="M188.939 549.9s-.84 4.086-6.144 12.957-15.747 12.633-15.747 12.633m18.003-33.128s-.173 7.049-4.997 14.561c-4.824 7.513-12.941 11.314-12.941 11.314m12.567-25.875s-1.933 7.458-4.509 12.04c-2.575 4.58-7.86 7.897-7.86 7.897" style="fill:none;stroke:#55a;stroke-width:2;stroke-linecap:round;stroke-linejoin:round;stroke-miterlimit:4;stroke-opacity:1;stroke-dasharray:none;stroke-dashoffset:0"/><path d="M173.554 542.362s.18 4.4-1.943 7.951-3.59 3.984-3.59 3.984m18.384 41.535s.59 2.58.53 3.887c-.162 3.576-1.195 7.098-2.408 10.466-.795 2.208-3 3.951-3.158 6.293-.132 1.947.616 4.064 1.896 5.537.901 1.038 2.64.965 3.676 1.868.839.73 1.906 2.74 1.906 2.74" style="fill:none;stroke:#55a;stroke-width:1.99999988;stroke-linecap:round;stroke-linejoin:round;stroke-miterlimit:4;stroke-opacity:1;stroke-dasharray:none;stroke-dashoffset:0"/><path d="M198.748 615.143s3.324 3.56 2.859 5.604c-.304 1.335-1.914 2.282-3.268 2.49-1.78.275-3.4-1.188-5.082-1.827-1.594-.606-3.127-2.43-4.747-1.902-.652.213-1.417 1.142-1.09 1.744.536.984 2.243-.014 3.362.053 3.394.204 7.438 3.119 10.144 1.061.871-.662.78-2.169.545-3.238-.346-1.571-2.723-3.985-2.723-3.985" style="fill:#55a;fill-opacity:1;stroke:#55a;stroke-width:1.99999988;stroke-linecap:round;stroke-linejoin:round;stroke-miterlimit:4;stroke-opacity:1;stroke-dasharray:none;stroke-dashoffset:0"/><path d="M232.2 592.134s-9.207-6.281-14.497-7.65c-4.162-1.075-8.738-1.367-12.893-.265-1.672.444-4.451 2.665-4.451 2.665s4.075-1.311 6.188-1.54c4.27-.459 8.714-.675 12.878.376 4.62 1.166 12.776 6.414 12.776 6.414" style="fill:#55a;fill-opacity:1;stroke:#55a;stroke-width:1.99999976;stroke-linecap:round;stroke-linejoin:round;stroke-miterlimit:4;stroke-opacity:1;stroke-dasharray:none;stroke-dashoffset:0"/><path d="M168.27 586.613s5.568-2.98 8.54-2.654c3.705.407 9.588 5.526 9.588 5.526s-6.24-4.258-9.86-4.37c-3.038-.093-8.505 3.152-8.505 3.152z" style="fill:#55a;fill-opacity:1;stroke:#55a;stroke-width:1.99999988;stroke-linecap:round;stroke-linejoin:round;stroke-miterlimit:4;stroke-opacity:1;stroke-dasharray:none;stroke-dashoffset:0"/><path d="M203.94 635.333s-4.704-1.876-7.154-2.045c-1.84-.126-3.647.697-5.488.786-2.101.101-4.257-.854-6.305-.292-1.12.307-3.03 1.937-3.03 1.937s2.086-.46 3.137-.398c2.136.129 4.137 1.566 6.276 1.569 2.36.004 4.55-1.457 6.93-1.713 1.87-.2 5.634.156 5.634.156" style="fill:#55a;fill-opacity:1;stroke:#55a;stroke-width:1.99999976;stroke-linecap:round;stroke-linejoin:round;stroke-miterlimit:4;stroke-opacity:1;stroke-dasharray:none;stroke-dashoffset:0"/><path d="M197.578 640.195s-3.943 1.372-5.99 1.416c-1.754.037-5.174-.991-5.174-.991" style="fill:none;stroke:#55a;stroke-width:1.99999988;stroke-linecap:round;stroke-linejoin:round;stroke-miterlimit:4;stroke-opacity:1;stroke-dasharray:none;stroke-dashoffset:0"/><path d="M185.626 595.262s-5.032-4.106-9.65-4.205c-4.941-.107-7.894 2.523-7.894 2.523m60.532 3.828s-9.864-7.326-15.527-7.162c-7.42.213-12.961 5.559-12.961 5.559" style="fill:none;stroke:#55a;stroke-width:1.99999988;stroke-linecap:round;stroke-linejoin:round;stroke-miterlimit:4;stroke-opacity:1;stroke-dasharray:none"/><path d="M229.705 598.983c-5.852-.757-10.154-3.299-15.541-3.759-4.62-.394-13.943 1.036-13.943 1.036m-32.768 2.796c5.387-2.542 4.233-3.35 9.62-3.81 4.62-.395 9.446 2.225 9.446 2.225m39.95 1.971c-5.267 1.2-10.77 5.082-16.728 5.379-4.415.22-9.15-2.814-9.54-6.898" style="fill:none;stroke:#55a;stroke-width:1.99999988;stroke-linecap:round;stroke-linejoin:round;stroke-miterlimit:4;stroke-opacity:1;stroke-dasharray:none"/><path d="M215.381 596.758c.937 5.064-4.018 6.559-7.578 6.121-2.415-.297-4.654-3.26-3.492-6.153" style="fill:none;stroke:#55a;stroke-width:1.99999988;stroke-linecap:round;stroke-linejoin:round;stroke-miterlimit:4;stroke-opacity:1;stroke-dasharray:none"/><path d="M207.132 599.605c-.098-.917.746-2.18 1.706-2.23.84-.044 1.724.977 1.706 1.784-.02.841-.984 1.762-1.86 1.784-.696.018-1.48-.675-1.552-1.338m-28.574.305c.026-.717-.847-1.645-1.742-1.625-.784.016-1.533.862-1.46 1.486.078.651 1.04 1.307 1.855 1.27.648-.028 1.327-.612 1.347-1.13" style="fill:#55a;fill-opacity:1;stroke:#55a;stroke-width:1.99999988;stroke-linecap:round;stroke-linejoin:round;stroke-miterlimit:4;stroke-opacity:1;stroke-dasharray:none;stroke-dashoffset:0"/><path d="M184.968 603.775c-2.093 2.46-2.244 4.643-6.58 6.729m21.553-14.209c1.605 7.122 3.45 11.366 8.597 13.522" style="fill:none;stroke:#55a;stroke-width:1.99999988;stroke-linecap:round;stroke-linejoin:round;stroke-miterlimit:4;stroke-opacity:1;stroke-dasharray:none;stroke-dashoffset:0"/><path d="M167.55 601.776c2.856 1.804 6.512 2.87 11.176 2.748 3.455-.09 6.968-2.538 7.03-5.497" style="fill:none;stroke:#55a;stroke-width:2;stroke-linecap:round;stroke-linejoin:round;stroke-miterlimit:4;stroke-opacity:1;stroke-dasharray:none"/><path d="M172.826 596.465c-1.112 4.9 1.095 7.536 5.143 7.453 1.78-.036 5.422-4.039 2.747-7.844" style="fill:none;stroke:#55a;stroke-width:2;stroke-linecap:round;stroke-linejoin:round;stroke-miterlimit:4;stroke-opacity:1;stroke-dasharray:none"/><path d="M169 30s-2.295 21.97-2.5 33c-.161 8.672.745 17.33 1 26 .24 8.165-.41 16.383.5 24.5.645 5.75.935 11.814 3.5 17 2.252 4.553 5.707 8.784 10 11.5 3.657 2.313 8.179 3.274 12.5 3.5 4.39.23 8.832-.813 13-2.209 5.696-1.908 10.985-4.985 16-8.291 5.042-3.324 9.857-7.106 14-11.5 3.11-3.299 8-11 8-11" style="fill:none;stroke:#55a;stroke-width:2;stroke-linecap:round;stroke-linejoin:round;stroke-miterlimit:4;stroke-opacity:1;stroke-dasharray:none;stroke-dashoffset:0" transform="translate(0 512.362)"/><path d="M166.353 136.442c4.67 2.407 8.817 2.832 11.95 3.191m32.759 2.382c7.264-1.353 16.236-2.198 24.14-4.272 6.644-1.744 12.96-4.558 19.44-6.836m-11.749-14.1 5.981 15.809m-9.399-11.536 4.913 13.031m-8.758-8.331 3.204 9.4m-7.05-5.982 2.99 7.476m-7.049-4.058 2.777 6.195m-6.622-3.418 1.709 3.631m19.226-58.96c-.997 1.851-2.225 3.595-2.99 5.554-1.044 2.67-1.425 5.554-2.137 8.331m9.186-7.904c-1.282 2.564-2.91 4.982-3.845 7.69-1.163 3.367-1.424 6.98-2.136 10.468m9.613-12.817c-1.14 2.706-2.59 5.3-3.418 8.118-1.284 4.369-1.567 8.972-2.35 13.458m9.827-16.449c-1.353 3.489-3.28 6.807-4.06 10.467-1.201 5.649-.569 11.536-.854 17.304m9.186-22.217c-1.21 2.564-2.972 4.933-3.632 7.69-1.756 7.345-.427 15.097-.64 22.645m8.545-24.781c-1.282 3.205-3.34 7.223-3.846 11.109-.985 7.577 1.14 15.239 1.71 22.858m5.981-27.131c-1.068 3.418-2.237 8.906-2.35 13.459-.187 7.531 1.567 13.886 2.777 22.43m4.273-29.266c-.712 4.77-.911 8.975-.641 13.458.512 8.507 2.136 17.02 4.272 25.208m1.923-30.548c-.142 4.486-.633 9.584 0 14.313 1.078 8.047 4.13 15.38 6.409 23.498m.427-27.985c-.285 3.276-.283 7.896.427 11.75 1.322 7.175 3.347 13.53 7.05 20.721m-1.282-23.498c.499 3.702.386 7.54 1.495 11.108 1.684 5.413 5.484 10.468 7.691 15.168" style="fill:none;stroke:#55a;stroke-width:2;stroke-linecap:round;stroke-linejoin:round;stroke-miterlimit:4;stroke-opacity:1;stroke-dasharray:none;stroke-dashoffset:0" transform="translate(0 512.362)"/><path d="M89.797 720.324s-4.405-5.209-6.869-7.601c-2.594-2.519-5.292-4.98-8.3-7.077-2.317-1.616-4.681-3.49-7.44-4.194-1.629-.415-3.485-.563-5.04.07-1.144.466-2.42 1.346-2.688 2.551-.508 2.291 1.102 4.727 2.576 6.553 1.495 1.851 3.768 2.992 5.946 3.951 1.314.579 2.915.903 4.182 1.037.829 2.601-1.655 2.008-1.127 7.139.154 1.504.362 3.568.362 3.568" style="fill:none;stroke:#55a;stroke-width:1.99999988;stroke-linecap:round;stroke-linejoin:round;stroke-miterlimit:4;stroke-opacity:1;stroke-dasharray:none;stroke-dashoffset:0"/><path d="M63.467 706.048s.488 1.665 1.145 2.219c.6.505 1.483.778 2.29.786.79.008 2.26-.725 2.26-.725m-10.274-5.041s-3.967-1.815-5.724-1.049c-1.849.807-2.854 3.104-2.862 4.98-.011 2.853 2.778 5.118 4.293 7.602.922 1.51 1.534 3.33 2.915 4.435 1.353 1.083 3.172 2.203 4.865 1.835 1.323-.288 2.387-1.616 2.862-2.884.424-1.131.583-2.725-.232-3.617-1.095-1.198-3.223-1.09-4.808-.747-.847.184-1.634.748-2.174 1.426-.554.697-.926 2.506-.926 2.506" style="fill:none;stroke:#55a;stroke-width:1.99999988;stroke-linecap:round;stroke-linejoin:round;stroke-miterlimit:4;stroke-opacity:1;stroke-dasharray:none;stroke-dashoffset:0"/><path d="M49.444 708.529s-2.803.856-3.72 1.835c-.925.985-1.49 2.372-1.432 3.67.097 2.109 1.55 4.03 2.862 5.766 1.537 2.031 3.545 3.848 5.724 5.242 1.616 1.035 3.417 1.906 5.31 2.228 1.413.24 3.31.782 4.292-.263.838-.89.606-2.607 0-3.67-.457-.801-1.498-1.146-2.383-1.41-1.2-.358-2.707-.857-3.756-.172-.94.615-1.209 3.146-1.209 3.146" style="fill:none;stroke:#55a;stroke-width:1.99999988;stroke-linecap:round;stroke-linejoin:round;stroke-miterlimit:4;stroke-opacity:1;stroke-dasharray:none;stroke-dashoffset:0"/><path d="M44.865 718.49s-3.484 2.21-3.72 3.931c-.16 1.163.905 2.239 1.717 3.146 2.068 2.31 4.948 3.938 7.727 5.504 1.708.963 3.432 2.337 5.437 2.359.94.01 2.108-.302 2.576-1.048.43-.687.088-1.646-.286-2.36-.702-1.336-1.816-3.194-3.435-3.145-1.013.031-1.604 1.243-2.003 2.097-.415.887-.286 2.883-.286 2.883" style="fill:none;stroke:#55a;stroke-width:1.99999988;stroke-linecap:round;stroke-linejoin:round;stroke-miterlimit:4;stroke-opacity:1;stroke-dasharray:none;stroke-dashoffset:0"/><path d="M43.148 727.663s-1.257 2.045-1.145 3.146c.182 1.791 1.484 3.435 2.862 4.718 1.786 1.663 4.173 2.84 6.617 3.497 1.272.342 2.96.958 3.972.173 1.245-.968 1.326-3.13.572-4.456-.65-1.145-2.328-2.032-3.72-1.835-1.05.149-1.724 1.236-2.22 2.097-.5.867-.642 2.883-.642 2.883m5.293 2.748s.874 1.364 1.478 1.886c.568.492 1.27.815 1.957 1.12 1.364.603 4.257 1.382 4.257 1.382" style="fill:none;stroke:#55a;stroke-width:1.99999988;stroke-linecap:round;stroke-linejoin:round;stroke-miterlimit:4;stroke-opacity:1;stroke-dasharray:none;stroke-dashoffset:0"/><path d="M50.84 703.782s-5.511-1.229-8-2.5c-1.895-.968-3.745-2.194-5.115-3.823-1.486-1.767-2.561-3.94-3.134-6.177-.642-2.504-.25-7.75-.25-7.75s3.559 2.675 5.5 3.75c2.093 1.16 4.518 1.658 6.573 2.884 1.532.914 2.945 2.045 4.22 3.293 1.02 1 2.03 2.065 2.707 3.323.661 1.23 1.04 2.62 1.25 4 .176 1.154 0 3.5 0 3.5z" style="fill:#ff5;fill-opacity:1;stroke:#55a;stroke-width:2;stroke-linecap:round;stroke-linejoin:round;stroke-miterlimit:4;stroke-opacity:1;stroke-dasharray:none;stroke-dashoffset:0" transform="rotate(-24.894 55.66 674.372)"/><path d="M39.59 692.282s2.02 2.617 3.263 3.69c1.879 1.62 4.192 2.657 6.238 4.06 1.526 1.047 4.5 3.25 4.5 3.25" style="fill:none;stroke:#55a;stroke-width:2;stroke-linecap:round;stroke-linejoin:round;stroke-miterlimit:4;stroke-opacity:1;stroke-dasharray:none;stroke-dashoffset:0" transform="rotate(-24.894 55.66 674.372)"/><path d="m66.526 700.508.888-10.32 3.068-2.706 2.653 2.68-.592 13.76z" style="fill:#ff5;fill-opacity:1;stroke:#55a;stroke-width:2;stroke-linecap:round;stroke-linejoin:round;stroke-miterlimit:4;stroke-opacity:1;stroke-dasharray:none;stroke-dashoffset:0"/><path d="M62.34 706.532s3.314-3.896 5.5-5.116c2.536-1.414 5.507-2.042 8.397-2.31 2.7-.251 5.395.787 8.104.676 2.532-.103 7.5-1.25 7.5-1.25s-2.14 5.26-4 7.25c-1.979 2.117-4.547 3.736-7.203 4.547-3.585 1.095-7.41.638-11.047.203-1.63-.195-3.35-.4-4.75-1.25-1.06-.642-2.5-2.75-2.5-2.75" style="fill:#ff5;fill-opacity:1;stroke:#55a;stroke-width:2.31352758;stroke-linecap:round;stroke-linejoin:round;stroke-miterlimit:4;stroke-opacity:1;stroke-dasharray:none;stroke-dashoffset:0" transform="matrix(.86102 -.24714 .26912 .7907 -169.53 160.457)"/><path d="M63.5 706.782s4.335-1.826 6.59-2c2.64-.203 5.149 1.414 7.785 1.149 1.932-.194 5.583-1.975 5.583-1.975" style="fill:none;stroke:#55a;stroke-width:2.31352758;stroke-linecap:round;stroke-linejoin:round;stroke-miterlimit:4;stroke-opacity:1;stroke-dasharray:none;stroke-dashoffset:0" transform="matrix(.86102 -.24714 .26912 .7907 -169.53 160.457)"/><path d="m80.4 672.051 5.842-4.137 5.616 3.127-5.644 4.66zm-13.759-8.181-4.28-5.75 3.977-5.738 4.306 5.659zm-15.813 8.86-5.474 4.475 6.675 3.082 4.062-4.416z" style="fill:#55a;fill-opacity:1;stroke:#55a;stroke-width:2;stroke-linecap:round;stroke-linejoin:round;stroke-miterlimit:4;stroke-opacity:1;stroke-dasharray:none;stroke-dashoffset:0"/><path d="M53.687 678.084c-1.125 2.215-2.668 4.574-2.462 7.035.156 1.856 1.295 3.67 2.718 4.953 1.855 1.671 4.486 2.584 6.984 3.03 1.215.216 2.561.275 3.696-.21 2.253-.961 5.374-5.011 5.374-5.011s2.912 2.577 4.725 3.059c2.808.745 6.146.897 8.701-.484 1.788-.966 3.038-2.958 3.619-4.906.63-2.113.292-4.501-.368-6.606-.41-1.304-1.193-2.517-2.154-3.49-1.42-1.44-5.12-3.252-5.12-3.252s4.175-2.928 5.416-5.065c.846-1.458 1.338-3.243 1.168-4.92-.168-1.658-.971-3.282-2.109-4.534-1.312-1.445-3.103-2.809-5.1-3.06-2.49-.312-5.14.696-7.202 2.115-1.098.756-1.71 2.054-2.422 3.182-.935 1.483-2.405 4.68-2.405 4.68s-2.745-3.521-4.619-4.641c-2.374-1.42-5.197-2.728-7.953-2.371-1.734.225-3.445 1.279-4.404 2.712-1.174 1.754-1.236 4.151-1.012 6.25.211 1.986.946 4.013 2.183 5.581 1.208 1.532 4.803 3.343 4.803 3.343-.41 1.383-1.326 1.438-2.057 2.61" style="fill:#ff5;fill-opacity:1;stroke:#55a;stroke-width:1.99999988;stroke-linecap:round;stroke-linejoin:round;stroke-miterlimit:4;stroke-opacity:1;stroke-dasharray:none;stroke-dashoffset:0"/><path d="M66.487 156.199c-3.015.396-6.114 4.017-5.8 7.042.32 3.078 4.179 6.182 7.25 5.8 3.179-.397 6.282-4.497 5.8-7.664-.449-2.936-4.306-5.566-7.25-5.178" style="fill:#f55;fill-opacity:1;stroke:#55a;stroke-width:2;stroke-linecap:round;stroke-linejoin:round;stroke-miterlimit:4;stroke-opacity:1;stroke-dasharray:none;stroke-dashoffset:0" transform="translate(0 512.362)"/><path d="m57.58 154.542 4.143 3.52m14.085-5.385-4.143 5.179m1.243 7.87 4.97 3.729m-13.669-1.45-4.35 5.592" style="fill:#000;fill-opacity:1;stroke:#55a;stroke-width:2;stroke-linecap:round;stroke-linejoin:round;stroke-miterlimit:4;stroke-opacity:1;stroke-dasharray:none;stroke-dashoffset:0" transform="translate(0 512.362)"/><path d="m182.718 166.766-2.476 13.174 13.06 1.216 1.167-12.924zm5.376 4.116 3.187 3.18-3.531 2.844-3.094-3.187z" style="fill:#000;fill-opacity:1;stroke:none" transform="translate(0 512.362)"/><path d="m173.5 665.468-3.811 12.147 12.957 2.655 2.503-12.822zm4.35 3.295 3.187 3.18-3.532 2.844-3.093-3.188z" style="fill:#000;fill-opacity:1;stroke:none"/><path d="m158.883 673.175-5.142 11.948 13.073 4.406 3.733-12.732zm4.705 5.112 2.303 3.87-4.125 1.882-2.21-3.853z" style="fill:#000;fill-opacity:1;stroke:none"/><path d="m142.287 679.944-4.706 10.753 11.892 5.535 5.102-11.339zm5.734 4.861 1.933 4.067-4.281 1.491-1.843-4.042zm7.573-26.181-5.127 4.224-3.073 5.868 11.787 4.727 4.526-10.41zm1.52 4.066 1.786 4.134-4.332 1.336-1.696-4.105zm9.595 26.197-3.46 11.331 14.344 3.12 2.777-11.64zm5.533 4.306 3.072 3.292-3.63 2.716-2.978-3.296zm23.643-24.744-1.705 12.723 13.19.14.699-12.744zm5.897 3.454 3.273 3.093-3.453 2.939-3.179-3.103zm-8.815 20.94-1.566 11.938 14.334.724.556-12.244zm6.483 3.765 3.328 3.032-3.398 3.001-3.236-3.043z" style="fill:#000;fill-opacity:1;stroke:none"/><path d="m206.834 680.996-.959 12.707 13.628-.39-.879-12.255zm5.878 3.184 3.419 2.93-3.306 3.103-3.326-2.944zm5.265-15.618.714 12.787 12.563-2.244-1.534-11.489zm5.995 3.25 3.68 2.596-3 3.4-3.588-2.618z" style="fill:#000;fill-opacity:1;stroke:none"/><path d="m219.3 692.875.735 11.25 13.57-2.218-1.345-11.347zm6.339 2.008 3.973 1.788-2.553 3.163-3.886-1.817zm20.751-7.373 2.688 12.174 14.084-4.272-4.633-11.964zm7.162 1.289 3.973 1.788-2.553 3.163-3.886-1.817zm17.394-9.044 3.493 10.793 12.226-4.536-5.395-10.237zm6.6.812 4.234 1.03-1.93 3.577-4.153-1.074z" style="fill:#000;fill-opacity:1;stroke:none"/><path d="m254.91 672.588 3.423 11.09 12.726-3.957-4.605-11.969zm5.781.792 4.237 1.016-1.92 3.583-4.156-1.06zm-20.643-8.729 2.776 11.688 12.288-3.99-4.192-11.665zm6.495 1.425 4.119 1.421-2.257 3.381-4.034-1.457z" style="fill:#000;fill-opacity:1;stroke:none"/><path d="m230.98 678.88 1.456 11.764 14.186-2.732-3.4-11.963zm6.34 2.522 3.974 1.788-2.554 3.163-3.886-1.817z" style="fill:#000;fill-opacity:1;stroke:none"/><path d="m142.592 167.8 5.034-11.71-1.849-.72-10.581 9.143zm118.245-23.422 5.445 10.992 4.52-1.849-8.013-10.17z" style="fill:#000;fill-opacity:1;stroke:none" transform="translate(0 512.362)"/><path d="M156.27 658.504c10.668 6.439 22.886 8.506 34.885 10.138 8.61 1.171 17.421.579 26.062-.324a141 141 0 0 0 25.354-5.026c6.56-1.943 12.863-4.702 19.059-7.617m28.284 27.931c-5.068 2.593-9.984 5.505-15.203 7.778-3.794 1.653-7.735 2.954-11.667 4.243-4.784 1.568-9.607 3.04-14.496 4.242-4.668 1.148-9.384 2.142-14.142 2.829-4.684.676-9.736 1.362-14.45 1.78-4.596.407-8.871.493-13.48.695-4.593.2-9.199.229-13.79 0a144 144 0 0 1-14.142-1.414c-4.754-.712-9.486-1.632-14.142-2.829-4.548-1.17-9.009-2.672-13.435-4.243-4.537-1.61-9.038-3.34-13.435-5.303-3.61-1.61-7.07-3.535-10.606-5.303" style="fill:none;stroke:#55a;stroke-width:2;stroke-linecap:round;stroke-linejoin:round;stroke-miterlimit:4;stroke-opacity:1;stroke-dasharray:none;stroke-dashoffset:0"/><path d="M257.631 647.892s-12.747 5.86-19.443 7.876c-6.88 2.072-13.99 3.437-21.125 4.282-6.977.825-14.056 1.251-21.063.75-7.317-.524-14.576-1.99-21.656-3.907-4.218-1.142-12.313-4.5-12.313-4.5l-2.26 2.404s9.073 3.702 13.792 4.971c7.268 1.956 14.678 3.489 22.218 4.032 7.24.52 14.484.073 21.656-.782 7.305-.87 14.582-2.282 21.625-4.406 6.965-2.1 20.229-8.19 20.229-8.19z" style="font-size:medium;font-style:normal;font-variant:normal;font-weight:400;font-stretch:normal;text-indent:0;text-align:start;text-decoration:none;line-height:normal;letter-spacing:normal;word-spacing:normal;text-transform:none;direction:ltr;block-progression:tb;writing-mode:lr-tb;text-anchor:start;baseline-shift:baseline;color:#000;fill:#000;fill-opacity:1;stroke:none;stroke-width:3;marker:none;visibility:visible;display:inline;overflow:visible;font-family:Sans;-inkscape-font-specification:Sans"/><path d="M238.714 70.077S237.809 84.79 239 92c1.142 6.916 3.788 13.536 6.5 20a162 162 0 0 0 12.5 24c3.246 5.125 7.012 9.928 11 14.5 5.422 6.217 10.707 12.819 17.5 17.5 4.361 3.006 9.582 4.533 14.5 6.5 4.709 1.884 14.345 5.068 14.345 5.068" style="fill:none;stroke:#55a;stroke-width:2;stroke-linecap:round;stroke-linejoin:round;stroke-miterlimit:4;stroke-opacity:1;stroke-dasharray:none;stroke-dashoffset:0" transform="translate(0 512.362)"/><path d="M103.406 195.594S117.258 205.707 123 212c5.329 5.84 13.5 19.5 13.5 19.5s-14.793 12.239-21 19.5c-7.179 8.398-13.32 17.742-18.5 27.5-4.382 8.256-8.005 16.992-10.5 26-1.712 6.18-2.17 12.642-3 19-.63 4.818-1.5 14.5-1.5 14.5l-52-50v-25.5" style="fill:#ffff58;fill-opacity:1;stroke:#000;stroke-width:2;stroke-linecap:round;stroke-linejoin:round;stroke-miterlimit:4;stroke-opacity:1;stroke-dasharray:none;stroke-dashoffset:0" transform="translate(0 512.362)"/><path d="m37 266 68-62.5s8.806 7.602 12.58 12c3.572 4.165 9.42 13.5 9.42 13.5s-11.816 11.578-17 18c-6.475 8.022-12.448 16.514-17.5 25.5-3.583 6.373-6.58 13.101-9 20-1.993 5.684-3.552 11.552-4.5 17.5-.815 5.113-1 15.5-1 15.5L37.5 285z" style="fill:#000;fill-opacity:1;stroke:#000;stroke-width:2;stroke-linecap:round;stroke-linejoin:round;stroke-miterlimit:4;stroke-opacity:1;stroke-dasharray:none;stroke-dashoffset:0" transform="translate(0 512.362)"/><path d="M91.297 221.98c-.06-1.628 1.15-4.749 1.15-4.749s2.866 1.493 4.078 2.54c1.26 1.09 3.228 3.814 3.228 3.814s1.294-2.916 2.24-4.183c1.065-1.428 3.796-3.759 3.796-3.759s1.452 3.168 1.627 4.87c.206 2.005-.71 6.004-.71 6.004s3.393-1.645 5.225-1.98c1.736-.318 5.295.001 5.295.001s-1.762 3.631-3.034 5.173c-1.297 1.573-4.59 4.04-4.59 4.04s2.356.827 3.283 1.622c1.072.917 2.435 3.461 2.435 3.461s-2.593 1.548-4.042 1.874c-1.268.285-3.9.032-3.9.032s.837 2.796.85 4.236c.013 1.578-.85 4.66-.85 4.66s-2.46-1.17-3.443-2.08c-1.092-1.013-2.593-3.639-2.593-3.639s-1.138 3.962-2.22 5.684c-1.242 1.974-4.77 5.118-4.77 5.118s-.707-4.838-.69-7.273c.014-2.01.654-5.998.654-5.998s-3.08 1.637-4.746 2.101c-1.742.486-5.383.686-5.383.686s.941-3.861 1.99-5.508c1.183-1.856 4.681-4.658 4.681-4.658s-2.949-.72-4.306-1.374c-1.658-.8-4.59-3.074-4.59-3.074s3.269-2.535 5.225-2.95c1.897-.404 5.791.552 5.791.552-1.404-1.18-1.615-3.41-1.681-5.244" style="fill:#ffff58;fill-opacity:1;stroke:none" transform="translate(0 512.362)"/><path d="M99.031 739.08c-1.567.127-3.07 1.15-4.094 2.345-1.023 1.194-1.744 2.834-1.687 4.406.066 1.816 1.034 3.646 2.313 4.937 1.268 1.282 3.071 2.353 4.874 2.344 1.72-.009 3.445-1.032 4.626-2.281 1.189-1.259 2.12-3.052 2.03-4.781-.097-1.89-1.317-3.731-2.75-4.97-1.43-1.236-3.426-2.15-5.312-2m.156 2c1.385-.112 2.826.622 3.876 1.532 1.032.896 1.964 2.197 2.03 3.563.059 1.197-.644 2.41-1.468 3.28-.83.877-2.012 1.657-3.219 1.657-1.276 0-2.513-.838-3.406-1.75-.932-.952-1.7-2.262-1.75-3.594-.04-1.098.506-2.226 1.219-3.062.684-.804 1.666-1.54 2.719-1.625" style="font-size:medium;font-style:normal;font-variant:normal;font-weight:400;font-stretch:normal;text-indent:0;text-align:start;text-decoration:none;line-height:normal;letter-spacing:normal;word-spacing:normal;text-transform:none;direction:ltr;block-progression:tb;writing-mode:lr-tb;text-anchor:start;baseline-shift:baseline;color:#000;fill:#000;fill-opacity:1;stroke:none;stroke-width:2;marker:none;visibility:visible;display:inline;overflow:visible;font-family:Sans;-inkscape-font-specification:Sans"/><path d="M57.183 268.379V259.8s6.303-.7 8.26-2.859c1.83-2.017 1.906-7.942 1.906-7.942h12.072z" style="fill:#ffff58;fill-opacity:1;stroke:none" transform="translate(0 512.362)"/><path d="M71.904 774.629c-1.274 1.29-.72 4.196.635 5.4 1.346 1.197 4.128 1.274 5.401 0 1.123-1.123 1.063-3.584 0-4.765-1.354-1.503-4.614-2.074-6.036-.635" style="fill:#ffff58;fill-opacity:1;stroke:none"/><path d="M90.858 259.801 74.021 280.77l9.213-1.907s-.242-5.35 1.27-7.306c1.566-2.025 6.99-3.177 6.99-3.177zm-49.241 26.05c3.376.7 6.877.771 9.53 5.083.39-7.234 4.254-10.995 7.943-14.93 2.067 5.188 3.168 10.377 0 15.566 5.736-5.014 10.539-2.565 15.566-1.906-2.356 4.606-5.393 8.759-11.119 11.119 3.926 3.225 5.42 7.668 6.354 12.39-1.906-.446-3.812-.696-5.718-2.224l-20.015-20.015c-1.12-1.694-1.774-3.388-2.541-5.083" style="fill:#ffff58;fill-opacity:1;stroke:none" transform="translate(0 512.362)"/><path d="M55.438 804.862c-1.332-.397-2.86.145-4.094.781-1.205.622-2.333 1.62-2.938 2.813l1.6 1.087c.346-.681 1.355-1.642 2.275-2.118.86-.446 1.919-.88 2.844-.594 1.535.473 2.743 1.98 3.344 3.469.577 1.43.164 3.092 0 4.625-.11 1.028-.657 3.03-.657 3.03l1.912 1.413s.606-2.738.714-4.13c.144-1.87.652-3.905-.094-5.626-.906-2.088-2.725-4.098-4.907-4.75" style="font-size:medium;font-style:normal;font-variant:normal;font-weight:400;font-stretch:normal;text-indent:0;text-align:start;text-decoration:none;line-height:normal;letter-spacing:normal;word-spacing:normal;text-transform:none;direction:ltr;block-progression:tb;writing-mode:lr-tb;text-anchor:start;baseline-shift:baseline;color:#000;fill:#000;fill-opacity:1;stroke:none;stroke-width:2;marker:none;visibility:visible;display:inline;overflow:visible;font-family:Sans;-inkscape-font-specification:Sans"/><path d="M137.24 232.48s7.784 15.014 9.848 23.138c1.6 6.298 2.03 12.91 1.854 19.405-.24 8.8-1.342 17.701-3.936 26.113-2.61 8.463-6.599 16.58-11.525 23.94-4.867 7.273-17.526 19.547-17.526 19.547" style="fill:none;stroke:#000;stroke-width:2;stroke-linecap:round;stroke-linejoin:round;stroke-miterlimit:4;stroke-opacity:1;stroke-dasharray:none;stroke-dashoffset:0" transform="translate(0 512.362)"/><path d="M133.746 235.34s6.076 12.395 7.624 19.06c1.898 8.173 2.341 16.72 1.906 25.098a87 87 0 0 1-3.927 21.638 87.8 87.8 0 0 1-9.265 20.031c-4.126 6.59-9.139 12.69-14.764 18.056-2.958 2.821-9.848 7.306-9.848 7.306" style="fill:none;stroke:#000;stroke-width:2;stroke-linecap:round;stroke-linejoin:round;stroke-miterlimit:4;stroke-opacity:1;stroke-dasharray:none;stroke-dashoffset:0" transform="translate(0 512.362)"/><path d="M129.933 238.834s4.708 11.456 6.036 17.473c1.47 6.655 2.335 13.53 2.083 20.34-.289 7.808-1.792 15.614-4.103 23.077-2.178 7.03-5.057 13.968-9.099 20.12-4.321 6.578-10 12.243-15.884 17.473-4.766 4.236-15.566 11.119-15.566 11.119" style="fill:none;stroke:#000;stroke-width:2;stroke-linecap:round;stroke-linejoin:round;stroke-miterlimit:4;stroke-opacity:1;stroke-dasharray:none;stroke-dashoffset:0" transform="translate(0 512.362)"/><path d="M126.174 241.225s3.607 9.074 4.712 13.811c1.288 5.518 2.073 11.19 2.198 16.855.148 6.736-.163 13.585-1.73 20.138a75.8 75.8 0 0 1-8.41 20.826c-3.752 6.35-8.562 12.147-13.978 17.155-6.146 5.684-20.65 14.296-20.65 14.296" style="fill:none;stroke:#000;stroke-width:2;stroke-linecap:round;stroke-linejoin:round;stroke-miterlimit:4;stroke-opacity:1;stroke-dasharray:none;stroke-dashoffset:0" transform="translate(0 512.362)"/><path d="m171.288 131.1-15.49 14.262-29.902 27.617-35.046 33.14-29.902 28.76L30 263.26" style="fill:#000;fill-opacity:1;stroke:#55a;stroke-width:2;stroke-linecap:round;stroke-linejoin:round;stroke-miterlimit:4;stroke-opacity:1;stroke-dasharray:none" transform="translate(0 512.362)"/><path d="m142.128 206.246 17.325 4.596-7.025 21.382-17.294-4.243z" style="fill:#f55;fill-opacity:1;stroke:none" transform="translate(0 512.362)"/><path d="m180.773 712.213-6.64 2.03 3.873 3.504-5.349 2.398 3.505 3.874-6.456 2.582 3.32 4.243-6.456 2.029 4.058 4.427-5.903 2.03 2.583 4.61c-1.476 1.107-3.147 2.214-4.622 3.321 7.132 1.168 14.46 2.337 21.592 3.505l-2.582-4.796 4.242-2.214-2.398-5.534 6.272-2.398-2.767-5.903 5.903-1.106-3.874-4.98q2.952-.74 5.903-1.476l-3.136-4.243 5.903-2.398c-1.637-.79-3.245-1.68-4.9-2.408z" style="fill:#ff5;fill-opacity:1;stroke:none"/><path d="M182.423 200.037c-2.37 5.564-5.334 11.432-7.697 17.277-2.557 6.327-4.865 13.41-7.005 19.237m23.895-35.435c-2.798 6.058-5.394 12.145-7.704 18.371-2.154 5.808-4.05 11.721-5.729 17.68" style="fill:none;stroke:#000;stroke-width:2;stroke-linecap:round;stroke-linejoin:round;stroke-miterlimit:4;stroke-opacity:1;stroke-dasharray:none;stroke-dashoffset:0" transform="translate(0 512.362)"/><path d="M186.075 713.228c-.754.104-1.54 1.103-1.35 1.839.189.734 1.356 1.226 2.064.954.566-.218.865-1.087.714-1.674-.15-.586-.829-1.201-1.428-1.119m-2.657 6.382c-.756.105-1.551 1.1-1.364 1.839.189.745 1.374 1.252 2.09.974.573-.222.867-1.107.71-1.7-.154-.586-.836-1.195-1.436-1.113m-2.951 6.55c-.768.123-1.561 1.175-1.331 1.918.229.74 1.468 1.153 2.17.828.537-.248.762-1.105.591-1.67-.172-.571-.841-1.171-1.43-1.076m-2.287 6.507c-.758.097-1.555 1.093-1.374 1.836s1.35 1.265 2.069 1c.576-.213.888-1.091.74-1.688-.146-.595-.827-1.225-1.435-1.148m-2.311 6.436c-.786.139-1.62 1.224-1.352 1.976.27.757 1.614 1.074 2.313.678.498-.281.627-1.122.432-1.66-.195-.536-.832-1.094-1.393-.994m-2.386 6.447c-.769.121-1.57 1.166-1.343 1.91.227.743 1.472 1.158 2.177.831.535-.249.754-1.106.583-1.671-.172-.567-.832-1.161-1.417-1.07" style="font-size:medium;font-style:normal;font-variant:normal;font-weight:400;font-stretch:normal;text-indent:0;text-align:start;text-decoration:none;line-height:normal;letter-spacing:normal;word-spacing:normal;text-transform:none;direction:ltr;block-progression:tb;writing-mode:lr-tb;text-anchor:start;baseline-shift:baseline;color:#000;fill:#000;fill-opacity:1;stroke:none;stroke-width:2;marker:none;visibility:visible;display:inline;overflow:visible;font-family:Sans;-inkscape-font-specification:Sans"/><path d="m205.408 728.778 19.858.307-9.754 24.112-19.048-1.513z" style="fill:#f55;fill-opacity:1;stroke:none"/><path d="m145.061 197.625 1.95-7.604s8.623 3.267 13.063 4.484c5.25 1.439 10.627 2.377 15.988 3.315 3.169.554 6.347 1.104 9.554 1.364 6.479.526 12.998.518 19.497.39 6.575-.129 13.143-.59 19.693-1.17 3.324-.293 6.64-.69 9.943-1.17 3.786-.548 11.309-1.949 11.309-1.949l-12.868 12.478-24.177.195-12.479 31.196 19.108 1.365-3.705 21.057s-14.706-.68-22.032-1.364c-6.782-.634-13.544-1.503-20.277-2.535-4.31-.66-8.571-1.605-12.868-2.34-3.244-.554-9.75-1.56-9.75-1.56s-2.68-6.969-4.289-10.333c-2.521-5.274-8.384-15.403-8.384-15.403l17.743 4.29 9.749-29.052z" style="fill:#000;fill-opacity:1;stroke:none" transform="rotate(180 180 526.181)"/><path d="M121.023 177.623s8.463 5.516 12.974 7.763c4.211 2.098 13.081 5.303 13.081 5.303l-11.667 37.477s-6.506-9.228-10.253-13.435c-3.5-3.93-7.412-7.482-11.36-10.96-3.388-2.985-10.56-8.486-10.56-8.486zm2.367 66.807s4.468 13.495 5.303 20.505c.879 7.374.915 14.958-.353 22.274-1.127 6.5-3.58 12.758-6.364 18.739-2.499 5.369-5.353 10.694-9.192 15.202-3.308 3.883-7.518 6.935-11.668 9.9-5.245 3.748-16.617 9.9-16.617 9.9l-3.535-3.183s1.358-14.232 2.828-21.213c1.568-7.445 3.644-14.815 6.364-21.92 2.526-6.596 5.867-12.86 9.193-19.092 3.283-6.152 6.302-12.545 10.606-18.031 3.858-4.918 13.435-13.082 13.435-13.082" style="fill:#55a;fill-opacity:1;stroke:none" transform="rotate(180 180 526.181)"/><path d="M117.026 251.147s4.25 12.794 4.596 19.445c.382 7.358-.834 14.828-2.828 21.92-1.956 6.958-4.833 13.784-8.839 19.8-3.05 4.58-7.084 8.5-11.314 12.02-4.85 4.036-15.91 10.253-15.91 10.253s1.499-14.674 2.829-21.92c1.006-5.482 2.06-10.998 3.889-16.263 2.3-6.625 5.59-12.877 8.839-19.092 2.593-4.962 5.208-9.956 8.485-14.496 3.03-4.198 10.253-11.667 10.253-11.667" style="fill:#f55;fill-opacity:1;stroke:none" transform="rotate(180 180 526.181)"/><path d="m38.859 737.583-5.804 10.369s.832 3.374 2.536 3.977c1.026.363 2.321-.101 3.25-.707 1.187-.775 2.5-3.44 2.5-3.44l4.96-8.328" style="fill:#ff5;fill-opacity:1;stroke:#55a;stroke-width:1.78660917;stroke-linecap:round;stroke-linejoin:round;stroke-miterlimit:4;stroke-opacity:1;stroke-dasharray:none;stroke-dashoffset:0" transform="matrix(-1 0 0 -1.25314 351.094 1751.023)"/><path d="M34.043 747.656s2.483-.805 3.798-.874c1.052-.054 3.128.379 3.128.379" style="fill:none;stroke:#55a;stroke-width:1.78660917;stroke-linecap:round;stroke-linejoin:round;stroke-miterlimit:4;stroke-opacity:1;stroke-dasharray:none;stroke-dashoffset:0" transform="matrix(-1 0 0 -1.25314 351.094 1751.023)"/><path d="M166.208 65.782s-13.782 14.046-19.08 22.258c-5.543 8.593-9.702 18.11-12.99 27.794-2.852 8.398-4.356 17.22-5.74 25.982-.82 5.196-1.101 10.465-1.51 15.71-.393 5.029-.907 15.105-.907 15.105l45.015-41.691s-2.716-9.173-3.324-13.898c-.604-4.695-.251-9.465-.302-14.199-.067-6.344.205-12.692 0-19.033-.194-6.019-1.162-18.028-1.162-18.028" style="fill:#000;fill-opacity:1;stroke:none" transform="rotate(180 180 526.181)"/><path d="M299.778 686.73c-5.067 2.594-12.066 6.076-18.247 8.794-5.833 2.565-11.714 5.06-17.756 7.084-5.083 1.703-10.308 2.954-15.511 4.243-4.822 1.195-9.636 2.49-14.548 3.234-5.08.77-10.237.889-15.36 1.266-4.12.304-8.237.725-12.368.803-5.003.095-10.01-.118-15.006-.406-4.59-.264-9.195-.5-13.736-1.211-5.119-.802-10.147-2.121-15.157-3.437-4.317-1.134-8.584-2.453-12.827-3.837-4.652-1.518-9.352-2.948-13.84-4.897-5.264-2.287-11.74-6.175-15.276-7.942l45.292-42.05s2.742.51 4.104.807c2.589.566 2.447.947 7.73 1.859 2.495 1.037 4.165 3.57 6.645 4.644 3.023 1.308 6.377 2.038 9.67 2.03 6.29-.014 13.867-1.696 18.448-3.96 2.383-.003 4.485-.4 6.727-.617 3.11-.3 6.23-.523 9.325-.946 3.326-.455 6.69-.812 9.924-1.71 2.766-.769 5.391-1.985 8.026-3.125 2.891-1.25 8.528-4.07 8.528-4.07 3.982 6.638 9.038 15.502 17.592 23.604 4.277 4.051 9.276 9.738 13.55 12.983s11.071 5.267 14.071 6.858" style="fill:#ffff58;fill-opacity:1;stroke:none" transform="rotate(180 180 782.362)"/><path d="M167.193 103.658s-6.095 9.733-8.584 14.895c-1.787 3.706-3.387 7.529-4.532 11.48a52 52 0 0 0-1.817 9.555c-.258 2.744.005 8.27.005 8.27l19.033-16.918s-2.644-8.573-3.323-12.991c-.725-4.716-.782-14.291-.782-14.291" style="fill:#f55;fill-opacity:1;stroke:none" transform="rotate(180 180 526.181)"/><path d="m224 30 65.5 84.167 7.833-1.667L238 30z" style="fill:#000;fill-opacity:1;stroke:none" transform="rotate(180 180 526.181)"/><path d="M307 542.362a149.6 149.6 0 0 0-2 30c.348 10.168 1.752 20.359 5 30a81 81 0 0 0 10 20 76 76 0 0 0-23 2l-59-82z" style="fill:#ff5;fill-opacity:1;stroke:#55a;stroke-width:2;stroke-linecap:round;stroke-linejoin:round;stroke-miterlimit:4;stroke-opacity:1;stroke-dasharray:none" transform="rotate(180 180 782.362)"/><path d="M273.592 567.832c.396.991.852 1.982 1.518 2.81.88 1.092 1.844 2.313 3.192 2.743 1.695.54 3.992.724 5.39-.45 1.364-1.146 1.79-3.435 1.347-5.106-.512-1.93-4.227-4.184-4.227-4.184s4.728-1.58 5.556-3.612c.777-1.909-.034-4.453-1.44-5.88-1.387-1.406-3.928-2.34-5.796-1.518-2.098.923-3.3 6.023-3.3 6.023s-.838-3.753-2.05-5.13c-1.078-1.221-2.628-2.416-4.291-2.38-1.475.033-3.177.958-3.867 2.28-1.085 2.08-.611 4.967.625 6.878 1.24 1.915 5.998 3.342 5.998 3.342s-1.275-2.703.982-4.263c1.804-1.246 5.046.239 6.047 2.108.847 1.582.4 4.62-1.3 5.348-3.395 1.453-5.119-1.722-5.119-1.722s.389 1.846.735 2.713m19.576 27.238c.353.896.76 1.793 1.355 2.541.784.988 1.645 2.092 2.847 2.48 1.513.49 3.562.656 4.81-.407 1.217-1.035 1.597-3.105 1.202-4.617-.457-1.745-3.772-3.783-3.772-3.783s3.707-1.827 4.29-3.6c.57-1.733.011-4.035-1.284-5.318-1.096-1.084-3.1-1.674-4.505-1.04-1.881.85-2.945 5.447-2.945 5.447s-.747-3.394-1.83-4.638c-.96-1.106-2.344-2.186-3.827-2.153-1.316.029-2.835.866-3.45 2.06-.968 1.882-.546 4.494.558 6.222 1.106 1.732 5.351 3.022 5.351 3.022s-1.137-2.445.876-3.855c1.61-1.127 4.503.215 5.395 1.906.756 1.431.358 4.178-1.16 4.837-3.029 1.314-4.567-1.558-4.567-1.558s.347 1.67.656 2.454" style="fill:#000;fill-opacity:1;stroke:#000100;stroke-width:1.99999988;stroke-linecap:round;stroke-linejoin:round;stroke-miterlimit:4;stroke-opacity:1;stroke-dasharray:none;stroke-dashoffset:0" transform="rotate(180 180 782.362)"/><path d="M247.333 31.667s.588 11.227 5.5 16.833c4.723 5.389 10.278 5.611 15.167 5.167 0 0-2.3 13.14 2 18.5 4.664 5.814 20 10.333 20 10.333s-3.58 10.047 1.333 17c2.72 3.85 11.834 9.5 11.834 9.5" style="fill:none;stroke:#000;stroke-width:2;stroke-linecap:round;stroke-linejoin:round;stroke-miterlimit:4;stroke-opacity:1;stroke-dasharray:none;stroke-dashoffset:0" transform="rotate(180 180 526.181)"/><path d="M252.094 543c-.69.002-1.34.541-1.469 1.219 0 0-1.823 8.333 4.063 14.218.91.91 2.217 1.694 3.812 2.563s3.437 1.76 5.188 2.563c3.054 1.4 5.149 2.2 5.812 2.468.003.707-.023 2.231.375 5.032.48 3.374 1.087 8.16 3.323 11.322 4.14 5.858 8.887 8.365 12.302 10.052 2.235 1.105 3.76 1.49 4.781 1.688.099.77.278 2.426.844 5.281.683 3.448 1.614 7.37 3.188 9.907 1.649 2.659 4.928 5.496 7.875 7.843a102 102 0 0 0 5.562 4.125c.654.442 1.652.249 2.094-.406.442-.654-3.085-3.152-3.74-3.594 0 0-2.356-3.363-2.875-6.802-2.852-2.272-4.934-2.322-6.552-4.396-1.584-2.03-1.956-3.947-2.615-7.27-.658-3.324-1-6.126-1-6.126-.083-.68-.69-1.26-1.375-1.312 0 0-5.7-1.434-7.843-3.292-2.471-2.142-5.685-2.96-5.042-8.416-1.73-2.45-5.512-5.903-5.958-9.042s-.438-5.562-.438-5.562a1.54 1.54 0 0 0-.937-1.438s-3.108-1.243-6.531-2.812c-1.712-.785-3.8-1.05-5-2.47-1.468-1.735-1.552-6.123-1.959-6.53-4.655-4.656-4.416-6.97-4.416-6.97.207-.88-.565-1.848-1.47-1.843" style="font-size:medium;font-style:normal;font-variant:normal;font-weight:400;font-stretch:normal;text-indent:0;text-align:start;text-decoration:none;line-height:normal;letter-spacing:normal;word-spacing:normal;text-transform:none;direction:ltr;block-progression:tb;writing-mode:lr-tb;text-anchor:start;baseline-shift:baseline;color:#000;fill:#000;fill-opacity:1;stroke:none;stroke-width:3;marker:none;visibility:visible;display:inline;overflow:visible;font-family:Sans;-inkscape-font-specification:Sans" transform="rotate(180 180 782.362)"/><path d="M211 30h13.333L330 168.667V201z" style="fill:#f55;fill-opacity:1;stroke:#55a;stroke-width:2;stroke-miterlimit:4;stroke-opacity:1;stroke-dasharray:none" transform="rotate(180 180 526.181)"/><path d="M186.993 542.362s1.77 11.296 14.652 22.174 34.358 15.23 34.358 15.23" style="fill:none;stroke:#55a;stroke-width:2;stroke-linecap:round;stroke-linejoin:round;stroke-miterlimit:4;stroke-opacity:1;stroke-dasharray:none;stroke-dashoffset:0" transform="rotate(180 180 782.362)"/><path d="M192.16 542.362s5.213 11.83 12.429 17.843 27.532 13.114 27.532 13.114" style="fill:none;stroke:#55a;stroke-width:2;stroke-linecap:round;stroke-linejoin:round;stroke-miterlimit:4;stroke-opacity:1;stroke-dasharray:none;stroke-dashoffset:0" transform="rotate(180 180 782.362)"/><path d="M198.267 542.362s4.41 10.059 9.792 14.64 19.925 10.533 19.925 10.533" style="fill:none;stroke:#55a;stroke-width:2;stroke-linecap:round;stroke-linejoin:round;stroke-miterlimit:4;stroke-opacity:1;stroke-dasharray:none;stroke-dashoffset:0" transform="rotate(180 180 782.362)"/><path d="M203.288 542.362s2.732 6.832 7.03 10.382 12.89 7.391 12.89 7.391" style="fill:none;stroke:#55a;stroke-width:1.99999988;stroke-linecap:round;stroke-linejoin:round;stroke-miterlimit:4;stroke-opacity:1;stroke-dasharray:none;stroke-dashoffset:0" transform="rotate(180 180 782.362)"/><path d="M188.939 549.9s-.84 4.086-6.144 12.957-15.747 12.633-15.747 12.633m18.003-33.128s-.173 7.049-4.997 14.561c-4.824 7.513-12.941 11.314-12.941 11.314m12.567-25.875s-1.933 7.458-4.509 12.04c-2.575 4.58-7.86 7.897-7.86 7.897" style="fill:none;stroke:#55a;stroke-width:2;stroke-linecap:round;stroke-linejoin:round;stroke-miterlimit:4;stroke-opacity:1;stroke-dasharray:none;stroke-dashoffset:0" transform="rotate(180 180 782.362)"/><path d="M173.554 542.362s.18 4.4-1.943 7.951-3.59 3.984-3.59 3.984m18.384 41.358s.596 2.7.53 4.064c-.172 3.576-1.195 7.098-2.408 10.466-.795 2.208-3 3.951-3.158 6.293-.132 1.947.616 4.064 1.896 5.537.901 1.038 2.64.965 3.676 1.868.839.73 1.906 2.74 1.906 2.74" style="fill:none;stroke:#55a;stroke-width:1.99999988;stroke-linecap:round;stroke-linejoin:round;stroke-miterlimit:4;stroke-opacity:1;stroke-dasharray:none;stroke-dashoffset:0" transform="rotate(180 180 782.362)"/><path d="M198.748 615.143s3.324 3.56 2.859 5.604c-.304 1.335-1.914 2.282-3.268 2.49-1.78.275-3.4-1.188-5.082-1.827-1.594-.606-3.127-2.43-4.747-1.902-.652.213-1.417 1.142-1.09 1.744.536.984 2.243-.014 3.362.053 3.394.204 7.438 3.119 10.144 1.061.871-.662.78-2.169.545-3.238-.346-1.571-2.723-3.985-2.723-3.985" style="fill:#55a;fill-opacity:1;stroke:#55a;stroke-width:1.99999988;stroke-linecap:round;stroke-linejoin:round;stroke-miterlimit:4;stroke-opacity:1;stroke-dasharray:none;stroke-dashoffset:0" transform="rotate(180 180 782.362)"/><path d="M232.2 592.134s-9.207-6.281-14.497-7.65c-4.162-1.075-8.738-1.367-12.893-.265-1.672.444-4.451 2.665-4.451 2.665s4.075-1.311 6.188-1.54c4.27-.459 8.714-.675 12.878.376 4.62 1.166 12.776 6.414 12.776 6.414" style="fill:#55a;fill-opacity:1;stroke:#55a;stroke-width:1.99999976;stroke-linecap:round;stroke-linejoin:round;stroke-miterlimit:4;stroke-opacity:1;stroke-dasharray:none;stroke-dashoffset:0" transform="rotate(180 180 782.362)"/><path d="M168.27 586.613s5.568-2.98 8.54-2.654c3.705.407 9.588 5.526 9.588 5.526s-6.24-4.258-9.86-4.37c-3.038-.093-8.505 3.152-8.505 3.152z" style="fill:#55a;fill-opacity:1;stroke:#55a;stroke-width:1.99999988;stroke-linecap:round;stroke-linejoin:round;stroke-miterlimit:4;stroke-opacity:1;stroke-dasharray:none;stroke-dashoffset:0" transform="rotate(180 180 782.362)"/><path d="M203.94 635.333s-4.704-1.876-7.154-2.045c-1.84-.126-3.647.697-5.488.786-2.101.101-4.257-.854-6.305-.292-1.12.307-3.03 1.937-3.03 1.937s2.086-.46 3.137-.398c2.136.129 4.137 1.566 6.276 1.569 2.36.004 4.55-1.457 6.93-1.713 1.87-.2 5.634.156 5.634.156" style="fill:#55a;fill-opacity:1;stroke:#55a;stroke-width:1.99999976;stroke-linecap:round;stroke-linejoin:round;stroke-miterlimit:4;stroke-opacity:1;stroke-dasharray:none;stroke-dashoffset:0" transform="rotate(180 180 782.362)"/><path d="M197.578 640.195s-3.943 1.372-5.99 1.416c-1.754.037-5.174-.991-5.174-.991" style="fill:none;stroke:#55a;stroke-width:1.99999988;stroke-linecap:round;stroke-linejoin:round;stroke-miterlimit:4;stroke-opacity:1;stroke-dasharray:none;stroke-dashoffset:0" transform="rotate(180 180 782.362)"/><path d="M185.626 595.262s-5.032-4.106-9.65-4.205c-4.941-.107-7.894 2.523-7.894 2.523m60.532 3.828s-9.864-7.326-15.527-7.162c-7.42.213-12.961 5.559-12.961 5.559" style="fill:none;stroke:#55a;stroke-width:1.99999988;stroke-linecap:round;stroke-linejoin:round;stroke-miterlimit:4;stroke-opacity:1;stroke-dasharray:none" transform="rotate(180 180 782.362)"/><path d="M229.705 598.983c-5.852-.757-10.154-3.299-15.541-3.759-4.62-.394-13.943 1.036-13.943 1.036m-32.768 2.796c5.387-2.542 4.233-3.35 9.62-3.81 4.62-.395 9.446 2.225 9.446 2.225m39.95 1.971c-5.267 1.2-10.77 5.082-16.728 5.379-4.415.22-9.15-2.814-9.54-6.898" style="fill:none;stroke:#55a;stroke-width:1.99999988;stroke-linecap:round;stroke-linejoin:round;stroke-miterlimit:4;stroke-opacity:1;stroke-dasharray:none" transform="rotate(180 180 782.362)"/><path d="M215.381 596.758c.937 5.064-4.018 6.559-7.578 6.121-2.415-.297-4.654-3.26-3.492-6.153" style="fill:none;stroke:#55a;stroke-width:1.99999988;stroke-linecap:round;stroke-linejoin:round;stroke-miterlimit:4;stroke-opacity:1;stroke-dasharray:none" transform="rotate(180 180 782.362)"/><path d="M207.132 599.605c-.098-.917.746-2.18 1.706-2.23.84-.044 1.724.977 1.706 1.784-.02.841-.984 1.762-1.86 1.784-.696.018-1.48-.675-1.552-1.338m-28.574.305c.026-.717-.847-1.645-1.742-1.625-.784.016-1.533.862-1.46 1.486.078.651 1.04 1.307 1.855 1.27.648-.028 1.327-.612 1.347-1.13" style="fill:#55a;fill-opacity:1;stroke:#55a;stroke-width:1.99999988;stroke-linecap:round;stroke-linejoin:round;stroke-miterlimit:4;stroke-opacity:1;stroke-dasharray:none;stroke-dashoffset:0" transform="rotate(180 180 782.362)"/><path d="M184.968 603.775c-2.093 2.46-2.244 4.643-6.58 6.729m21.127-13.784c1.605 7.122 3.875 10.941 9.023 13.097" style="fill:none;stroke:#55a;stroke-width:1.99999988;stroke-linecap:round;stroke-linejoin:round;stroke-miterlimit:4;stroke-opacity:1;stroke-dasharray:none;stroke-dashoffset:0" transform="rotate(180 180 782.362)"/><path d="M167.55 601.776c2.856 1.804 6.512 2.87 11.176 2.748 3.455-.09 6.968-2.538 7.03-5.497" style="fill:none;stroke:#55a;stroke-width:2;stroke-linecap:round;stroke-linejoin:round;stroke-miterlimit:4;stroke-opacity:1;stroke-dasharray:none" transform="rotate(180 180 782.362)"/><path d="M172.826 596.465c-1.112 4.9 1.095 7.536 5.143 7.453 1.78-.036 5.422-4.039 2.747-7.844" style="fill:none;stroke:#55a;stroke-width:2;stroke-linecap:round;stroke-linejoin:round;stroke-miterlimit:4;stroke-opacity:1;stroke-dasharray:none" transform="rotate(180 180 782.362)"/><path d="M169 30s-2.295 21.97-2.5 33c-.161 8.672.745 17.33 1 26 .24 8.165-.41 16.383.5 24.5.645 5.75.935 11.814 3.5 17 2.252 4.553 5.707 8.784 10 11.5 3.657 2.313 8.179 3.274 12.5 3.5 4.39.23 8.832-.813 13-2.209 5.696-1.908 10.985-4.985 16-8.291 5.042-3.324 9.857-7.106 14-11.5 3.11-3.299 8-11 8-11" style="fill:none;stroke:#55a;stroke-width:2;stroke-linecap:round;stroke-linejoin:round;stroke-miterlimit:4;stroke-opacity:1;stroke-dasharray:none;stroke-dashoffset:0" transform="rotate(180 180 526.181)"/><path d="M166.353 136.442c4.67 2.407 8.817 2.832 11.95 3.191m32.759 2.382c7.264-1.353 16.236-2.198 24.14-4.272 6.644-1.744 12.96-4.558 19.44-6.836m-11.749-14.1 5.981 15.809m-9.399-11.536 4.913 13.031m-8.758-8.331 3.204 9.4m-7.05-5.982 2.99 7.476m-7.049-4.058 2.777 6.195m-6.622-3.418 1.709 3.631m19.226-58.96c-.997 1.851-2.225 3.595-2.99 5.554-1.044 2.67-1.425 5.554-2.137 8.331m9.186-7.904c-1.282 2.564-2.91 4.982-3.845 7.69-1.163 3.367-1.424 6.98-2.136 10.468m9.613-12.817c-1.14 2.706-2.59 5.3-3.418 8.118-1.284 4.369-1.567 8.972-2.35 13.458m9.827-16.449c-1.353 3.489-3.28 6.807-4.06 10.467-1.201 5.649-.569 11.536-.854 17.304m9.186-22.217c-1.21 2.564-2.972 4.933-3.632 7.69-1.756 7.345-.427 15.097-.64 22.645m8.545-24.781c-1.282 3.205-3.34 7.223-3.846 11.109-.985 7.577 1.14 15.239 1.71 22.858m5.981-27.131c-1.068 3.418-2.237 8.906-2.35 13.459-.187 7.531 1.567 13.886 2.777 22.43m4.273-29.266c-.712 4.77-.911 8.975-.641 13.458.512 8.507 2.136 17.02 4.272 25.208m1.923-30.548c-.142 4.486-.633 9.584 0 14.313 1.078 8.047 4.13 15.38 6.409 23.498m.427-27.985c-.285 3.276-.283 7.896.427 11.75 1.322 7.175 3.347 13.53 7.05 20.721m-1.282-23.498c.499 3.702.386 7.54 1.495 11.108 1.684 5.413 5.484 10.468 7.691 15.168" style="fill:none;stroke:#55a;stroke-width:2;stroke-linecap:round;stroke-linejoin:round;stroke-miterlimit:4;stroke-opacity:1;stroke-dasharray:none;stroke-dashoffset:0" transform="rotate(180 180 526.181)"/><path d="M89.797 720.324s-4.405-5.209-6.869-7.601c-2.594-2.519-5.292-4.98-8.3-7.077-2.317-1.616-4.681-3.49-7.44-4.194-1.629-.415-3.485-.563-5.04.07-1.144.466-2.42 1.346-2.688 2.551-.508 2.291 1.102 4.727 2.576 6.553 1.495 1.851 3.768 2.992 5.946 3.951 1.314.579 2.915.903 4.182 1.037.829 2.601-1.655 2.008-1.127 7.139.154 1.504.362 3.568.362 3.568" style="fill:none;stroke:#55a;stroke-width:1.99999988;stroke-linecap:round;stroke-linejoin:round;stroke-miterlimit:4;stroke-opacity:1;stroke-dasharray:none;stroke-dashoffset:0" transform="rotate(180 180 782.362)"/><path d="M63.467 706.048s.488 1.665 1.145 2.219c.6.505 1.483.778 2.29.786.79.008 2.26-.725 2.26-.725m-10.274-5.041s-3.967-1.815-5.724-1.049c-1.849.807-2.854 3.104-2.862 4.98-.011 2.853 2.778 5.118 4.293 7.602.922 1.51 1.534 3.33 2.915 4.435 1.353 1.083 3.172 2.203 4.865 1.835 1.323-.288 2.387-1.616 2.862-2.884.424-1.131.583-2.725-.232-3.617-1.095-1.198-3.223-1.09-4.808-.747-.847.184-1.634.748-2.174 1.426-.554.697-.926 2.506-.926 2.506" style="fill:none;stroke:#55a;stroke-width:1.99999988;stroke-linecap:round;stroke-linejoin:round;stroke-miterlimit:4;stroke-opacity:1;stroke-dasharray:none;stroke-dashoffset:0" transform="rotate(180 180 782.362)"/><path d="M49.444 708.529s-2.803.856-3.72 1.835c-.925.985-1.49 2.372-1.432 3.67.097 2.109 1.55 4.03 2.862 5.766 1.537 2.031 3.545 3.848 5.724 5.242 1.616 1.035 3.417 1.906 5.31 2.228 1.413.24 3.31.782 4.292-.263.838-.89.606-2.607 0-3.67-.457-.801-1.498-1.146-2.383-1.41-1.2-.358-2.707-.857-3.756-.172-.94.615-1.209 3.146-1.209 3.146" style="fill:none;stroke:#55a;stroke-width:1.99999988;stroke-linecap:round;stroke-linejoin:round;stroke-miterlimit:4;stroke-opacity:1;stroke-dasharray:none;stroke-dashoffset:0" transform="rotate(180 180 782.362)"/><path d="M44.865 718.49s-3.484 2.21-3.72 3.931c-.16 1.163.905 2.239 1.717 3.146 2.068 2.31 4.948 3.938 7.727 5.504 1.708.963 3.432 2.337 5.437 2.359.94.01 2.108-.302 2.576-1.048.43-.687.088-1.646-.286-2.36-.702-1.336-1.816-3.194-3.435-3.145-1.013.031-1.604 1.243-2.003 2.097-.415.887-.286 2.883-.286 2.883" style="fill:none;stroke:#55a;stroke-width:1.99999988;stroke-linecap:round;stroke-linejoin:round;stroke-miterlimit:4;stroke-opacity:1;stroke-dasharray:none;stroke-dashoffset:0" transform="rotate(180 180 782.362)"/><path d="M43.148 727.663s-1.257 2.045-1.145 3.146c.182 1.791 1.484 3.435 2.862 4.718 1.786 1.663 4.173 2.84 6.617 3.497 1.272.342 2.96.958 3.972.173 1.245-.968 1.326-3.13.572-4.456-.65-1.145-2.328-2.032-3.72-1.835-1.05.149-1.724 1.236-2.22 2.097-.5.867-.642 2.883-.642 2.883m5.293 2.748s.874 1.364 1.478 1.886c.568.492 1.27.815 1.957 1.12 1.364.603 4.257 1.382 4.257 1.382" style="fill:none;stroke:#55a;stroke-width:1.99999988;stroke-linecap:round;stroke-linejoin:round;stroke-miterlimit:4;stroke-opacity:1;stroke-dasharray:none;stroke-dashoffset:0" transform="rotate(180 180 782.362)"/><path d="M50.84 703.782s-5.511-1.229-8-2.5c-1.895-.968-3.745-2.194-5.115-3.823-1.486-1.767-2.561-3.94-3.134-6.177-.642-2.504-.25-7.75-.25-7.75s3.559 2.675 5.5 3.75c2.093 1.16 4.518 1.658 6.573 2.884 1.532.914 2.945 2.045 4.22 3.293 1.02 1 2.03 2.065 2.707 3.323.661 1.23 1.04 2.62 1.25 4 .176 1.154 0 3.5 0 3.5z" style="fill:#ff5;fill-opacity:1;stroke:#55a;stroke-width:2;stroke-linecap:round;stroke-linejoin:round;stroke-miterlimit:4;stroke-opacity:1;stroke-dasharray:none;stroke-dashoffset:0" transform="rotate(155.106 156.164 809.807)"/><path d="M39.59 692.282s2.02 2.617 3.263 3.69c1.879 1.62 4.192 2.657 6.238 4.06 1.526 1.047 4.5 3.25 4.5 3.25" style="fill:none;stroke:#55a;stroke-width:2;stroke-linecap:round;stroke-linejoin:round;stroke-miterlimit:4;stroke-opacity:1;stroke-dasharray:none;stroke-dashoffset:0" transform="rotate(155.106 156.164 809.807)"/><path d="m66.526 700.508.888-10.32 3.068-2.706 2.653 2.68-.592 13.76z" style="fill:#ff5;fill-opacity:1;stroke:#55a;stroke-width:2;stroke-linecap:round;stroke-linejoin:round;stroke-miterlimit:4;stroke-opacity:1;stroke-dasharray:none;stroke-dashoffset:0" transform="rotate(180 180 782.362)"/><path d="M62.34 706.532s3.314-3.896 5.5-5.116c2.536-1.414 5.507-2.042 8.397-2.31 2.7-.251 5.395.787 8.104.676 2.532-.103 7.5-1.25 7.5-1.25s-2.14 5.26-4 7.25c-1.979 2.117-4.547 3.736-7.203 4.547-3.585 1.095-7.41.638-11.047.203-1.63-.195-3.35-.4-4.75-1.25-1.06-.642-2.5-2.75-2.5-2.75" style="fill:#ff5;fill-opacity:1;stroke:#55a;stroke-width:2.31352758;stroke-linecap:round;stroke-linejoin:round;stroke-miterlimit:4;stroke-opacity:1;stroke-dasharray:none;stroke-dashoffset:0" transform="matrix(-.86102 .24714 -.26912 -.7907 529.53 1404.267)"/><path d="M63.5 706.782s4.335-1.826 6.59-2c2.64-.203 5.149 1.414 7.785 1.149 1.932-.194 5.583-1.975 5.583-1.975" style="fill:none;stroke:#55a;stroke-width:2.31352758;stroke-linecap:round;stroke-linejoin:round;stroke-miterlimit:4;stroke-opacity:1;stroke-dasharray:none;stroke-dashoffset:0" transform="matrix(-.86102 .24714 -.26912 -.7907 529.53 1404.267)"/><path d="m80.4 672.051 5.842-4.137 5.616 3.127-5.644 4.66zm-13.759-8.181-4.28-5.75 3.977-5.738 4.306 5.659zm-15.813 8.86-5.474 4.475 6.675 3.082 4.062-4.416z" style="fill:#55a;fill-opacity:1;stroke:#55a;stroke-width:2;stroke-linecap:round;stroke-linejoin:round;stroke-miterlimit:4;stroke-opacity:1;stroke-dasharray:none;stroke-dashoffset:0" transform="rotate(180 180 782.362)"/><path d="M53.687 678.084c-1.125 2.215-2.668 4.574-2.462 7.035.156 1.856 1.295 3.67 2.718 4.953 1.855 1.671 4.486 2.584 6.984 3.03 1.215.216 2.561.275 3.696-.21 2.253-.961 5.374-5.011 5.374-5.011s2.912 2.577 4.725 3.059c2.808.745 6.146.897 8.701-.484 1.788-.966 3.038-2.958 3.619-4.906.63-2.113.292-4.501-.368-6.606-.41-1.304-1.193-2.517-2.154-3.49-1.42-1.44-5.12-3.252-5.12-3.252s4.175-2.928 5.416-5.065c.846-1.458 1.338-3.243 1.168-4.92-.168-1.658-.971-3.282-2.109-4.534-1.312-1.445-3.103-2.809-5.1-3.06-2.49-.312-5.14.696-7.202 2.115-1.098.756-1.71 2.054-2.422 3.182-.935 1.483-2.405 4.68-2.405 4.68s-2.745-3.521-4.619-4.641c-2.374-1.42-5.197-2.728-7.953-2.371-1.734.225-3.445 1.279-4.404 2.712-1.174 1.754-1.236 4.151-1.012 6.25.211 1.986.946 4.013 2.183 5.581 1.208 1.532 4.803 3.343 4.803 3.343-.41 1.383-1.326 1.438-2.057 2.61" style="fill:#ff5;fill-opacity:1;stroke:#55a;stroke-width:1.99999988;stroke-linecap:round;stroke-linejoin:round;stroke-miterlimit:4;stroke-opacity:1;stroke-dasharray:none;stroke-dashoffset:0" transform="rotate(180 180 782.362)"/><path d="M66.487 156.199c-3.015.396-6.114 4.017-5.8 7.042.32 3.078 4.179 6.182 7.25 5.8 3.179-.397 6.282-4.497 5.8-7.664-.449-2.936-4.306-5.566-7.25-5.178" style="fill:#f55;fill-opacity:1;stroke:#55a;stroke-width:2;stroke-linecap:round;stroke-linejoin:round;stroke-miterlimit:4;stroke-opacity:1;stroke-dasharray:none;stroke-dashoffset:0" transform="rotate(180 180 526.181)"/><path d="m57.58 154.542 4.143 3.52m14.085-5.385-4.143 5.179m1.243 7.87 4.97 3.729m-13.669-1.45-4.35 5.592" style="fill:#000;fill-opacity:1;stroke:#55a;stroke-width:2;stroke-linecap:round;stroke-linejoin:round;stroke-miterlimit:4;stroke-opacity:1;stroke-dasharray:none;stroke-dashoffset:0" transform="rotate(180 180 526.181)"/><path d="m182.718 166.766-2.476 13.174 13.06 1.216 1.167-12.924zm5.376 4.116 3.187 3.18-3.531 2.844-3.094-3.187z" style="fill:#000;fill-opacity:1;stroke:none" transform="rotate(180 180 526.181)"/><path d="m173.5 665.468-3.811 12.147 12.957 2.655 2.503-12.822zm4.35 3.295 3.187 3.18-3.532 2.844-3.093-3.188z" style="fill:#000;fill-opacity:1;stroke:none" transform="rotate(180 180 782.362)"/><path d="m158.883 673.175-5.142 11.948 13.073 4.406 3.733-12.732zm4.705 5.112 2.303 3.87-4.125 1.882-2.21-3.853z" style="fill:#000;fill-opacity:1;stroke:none" transform="rotate(180 180 782.362)"/><path d="m142.287 679.944-4.706 10.753 11.892 5.535 5.102-11.339zm5.734 4.861 1.933 4.067-4.281 1.491-1.843-4.042zm7.573-26.181-5.127 4.224-3.073 5.868 11.787 4.727 4.526-10.41zm1.52 4.066 1.786 4.134-4.332 1.336-1.696-4.105zm9.595 26.197-3.46 11.331 14.344 3.12 2.777-11.64zm5.533 4.306 3.072 3.292-3.63 2.716-2.978-3.296zm23.643-24.744-1.705 12.723 13.19.14.699-12.744zm5.897 3.454 3.273 3.093-3.453 2.939-3.179-3.103zm-8.815 20.94-1.566 11.938 14.334.724.556-12.244zm6.483 3.765 3.328 3.032-3.398 3.001-3.236-3.043z" style="fill:#000;fill-opacity:1;stroke:none" transform="rotate(180 180 782.362)"/><path d="m206.834 680.996-.959 12.707 13.628-.39-.879-12.255zm5.878 3.184 3.419 2.93-3.306 3.103-3.326-2.944zm5.265-15.618.714 12.787 12.563-2.244-1.534-11.489zm5.995 3.25 3.68 2.596-3 3.4-3.588-2.618z" style="fill:#000;fill-opacity:1;stroke:none" transform="rotate(180 180 782.362)"/><path d="m219.3 692.875.735 11.25 13.57-2.218-1.345-11.347zm6.339 2.008 3.973 1.788-2.553 3.163-3.886-1.817zm20.751-7.373 2.688 12.174 14.084-4.272-4.633-11.964zm7.162 1.289 3.973 1.788-2.553 3.163-3.886-1.817zm17.394-9.044 3.493 10.793 12.226-4.536-5.395-10.237zm6.6.812 4.234 1.03-1.93 3.577-4.153-1.074z" style="fill:#000;fill-opacity:1;stroke:none" transform="rotate(180 180 782.362)"/><path d="m254.91 672.588 3.423 11.09 12.726-3.957-4.605-11.969zm5.781.792 4.237 1.016-1.92 3.583-4.156-1.06zm-20.643-8.729 2.776 11.688 12.288-3.99-4.192-11.665zm6.495 1.425 4.119 1.421-2.257 3.381-4.034-1.457z" style="fill:#000;fill-opacity:1;stroke:none" transform="rotate(180 180 782.362)"/><path d="m230.98 678.88 1.456 11.764 14.186-2.732-3.4-11.963zm6.34 2.522 3.974 1.788-2.554 3.163-3.886-1.817z" style="fill:#000;fill-opacity:1;stroke:none" transform="rotate(180 180 782.362)"/><path d="m142.592 167.8 5.034-11.71-1.849-.72-10.581 9.143zm118.245-23.422 5.445 10.992 4.52-1.849-8.013-10.17z" style="fill:#000;fill-opacity:1;stroke:none" transform="rotate(180 180 526.181)"/><path d="M156.27 658.504c10.668 6.439 22.886 8.506 34.885 10.138 8.61 1.171 17.421.579 26.062-.324a141 141 0 0 0 25.354-5.026c6.56-1.943 12.863-4.702 19.059-7.617m28.284 27.931c-5.068 2.593-9.984 5.505-15.203 7.778-3.794 1.653-7.735 2.954-11.667 4.243-4.784 1.568-9.607 3.04-14.496 4.242-4.668 1.148-9.384 2.142-14.142 2.829-4.684.676-9.736 1.362-14.45 1.78-4.596.407-8.871.493-13.48.695-4.593.2-9.199.229-13.79 0a144 144 0 0 1-14.142-1.414c-4.754-.712-9.486-1.632-14.142-2.829-4.548-1.17-9.009-2.672-13.435-4.243-4.537-1.61-9.038-3.34-13.435-5.303-3.61-1.61-7.07-3.535-10.606-5.303" style="fill:none;stroke:#55a;stroke-width:2;stroke-linecap:round;stroke-linejoin:round;stroke-miterlimit:4;stroke-opacity:1;stroke-dasharray:none;stroke-dashoffset:0" transform="rotate(180 180 782.362)"/><path d="M257.631 647.892s-12.747 5.86-19.443 7.876c-6.88 2.072-13.99 3.437-21.125 4.282-6.977.825-14.056 1.251-21.063.75-7.317-.524-14.576-1.99-21.656-3.907-4.218-1.142-12.313-4.5-12.313-4.5l-2.26 2.404s9.073 3.702 13.792 4.971c7.268 1.956 14.678 3.489 22.218 4.032 7.24.52 14.484.073 21.656-.782 7.305-.87 14.582-2.282 21.625-4.406 6.965-2.1 20.229-8.19 20.229-8.19z" style="font-size:medium;font-style:normal;font-variant:normal;font-weight:400;font-stretch:normal;text-indent:0;text-align:start;text-decoration:none;line-height:normal;letter-spacing:normal;word-spacing:normal;text-transform:none;direction:ltr;block-progression:tb;writing-mode:lr-tb;text-anchor:start;baseline-shift:baseline;color:#000;fill:#000;fill-opacity:1;stroke:none;stroke-width:3;marker:none;visibility:visible;display:inline;overflow:visible;font-family:Sans;-inkscape-font-specification:Sans" transform="rotate(180 180 782.362)"/><path d="M238.714 70.077S237.809 84.79 239 92c1.142 6.916 3.788 13.536 6.5 20a162 162 0 0 0 12.5 24c3.246 5.125 7.012 9.928 11 14.5 5.422 6.217 10.707 12.819 17.5 17.5 4.361 3.006 9.582 4.533 14.5 6.5 4.709 1.884 14.345 5.068 14.345 5.068" style="fill:none;stroke:#55a;stroke-width:2;stroke-linecap:round;stroke-linejoin:round;stroke-miterlimit:4;stroke-opacity:1;stroke-dasharray:none;stroke-dashoffset:0" transform="rotate(180 180 526.181)"/><path d="M103.406 195.594S117.258 205.707 123 212c5.329 5.84 13.5 19.5 13.5 19.5s-14.793 12.239-21 19.5c-7.179 8.398-13.32 17.742-18.5 27.5-4.382 8.256-8.005 16.992-10.5 26-1.712 6.18-2.17 12.642-3 19-.63 4.818-1.5 14.5-1.5 14.5l-52-50v-25.5" style="fill:#ffff58;fill-opacity:1;stroke:#000;stroke-width:2;stroke-linecap:round;stroke-linejoin:round;stroke-miterlimit:4;stroke-opacity:1;stroke-dasharray:none;stroke-dashoffset:0" transform="rotate(180 180 526.181)"/><path d="m37 266 68-62.5s8.806 7.602 12.58 12c3.572 4.165 9.42 13.5 9.42 13.5s-11.816 11.578-17 18c-6.475 8.022-12.448 16.514-17.5 25.5-3.583 6.373-6.58 13.101-9 20-1.993 5.684-3.552 11.552-4.5 17.5-.815 5.113-1 15.5-1 15.5L37.5 285z" style="fill:#000;fill-opacity:1;stroke:#000;stroke-width:2;stroke-linecap:round;stroke-linejoin:round;stroke-miterlimit:4;stroke-opacity:1;stroke-dasharray:none;stroke-dashoffset:0" transform="rotate(180 180 526.181)"/><path d="M91.297 221.98c-.06-1.628 1.15-4.749 1.15-4.749s2.866 1.493 4.078 2.54c1.26 1.09 3.228 3.814 3.228 3.814s1.294-2.916 2.24-4.183c1.065-1.428 3.796-3.759 3.796-3.759s1.452 3.168 1.627 4.87c.206 2.005-.71 6.004-.71 6.004s3.393-1.645 5.225-1.98c1.736-.318 5.295.001 5.295.001s-1.762 3.631-3.034 5.173c-1.297 1.573-4.59 4.04-4.59 4.04s2.356.827 3.283 1.622c1.072.917 2.435 3.461 2.435 3.461s-2.593 1.548-4.042 1.874c-1.268.285-3.9.032-3.9.032s.837 2.796.85 4.236c.013 1.578-.85 4.66-.85 4.66s-2.46-1.17-3.443-2.08c-1.092-1.013-2.593-3.639-2.593-3.639s-1.138 3.962-2.22 5.684c-1.242 1.974-4.77 5.118-4.77 5.118s-.707-4.838-.69-7.273c.014-2.01.654-5.998.654-5.998s-3.08 1.637-4.746 2.101c-1.742.486-5.383.686-5.383.686s.941-3.861 1.99-5.508c1.183-1.856 4.681-4.658 4.681-4.658s-2.949-.72-4.306-1.374c-1.658-.8-4.59-3.074-4.59-3.074s3.269-2.535 5.225-2.95c1.897-.404 5.791.552 5.791.552-1.404-1.18-1.615-3.41-1.681-5.244" style="fill:#ffff58;fill-opacity:1;stroke:none" transform="rotate(180 180 526.181)"/><path d="M99.031 739.08c-1.567.127-3.07 1.15-4.094 2.345-1.023 1.194-1.744 2.834-1.687 4.406.066 1.816 1.034 3.646 2.313 4.937 1.268 1.282 3.071 2.353 4.874 2.344 1.72-.009 3.445-1.032 4.626-2.281 1.189-1.259 2.12-3.052 2.03-4.781-.097-1.89-1.317-3.731-2.75-4.97-1.43-1.236-3.426-2.15-5.312-2m.156 2c1.385-.112 2.826.622 3.876 1.532 1.032.896 1.964 2.197 2.03 3.563.059 1.197-.644 2.41-1.468 3.28-.83.877-2.012 1.657-3.219 1.657-1.276 0-2.513-.838-3.406-1.75-.932-.952-1.7-2.262-1.75-3.594-.04-1.098.506-2.226 1.219-3.062.684-.804 1.666-1.54 2.719-1.625" style="font-size:medium;font-style:normal;font-variant:normal;font-weight:400;font-stretch:normal;text-indent:0;text-align:start;text-decoration:none;line-height:normal;letter-spacing:normal;word-spacing:normal;text-transform:none;direction:ltr;block-progression:tb;writing-mode:lr-tb;text-anchor:start;baseline-shift:baseline;color:#000;fill:#000;fill-opacity:1;stroke:none;stroke-width:2;marker:none;visibility:visible;display:inline;overflow:visible;font-family:Sans;-inkscape-font-specification:Sans" transform="rotate(180 180 782.362)"/><path d="M57.183 268.379V259.8s6.303-.7 8.26-2.859c1.83-2.017 1.906-7.942 1.906-7.942h12.072z" style="fill:#ffff58;fill-opacity:1;stroke:none" transform="rotate(180 180 526.181)"/><path d="M71.904 774.629c-1.274 1.29-.72 4.196.635 5.4 1.346 1.197 4.128 1.274 5.401 0 1.123-1.123 1.063-3.584 0-4.765-1.354-1.503-4.614-2.074-6.036-.635" style="fill:#ffff58;fill-opacity:1;stroke:none" transform="rotate(180 180 782.362)"/><path d="M90.858 259.801 74.021 280.77l9.213-1.907s-.242-5.35 1.27-7.306c1.566-2.025 6.99-3.177 6.99-3.177zm-49.241 26.05c3.376.7 6.877.771 9.53 5.083.39-7.234 4.254-10.995 7.943-14.93 2.067 5.188 3.168 10.377 0 15.566 5.736-5.014 10.539-2.565 15.566-1.906-2.356 4.606-5.393 8.759-11.119 11.119 3.926 3.225 5.42 7.668 6.354 12.39-1.906-.446-3.812-.696-5.718-2.224l-20.015-20.015c-1.12-1.694-1.774-3.388-2.541-5.083" style="fill:#ffff58;fill-opacity:1;stroke:none" transform="rotate(180 180 526.181)"/><path d="M55.438 804.862c-1.332-.397-2.86.145-4.094.781-1.205.622-2.333 1.62-2.938 2.813l1.6 1.087c.346-.681 1.355-1.642 2.275-2.118.86-.446 1.919-.88 2.844-.594 1.535.473 2.743 1.98 3.344 3.469.577 1.43.164 3.092 0 4.625-.11 1.028-.657 3.03-.657 3.03l1.912 1.413s.606-2.738.714-4.13c.144-1.87.652-3.905-.094-5.626-.906-2.088-2.725-4.098-4.907-4.75" style="font-size:medium;font-style:normal;font-variant:normal;font-weight:400;font-stretch:normal;text-indent:0;text-align:start;text-decoration:none;line-height:normal;letter-spacing:normal;word-spacing:normal;text-transform:none;direction:ltr;block-progression:tb;writing-mode:lr-tb;text-anchor:start;baseline-shift:baseline;color:#000;fill:#000;fill-opacity:1;stroke:none;stroke-width:2;marker:none;visibility:visible;display:inline;overflow:visible;font-family:Sans;-inkscape-font-specification:Sans" transform="rotate(180 180 782.362)"/><path d="M137.24 232.48s7.784 15.014 9.848 23.138c1.6 6.298 2.03 12.91 1.854 19.405-.24 8.8-1.342 17.701-3.936 26.113-2.61 8.463-6.599 16.58-11.525 23.94-4.867 7.273-17.526 19.547-17.526 19.547" style="fill:none;stroke:#000;stroke-width:2;stroke-linecap:round;stroke-linejoin:round;stroke-miterlimit:4;stroke-opacity:1;stroke-dasharray:none;stroke-dashoffset:0" transform="rotate(180 180 526.181)"/><path d="M133.746 235.34s6.076 12.395 7.624 19.06c1.898 8.173 2.341 16.72 1.906 25.098a87 87 0 0 1-3.927 21.638 87.8 87.8 0 0 1-9.265 20.031c-4.126 6.59-9.139 12.69-14.764 18.056-2.958 2.821-9.848 7.306-9.848 7.306" style="fill:none;stroke:#000;stroke-width:2;stroke-linecap:round;stroke-linejoin:round;stroke-miterlimit:4;stroke-opacity:1;stroke-dasharray:none;stroke-dashoffset:0" transform="rotate(180 180 526.181)"/><path d="M129.933 238.834s4.708 11.456 6.036 17.473c1.47 6.655 2.335 13.53 2.083 20.34-.289 7.808-1.792 15.614-4.103 23.077-2.178 7.03-5.057 13.968-9.099 20.12-4.321 6.578-10 12.243-15.884 17.473-4.766 4.236-15.566 11.119-15.566 11.119" style="fill:none;stroke:#000;stroke-width:2;stroke-linecap:round;stroke-linejoin:round;stroke-miterlimit:4;stroke-opacity:1;stroke-dasharray:none;stroke-dashoffset:0" transform="rotate(180 180 526.181)"/><path d="M126.174 241.225s3.607 9.074 4.712 13.811c1.288 5.518 2.073 11.19 2.198 16.855.148 6.736-.163 13.585-1.73 20.138a75.8 75.8 0 0 1-8.41 20.826c-3.752 6.35-8.562 12.147-13.978 17.155-6.146 5.684-20.65 14.296-20.65 14.296" style="fill:none;stroke:#000;stroke-width:2;stroke-linecap:round;stroke-linejoin:round;stroke-miterlimit:4;stroke-opacity:1;stroke-dasharray:none;stroke-dashoffset:0" transform="rotate(180 180 526.181)"/><path d="m171.288 131.1-15.49 14.262-29.902 27.617-35.046 33.14-29.902 28.76L30 263.26" style="fill:#000;fill-opacity:1;stroke:#55a;stroke-width:2;stroke-linecap:round;stroke-linejoin:round;stroke-miterlimit:4;stroke-opacity:1;stroke-dasharray:none" transform="rotate(180 180 526.181)"/><path d="m142.128 206.246 17.325 4.596-7.025 21.382-17.294-4.243z" style="fill:#f55;fill-opacity:1;stroke:none" transform="rotate(180 180 526.181)"/><path d="m180.773 712.213-6.64 2.03 3.873 3.504-5.349 2.398 3.505 3.874-6.456 2.582 3.32 4.243-6.456 2.029 4.058 4.427-5.903 2.03 2.583 4.61c-1.476 1.107-3.147 2.214-4.622 3.321 7.132 1.168 14.46 2.337 21.592 3.505l-2.582-4.796 4.242-2.214-2.398-5.534 6.272-2.398-2.767-5.903 5.903-1.106-3.874-4.98q2.952-.74 5.903-1.476l-3.136-4.243 5.903-2.398c-1.637-.79-3.245-1.68-4.9-2.408z" style="fill:#ff5;fill-opacity:1;stroke:none" transform="rotate(180 180 782.362)"/><path d="M182.423 200.037c-2.37 5.564-5.334 11.432-7.697 17.277-2.557 6.327-4.865 13.41-7.005 19.237m23.895-35.435c-2.798 6.058-5.394 12.145-7.704 18.371-2.154 5.808-4.05 11.721-5.729 17.68" style="fill:none;stroke:#000;stroke-width:2;stroke-linecap:round;stroke-linejoin:round;stroke-miterlimit:4;stroke-opacity:1;stroke-dasharray:none;stroke-dashoffset:0" transform="rotate(180 180 526.181)"/><path d="M186.075 713.228c-.754.104-1.54 1.103-1.35 1.839.189.734 1.356 1.226 2.064.954.566-.218.865-1.087.714-1.674-.15-.586-.829-1.201-1.428-1.119m-2.657 6.382c-.756.105-1.551 1.1-1.364 1.839.189.745 1.374 1.252 2.09.974.573-.222.867-1.107.71-1.7-.154-.586-.836-1.195-1.436-1.113m-2.951 6.55c-.768.123-1.561 1.175-1.331 1.918.229.74 1.468 1.153 2.17.828.537-.248.762-1.105.591-1.67-.172-.571-.841-1.171-1.43-1.076m-2.287 6.507c-.758.097-1.555 1.093-1.374 1.836s1.35 1.265 2.069 1c.576-.213.888-1.091.74-1.688-.146-.595-.827-1.225-1.435-1.148m-2.311 6.436c-.786.139-1.62 1.224-1.352 1.976.27.757 1.614 1.074 2.313.678.498-.281.627-1.122.432-1.66-.195-.536-.832-1.094-1.393-.994m-2.386 6.447c-.769.121-1.57 1.166-1.343 1.91.227.743 1.472 1.158 2.177.831.535-.249.754-1.106.583-1.671-.172-.567-.832-1.161-1.417-1.07" style="font-size:medium;font-style:normal;font-variant:normal;font-weight:400;font-stretch:normal;text-indent:0;text-align:start;text-decoration:none;line-height:normal;letter-spacing:normal;word-spacing:normal;text-transform:none;direction:ltr;block-progression:tb;writing-mode:lr-tb;text-anchor:start;baseline-shift:baseline;color:#000;fill:#000;fill-opacity:1;stroke:none;stroke-width:2;marker:none;visibility:visible;display:inline;overflow:visible;font-family:Sans;-inkscape-font-specification:Sans" transform="rotate(180 180 782.362)"/><path d="m205.408 728.778 18.797.263c-4.506 7.244-8.155 14.994-10.665 23.764l-17.076-1.12z" style="fill:#f55;fill-opacity:1;stroke:none" transform="rotate(180 180 782.362)"/><path d="M147.574 766.062s1.787 9.174 2.141 13.823c.277 3.64-.018 10.95-.018 10.95s10.79.652 16.174 1.127a398 398 0 0 1 15.77 1.686c4.76.612 9.501 1.372 14.24 2.141 5.555.901 16.632 2.897 16.632 2.897s-1.766-8.083-2.15-12.191c-.402-4.315-.15-13.001-.15-13.001s-10.745-.3-16.102-.708c-4.91-.374-9.805-.944-14.687-1.593-5.583-.741-11.13-1.73-16.69-2.627-5.056-.816-15.16-2.504-15.16-2.504" style="fill:#f55;fill-opacity:1;stroke:none"/><path d="m265.626 703.036 14.873-6.226L330 746.362v17z" style="fill:#000;fill-opacity:1;stroke:none"/><path d="m280.499 696.81 19.022-9.338 14.873 4.15L330 713.412v33.203z" style="fill:#55a;fill-opacity:1;stroke:none"/><path d="M94.374 861.643 79.5 867.87 30 818.317v-17z" style="fill:#000;fill-opacity:1;stroke:none"/><path d="m79.502 867.869-19.023 9.338-14.873-4.15L30 851.267v-33.203z" style="fill:#55a;fill-opacity:1;stroke:none"/><path d="M90 557.362s6 15 13 25 17 20 17 20-10 10-17 20-13 25-13 25-6-15-13-25-17-20-17-20 10-10 17-20 13-25 13-25m-60 45s3 7.5 6.5 12.5 8.5 10 8.5 10-5 5-8.5 10-6.5 12.5-6.5 12.5-3-7.5-6.5-12.5-8.5-10-8.5-10 5-5 8.5-10 6.5-12.5 6.5-12.5m240 405s-6-15-13-25-17-20-17-20 10-10 17-20 13-25 13-25 6 15 13 25 17 20 17 20-10 10-17 20-13 25-13 25m60-45s-3-7.5-6.5-12.5-8.5-10-8.5-10 5-5 8.5-10 6.5-12.5 6.5-12.5 3 7.5 6.5 12.5 8.5 10 8.5 10-5 5-8.5 10-6.5 12.5-6.5 12.5" style="fill:#f55;stroke:none"/></g></svg>