<svg xmlns="http://www.w3.org/2000/svg" width="360" height="540"><g transform="translate(0 -512.362)"><rect width="359" height="539" x=".5" y="512.862" rx="29.944" ry="29.944" style="fill:#fff;stroke:#000;stroke-width:.99999976"/><path d="m30 542.362-10 35v5h12v10h5v-10h3v-5h-3v-15h-5v15h-6.8l10-35zm300 480 10-35v-5h-12v-10h-5v10h-3v5h3v15h5v-15h6.8l-10 35zm-297.5-392c.5 2 2.5 7 6 7 4.5 0 6.5-4 6.5-9 0-3.5-1.29-5.806-2.5-8.5-1.289-2.868-3.19-5.429-5-8-2.323-3.299-7.5-9.5-7.5-9.5s-5.177 6.201-7.5 9.5c-1.81 2.571-3.711 5.132-5 8-1.21 2.694-2.5 5-2.5 8.5 0 5 2 9 6.5 9 3.5 0 5.5-5 6-7 .5-.5.5 0 .5.5-.5 4-.5 5-1 8s-2 8.5-2 8.5c2.5-1 7.5-1 10 0 0 0-1.5-5.5-2-8.5s-.5-4-1-8c0-.5 0-1 .5-.5m300 304c.5-2 2.5-7 6-7 4.5 0 6.5 4 6.5 9 0 3.5-1.29 5.806-2.5 8.5-1.289 2.869-3.19 5.429-5 8-2.323 3.3-7.5 9.5-7.5 9.5s-5.177-6.2-7.5-9.5c-1.81-2.571-3.711-5.131-5-8-1.21-2.694-2.5-5-2.5-8.5 0-5 2-9 6.5-9 3.5 0 5.5 5 6 7 .5.5.5 0 .5-.5-.5-4-.5-5-1-8s-2-8.5-2-8.5c2.5 1 7.5 1 10 0 0 0-1.5 5.5-2 8.5s-.5 4-1 8c0 .5 0 1 .5.5" style="fill:#000;fill-opacity:1;stroke:none"/><path d="M35.008 55.984c.992 4.004 4.996 14.032 11.976 14.032 9 0 13.004-8.008 13.004-18 0-7.016-2.551-11.622-4.996-17.008-2.586-5.74-6.378-10.878-9.992-16.016C40.358 12.402 30.012 0 30.012 0S19.63 12.402 14.988 18.992c-3.614 5.138-7.405 10.276-9.992 16.016C2.586 40.394 0 45 0 52.016c0 9.992 4.004 18 13.004 18 6.98 0 10.984-10.028 12.012-14.032.992-.992.992 0 .992 1.028-.992 7.972-.992 9.992-2.02 15.98C22.996 79.016 19.984 90 19.984 90c5.032-1.984 15.024-1.984 20.02 0 0 0-3.012-10.984-4.004-17.008-.992-5.988-.992-8.008-1.984-15.98 0-1.028 0-2.02.992-1.028" style="fill:#000;fill-opacity:1;fill-rule:nonzero;stroke:none" transform="translate(60 557.362)"/><path d="M35.008 55.984c.992 4.004 4.996 14.032 11.976 14.032 9 0 13.004-8.008 13.004-18 0-7.016-2.551-11.622-4.996-17.008-2.586-5.74-6.378-10.878-9.992-16.016C40.358 12.402 30.012 0 30.012 0S19.63 12.402 14.988 18.992c-3.614 5.138-7.405 10.276-9.992 16.016C2.586 40.394 0 45 0 52.016c0 9.992 4.004 18 13.004 18 6.98 0 10.984-10.028 12.012-14.032.992-.992.992 0 .992 1.028-.992 7.972-.992 9.992-2.02 15.98C22.996 79.016 19.984 90 19.984 90c5.032-1.984 15.024-1.984 20.02 0 0 0-3.012-10.984-4.004-17.008-.992-5.988-.992-8.008-1.984-15.98 0-1.028 0-2.02.992-1.028" style="fill:#000;fill-opacity:1;fill-rule:nonzero;stroke:none" transform="translate(240 557.362)"/><path d="M35.008 55.984c.992 4.004 4.996 14.032 11.976 14.032 9 0 13.004-8.008 13.004-18 0-7.016-2.551-11.622-4.996-17.008-2.586-5.74-6.378-10.878-9.992-16.016C40.358 12.402 30.012 0 30.012 0S19.63 12.402 14.988 18.992c-3.614 5.138-7.405 10.276-9.992 16.016C2.586 40.394 0 45 0 52.016c0 9.992 4.004 18 13.004 18 6.98 0 10.984-10.028 12.012-14.032.992-.992.992 0 .992 1.028-.992 7.972-.992 9.992-2.02 15.98C22.996 79.016 19.984 90 19.984 90c5.032-1.984 15.024-1.984 20.02 0 0 0-3.012-10.984-4.004-17.008-.992-5.988-.992-8.008-1.984-15.98 0-1.028 0-2.02.992-1.028" style="fill:#000;fill-opacity:1;fill-rule:nonzero;stroke:none" transform="matrix(1 0 0 -1 60 1007.362)"/><path d="M35.008 55.984c.992 4.004 4.996 14.032 11.976 14.032 9 0 13.004-8.008 13.004-18 0-7.016-2.551-11.622-4.996-17.008-2.586-5.74-6.378-10.878-9.992-16.016C40.358 12.402 30.012 0 30.012 0S19.63 12.402 14.988 18.992c-3.614 5.138-7.405 10.276-9.992 16.016C2.586 40.394 0 45 0 52.016c0 9.992 4.004 18 13.004 18 6.98 0 10.984-10.028 12.012-14.032.992-.992.992 0 .992 1.028-.992 7.972-.992 9.992-2.02 15.98C22.996 79.016 19.984 90 19.984 90c5.032-1.984 15.024-1.984 20.02 0 0 0-3.012-10.984-4.004-17.008-.992-5.988-.992-8.008-1.984-15.98 0-1.028 0-2.02.992-1.028" style="fill:#000;fill-opacity:1;fill-rule:nonzero;stroke:none" transform="matrix(1 0 0 -1 240 1007.362)"/></g></svg>