<svg xmlns="http://www.w3.org/2000/svg" width="360" height="540"><g transform="translate(0 -512.362)"><rect width="359" height="539" x=".5" y="512.862" rx="29.944" ry="29.944" style="fill:#fff;stroke:#000;stroke-width:.99999976"/><path d="M198.75 900.362s-1.398-2.085-2.25-3c-1.128-1.21-2.24-2.576-3.75-3.25-1.841-.82-3.988-.871-6-.75-2.058.124-6 1.5-6 1.5s.166-3.945-.5-5.75c-.744-2.017-2.047-3.937-3.75-5.25-2.047-1.577-4.667-2.663-7.25-2.75-2.002-.067-3.9.98-5.75 1.75-1.136.473-3.25 1.75-3.25 1.75s-1.143-4.492-2.25-6.5c-.773-1.402-1.755-2.743-3-3.75-1.594-1.288-3.528-2.189-5.5-2.75-.885-.252-2.75-.25-2.75-.25l4.75-12.5 4.5-15.5 3-11.25 1.75-9.25 2-10 .25-6.75-17.25-.25-2.5 13.75-6.75 21.5-5.25 12-6.5 11.75-6.75 9.75-6 2-3.25 6.25v4.75l-5.25.75-3 6v6.5l.75 4-8-5-19.5-12 12.25-11.5 8.5-11.25 8.75-12 7.25-14.5 4.75-9-36.549-17.857-1.201-5.643-5.25-1.75-5.75 1-1.5 4 .25 2.75-12 1.25-10.25-1.5-13-.25v-82.5l7.5 6.5 10.75 10 9.25 12.75 7.856 12.92 3.676 14.558 1.064 7.624 49.654 24.148 1.75-7.25 1.5-10.25 1-12v-15.75h111l1.5 33.75 2 18.5 5 16 6.75 16.25 8.5 15.75 7 10.75 5.5 8.25-22 9.25-5.75-4.75-10-17-11.25-24.25-6-21.75-3.5-14.25-1.25-12.25-22.25.25 1.75 22 1.75 14.25 4 14.5 3 11.75 5 12.5 4.75 9 3.25 6-2 .75-3.25-1-4.25 5.25-4-1z" style="fill:#000;fill-opacity:1;stroke:none"/><path d="M340 1022.362v-50h-5v15l-3 7-7-22h-5l9 28-9 22h5l10-24v24zm-320-480v50h5v-15l3-7 7 22h5l-9-28 9-22h-5l-10 24v-24z" style="stroke:none"/><path d="m124.649 671.73 4.457-.637 4.14 1.91 3.98-1.91 2.705 1.433 2.707-.796 6.049 13.054 7.323 18.466 4.457 15.76 2.07 13.532 1.273 10.188.319 10.348-11.144-.319-2.228-14.645-3.821-17.99-4.617-14.168-4.935-11.302-5.253-10.189-3.343-6.368zm104.431 3.661-7.96 14.964-7.96 17.83-5.412 17.83-3.502 16.397-1.91 10.347 7.8.319 4.298-16.716 6.209-18.148 5.253-12.258 6.209-10.666 4.457-6.367-3.82-2.388-2.07-5.731z" style="fill:#f55;fill-opacity:1;stroke:none"/><path d="M161.25 664.362s1.398 2.086 2.25 3c1.128 1.21 2.24 2.577 3.75 3.25 1.841.82 3.988.872 6 .75 2.058-.124 6-1.5 6-1.5s-.166 3.945.5 5.75c.744 2.018 2.047 3.938 3.75 5.25 2.047 1.578 4.667 2.663 7.25 2.75 2.002.067 3.9-.98 5.75-1.75 1.136-.473 3.25-1.75 3.25-1.75s1.143 4.492 2.25 6.5c.773 1.402 1.755 2.744 3 3.75 1.594 1.289 3.528 2.19 5.5 2.75.885.252 2.75.25 2.75.25l-4.75 12.5-4.5 15.5-3 11.25-1.75 9.25-2 10-.25 6.75 17.25.25 2.5-13.75 6.75-21.5 5.25-12 6.5-11.75 6.75-9.75 6-2 3.25-6.25v-4.75l5.25-.75 3-6v-6.5l-.75-4 8 5 19.5 12-12.25 11.5-8.5 11.25-8.75 12-7.25 14.5-4.75 9 36.549 17.857 1.201 5.643 5.25 1.75 5.75-1 1.5-4-.25-2.75 12-1.25 10.25 1.5 13 .25v82.5l-7.5-6.5-10.75-10-9.25-12.75-8.5-14.5-3.25-13-.75-6.5-49.75-25.25-1.75 7.25-1.5 10.25-1 12v15.75H125l-1.5-33.75-2-18.5-5-16-6.75-16.25-8.5-15.75-7-10.75-5.5-8.25 22-9.25 5.75 4.75 10 17 11.25 24.25 6 21.75 3.5 14.25 1.25 12.25 22.25-.25-1.75-22-1.75-14.25-4-14.5-3-11.75-5-12.5-4.75-9-3.25-6 2-.75 3.25 1 4.25-5.25 4 1z" style="fill:#000;fill-opacity:1;stroke:none"/><path d="m270.16 747.99 11.01 5.506s.034-2.828.787-3.933c1.229-1.802 3.5-2.678 5.505-3.539 2.026-.87 4.255-1.179 6.423-1.573 1.083-.197 3.277-.393 3.277-.393l-.13-38.407s-4.649 4.1-6.686 6.423c-2.43 2.773-4.495 5.854-6.554 8.913-2.004 2.978-3.91 6.029-5.637 9.176-1.682 3.067-3.164 6.243-4.587 9.438-1.229 2.757-3.408 8.39-3.408 8.39" style="fill:#f55;fill-opacity:1;stroke:none"/><path d="m38.25 702.112 16.5-11.5 20.25-11 9.25-4.75 1.25 3.25-5.25 12.25-5 18.5-.75 11.5 2.25 14.25 4 10.75 6.75 11 7.75 9.25 6.25 6 7.5 5.5 10.75 5.5.5 14-1.5 8.75-2 10.75-20.5-9.75-1-16.5-4-17.5-7-18.5-6-9.75L65 726.862l-11.75-11.75-9.25-7.25z" style="fill:#ff5556;fill-opacity:1;stroke:none"/><path d="m116 542.362 31.5 57.5c11.286-4.208 23.3-5.616 35.184-6.875 12.973-1.374 26.104-1.425 39.13-.708 10.633.586 21.33 1.377 31.686 4.083l35.5-54z" style="fill:#ff5;fill-opacity:1;stroke:#55a;stroke-width:2;stroke-linecap:butt;stroke-linejoin:miter;stroke-miterlimit:4;stroke-opacity:1;stroke-dasharray:none;stroke-dashoffset:0"/><path d="M191.19 572.915c1.207 1.008 2.788 1.902 4.358 1.806 1.58-.097 2.936-1.308 4.135-2.344.758-.654 1.216-1.331 1.846-2.37.817.97 1.527 2.189 2.642 2.846 1.376.811 3.172 1.755 4.651 1.152 1.78-.726 2.885-2.988 3.032-4.905.137-1.772-.725-3.756-2.077-4.91-1.272-1.086-3.206-1.048-4.87-1.203.475-1.494 1.275-3.405.692-4.974-.682-1.835-2.472-3.606-4.41-3.877-1.756-.246-3.696.898-4.805 2.282-.967 1.206-1.34 3.006-1.032 4.521.226 1.119 1.045 2.071 2 2.779-1.94.162-4.176.38-5.54 1.757-1.306 1.319-1.769 3.473-1.632 5.324.058.78.63 1.433 1.01 2.116m8.49-6.399c-.135-.891.506-2.192 1.4-2.313.917-.124 2.032.982 2.018 1.907-.014.864-1.075 1.722-1.939 1.722-.66 0-1.38-.663-1.48-1.316m-36.539-8.233c-1.395.726-2.828 1.843-3.342 3.33-.518 1.497.047 3.224.575 4.718.405 1.143 1.214 2.106 1.93 3.085-1.025-.351-2.214-.375-3.16.09-1.79.882-3.721 2.644-3.783 4.638-.059 1.92 1.65 3.81 3.363 4.683 1.584.807 3.747.774 5.332-.031 1.49-.758 2.2-2.558 2.982-4.036 1.196 1.014 2.647 2.061 4.208 2.058 2.099-.005 4.712-.911 5.643-2.792.86-1.736-.044-4.085-1.106-5.705-.72-1.096-1.94-2.098-3.245-2.226-1.182-.115-2.253.8-3.273 1.41.595-1.853 1.253-4.002.505-5.79-.716-1.712-2.527-2.967-4.288-3.552-.742-.246-1.565.031-2.342.12m2.882 10.8c.912.115 2.153.995 1.997 1.9-.157.913-1.73 1.587-2.536 1.132-.747-.422-.704-1.79-.316-2.555.147-.291.531-.519.855-.478m74.028-12.731c1.394.727 2.827 1.844 3.34 3.33.518 1.497-.046 3.224-.575 4.718-.404 1.143-1.213 2.106-1.93 3.085 1.026-.351 2.215-.375 3.16.091 1.79.881 3.722 2.643 3.784 4.637.059 1.92-1.65 3.81-3.363 4.683-1.584.807-3.747.774-5.332-.031-1.491-.758-2.2-2.558-2.982-4.035-1.196 1.013-2.647 2.06-4.208 2.057-2.099-.005-4.712-.911-5.644-2.792-.86-1.736.044-4.085 1.107-5.704.72-1.097 1.939-2.1 3.245-2.227 1.182-.115 2.253.8 3.273 1.41-.595-1.853-1.253-4.002-.506-5.79.716-1.712 2.527-2.967 4.29-3.552.74-.246 1.564.031 2.34.12m-2.883 10.8c-.912.115-2.154.995-1.997 1.901.157.912 1.73 1.586 2.536 1.131.747-.422.704-1.79.316-2.555-.148-.291-.531-.519-.855-.478m33.986-5.924c-1.748-.044-3.78.521-4.967 1.892-1.24 1.43-1.35 3.674-1.423 5.619-.706-.918-1.351-2.126-2.435-2.416-1.197-.32-2.601.206-3.593.996-1.464 1.166-3.035 3.087-2.835 5.01.216 2.085 2.235 3.796 4.091 4.508 1.381.53 3.006.037 4.392-.514.063.483.12 1.006.184 1.512l2.407-3.625a1 1 0 0 1-.363.168c-.86.156-2.028-1.005-1.872-1.916.155-.906 1.545-1.322 2.39-1.123.3.07.573.397.61.721.043.388-.034.881-.189 1.304l6.58-9.91a9.6 9.6 0 0 0-.962-1.304c-.659-.345-1.278-.903-2.015-.922m-138.608 1.485c1.745.107 3.72.844 4.786 2.312 1.112 1.531 1.03 3.776.935 5.72.782-.854 1.53-2.002 2.634-2.197 1.22-.217 2.573.428 3.493 1.3 1.359 1.288 2.759 3.337 2.395 5.236-.395 2.058-2.554 3.59-4.464 4.14-1.421.41-2.998-.222-4.331-.89-.104.476-.207.992-.314 1.49l-2.086-3.818c.1.083.223.165.347.198.844.23 2.107-.826 2.03-1.748-.076-.915-1.426-1.45-2.285-1.324-.304.045-.605.347-.67.667-.076.383-.041.88.076 1.315l-5.703-10.439a9.7 9.7 0 0 1 1.07-1.216c.686-.288 1.352-.79 2.087-.746" style="fill:#000;stroke:none"/><path d="M213.73 577.765c-2.619.325-5.382-.71-7.638-2.063-1.201-.72-2.036-1.933-2.861-3.058-.75-1.023-1.238-2.693-1.868-3.315.359 3.46 1.278 5.71 3.073 7.885 1.725 2.091 4.337 3.38 6.877 4.339 2.733 1.032 5.745 1.606 8.664 1.398 3.436-.245 6.834-1.443 9.857-3.077 2.052-1.109 3.98-2.596 5.39-4.44.783-1.027 1.45-2.543 1.58-3.526-1.31 1.575-3.495 3.413-5.67 4.443-1.984.938-4.257 1.74-6.436 1.442-2.114-.289-3.683-1.404-5.626-3.023-2.055 1.1-3.31 2.744-5.341 2.995" style="fill:#000;stroke:none"/><path d="M189.546 578.743c2.602.19 5.225-1.06 7.432-2.45 1.162-.733 2.05-1.86 2.852-2.976.734-1.021.787-3.418 1.748-3.343-.176 3.474-1.212 5.558-2.888 7.745-1.635 2.133-4.105 3.596-6.563 4.683-2.644 1.17-5.587 1.897-8.477 1.838-3.405-.07-6.819-1.093-9.886-2.57-2.083-1.003-4.062-2.39-5.548-4.16-.826-.986-1.563-2.466-1.742-3.441 1.375 1.506 3.625 3.23 5.826 4.148 2.006.836 4.29 1.52 6.424 1.113 2.072-.397 3.563-1.59 5.397-3.306 2.084.994 3.408 2.571 5.425 2.719m55.694 2.077c-2.05-.066-4.11-1.4-5.755-2.956-.875-.828-1.351-2.115-1.986-3.205-.499-.855-.675-2.594-1.431-2.613.022 3.227.832 4.934 2.025 6.978 1.231 2.11 3.104 3.705 4.997 4.938 2.038 1.327 4.324 2.272 6.596 2.486 2.676.251 5.391-.378 7.85-1.459 1.668-.734 3.269-1.832 4.495-3.331.681-.834 1.31-2.134 1.483-3.018-1.13 1.264-2.955 2.65-4.714 3.293-1.603.587-3.42 1.008-5.082.433-1.614-.56-2.745-1.8-4.127-3.557-1.67.726-2.762 2.06-4.352 2.01" style="fill:#000;stroke:none"/><path d="M150.28 584.041c-2.01.78-4.535.264-6.745-.654-1.177-.489-2.21-1.556-3.197-2.47-1.04-.962-2.11-3.442-2.85-3.15 1.304 3.306 2.836 5.475 5.16 7.386 1.912 1.57 4.478 2.52 6.801 3.004 2.5.52 5.088.545 7.373-.175 2.69-.848 5.067-2.616 7.016-4.742 1.324-1.444 2.436-3.234 3.027-5.28.328-1.137.419-2.732.235-3.712-.802 2.4-1.56 4.46-3.252 5.965-1.275 1.134-3.042 1.879-4.747 1.91-1.916.037-3.373-.713-5.41-1.944-1.327 1.435-1.853 3.257-3.412 3.862" style="fill:#000;stroke:none"/><path d="M143.366 77.906s5.122 1.645 7.778 1.767c3.147.146 6.459-.031 9.37-1.237 2.057-.852 3.711-2.507 5.303-4.066 1.078-1.056 2.828-3.535 2.828-3.535s5.816 3.198 9.016 3.889c3.168.684 6.506.58 9.722.177 3.092-.389 6.271-1 9.016-2.475 2.207-1.187 5.657-4.95 5.657-4.95s4.365 4.689 7.248 5.834c2.801 1.112 6.004.848 9.015.707 2.748-.13 5.51-.58 8.132-1.415 2.612-.831 7.425-3.535 7.425-3.535s2.746 3.768 4.596 5.126c1.722 1.264 3.79 2.03 5.833 2.652 2.058.627 4.222 1.253 6.364 1.06 2.619-.234 7.425-2.658 7.425-2.658l-5.055 7.57s-15.231-2.629-22.918-3.35c-6.453-.606-12.946-.74-19.426-.817-6.979-.083-13.967-.042-20.934.38-5.822.354-11.621 1.053-17.406 1.799-4.354.56-8.744.996-13.014 2.012-3.914.932-11.48 3.727-11.48 3.727z" style="fill:#f55;fill-opacity:1;stroke:none" transform="translate(0 512.362)"/><path d="M148.194 600.152c-2.027 10.373-3.987 20.814-7.316 30.865-3.226 9.211-8.013 17.76-12.767 26.242-1.792 2.708-5.233 5.067-8.594 4.153-2.22-.632-2.304-2.985-1.615-4.816" style="fill:none;stroke:#55a;stroke-width:2;stroke-linecap:round;stroke-linejoin:round;stroke-miterlimit:4;stroke-opacity:1;stroke-dasharray:none"/><path d="M153.425 598.844c-1.813 16.315-5.679 32.556-12.233 47.573-3.684 8.442-9.65 18.965-18.835 21.31-3.921 1-9.512-.56-11.416-4.13-2.142-4.018-.576-10.864 3.299-13.254 3.656-2.256 9.575-.246 12.574 2.83 1.07 1.099.765 2.988.895 4.513" style="fill:none;stroke:#55a;stroke-width:2;stroke-linecap:round;stroke-linejoin:round;stroke-miterlimit:4;stroke-opacity:1;stroke-dasharray:none;stroke-dashoffset:0"/><path d="M159.309 596.447c-1.407 10.12-2.653 20.645-5.648 30.563-3.478 11.521-7.194 23.405-14.183 33.204-3.218 4.51-6.926 9.92-12.328 11.15-2.691.614-6.283.396-7.94-2.346" style="fill:none;stroke:#55a;stroke-width:2;stroke-linecap:round;stroke-linejoin:round;stroke-miterlimit:4;stroke-opacity:1;stroke-dasharray:none;stroke-dashoffset:0"/><path d="M164.975 596.222c-1.227 10.564-2.846 21.031-5.687 31.22-2.401 8.614-5.41 17.14-9.54 25.072-3.544 6.807-7.078 13.254-12.933 19.05-1.488 1.472-5.045 1.284-7.58-.27" style="fill:none;stroke:#55a;stroke-width:1.99999988;stroke-linecap:round;stroke-linejoin:round;stroke-miterlimit:4;stroke-opacity:1;stroke-dasharray:none;stroke-dashoffset:0"/><path d="M170.309 595.109c-.962 10.59-2.318 21.096-4.902 31.353-2.184 8.67-4.992 17.264-8.907 25.303-3.2 6.575-6.09 12.556-11.797 18.496-1.45 1.51-4.14 2.719-6.713 1.229" style="fill:none;stroke:#55a;stroke-width:1.99999988;stroke-linecap:round;stroke-linejoin:round;stroke-miterlimit:4;stroke-opacity:1;stroke-dasharray:none;stroke-dashoffset:0"/><path d="M176.235 594.002c-1.039 10.567-2.306 19.364-4.496 28.845-1.972 8.536-4.425 17.156-7.753 25.112-2.722 6.507-5.179 12.427-9.883 18.249-1.195 1.478-3.371 2.632-5.385 1.09" style="fill:none;stroke:#55a;stroke-width:1.99999976;stroke-linecap:round;stroke-linejoin:round;stroke-miterlimit:4;stroke-opacity:1;stroke-dasharray:none;stroke-dashoffset:0"/><path d="M181.34 593.403c-.624 10.012-1.52 18.36-3.261 27.384-1.567 8.124-3.583 16.344-6.441 23.967-2.338 6.234-4.446 11.905-8.667 17.559-1.072 1.436-3.075 2.598-5.016 1.209" style="fill:none;stroke:#55a;stroke-width:2;stroke-linecap:round;stroke-linejoin:round;stroke-miterlimit:4;stroke-opacity:1;stroke-dasharray:none;stroke-dashoffset:0"/><path d="M186.91 593.33c-.577 9.641-1.407 17.68-3.018 26.37-1.45 7.825-3.315 15.74-5.96 23.082-2.164 6.004-4.115 11.465-8.021 16.91-.992 1.382-2.846 2.501-4.642 1.164m3.981.327c.74.683 1.755 1.403 2.76 1.272 1.636-.213 2.802-1.853 3.813-3.157 1.505-1.94 2.161-4.412 3.137-6.664 1.006-2.32 1.863-4.703 2.8-7.052" style="fill:none;stroke:#55a;stroke-width:2;stroke-linecap:round;stroke-linejoin:round;stroke-miterlimit:4;stroke-opacity:1;stroke-dasharray:none;stroke-dashoffset:0"/><path d="M184.258 650.574c-1.678 3.785-3.116 7.704-5.223 11.268-1.005 1.7-1.76 3.857-3.509 4.774-2.407 1.26-5.896 1.75-8.148.23-1.673-1.129-2.047-3.64-2.105-5.675m21.487-7.072-7.506 15.453" style="fill:none;stroke:#55a;stroke-width:2;stroke-linecap:round;stroke-linejoin:round;stroke-miterlimit:4;stroke-opacity:1;stroke-dasharray:none;stroke-dashoffset:0"/><path d="m205.603 156.316-5.593 10.891" style="fill:none;stroke:#55a;stroke-width:2;stroke-linecap:round;stroke-linejoin:round;stroke-miterlimit:4;stroke-opacity:1;stroke-dasharray:none;stroke-dashoffset:0" transform="translate(0 512.362)"/><path d="m221.792 688.547 6.475-12.951m1.325-.294c1.261 3.656 1.118 8.152 3.757 10.981 2.339 2.508 6.092 4.544 9.478 4 3.452-.554 6.85-3.565 7.899-6.9 1.851-5.89-2.303-12.704-4.47-17.975m-53.31-5.56c-1.896 3.218-6.078 7.44-4.855 11.378.551 1.775 2.88 3.321 4.708 2.986 2.182-.4 2.91-3.388 3.989-5.326.779-1.4 1.17-2.983 1.75-4.475" style="fill:none;stroke:#55a;stroke-width:2;stroke-linecap:round;stroke-linejoin:round;stroke-miterlimit:4;stroke-opacity:1;stroke-dasharray:none;stroke-dashoffset:0"/><path d="M189.706 657.332c-2.732 4.74-5.516 9.369-6.307 14.264-.44 2.725 1.89 5.853 4.393 7.02 2.75 1.283 6.968.981 9.015-1.258 2.165-2.369 3.239-5.125 4.563-7.83.458-.935 1.142-2.91 1.142-2.91m6.77 4.122c-2.061 3.74-4.967 8.013-4.106 12.226.592 2.897 3.06 5.796 5.898 6.628 2.136.626 5.075-.037 6.429-1.803 2.917-3.808 4.452-8.11 5.76-11.754" style="fill:none;stroke:#55a;stroke-width:2;stroke-linecap:round;stroke-linejoin:round;stroke-miterlimit:4;stroke-opacity:1;stroke-dasharray:none;stroke-dashoffset:0"/><path d="M212.225 672.947c-1.13 2.543-3.925 7.284-2.224 10.39.69 1.259 2.69 2.017 4.03 1.508 3.209-1.219 3.999-6.838 4.817-9.102m33.703-78.738c-.306 16.744.515 33.643-1.725 50.218-.984 7.279-2.85 15.13-7.702 20.645-3.44 3.912-8.548 6.547-13.826 7.286m23.928-51.999c3.043 5.317 5.73 11.082 6.503 17.145.72 5.647-.42 10.95-1.856 16.977" style="fill:none;stroke:#55a;stroke-width:2;stroke-linecap:round;stroke-linejoin:round;stroke-miterlimit:4;stroke-opacity:1;stroke-dasharray:none;stroke-dashoffset:0"/><path d="M252.5 631.867c3.33 3.877 3.07 7.558 3.337 11.56.173 2.607-.797 5.663-1.159 7.752m-2.758-4.501c2.724 5.805 7.004 11.292 7.597 17.679.338 3.64-.037 7.914-2.4 10.702-1.378 1.625-3.8 2.027-5.924 2.4" style="fill:none;stroke:#55a;stroke-width:2;stroke-linecap:round;stroke-linejoin:round;stroke-miterlimit:4;stroke-opacity:1;stroke-dasharray:none;stroke-dashoffset:0"/><path d="M250.903 653.212c2.598 4.952 6.319 10.94 4.408 16.201-.792 2.182-2.92 4.271-5.715 3.981" style="fill:none;stroke:#55a;stroke-width:2;stroke-linecap:round;stroke-linejoin:round;stroke-miterlimit:4;stroke-opacity:1;stroke-dasharray:none;stroke-dashoffset:0"/><path d="M248.725 658.293c2.551 3.837 4.277 7.078 2.728 10.26-.502 1.032-2.355 1.197-3.164 1.356m-4.646-.726c1.649 4.322 5.072 9.76 2.6 13.695-1.463 2.33-5.47 3.275-7.972 2.132-3.426-1.566-3.982-6.515-4.937-10.164" style="fill:none;stroke:#55a;stroke-width:2;stroke-linecap:round;stroke-linejoin:round;stroke-miterlimit:4;stroke-opacity:1;stroke-dasharray:none;stroke-dashoffset:0"/><path d="M236.964 673.394c.687 3.66 1.562 8.718 4.556 8.019 2.119-.495.755-4.375.375-6.518-.233-1.316-1.245-2.892-1.591-3.679" style="fill:none;stroke:#55a;stroke-width:2;stroke-linecap:round;stroke-linejoin:round;stroke-miterlimit:4;stroke-opacity:1;stroke-dasharray:none;stroke-dashoffset:0"/><g style="stroke:#000;stroke-opacity:1"><path d="M286.025 676.842c-8.826 8.526-17.312 17.83-24.386 27.98-6.604 9.477-11.676 19.958-16.626 30.403l24.748 12.374c3.94-9.095 8.376-18.043 13.876-26.282 3.879-5.81 8.426-11.363 13.363-16.144.118-6.718-.118-14.125 0-20.843-3.536-2.593-7.44-4.895-10.975-7.488" style="fill:#ff5;fill-opacity:1;stroke:#000;stroke-width:2;stroke-linecap:round;stroke-linejoin:round;stroke-miterlimit:4;stroke-opacity:1;stroke-dasharray:none;stroke-dashoffset:0"/><path d="M289.731 681.143c-7.623 7.176-9.929 8.735-14.2 13.753-5.74 6.742-10.694 14.164-15.198 21.788-3.84 6.498-8.559 17.601-10.017 20.309m46.172-40.031c-5.368 5.186-10.959 11.335-15.688 17.617a105.5 105.5 0 0 0-9.258 14.665c-2.536 4.865-4.623 9.976-6.377 15.173" style="fill:none;stroke:#000;stroke-width:2;stroke-linecap:round;stroke-linejoin:round;stroke-miterlimit:4;stroke-opacity:1;stroke-dasharray:none;stroke-dashoffset:0"/><path d="m287.45 171.478 1.193 10.778 7.635-.052m-18.031-1.414.707 12.02 9.704-1.008m-19.25-.918 1.06 13.947 9.546-1.767m-18.384.115 1.767 12.613 9.534-1.979m-18.059 1.073 3.222 12.573 9.927-4.23" style="fill:none;stroke:#000;stroke-width:2;stroke-linecap:round;stroke-linejoin:round;stroke-miterlimit:4;stroke-opacity:1;stroke-dasharray:none;stroke-dashoffset:0" transform="translate(0 512.362)"/></g><path d="m259.706 660.561 19.57 11.824 17.01 11.415" style="fill:none;stroke:#55a;stroke-width:2;stroke-linecap:round;stroke-linejoin:round;stroke-miterlimit:4;stroke-opacity:1;stroke-dasharray:none;stroke-dashoffset:0"/><path d="M330 746.649c-7.157.362-15.41-1.848-23.155-2.1-5.198-.17-10.553-.872-15.599.392-3.239.81-7.257 1.62-8.95 4.497-1.55 2.635-1.797 7.02.384 9.162 2.638 2.59 8.322 2.714 11.087.26 1.543-1.368.714-4.106.593-6.158 4.891-.46 9.825-.918 14.738-.706 3.899.169 7.703 1.401 11.601 1.568 3.101.133 6.398-.226 9.301-.454z" style="fill:#ff5;fill-opacity:1;stroke:#55a;stroke-width:2;stroke-linecap:round;stroke-linejoin:round;stroke-miterlimit:4;stroke-opacity:1;stroke-dasharray:none;stroke-dashoffset:0"/><g style="fill:#fff;fill-opacity:1"><path d="M293.417 251.625c.434-1.89 1.334-3.68 2.388-5.307.773-1.193 1.575-2.522 2.831-3.185 1.446-.763 3.238-.459 4.865-.62 2.53-.248 5.145-1.158 7.608-.53.848.216 1.366 1.19 2.211 1.415 1.769.472 3.707-.7 5.485-.265.796.195 1.663.56 2.123 1.238.334.494.265 1.77.265 1.77s2.641-.706 3.715-.089c.847.487 1.269 1.6 1.416 2.565.2 1.31-.278 2.674-.796 3.893a8.9 8.9 0 0 1-1.947 2.83c-.378.373-1.326.885-1.326.885s2.705-1.356 3.98-.885c.83.307 1.42 1.256 1.592 2.123.184.926-.38 1.857-.707 2.742-.465 1.263-.818 2.676-1.77 3.627-.997.998-3.803 1.858-3.803 1.858s2.717-.916 3.892-.354c.767.367 1.252 1.288 1.415 2.123.225 1.152-.15 2.416-.707 3.45-.415.771-1.098 1.422-1.858 1.858-.608.348-2.034.53-2.034.53s2.66.814 2.83 1.946c.19 1.266-1.255 2.413-2.388 3.008-2.329 1.223-5.315-.081-7.873.53-1.465.351-2.694 1.413-4.157 1.77-2.241.547-4.653 1.05-6.9.53-1.7-.393-3.26-1.437-4.512-2.653-1.472-1.431-2.376-3.372-3.273-5.22-.916-1.887-1.69-3.873-2.123-5.926-.592-2.806-.547-5.714-.619-8.58-.033-1.327.055-2.654.089-3.981.026-1.032-.143-2.09.088-3.096" style="fill:#fff;fill-opacity:1;stroke:#55a;stroke-width:2;stroke-linecap:round;stroke-linejoin:round;stroke-miterlimit:4;stroke-opacity:1;stroke-dasharray:none;stroke-dashoffset:0" transform="translate(0 512.362)"/><path d="M320.662 759.21c-1.54 2.24-3.975 4.117-6.814 4.06-1.92.375-3.856-.728-5.67-.243-1.253.81-2.4 1.64-3.749 2.144-1.224.457-2.505.82-3.847.762" style="fill:#fff;fill-opacity:1;stroke:#55a;stroke-width:2;stroke-linecap:round;stroke-linejoin:round;stroke-miterlimit:4;stroke-opacity:1;stroke-dasharray:none;stroke-dashoffset:0"/><path d="M322.078 768.852c-3.159 1.831-7.732 3.608-11.405 3.968-1.604.022-3.804.114-4.586-1.616-.685-1.367-.138-3.151 1.272-3.81 2.373-1.378 6.824-3.731 9.411-4.645" style="fill:#fff;fill-opacity:1;stroke:#55a;stroke-width:2;stroke-linecap:round;stroke-linejoin:round;stroke-miterlimit:4;stroke-opacity:1;stroke-dasharray:none;stroke-dashoffset:0"/><path d="M309.428 766.376c1.583.017 4.293 1.356 4.515 3.171.222.628.24 1.301.262 1.96m7.519 6.368c-4.034.764-9.33 2.15-13.443 1.511-1.413-.48-3.342-.948-3.807-2.572-.112-1.572 1.314-2.875 2.641-3.453.522-.151 3.364-.31 3.905-.351" style="fill:#fff;fill-opacity:1;stroke:#55a;stroke-width:2;stroke-linecap:round;stroke-linejoin:round;stroke-miterlimit:4;stroke-opacity:1;stroke-dasharray:none;stroke-dashoffset:0"/><path d="M311.816 773.63c1.588.773 2.08 2.55 1.578 4.166q-.07.395-.162.787m-1.239-22.645c.41 1.334 1.048 3.117 2.725 3.116 1.984.11 3.864-.614 5.59-1.524m-11.145 22.114c-1.349.519-4.096 1.517-2.98 3.374 1.723 2.19 4.725 2.415 7.287 2.713 2.47.067 4.932-.494 7.402-.13q.825.067 1.648.147m-9.288 0c-1.95.686-3.85 2.671-2.508 3.923.695.879 2.527 1.47 3.57 1.65" style="fill:#fff;fill-opacity:1;stroke:#55a;stroke-width:2;stroke-linecap:round;stroke-linejoin:round;stroke-miterlimit:4;stroke-opacity:1;stroke-dasharray:none;stroke-dashoffset:0"/><path d="M312.79 779.91c1.086.84 1.565 1.808 1.61 2.918.034.873-.87 1.989-1.08 2.39m2.3.972c1.138.739 2.475 2.033 1.62 3.488a9 9 0 0 1-.558 1.2" style="fill:#fff;fill-opacity:1;stroke:#55a;stroke-width:2;stroke-linecap:round;stroke-linejoin:round;stroke-miterlimit:4;stroke-opacity:1;stroke-dasharray:none;stroke-dashoffset:0"/></g><path d="M297 231V79l14.5-13L324 79v154.5" style="fill:none;stroke:#55a;stroke-width:2;stroke-linecap:round;stroke-linejoin:round;stroke-miterlimit:4;stroke-opacity:1;stroke-dasharray:none;stroke-dashoffset:0" transform="translate(0 512.362)"/><path d="M310.5 91s2.015 12.676 1.7 19.04c-.326 6.595-2.85 12.912-3.7 19.46-.746 5.753-1.717 11.58-1.22 17.36.563 6.547 3.73 12.644 4.72 19.14.83 5.447 1.324 11 1 16.5-.383 6.498-2.786 12.745-3.46 19.22-.632 6.063-1.28 12.23-.54 18.28.525 4.295 3.5 12.5 3.5 12.5" style="fill:none;stroke:#55a;stroke-width:2;stroke-linecap:round;stroke-linejoin:round;stroke-miterlimit:4;stroke-opacity:1;stroke-dasharray:none;stroke-dashoffset:0" transform="translate(0 512.362)"/><path d="M318.375 290.126a7.16 7.336 0 1 1-14.32 0 7.16 7.336 0 1 1 14.32 0" style="fill:#ff5;fill-opacity:1;stroke:#55a;stroke-width:2;stroke-linecap:round;stroke-linejoin:round;stroke-miterlimit:4;stroke-opacity:1;stroke-dasharray:none;stroke-dashoffset:0" transform="translate(0 512.362)"/><path d="M305.03 799.243c-.336 3.826 1.16 4.9 3.025 6.29 1.018.76 2.496.705 3.761.602.997-.081 2.031-.37 2.847-.948.616-.437 1.262-1.252 1.388-1.792m-94.233-114.691s-3.038 3.704-5.112 4.767c-.84.432-2.78.556-2.78.556s-3.92 8.816-5.562 13.347c-2.204 6.083-4.055 12.294-5.746 18.538-1.642 6.062-3.23 12.158-4.264 18.353-.797 4.779-1.483 14.46-1.483 14.46l17.61-.186s1.147-6.815 1.855-10.196c.768-3.668 1.554-7.338 2.595-10.937a144 144 0 0 1 4.449-12.977c1.771-4.474 3.783-8.856 5.932-13.162a183 183 0 0 1 7.23-13.161c1.502-2.477 4.82-7.23 4.82-7.23l-5.19-1.854s-5.597 8.364-7.972 12.791c-2.89 5.385-5.323 11.013-7.6 16.684-2.513 6.257-4.779 12.624-6.674 19.094-1.5 5.12-3.708 15.572-3.708 15.572l-7.6-.186s2.148-14.03 3.707-20.947c1.282-5.69 2.87-11.311 4.635-16.87a174 174 0 0 1 4.82-13.347c1.825-4.451 6.038-13.11 6.038-13.11m-105.852-20.477c7.745 12.383 15.099 25.131 20.548 38.674 4.063 10.098 6.601 20.777 8.92 31.411 1.428 6.556 2.106 13.253 3.058 19.895l22.628.177c-.856-11.363-1.176-20.102-2.974-29.983-2.337-12.843-5.529-25.61-10.109-37.833-2.864-7.644-6.68-14.44-10.782-21.987-.683 2.75-3.942 2.676-4.463 4.31 5.953 11.376 11.378 23.148 14.83 35.499 4.052 14.497 6.84 35.04 6.718 44.654-2.808-.047-8.267-.27-11.075-.317-2.321-14.8-4.57-28.02-8.994-41.447-2.686-8.153-6.7-15.82-10.569-23.482-2.673-5.293-6.476-11.32-8.72-15.505-3.107-1.16-5.19-1.749-6.165-3.986-.479-.026-2.372-.053-2.851-.08" style="fill:#ff5;fill-opacity:1;stroke:#55a;stroke-width:2;stroke-linecap:round;stroke-linejoin:round;stroke-miterlimit:4;stroke-opacity:1;stroke-dasharray:none;stroke-dashoffset:0"/><g style="stroke:#55a;stroke-opacity:1"><path d="M180.025 701.313s-1.826-5.53-.184-7.348c2.14-2.37 7.116-2.798 9.553-.735 2.11 1.788.735 8.267.735 8.267s5.358-1.306 6.98.367c1.961 2.023 2.043 6.334.184 8.45-1.504 1.713-6.797.735-6.797.735s.34 5.263-1.47 6.613c-2.115 1.58-5.876 1.145-7.899-.55-1.74-1.46-1.653-6.614-1.653-6.614s-5.895 1.54-7.532-.367c-1.924-2.243-1.276-6.84.919-8.818 1.774-1.599 7.164 0 7.164 0" style="fill:#ff5;fill-opacity:1;stroke:#000;stroke-width:1;stroke-linecap:round;stroke-linejoin:round;stroke-miterlimit:4;stroke-opacity:1;stroke-dasharray:none;stroke-dashoffset:0"/><path d="M190.68 195.472a4.133 4.133 0 1 1-8.267 0 4.133 4.133 0 1 1 8.267 0" style="fill:#f55;fill-opacity:1;stroke:#000;stroke-width:2;stroke-linecap:round;stroke-linejoin:round;stroke-miterlimit:4;stroke-opacity:1;stroke-dasharray:none;stroke-dashoffset:0" transform="translate(-1.286 510.893)"/><path d="M159.443 685.038c-.252-2.02-.915-4.517.347-6.127 1.665-2.127 5.095-2.915 7.743-2.384 2.58.517 4.515 2.924 6.065 5.05 1.237 1.699 1.748 3.836 2.356 5.847.868-1.046 2.123-1.955 3.47-2.15 1.324-.194 2.632.556 3.875 1.052-2.105 1.841-4.265 3.903-5.259 6.51-.962 2.524-.705 5.414-.395 8.095-1.936-4.272-3.823-8.626-6.517-12.463-1.372-1.955-2.565-4.564-4.843-5.282-1.53-.482-3.159.584-4.695 1.042-.733.218-1.437.524-2.147.81m31.951 13.826s2.34-4.393 4.42-5.48c1.465-.766 3.435-1.02 4.949-.353 1.65.727 3.359 4.242 3.359 4.242s-2.027 2.834-3.536 2.829c-1.215-.005-1.654-1.988-2.828-2.298-2.08-.55-6.364 1.06-6.364 1.06m.176 12.264c1.599 1.467 3.423 2.797 4.255 4.754.773 1.819 1.195 4.087.438 5.913-.71 1.715-2.377 3.387-4.215 3.636-1.168.158-2.215-.857-3.195-1.512-.4-.268-1.08-.677-1.068-.97 1.216-.274 2.606-.786 3.401-1.79 1.05-1.325 1.207-3.22 1.276-4.909.07-1.732-.459-3.384-.892-5.122m-12.97 1.06c0 .302-3.91 3.286-4.688 5.59-.67 1.985-.844 4.522.297 6.279.946 1.456 2.96 1.954 4.654 2.34 1.293.296 2.658.05 3.98-.066-.156-1.319-.46-2.69-1.133-3.844-.677-1.158-2.274-1.653-2.804-2.885-.977-2.272-.694-4.978-.306-7.414" style="fill:#ff5;fill-opacity:1;stroke:#000;stroke-width:1;stroke-linecap:round;stroke-linejoin:round;stroke-miterlimit:4;stroke-opacity:1;stroke-dasharray:none;stroke-dashoffset:0"/></g><path d="M181.722 737.357c-2.196.325-4.493 1.517-5.764 3.337-1.568 2.245-1.547 5.356-1.416 8.09.115 2.41 2.238 4.586 1.921 6.978-.261 1.977-3.033 5.157-3.033 5.157l2.528 2.225s2.715-1.988 3.438-3.438c1.079-2.163 1.046-4.763 1.011-7.18-.023-1.607-1.138-3.18-.809-4.753.315-1.5 1.016-3.592 2.528-3.843 1.138-.188 2.127 1.142 2.73 2.124.829 1.346.873 3.072.911 4.652.06 2.554-1.737 5.106-1.112 7.584.4 1.589 1.614 2.972 2.932 3.944.49.36 1.72.607 1.72.607l1.82-3.034s-1.88-.927-2.225-1.82c-.91-2.353 1.015-4.964 1.112-7.484.093-2.397.176-4.879-.505-7.18-.514-1.736-1.186-3.66-2.63-4.752-1.407-1.067-3.41-1.472-5.157-1.214" style="fill:#ff5;fill-opacity:1;stroke:none"/><path d="M84.676 676.005c12.29 16.271 22.653 34.4 28.87 53.77 5.443 16.963 6.23 35.2 6.839 53.003.277 8.089-.337 16.222-1.454 24.238-.407 2.922-1.222 5.772-1.905 8.642" style="fill:none;stroke:#55a;stroke-width:2;stroke-linecap:round;stroke-linejoin:round;stroke-miterlimit:4;stroke-opacity:1;stroke-dasharray:none;stroke-dashoffset:0"/><path d="M37.75 702.562c14.388 10.79 27.765 23.362 38.08 38.042 7.356 10.468 12.663 22.48 16.319 34.74 2.96 9.926 4.75 21.713 4.351 30.768l-26.25-12.25c-1.029-8.764-3.02-17.545-6.768-25.502-5.064-10.751-12.26-20.674-20.744-28.998A44.9 44.9 0 0 0 30 730.612v-22z" style="fill:#ff5;fill-opacity:1;stroke:#000;stroke-width:2;stroke-linecap:round;stroke-linejoin:round;stroke-miterlimit:4;stroke-opacity:1;stroke-dasharray:none"/><path d="M34.75 706.362c9.136 5.704 17.308 12.331 24.497 20.057 8.75 9.404 16.373 20.05 22.2 31.495 4.82 9.466 8.266 19.737 10.261 30.17.99 5.172 1.076 10.5.792 15.778m-61.75-78a88.5 88.5 0 0 1 16.587 12.995c6.242 6.223 11.86 13.193 16.37 20.766 3.632 6.097 6.412 12.748 8.423 19.554 1.623 5.491 3.279 12.79 2.87 16.935" style="fill:none;stroke:#000;stroke-width:2;stroke-linecap:round;stroke-linejoin:round;stroke-miterlimit:4;stroke-opacity:1;stroke-dasharray:none;stroke-dashoffset:0"/><path d="m80.25 285.75-.25-4.5 4 .25v3.5l4.25 1-1-9.25-7.5.75-2.25-8.5 3.25-1 1.5 4.5 4-1-2.5-8.25-7.5 2.5-4-8.5 4.25-1.5 1.75 3.75 4-1.25-3.5-8.75-7.5 3.75-4.25-8 3.75-2.75 2 4.25 4.25-2-4.75-7.75-7 4.25-5-6.75 3.75-2.75 1.75 2.75 3.25-2-4.75-7-7.25 5.75-5.5-6.5 3.5-3.5 3.25 3.75 2.5-2.5-6.25-7.25-6.5 6-6.25-6 3-3.75 4 4L51 212l-6.75-6-6.5 6.5-6.822-5.25 3.572-3.5 3.25 2.5 3-2.75-7-4.75-3.25 3.5" style="fill:none;stroke:#000;stroke-width:2;stroke-linecap:round;stroke-linejoin:round;stroke-miterlimit:4;stroke-opacity:1;stroke-dasharray:none;stroke-dashoffset:0" transform="translate(0 512.362)"/><path d="M88.815 673.883c12.437 16.669 22.777 35.252 29.154 54.997 5.168 16 6.354 33.162 6.907 49.967.325 9.877-.67 19.796-2.122 29.572-.47 3.165-1.363 6.253-2.124 9.36" style="fill:none;stroke:#55a;stroke-width:2;stroke-linecap:round;stroke-linejoin:round;stroke-miterlimit:4;stroke-opacity:1;stroke-dasharray:none;stroke-dashoffset:0"/><path d="M85.383 166.117s-4.047 8.85-5.657 13.435c-1.643 4.682-3.267 9.422-4.066 14.32-.816 5.006-1.008 10.138-.707 15.202.234 3.936 1.014 7.836 1.945 11.667.862 3.55 1.853 7.103 3.359 10.43 2.037 4.502 4.773 8.675 7.601 12.728 2.95 4.226 6.049 8.407 9.723 12.02 2.933 2.886 6.29 5.336 9.722 7.602 3.874 2.557 12.198 6.718 12.198 6.718" style="fill:none;stroke:#55a;stroke-width:2;stroke-linecap:round;stroke-linejoin:round;stroke-miterlimit:4;stroke-opacity:1;stroke-dasharray:none;stroke-dashoffset:0" transform="translate(0 512.362)"/><path d="M102.177 703.935c-.855 8.231-1.42 16.797.62 24.816 1.373 5.393 4.313 10.376 7.611 14.858 2.173 2.954 5.048 5.345 7.856 7.702 0 0-3.08-16.338-5.736-24.187-2.714-8.018-10.351-23.189-10.351-23.189" style="fill:#55a;fill-opacity:1;stroke:#55a;stroke-width:2;stroke-linecap:round;stroke-linejoin:round;stroke-miterlimit:4;stroke-opacity:1;stroke-dasharray:none;stroke-dashoffset:0"/><path d="M89.095 170.713s-3.411.027-4.596 1.061c-1.377 1.202-2.01 3.3-1.944 5.127.065 1.818 1.127 3.557 2.298 4.95 1.662 1.976 4.07 3.231 6.364 4.419 1.837.951 5.833 2.121 5.833 2.121m-2.12 14.849s-4.838-.157-7.249-.353c-2.069-.169-4.298.154-6.187-.707-1.745-.796-3.374-2.179-4.243-3.89-.724-1.427-.864-3.207-.53-4.772.486-2.273 1.654-4.647 3.536-6.01 1.562-1.134 3.726-1.227 5.656-1.238 3.79-.023 11.137 2.298 11.137 2.298" style="fill:none;stroke:#55a;stroke-width:2;stroke-linecap:round;stroke-linejoin:round;stroke-miterlimit:4;stroke-opacity:1;stroke-dasharray:none;stroke-dashoffset:0" transform="translate(0 512.362)"/><path d="M95.99 703.67s-5.788-1.858-8.662-1.328c-1.377.255-2.963.823-3.713 2.088-.696 1.175-.661 2.882-.176 4.175.607 1.618 2.025 2.958 3.535 3.605 2.572 1.103 8.309 0 8.309 0z" style="fill:#55a;fill-opacity:1;stroke:none"/><path d="M97.183 729.65s-4.64 1.345-6.991 1.906c-2.017.48-4.032 1.468-6.096 1.25-1.907-.203-3.888-.987-5.25-2.311-1.137-1.105-1.83-2.718-2.005-4.278-.254-2.265.108-4.833 1.466-6.682 1.127-1.536 3.152-2.29 4.98-2.896 3.591-1.19 11.295-1.295 11.295-1.295" style="fill:none;stroke:#55a;stroke-width:2;stroke-linecap:round;stroke-linejoin:round;stroke-miterlimit:4;stroke-opacity:1;stroke-dasharray:none;stroke-dashoffset:0"/><path d="M95.339 718.973s-6.518-.073-9.32 1.342c-1.233.624-2.57 1.626-2.911 2.954-.318 1.234.216 2.703 1.055 3.673 1.05 1.216 2.79 1.94 4.412 2.035 2.765.163 7.887-2.561 7.887-2.561z" style="fill:#55a;fill-opacity:1;stroke:none"/><path d="M102.982 743.336s-4.19 2.406-6.342 3.507c-1.845.945-3.57 2.381-5.626 2.657-1.901.255-4.011-.038-5.648-1.002-1.366-.804-2.422-2.207-2.96-3.681-.783-2.14-1.04-4.721-.159-6.84.732-1.759 2.52-2.97 4.154-3.992 3.207-2.006 10.667-3.932 10.667-3.932" style="fill:none;stroke:#55a;stroke-width:2;stroke-linecap:round;stroke-linejoin:round;stroke-miterlimit:4;stroke-opacity:1;stroke-dasharray:none;stroke-dashoffset:0"/><path d="M97.756 733.218s-5.563 1.5-7.653 3.338c-1.039.913-2.113 2.189-2.13 3.56-.017 1.273.85 2.574 1.894 3.318 1.31.933 3.17 1.224 4.77.933 2.724-.497 7.056-4.356 7.056-4.356z" style="fill:#55a;fill-opacity:1;stroke:none"/><path d="M112.145 754.281s-3.325 3.506-5.07 5.177c-1.498 1.434-2.738 3.305-4.63 4.158-1.748.789-3.853 1.113-5.698.659-1.539-.379-2.952-1.42-3.891-2.679-1.363-1.826-2.348-4.225-2.111-6.507.196-1.895 1.563-3.568 2.835-5.015 2.498-2.84 9.092-6.824 9.092-6.824" style="fill:none;stroke:#55a;stroke-width:2;stroke-linecap:round;stroke-linejoin:round;stroke-miterlimit:4;stroke-opacity:1;stroke-dasharray:none;stroke-dashoffset:0"/><path d="M104.46 746.204s-5.124 3.2-6.665 5.662c-.738 1.179-1.397 2.702-1.02 4.02.349 1.225 1.552 2.223 2.766 2.637 1.52.518 3.388.264 4.836-.473 2.468-1.257 5.512-6.195 5.512-6.195z" style="fill:#55a;fill-opacity:1;stroke:none"/><path d="M98.216 697.069c-2.095-.581-4.427-.96-6.079-2.376-1.782-1.528-3.469-3.744-3.537-6.09-.023-.754.458-1.515 1.019-2.019.49-.44 1.298-.77 1.852-.698 2.254 3.724 4.511 7.446 6.745 11.183" style="fill:#55a;fill-opacity:1;stroke:#55a;stroke-width:2;stroke-linecap:round;stroke-linejoin:round;stroke-miterlimit:4;stroke-opacity:1;stroke-dasharray:none;stroke-dashoffset:0"/><path d="M111.633 754.495c-2.644 2.357-5.87 5.822-7.139 9.604-.785 2.34-.94 5.1-.058 7.407.731 1.912 2.269 3.618 4.134 4.54 1.88.929 4.332 1.3 6.32.605 2.16-.756 3.47-2.962 4.793-4.738" style="fill:none;stroke:#55a;stroke-width:2;stroke-linecap:round;stroke-linejoin:round;stroke-miterlimit:4;stroke-opacity:1;stroke-dasharray:none;stroke-dashoffset:0"/><path d="M115.134 755.99s-4.63 5.02-5.544 8.186c-.384 1.328-.638 3 .136 4.145.984 1.455 3.076 2.31 4.822 2.122 1.922-.206 3.698-2.13 4.693-3.408.342-3.76-.362-8.199-.362-8.199z" style="fill:#55a;fill-opacity:1;stroke:none"/><path d="M223.073 97.554s-.118-2.697.265-3.965c.205-.68 1.057-1.85 1.057-1.85s-4.343 1.576-6.608 1.586c-2.35.01-4.55-1.219-6.872-1.586-2.795-.442-5.637-.961-8.458-.737-3.169.253-6.389.938-9.25 2.323-1.3.63-3.436 2.643-3.436 2.643s5.855-2.742 8.986-3.436a25.3 25.3 0 0 1 7.4-.529c2.344.183 4.53 1.393 6.873 1.586 2.815.232 5.694.056 8.457-.528.751-.159 2.16-.799 2.16-.799s-.679 1.696-.776 2.593.202 1.642.202 2.699m-2.833 3.07s-1.593.549-2.375.375c-1.887-.419-3.003-2.55-4.807-3.244-1.484-.572-3.134-.623-4.724-.675-1.781-.06-3.609-.052-5.332.405-2.334.619-4.481 1.851-6.546 3.104-1.785 1.083-3.22 2.678-4.994 3.78-.684.424-2.16 1.08-2.16 1.08s3.848.364 5.737.067c3.07-.484 5.795-2.348 8.84-2.97 1.681-.343 3.415-.402 5.13-.405 1.634-.002 3.264.193 4.889.373.609.067 1.213.357 1.819.265 1.651-.25 4.522-2.155 4.522-2.155" style="fill:none;stroke:#55a;stroke-width:2;stroke-linecap:round;stroke-linejoin:round;stroke-miterlimit:4;stroke-opacity:1;stroke-dasharray:none;stroke-dashoffset:0" transform="translate(0 512.362)"/><path d="M196.389 105.92s3.185 3.043 5.196 3.78c1.44.527 3.056.363 4.59.337 2.307-.039 4.704.02 6.883-.742 1.308-.457 2.398-1.402 3.512-2.227.792-.587 2.244-1.927 2.244-1.927s-2.771-1.228-4.204-1.717c-1.436-.49-2.877-1.065-4.387-1.215a19.4 19.4 0 0 0-6.613.472c-2.559.644-7.221 3.24-7.221 3.24" style="fill:none;stroke:#55a;stroke-width:2;stroke-linecap:round;stroke-linejoin:round;stroke-miterlimit:4;stroke-opacity:1;stroke-dasharray:none;stroke-dashoffset:0" transform="translate(0 512.362)"/><path d="M213.463 106.494a5.399 3.948 0 1 1-10.798 0 5.399 3.948 0 1 1 10.798 0" style="fill:none;stroke:#55a;stroke-width:2.08166599;stroke-linecap:round;stroke-linejoin:round;stroke-miterlimit:4;stroke-opacity:1;stroke-dasharray:none;stroke-dashoffset:0" transform="matrix(1 0 0 .92308 0 520.115)"/><path d="M210.358 105.212a1.957 1.518 0 1 1-3.914 0 1.957 1.518 0 1 1 3.914 0m44.392-6.087s-1.715-1.279-2.75-3.25c-.941-1.793-2.953-2.989-4.875-3.625-1.582-.524-3.338-.128-5 0-1.892.146-3.73.961-5.625.875-1.03-.047-2.003-.49-3-.75-.46-.12-1.375-.375-1.375-.375l1 5.584-.375-4.959s2.452 1.023 3.75 1.25c1.683.294 3.416.156 5.125.125 2.045-.038 4.172-.984 6.125-.375 2.833.884 7 5.5 7 5.5" style="fill:#55a;fill-opacity:1;stroke:#55a;stroke-width:2;stroke-linecap:round;stroke-linejoin:round;stroke-miterlimit:4;stroke-opacity:1;stroke-dasharray:none;stroke-dashoffset:0" transform="translate(0 512.362)"/><path d="M232.209 611.155c.013 2.147.039 4.879.436 7.276.432 2.61 1.543 5.07 2.106 7.655.486 2.23.656 4.52 1.095 6.76.198 1.01.665 1.98.694 3.008.03 1.06.063 2.262-.54 3.133-1.2 1.733-3.809 1.88-5.455 3.197-.732.585-1.314 1.335-1.92 2.053m-9.25-10.125c-1.262-.463-2.455.8-3.106 1.806-.481.743-.512 1.787-.279 2.641.336 1.23 1.15 2.483 2.28 3.072 1.293.673 2.993.6 4.37.124 1.037-.358 1.568-1.575 2.528-2.105 1.214-.67 2.616-.94 3.957-1.288" style="fill:none;stroke:#55a;stroke-width:2;stroke-linecap:round;stroke-linejoin:round;stroke-miterlimit:4;stroke-opacity:1;stroke-dasharray:none;stroke-dashoffset:0"/><path d="M208.875 130.625s-2.754-.86-4.125-.625c-.698.12-1.44.442-1.875 1-.74.948-.989 2.303-.875 3.5.122 1.28.602 2.72 1.625 3.5 1.613 1.228 3.988 1.254 6 1 1.943-.245 3.615-1.516 5.375-2.375 1.19-.58 2.269-1.39 3.5-1.875 1.363-.537 2.785-1.107 4.25-1.125.9-.011 2.361-.235 2.625.625.199.648-.757 1.22-1.375 1.5-1.67.757-3.7-.225-5.5.125-1.968.382-3.706 1.547-5.625 2.125-1.8.542-3.629 1.43-5.5 1.25-1.541-.148-3.158-.777-4.25-1.875-.737-.74-1.178-1.832-1.25-2.875-.074-1.08.192-2.286.875-3.125.859-1.055 2.265-1.838 3.625-1.875.913-.025 2.5 1.125 2.5 1.125m35-1.375s2.307.921 3 1.875c.606.834.746 1.97.75 3 .005 1.415-.073 3.056-1 4.125-.588.678-1.604.943-2.5 1-1.331.085-2.626-.532-3.875-1-1.309-.49-2.47-1.314-3.75-1.875-1.184-.519-2.337-1.275-3.625-1.375-.807-.063-1.747 1.01-2.375.5-.259-.21-.16-.707 0-1 .332-.609 1.06-1.056 1.75-1.125 1.024-.102 1.937.7 2.875 1.125 1.324.599 2.575 1.35 3.875 2 1.367.684 2.608 1.817 4.125 2 1.185.143 2.657.095 3.5-.75.993-.995 1.01-2.726.875-4.125-.112-1.17-.57-2.392-1.375-3.25-.574-.611-2.25-1.125-2.25-1.125m-28.875 14s2.664-.759 4-1.125c1.248-.342 2.456-1.004 3.75-1 1.425.004 2.73.836 4.125 1.125 1.154.239 2.349.753 3.5.5.824-.181 1.29-1.25 2.125-1.375 1.2-.179 2.399.49 3.5 1 .682.315 1.875 1.25 1.875 1.25s-1.862-.943-2.875-1c-1.322-.074-2.557.745-3.875.875-1.66.164-3.342.054-5-.125-1.097-.118-2.16-.457-3.25-.625-1.078-.166-2.162-.456-3.25-.375-1.119.083-2.138.728-3.25.875-.454.06-1.375 0-1.375 0" style="fill:#55a;fill-opacity:1;stroke:#55a;stroke-width:2;stroke-linecap:round;stroke-linejoin:round;stroke-miterlimit:4;stroke-opacity:1;stroke-dasharray:none;stroke-dashoffset:0" transform="translate(0 512.362)"/><path d="M222.25 147.625s2.264 1.165 3.5 1.375c1.11.189 2.28.138 3.375-.125 1.25-.3 3.5-1.625 3.5-1.625m.875-44.75s3.289-2.474 5.125-3.375c1.502-.737 3.08-1.51 4.75-1.625 1.524-.105 3.035.439 4.5.875 1.164.347 2.2 1.068 3.375 1.375.975.255 3 .375 3 .375" style="fill:none;stroke:#55a;stroke-width:2;stroke-linecap:round;stroke-linejoin:round;stroke-miterlimit:4;stroke-opacity:1;stroke-dasharray:none;stroke-dashoffset:0" transform="translate(0 512.362)"/><path d="M252.83 616.897s-2.889 2.508-4.586 3.343a11.5 11.5 0 0 1-3.87 1.133c-2.002.205-4.103.194-6.017-.486-1.15-.409-2.116-1.312-3.103-2.094-.701-.557-1.992-1.842-1.992-1.842s2.394-1.33 3.634-1.872c1.243-.542 2.49-1.17 3.803-1.376 1.914-.3 3.897-.233 5.776.227 2.243.548 6.356 2.967 6.356 2.967" style="fill:none;stroke:#55a;stroke-width:2;stroke-linecap:round;stroke-linejoin:round;stroke-miterlimit:4;stroke-opacity:1;stroke-dasharray:none;stroke-dashoffset:0"/><path d="M213.463 106.494a5.399 3.948 0 1 1-10.798 0 5.399 3.948 0 1 1 10.798 0" style="fill:none;stroke:#55a;stroke-width:2.22961283;stroke-linecap:round;stroke-linejoin:round;stroke-miterlimit:4;stroke-opacity:1;stroke-dasharray:none;stroke-dashoffset:0" transform="matrix(-.87198 .03712 .0169 .92206 422.28 511.548)"/><path d="M210.358 105.212a1.957 1.518 0 1 1-3.914 0 1.957 1.518 0 1 1 3.914 0" style="fill:#55a;fill-opacity:1;stroke:#55a;stroke-width:2.14214277;stroke-linecap:round;stroke-linejoin:round;stroke-miterlimit:4;stroke-opacity:1;stroke-dasharray:none;stroke-dashoffset:0" transform="matrix(-.87198 .03712 .0183 .9989 422.139 503.803)"/><path d="m215.75 109.875-5.125 4.5m25.125-2.875 5.125 3.75" style="fill:none;stroke:#55a;stroke-width:2;stroke-linecap:round;stroke-linejoin:round;stroke-miterlimit:4;stroke-opacity:1;stroke-dasharray:none;stroke-dashoffset:0" transform="translate(0 512.362)"/><path d="M224.37 777.176c.33.64.86 1.304 1.854 1.416 1.789.2 3.16-1.255 3.383-3.243.157-1.391-.253-2.365-.614-3.49-.384-1.198-1.025-2.3-1.63-3.404-.775-1.415-2.556-4.111-2.556-4.111s-2.335 2.234-3.406 3.441c-.835.941-1.705 1.874-2.345 2.957-.602 1.016-1.217 1.875-1.374 3.267-.223 1.987.79 3.711 2.58 3.912.993.112 1.656-.417 2.12-.969l.177.221-.62 1.943c-.311.971-1.13 2.892-1.13 2.892 2.031-.174 2.031-.174 3.974.447 0 0-.373-2.055-.46-3.07l-.174-2.033zm3.953-25.228c.27.67.735 1.378 1.714 1.582 1.763.365 3.263-.958 3.67-2.916.283-1.371-.034-2.379-.29-3.532-.271-1.229-.808-2.386-1.308-3.54-.642-1.48-2.166-4.33-2.166-4.33s-2.531 2.008-3.709 3.112c-.918.86-1.87 1.708-2.608 2.727-.693.956-1.386 1.755-1.67 3.126-.406 1.958.444 3.768 2.207 4.134.979.203 1.688-.263 2.202-.769l.155.237c-.4.938-.4.938-.798 1.877-.399.938-1.393 2.775-1.393 2.775 2.04.014 2.04.014 3.917.812 0 0-.181-2.08-.174-3.1l.014-2.04zm8.027-23.933c.157.704.502 1.479 1.436 1.838 1.68.645 3.374-.418 4.091-2.285.503-1.306.352-2.352.287-3.532-.07-1.256-.412-2.485-.72-3.704-.393-1.566-1.436-4.624-1.436-4.624s-2.823 1.573-4.164 2.471c-1.045.7-2.122 1.384-3.015 2.27-.838.832-1.65 1.508-2.153 2.814-.717 1.867-.171 3.791 1.509 4.437.933.359 1.709.014 2.297-.403l.115.259-1.09 1.723c-.546.862-1.824 2.514-1.824 2.514 2.01.344 2.01.344 3.734 1.435 0 0 .158-2.083.33-3.088l.344-2.01zm11.942-23.44c.047.72.268 1.539 1.135 2.037 1.56.898 3.398.11 4.395-1.624.698-1.214.711-2.27.83-3.446.124-1.251-.024-2.518-.139-3.77-.147-1.608-.705-4.79-.705-4.79s-3.032 1.117-4.495 1.797c-1.14.53-2.31 1.039-3.33 1.776-.957.693-1.864 1.235-2.562 2.449-.997 1.733-.755 3.719.805 4.616.867.499 1.686.278 2.332-.043l.074.274-1.345 1.534c-.672.767-2.189 2.201-2.189 2.201 1.933.65 1.933.65 3.467 1.995 0 0 .477-2.033.803-3l.65-1.933zm13.99-19.759c-.084.716-.016 1.562.745 2.21 1.371 1.167 3.322.726 4.618-.797.907-1.066 1.112-2.103 1.442-3.238.351-1.207.436-2.48.55-3.733.148-1.607.179-4.838.179-4.838s-3.185.547-4.748.95c-1.218.314-2.46.601-3.597 1.14-1.067.507-2.057.876-2.965 1.942-1.296 1.523-1.419 3.52-.048 4.686.762.648 1.607.58 2.3.382l.023.282-1.6 1.264c-.8.632-2.554 1.766-2.554 1.766 1.783.992 1.783.992 3.046 2.592 0 0 .84-1.912 1.335-2.803l.992-1.782zm-154.457-9.286c.004-.721.175-1.552 1.01-2.103 1.503-.99 3.385-.314 4.486 1.355.77 1.17.847 2.223 1.036 3.39.2 1.241.13 2.515.09 3.772-.049 1.613-.413 4.824-.413 4.824s-3.094-.932-4.596-1.522c-1.17-.46-2.369-.897-3.43-1.571-.998-.634-1.936-1.12-2.707-2.289-1.1-1.67-.979-3.666.524-4.657.835-.55 1.666-.38 2.33-.098l.057-.277-1.434-1.45c-.718-.725-2.32-2.065-2.32-2.065 1.89-.767 1.89-.767 3.34-2.201 0 0 .6 2 .983 2.945l.767 1.89zm10.559 20.068c.124-.71.43-1.502 1.345-1.906 1.647-.727 3.39.252 4.198 2.082.566 1.28.466 2.333.459 3.514-.008 1.258-.29 2.502-.537 3.735-.317 1.583-1.21 4.688-1.21 4.688s-2.896-1.432-4.28-2.264c-1.077-.649-2.186-1.279-3.121-2.12-.879-.79-1.723-1.426-2.288-2.706-.808-1.83-.357-3.778 1.29-4.505.915-.404 1.706-.098 2.314.29l.102-.264-1.173-1.668c-.587-.834-1.944-2.422-1.944-2.422 1.991-.441 1.991-.441 3.66-1.615 0 0 .258 2.072.48 3.067l.441 1.992zm8.977 20.602c.16-.703.505-1.478 1.44-1.835 1.68-.644 3.373.422 4.088 2.29.5 1.307.348 2.353.28 3.532-.07 1.256-.415 2.484-.723 3.704-.396 1.564-1.444 4.621-1.444 4.621s-2.82-1.576-4.16-2.477c-1.044-.702-2.12-1.386-3.012-2.274-.837-.833-1.648-1.51-2.149-2.818-.715-1.868-.166-3.79 1.516-4.434.933-.357 1.708-.011 2.296.406l.116-.258-1.089-1.725c-.544-.863-1.82-2.516-1.82-2.516 2.012-.342 2.012-.342 3.737-1.43 0 0 .154 2.082.325 3.088l.34 2.01zm7.466 23.704c.266-.67.727-1.382 1.705-1.591 1.76-.376 3.268.938 3.686 2.894.292 1.37-.02 2.379-.268 3.534-.265 1.23-.795 2.39-1.288 3.547-.633 1.484-2.14 4.343-2.14 4.343s-2.544-1.994-3.728-3.09c-.923-.855-1.88-1.698-2.624-2.712-.699-.953-1.396-1.747-1.688-3.116-.418-1.956.422-3.771 2.182-4.147.978-.209 1.69.253 2.207.756l.153-.238-.808-1.872c-.405-.936-1.41-2.767-1.41-2.767 2.04-.026 2.04-.026 3.913-.835 0 0-.17 2.081-.156 3.1l.026 2.04zm2.973 24.356c.329-.642.856-1.307 1.849-1.423 1.788-.207 3.164 1.244 3.395 3.23.161 1.39-.245 2.367-.601 3.493-.38 1.2-1.017 2.304-1.618 3.41-.77 1.417-2.542 4.12-2.542 4.12s-2.343-2.225-3.418-3.429c-.838-.938-1.711-1.868-2.356-2.948-.605-1.015-1.224-1.871-1.385-3.262-.23-1.987.777-3.714 2.565-3.922.993-.115 1.658.412 2.125.961l.176-.221-.628-1.94c-.314-.971-1.141-2.889-1.141-2.889 2.033.167 2.033.167 3.973-.46 0 0-.365 2.055-.448 3.071l-.167 2.033z" style="fill:#fff;fill-opacity:1;stroke:none"/><path d="M110.895 663.823c-15.22 5.602-30.137 12.177-44.281 20.093C53.758 691.111 41.232 698.944 30 708.67" style="fill:none;stroke:#55a;stroke-width:2;stroke-linecap:round;stroke-linejoin:round;stroke-miterlimit:4;stroke-opacity:1;stroke-dasharray:none;stroke-dashoffset:0"/><path d="m235.351 892.995-4.457.636-4.14-1.91-3.98 1.91-2.705-1.432-2.707.796-6.049-13.054-7.323-18.467-4.457-15.76-2.07-13.531-1.273-10.189-.319-10.347 11.144.318 2.228 14.646 3.821 17.989 4.617 14.168 4.935 11.303 5.253 10.188 3.343 6.368zm-104.431-3.662 7.96-14.964 7.96-17.83 5.412-17.83 3.502-16.396 1.91-10.348-7.8-.318-4.298 16.715-6.209 18.148-5.253 12.258-6.209 10.666-4.457 6.368 3.82 2.388 2.07 5.73zm-41.08-72.599-11.01-5.505s-.034 2.828-.787 3.932c-1.229 1.803-3.5 2.678-5.505 3.54-2.026.87-4.255 1.178-6.423 1.572-1.083.197-3.277.394-3.277.394l.13 38.406s4.649-4.099 6.686-6.423c2.43-2.773 4.495-5.854 6.554-8.913 2.004-2.978 3.91-6.029 5.637-9.176 1.682-3.067 3.164-6.243 4.587-9.438 1.229-2.757 3.409-8.389 3.409-8.389" style="fill:#f55;fill-opacity:1;stroke:none"/><path d="m321.75 862.612-16.5 11.5-20.25 11-9.25 4.75-1.25-3.25 5.25-12.25 5-18.5.75-11.5-2.25-14.25-4-10.75-6.75-11-7.75-9.25-6.25-6-7.5-5.5-10.75-5.5-.5-14 1.5-8.75 2-10.75 20.5 9.75 1 16.5 4 17.5 7 18.5 6 9.75 13.25 17.25 11.75 11.75 9.25 7.25z" style="fill:#ff5556;fill-opacity:1;stroke:none"/><path d="m116 542.362 31.5 57.5c11.286-4.208 23.3-5.616 35.184-6.875 12.973-1.374 26.104-1.425 39.13-.708 10.633.586 21.33 1.377 31.686 4.083l35.5-54z" style="fill:#ff5;fill-opacity:1;stroke:#55a;stroke-width:2;stroke-linecap:butt;stroke-linejoin:miter;stroke-miterlimit:4;stroke-opacity:1;stroke-dasharray:none;stroke-dashoffset:0" transform="rotate(180 180 782.362)"/><path d="M191.19 572.915c1.207 1.008 2.788 1.902 4.358 1.806 1.58-.097 2.936-1.308 4.135-2.344.758-.654 1.216-1.331 1.846-2.37.817.97 1.527 2.189 2.642 2.846 1.376.811 3.172 1.755 4.651 1.152 1.78-.726 2.885-2.988 3.032-4.905.137-1.772-.725-3.756-2.077-4.91-1.272-1.086-3.206-1.048-4.87-1.203.475-1.494 1.275-3.405.692-4.974-.682-1.835-2.472-3.606-4.41-3.877-1.756-.246-3.696.898-4.805 2.282-.967 1.206-1.34 3.006-1.032 4.521.226 1.119 1.045 2.071 2 2.779-1.94.162-4.176.38-5.54 1.757-1.306 1.319-1.769 3.473-1.632 5.324.058.78.63 1.433 1.01 2.116m8.49-6.399c-.135-.891.506-2.192 1.4-2.313.917-.124 2.032.982 2.018 1.907-.014.864-1.075 1.722-1.939 1.722-.66 0-1.38-.663-1.48-1.316m-36.539-8.233c-1.395.726-2.828 1.843-3.342 3.33-.518 1.497.047 3.224.575 4.718.405 1.143 1.214 2.106 1.93 3.085-1.025-.351-2.214-.375-3.16.09-1.79.882-3.721 2.644-3.783 4.638-.059 1.92 1.65 3.81 3.363 4.683 1.584.807 3.747.774 5.332-.031 1.49-.758 2.2-2.558 2.982-4.036 1.196 1.014 2.647 2.061 4.208 2.058 2.099-.005 4.712-.911 5.643-2.792.86-1.736-.044-4.085-1.106-5.705-.72-1.096-1.94-2.098-3.245-2.226-1.182-.115-2.253.8-3.273 1.41.595-1.853 1.253-4.002.505-5.79-.716-1.712-2.527-2.967-4.288-3.552-.742-.246-1.565.031-2.342.12m2.882 10.8c.912.115 2.153.995 1.997 1.9-.157.913-1.73 1.587-2.536 1.132-.747-.422-.704-1.79-.316-2.555.147-.291.531-.519.855-.478m74.028-12.731c1.394.727 2.827 1.844 3.34 3.33.518 1.497-.046 3.224-.575 4.718-.404 1.143-1.213 2.106-1.93 3.085 1.026-.351 2.215-.375 3.16.091 1.79.881 3.722 2.643 3.784 4.637.059 1.92-1.65 3.81-3.363 4.683-1.584.807-3.747.774-5.332-.031-1.491-.758-2.2-2.558-2.982-4.035-1.196 1.013-2.647 2.06-4.208 2.057-2.099-.005-4.712-.911-5.644-2.792-.86-1.736.044-4.085 1.107-5.704.72-1.097 1.939-2.1 3.245-2.227 1.182-.115 2.253.8 3.273 1.41-.595-1.853-1.253-4.002-.506-5.79.716-1.712 2.527-2.967 4.29-3.552.74-.246 1.564.031 2.34.12m-2.883 10.8c-.912.115-2.154.995-1.997 1.901.157.912 1.73 1.586 2.536 1.131.747-.422.704-1.79.316-2.555-.148-.291-.531-.519-.855-.478m33.986-5.924c-1.748-.044-3.78.521-4.967 1.892-1.24 1.43-1.35 3.674-1.423 5.619-.706-.918-1.351-2.126-2.435-2.416-1.197-.32-2.601.206-3.593.996-1.464 1.166-3.035 3.087-2.835 5.01.216 2.085 2.235 3.796 4.091 4.508 1.381.53 3.006.037 4.392-.514.063.483.12 1.006.184 1.512l2.407-3.625a1 1 0 0 1-.363.168c-.86.156-2.028-1.005-1.872-1.916.155-.906 1.545-1.322 2.39-1.123.3.07.573.397.61.721.043.388-.034.881-.189 1.304l6.58-9.91a9.6 9.6 0 0 0-.962-1.304c-.659-.345-1.278-.903-2.015-.922m-138.608 1.485c1.745.107 3.72.844 4.786 2.312 1.112 1.531 1.03 3.776.935 5.72.782-.854 1.53-2.002 2.634-2.197 1.22-.217 2.573.428 3.493 1.3 1.359 1.288 2.759 3.337 2.395 5.236-.395 2.058-2.554 3.59-4.464 4.14-1.421.41-2.998-.222-4.331-.89-.104.476-.207.992-.314 1.49l-2.086-3.818c.1.083.223.165.347.198.844.23 2.107-.826 2.03-1.748-.076-.915-1.426-1.45-2.285-1.324-.304.045-.605.347-.67.667-.076.383-.041.88.076 1.315l-5.703-10.439a9.7 9.7 0 0 1 1.07-1.216c.686-.288 1.352-.79 2.087-.746" style="fill:#000;stroke:none" transform="rotate(180 180 782.362)"/><path d="M213.73 577.765c-2.619.325-5.382-.71-7.638-2.063-1.201-.72-2.036-1.933-2.861-3.058-.75-1.023-1.238-2.693-1.868-3.315.359 3.46 1.278 5.71 3.073 7.885 1.725 2.091 4.337 3.38 6.877 4.339 2.733 1.032 5.745 1.606 8.664 1.398 3.436-.245 6.834-1.443 9.857-3.077 2.052-1.109 3.98-2.596 5.39-4.44.783-1.027 1.45-2.543 1.58-3.526-1.31 1.575-3.495 3.413-5.67 4.443-1.984.938-4.257 1.74-6.436 1.442-2.114-.289-3.683-1.404-5.626-3.023-2.055 1.1-3.31 2.744-5.341 2.995" style="fill:#000;stroke:none" transform="rotate(180 180 782.362)"/><path d="M189.546 578.743c2.602.19 5.225-1.06 7.432-2.45 1.162-.733 2.05-1.86 2.852-2.976.734-1.021.787-3.418 1.748-3.343-.176 3.474-1.212 5.558-2.888 7.745-1.635 2.133-4.105 3.596-6.563 4.683-2.644 1.17-5.587 1.897-8.477 1.838-3.405-.07-6.819-1.093-9.886-2.57-2.083-1.003-4.062-2.39-5.548-4.16-.826-.986-1.563-2.466-1.742-3.441 1.375 1.506 3.625 3.23 5.826 4.148 2.006.836 4.29 1.52 6.424 1.113 2.072-.397 3.563-1.59 5.397-3.306 2.084.994 3.408 2.571 5.425 2.719m55.694 2.077c-2.05-.066-4.11-1.4-5.755-2.956-.875-.828-1.351-2.115-1.986-3.205-.499-.855-.675-2.594-1.431-2.613.022 3.227.832 4.934 2.025 6.978 1.231 2.11 3.104 3.705 4.997 4.938 2.038 1.327 4.324 2.272 6.596 2.486 2.676.251 5.391-.378 7.85-1.459 1.668-.734 3.269-1.832 4.495-3.331.681-.834 1.31-2.134 1.483-3.018-1.13 1.264-2.955 2.65-4.714 3.293-1.603.587-3.42 1.008-5.082.433-1.614-.56-2.745-1.8-4.127-3.557-1.67.726-2.762 2.06-4.352 2.01" style="fill:#000;stroke:none" transform="rotate(180 180 782.362)"/><path d="M150.28 584.041c-2.01.78-4.535.264-6.745-.654-1.177-.489-2.21-1.556-3.197-2.47-1.04-.962-2.11-3.442-2.85-3.15 1.304 3.306 2.836 5.475 5.16 7.386 1.912 1.57 4.478 2.52 6.801 3.004 2.5.52 5.088.545 7.373-.175 2.69-.848 5.067-2.616 7.016-4.742 1.324-1.444 2.436-3.234 3.027-5.28.328-1.137.419-2.732.235-3.712-.802 2.4-1.56 4.46-3.252 5.965-1.275 1.134-3.042 1.879-4.747 1.91-1.916.037-3.373-.713-5.41-1.944-1.327 1.435-1.853 3.257-3.412 3.862" style="fill:#000;stroke:none" transform="rotate(180 180 782.362)"/><path d="M143.366 77.906s5.122 1.645 7.778 1.767c3.147.146 6.459-.031 9.37-1.237 2.057-.852 3.711-2.507 5.303-4.066 1.078-1.056 2.828-3.535 2.828-3.535s5.816 3.198 9.016 3.889c3.168.684 6.506.58 9.722.177 3.092-.389 6.271-1 9.016-2.475 2.207-1.187 5.657-4.95 5.657-4.95s4.365 4.689 7.248 5.834c2.801 1.112 6.004.848 9.015.707 2.748-.13 5.51-.58 8.132-1.415 2.612-.831 7.425-3.535 7.425-3.535s2.746 3.768 4.596 5.126c1.722 1.264 3.79 2.03 5.833 2.652 2.058.627 4.222 1.253 6.364 1.06 2.619-.234 7.425-2.658 7.425-2.658l-5.055 7.57s-15.231-2.629-22.918-3.35c-6.453-.606-12.946-.74-19.426-.817-6.979-.083-13.967-.042-20.934.38-5.822.354-11.621 1.053-17.406 1.799-4.354.56-8.744.996-13.014 2.012-3.914.932-11.48 3.727-11.48 3.727z" style="fill:#f55;fill-opacity:1;stroke:none" transform="rotate(180 180 526.181)"/><path d="M148.194 600.152c-2.027 10.373-3.987 20.814-7.316 30.865-3.226 9.211-8.013 17.76-12.767 26.242-1.792 2.708-5.233 5.067-8.594 4.153-2.22-.632-2.304-2.985-1.615-4.816" style="fill:none;stroke:#55a;stroke-width:2;stroke-linecap:round;stroke-linejoin:round;stroke-miterlimit:4;stroke-opacity:1;stroke-dasharray:none" transform="rotate(180 180 782.362)"/><path d="M153.425 598.844c-1.813 16.315-5.679 32.556-12.233 47.573-3.684 8.442-9.65 18.965-18.835 21.31-3.921 1-9.512-.56-11.416-4.13-2.142-4.018-.576-10.864 3.299-13.254 3.656-2.256 9.575-.246 12.574 2.83 1.07 1.099.765 2.988.895 4.513" style="fill:none;stroke:#55a;stroke-width:2;stroke-linecap:round;stroke-linejoin:round;stroke-miterlimit:4;stroke-opacity:1;stroke-dasharray:none;stroke-dashoffset:0" transform="rotate(180 180 782.362)"/><path d="M159.309 596.447c-1.407 10.12-2.653 20.645-5.648 30.563-3.478 11.521-7.194 23.405-14.183 33.204-3.218 4.51-6.926 9.92-12.328 11.15-2.691.614-6.283.396-7.94-2.346" style="fill:none;stroke:#55a;stroke-width:2;stroke-linecap:round;stroke-linejoin:round;stroke-miterlimit:4;stroke-opacity:1;stroke-dasharray:none;stroke-dashoffset:0" transform="rotate(180 180 782.362)"/><path d="M164.975 596.222c-1.227 10.564-2.846 21.031-5.687 31.22-2.401 8.614-5.41 17.14-9.54 25.072-3.544 6.807-7.078 13.254-12.933 19.05-1.488 1.472-5.045 1.284-7.58-.27" style="fill:none;stroke:#55a;stroke-width:1.99999988;stroke-linecap:round;stroke-linejoin:round;stroke-miterlimit:4;stroke-opacity:1;stroke-dasharray:none;stroke-dashoffset:0" transform="rotate(180 180 782.362)"/><path d="M170.309 595.109c-.962 10.59-2.318 21.096-4.902 31.353-2.184 8.67-4.992 17.264-8.907 25.303-3.2 6.575-6.09 12.556-11.797 18.496-1.45 1.51-4.14 2.719-6.713 1.229" style="fill:none;stroke:#55a;stroke-width:1.99999988;stroke-linecap:round;stroke-linejoin:round;stroke-miterlimit:4;stroke-opacity:1;stroke-dasharray:none;stroke-dashoffset:0" transform="rotate(180 180 782.362)"/><path d="M176.235 594.002c-1.039 10.567-2.306 19.364-4.496 28.845-1.972 8.536-4.425 17.156-7.753 25.112-2.722 6.507-5.179 12.427-9.883 18.249-1.195 1.478-3.371 2.632-5.385 1.09" style="fill:none;stroke:#55a;stroke-width:1.99999976;stroke-linecap:round;stroke-linejoin:round;stroke-miterlimit:4;stroke-opacity:1;stroke-dasharray:none;stroke-dashoffset:0" transform="rotate(180 180 782.362)"/><path d="M181.34 593.403c-.624 10.012-1.52 18.36-3.261 27.384-1.567 8.124-3.583 16.344-6.441 23.967-2.338 6.234-4.446 11.905-8.667 17.559-1.072 1.436-3.075 2.598-5.016 1.209" style="fill:none;stroke:#55a;stroke-width:2;stroke-linecap:round;stroke-linejoin:round;stroke-miterlimit:4;stroke-opacity:1;stroke-dasharray:none;stroke-dashoffset:0" transform="rotate(180 180 782.362)"/><path d="M186.91 593.33c-.577 9.641-1.407 17.68-3.018 26.37-1.45 7.825-3.315 15.74-5.96 23.082-2.164 6.004-4.115 11.465-8.021 16.91-.992 1.382-2.846 2.501-4.642 1.164m3.981.327c.74.683 1.755 1.403 2.76 1.272 1.636-.213 2.802-1.853 3.813-3.157 1.505-1.94 2.161-4.412 3.137-6.664 1.006-2.32 1.863-4.703 2.8-7.052" style="fill:none;stroke:#55a;stroke-width:2;stroke-linecap:round;stroke-linejoin:round;stroke-miterlimit:4;stroke-opacity:1;stroke-dasharray:none;stroke-dashoffset:0" transform="rotate(180 180 782.362)"/><path d="M184.258 650.574c-1.678 3.785-3.116 7.704-5.223 11.268-1.005 1.7-1.76 3.857-3.509 4.774-2.407 1.26-5.896 1.75-8.148.23-1.673-1.129-2.047-3.64-2.105-5.675m21.487-7.072-7.506 15.453" style="fill:none;stroke:#55a;stroke-width:2;stroke-linecap:round;stroke-linejoin:round;stroke-miterlimit:4;stroke-opacity:1;stroke-dasharray:none;stroke-dashoffset:0" transform="rotate(180 180 782.362)"/><path d="m205.603 156.316-5.593 10.891" style="fill:none;stroke:#55a;stroke-width:2;stroke-linecap:round;stroke-linejoin:round;stroke-miterlimit:4;stroke-opacity:1;stroke-dasharray:none;stroke-dashoffset:0" transform="rotate(180 180 526.181)"/><path d="m221.792 688.547 6.475-12.951m1.325-.294c1.261 3.656 1.118 8.152 3.757 10.981 2.339 2.508 6.092 4.544 9.478 4 3.452-.554 6.85-3.565 7.899-6.9 1.851-5.89-2.303-12.704-4.47-17.975m-53.31-5.56c-1.896 3.218-6.078 7.44-4.855 11.378.551 1.775 2.88 3.321 4.708 2.986 2.182-.4 2.91-3.388 3.989-5.326.779-1.4 1.17-2.983 1.75-4.475" style="fill:none;stroke:#55a;stroke-width:2;stroke-linecap:round;stroke-linejoin:round;stroke-miterlimit:4;stroke-opacity:1;stroke-dasharray:none;stroke-dashoffset:0" transform="rotate(180 180 782.362)"/><path d="M189.706 657.332c-2.732 4.74-5.516 9.369-6.307 14.264-.44 2.725 1.89 5.853 4.393 7.02 2.75 1.283 6.968.981 9.015-1.258 2.165-2.369 3.239-5.125 4.563-7.83.458-.935 1.142-2.91 1.142-2.91m6.77 4.122c-2.061 3.74-4.967 8.013-4.106 12.226.592 2.897 3.06 5.796 5.898 6.628 2.136.626 5.075-.037 6.429-1.803 2.917-3.808 4.452-8.11 5.76-11.754" style="fill:none;stroke:#55a;stroke-width:2;stroke-linecap:round;stroke-linejoin:round;stroke-miterlimit:4;stroke-opacity:1;stroke-dasharray:none;stroke-dashoffset:0" transform="rotate(180 180 782.362)"/><path d="M212.225 672.947c-1.13 2.543-3.925 7.284-2.224 10.39.69 1.259 2.69 2.017 4.03 1.508 3.209-1.219 3.999-6.838 4.817-9.102m33.703-78.738c-.306 16.744.515 33.643-1.725 50.218-.984 7.279-2.85 15.13-7.702 20.645-3.44 3.912-8.548 6.547-13.826 7.286m23.928-51.999c3.043 5.317 5.73 11.082 6.503 17.145.72 5.647-.42 10.95-1.856 16.977" style="fill:none;stroke:#55a;stroke-width:2;stroke-linecap:round;stroke-linejoin:round;stroke-miterlimit:4;stroke-opacity:1;stroke-dasharray:none;stroke-dashoffset:0" transform="rotate(180 180 782.362)"/><path d="M252.5 631.867c3.33 3.877 3.07 7.558 3.337 11.56.173 2.607-.797 5.663-1.159 7.752m-2.758-4.501c2.724 5.805 7.004 11.292 7.597 17.679.338 3.64-.037 7.914-2.4 10.702-1.378 1.625-3.8 2.027-5.924 2.4" style="fill:none;stroke:#55a;stroke-width:2;stroke-linecap:round;stroke-linejoin:round;stroke-miterlimit:4;stroke-opacity:1;stroke-dasharray:none;stroke-dashoffset:0" transform="rotate(180 180 782.362)"/><path d="M250.903 653.212c2.598 4.952 6.319 10.94 4.408 16.201-.792 2.182-2.92 4.271-5.715 3.981" style="fill:none;stroke:#55a;stroke-width:2;stroke-linecap:round;stroke-linejoin:round;stroke-miterlimit:4;stroke-opacity:1;stroke-dasharray:none;stroke-dashoffset:0" transform="rotate(180 180 782.362)"/><path d="M248.725 658.293c2.551 3.837 4.277 7.078 2.728 10.26-.502 1.032-2.355 1.197-3.164 1.356m-4.646-.726c1.649 4.322 5.072 9.76 2.6 13.695-1.463 2.33-5.47 3.275-7.972 2.132-3.426-1.566-3.982-6.515-4.937-10.164" style="fill:none;stroke:#55a;stroke-width:2;stroke-linecap:round;stroke-linejoin:round;stroke-miterlimit:4;stroke-opacity:1;stroke-dasharray:none;stroke-dashoffset:0" transform="rotate(180 180 782.362)"/><path d="M236.964 673.394c.687 3.66 1.562 8.718 4.556 8.019 2.119-.495.755-4.375.375-6.518-.233-1.316-1.245-2.892-1.591-3.679" style="fill:none;stroke:#55a;stroke-width:2;stroke-linecap:round;stroke-linejoin:round;stroke-miterlimit:4;stroke-opacity:1;stroke-dasharray:none;stroke-dashoffset:0" transform="rotate(180 180 782.362)"/><path d="M30 818.076c7.157-.363 15.41 1.847 23.155 2.1 5.198.17 10.553.871 15.599-.392 3.239-.811 7.257-1.62 8.95-4.498 1.55-2.635 1.797-7.02-.384-9.162-2.638-2.59-8.322-2.713-11.087-.26-1.543 1.369-.714 4.107-.593 6.159-4.891.46-9.825.918-14.738.705-3.899-.169-7.703-1.401-11.601-1.568-3.101-.132-6.398.226-9.301.455z" style="fill:#ff5;fill-opacity:1;stroke:#55a;stroke-width:2;stroke-linecap:round;stroke-linejoin:round;stroke-miterlimit:4;stroke-opacity:1;stroke-dasharray:none;stroke-dashoffset:0"/><g style="fill:#fff;fill-opacity:1"><path d="M293.417 251.625c.434-1.89 1.334-3.68 2.388-5.307.773-1.193 1.575-2.522 2.831-3.185 1.446-.763 3.238-.459 4.865-.62 2.53-.248 5.145-1.158 7.608-.53.848.216 1.366 1.19 2.211 1.415 1.769.472 3.707-.7 5.485-.265.796.195 1.663.56 2.123 1.238.334.494.265 1.77.265 1.77s2.641-.706 3.715-.089c.847.487 1.269 1.6 1.416 2.565.2 1.31-.278 2.674-.796 3.893a8.9 8.9 0 0 1-1.947 2.83c-.378.373-1.326.885-1.326.885s2.705-1.356 3.98-.885c.83.307 1.42 1.256 1.592 2.123.184.926-.38 1.857-.707 2.742-.465 1.263-.818 2.676-1.77 3.627-.997.998-3.803 1.858-3.803 1.858s2.717-.916 3.892-.354c.767.367 1.252 1.288 1.415 2.123.225 1.152-.15 2.416-.707 3.45-.415.771-1.098 1.422-1.858 1.858-.608.348-2.034.53-2.034.53s2.66.814 2.83 1.946c.19 1.266-1.255 2.413-2.388 3.008-2.329 1.223-5.315-.081-7.873.53-1.465.351-2.694 1.413-4.157 1.77-2.241.547-4.653 1.05-6.9.53-1.7-.393-3.26-1.437-4.512-2.653-1.472-1.431-2.376-3.372-3.273-5.22-.916-1.887-1.69-3.873-2.123-5.926-.592-2.806-.547-5.714-.619-8.58-.033-1.327.055-2.654.089-3.981.026-1.032-.143-2.09.088-3.096" style="fill:#fff;fill-opacity:1;stroke:#55a;stroke-width:2;stroke-linecap:round;stroke-linejoin:round;stroke-miterlimit:4;stroke-opacity:1;stroke-dasharray:none;stroke-dashoffset:0" transform="rotate(180 180 526.181)"/><path d="M320.662 759.21c-1.54 2.24-3.975 4.117-6.814 4.06-1.92.375-3.856-.728-5.67-.243-1.253.81-2.4 1.64-3.749 2.144-1.224.457-2.505.82-3.847.762" style="fill:#fff;fill-opacity:1;stroke:#55a;stroke-width:2;stroke-linecap:round;stroke-linejoin:round;stroke-miterlimit:4;stroke-opacity:1;stroke-dasharray:none;stroke-dashoffset:0" transform="rotate(180 180 782.362)"/><path d="M322.078 768.852c-3.159 1.831-7.732 3.608-11.405 3.968-1.604.022-3.804.114-4.586-1.616-.685-1.367-.138-3.151 1.272-3.81 2.373-1.378 6.824-3.731 9.411-4.645" style="fill:#fff;fill-opacity:1;stroke:#55a;stroke-width:2;stroke-linecap:round;stroke-linejoin:round;stroke-miterlimit:4;stroke-opacity:1;stroke-dasharray:none;stroke-dashoffset:0" transform="rotate(180 180 782.362)"/><path d="M309.428 766.376c1.583.017 4.293 1.356 4.515 3.171.222.628.24 1.301.262 1.96m7.519 6.368c-4.034.764-9.33 2.15-13.443 1.511-1.413-.48-3.342-.948-3.807-2.572-.112-1.572 1.314-2.875 2.641-3.453.522-.151 3.364-.31 3.905-.351" style="fill:#fff;fill-opacity:1;stroke:#55a;stroke-width:2;stroke-linecap:round;stroke-linejoin:round;stroke-miterlimit:4;stroke-opacity:1;stroke-dasharray:none;stroke-dashoffset:0" transform="rotate(180 180 782.362)"/><path d="M311.816 773.63c1.588.773 2.08 2.55 1.578 4.166q-.07.395-.162.787m-1.239-22.645c.41 1.334 1.048 3.117 2.725 3.116 1.984.11 3.864-.614 5.59-1.524m-11.145 22.114c-1.349.519-4.096 1.517-2.98 3.374 1.723 2.19 4.725 2.415 7.287 2.713 2.47.067 4.932-.494 7.402-.13q.825.067 1.648.147m-9.288 0c-1.95.686-3.85 2.671-2.508 3.923.695.879 2.527 1.47 3.57 1.65" style="fill:#fff;fill-opacity:1;stroke:#55a;stroke-width:2;stroke-linecap:round;stroke-linejoin:round;stroke-miterlimit:4;stroke-opacity:1;stroke-dasharray:none;stroke-dashoffset:0" transform="rotate(180 180 782.362)"/><path d="M312.79 779.91c1.086.84 1.565 1.808 1.61 2.918.034.873-.87 1.989-1.08 2.39m2.3.972c1.138.739 2.475 2.033 1.62 3.488a9 9 0 0 1-.558 1.2" style="fill:#fff;fill-opacity:1;stroke:#55a;stroke-width:2;stroke-linecap:round;stroke-linejoin:round;stroke-miterlimit:4;stroke-opacity:1;stroke-dasharray:none;stroke-dashoffset:0" transform="rotate(180 180 782.362)"/></g><g style="stroke:#000;stroke-opacity:1"><path d="M286.025 676.842c-8.826 8.526-17.312 17.83-24.386 27.98-6.604 9.477-11.676 19.958-16.626 30.403l24.748 12.374c3.94-9.095 8.376-18.043 13.876-26.282 3.879-5.81 8.426-11.363 13.363-16.144.118-6.718-.118-14.135 0-20.853-3.536-2.593-7.44-4.885-10.975-7.478" style="fill:#ff5;fill-opacity:1;stroke:#000;stroke-width:2;stroke-linecap:round;stroke-linejoin:round;stroke-miterlimit:4;stroke-opacity:1;stroke-dasharray:none;stroke-dashoffset:0" transform="rotate(180 180 782.362)"/><path d="M289.731 681.143c-7.623 7.176-9.929 8.735-14.2 13.753-5.74 6.742-10.694 14.164-15.198 21.788-3.84 6.498-8.559 17.601-10.017 20.309m46.172-40.031c-5.368 5.186-10.959 11.335-15.688 17.617a105.5 105.5 0 0 0-9.258 14.665c-2.536 4.865-4.623 9.976-6.377 15.173" style="fill:none;stroke:#000;stroke-width:2;stroke-linecap:round;stroke-linejoin:round;stroke-miterlimit:4;stroke-opacity:1;stroke-dasharray:none;stroke-dashoffset:0" transform="rotate(180 180 782.362)"/><path d="m287.45 171.478 1.193 10.778 7.635-.052m-18.031-1.414.707 12.02 9.704-1.008m-19.25-.918 1.06 13.947 9.546-1.767m-18.384.115 1.767 12.613 9.534-1.979m-18.059 1.073 3.222 12.573 9.927-4.23" style="fill:none;stroke:#000;stroke-width:2;stroke-linecap:round;stroke-linejoin:round;stroke-miterlimit:4;stroke-opacity:1;stroke-dasharray:none;stroke-dashoffset:0" transform="rotate(180 180 526.181)"/></g><path d="m100.294 904.163-19.57-11.823-17.01-11.416" style="fill:none;stroke:#55a;stroke-width:2;stroke-linecap:round;stroke-linejoin:round;stroke-miterlimit:4;stroke-opacity:1;stroke-dasharray:none;stroke-dashoffset:0"/><path d="M297 231V79l14.5-13L324 79v154.5" style="fill:none;stroke:#55a;stroke-width:2;stroke-linecap:round;stroke-linejoin:round;stroke-miterlimit:4;stroke-opacity:1;stroke-dasharray:none;stroke-dashoffset:0" transform="rotate(180 180 526.181)"/><path d="M310.5 91s2.015 12.676 1.7 19.04c-.326 6.595-2.85 12.912-3.7 19.46-.746 5.753-1.717 11.58-1.22 17.36.563 6.547 3.73 12.644 4.72 19.14.83 5.447 1.324 11 1 16.5-.383 6.498-2.786 12.745-3.46 19.22-.632 6.063-1.28 12.23-.54 18.28.525 4.295 3.5 12.5 3.5 12.5" style="fill:none;stroke:#55a;stroke-width:2;stroke-linecap:round;stroke-linejoin:round;stroke-miterlimit:4;stroke-opacity:1;stroke-dasharray:none;stroke-dashoffset:0" transform="rotate(180 180 526.181)"/><path d="M318.375 290.126a7.16 7.336 0 1 1-14.32 0 7.16 7.336 0 1 1 14.32 0" style="fill:#ff5;fill-opacity:1;stroke:#55a;stroke-width:2;stroke-linecap:round;stroke-linejoin:round;stroke-miterlimit:4;stroke-opacity:1;stroke-dasharray:none;stroke-dashoffset:0" transform="rotate(180 180 526.181)"/><path d="M305.03 799.243c-.336 3.826 1.16 4.9 3.025 6.29 1.018.76 2.496.705 3.761.602.997-.081 2.031-.37 2.847-.948.616-.437 1.262-1.252 1.388-1.792" style="fill:#ff5;fill-opacity:1;stroke:#55a;stroke-width:2;stroke-linecap:round;stroke-linejoin:round;stroke-miterlimit:4;stroke-opacity:1;stroke-dasharray:none;stroke-dashoffset:0" transform="rotate(180 180 782.362)"/><path d="M138.182 876.02s3.038-3.703 5.112-4.767c.84-.431 2.78-.556 2.78-.556s3.92-8.816 5.562-13.347c2.204-6.082 4.055-12.293 5.746-18.538 1.642-6.062 3.23-12.157 4.264-18.352.797-4.78 1.483-14.46 1.483-14.46l-17.61.186s-1.147 6.814-1.855 10.195c-.768 3.668-1.554 7.338-2.595 10.938a144 144 0 0 1-4.449 12.976c-1.771 4.475-3.783 8.856-5.932 13.162a183 183 0 0 1-7.23 13.162c-1.502 2.476-4.82 7.23-4.82 7.23l5.19 1.853s5.597-8.364 7.972-12.79c2.89-5.386 5.323-11.014 7.6-16.685 2.513-6.256 4.779-12.623 6.674-19.094 1.5-5.12 3.708-15.571 3.708-15.571l7.6.185s-2.148 14.03-3.707 20.948c-1.282 5.689-2.87 11.31-4.635 16.87a174 174 0 0 1-4.82 13.346c-1.825 4.452-6.038 13.11-6.038 13.11" style="fill:#ff5;fill-opacity:1;stroke:#55a;stroke-width:2;stroke-linecap:round;stroke-linejoin:round;stroke-miterlimit:4;stroke-opacity:1;stroke-dasharray:none;stroke-dashoffset:0"/><path d="M179.975 863.411s1.826 5.53.184 7.348c-2.14 2.37-7.116 2.799-9.553.735-2.11-1.788-.735-8.267-.735-8.267s-5.358 1.306-6.98-.367c-1.961-2.023-2.043-6.333-.184-8.45 1.504-1.712 6.797-.735 6.797-.735s-.34-5.262 1.47-6.613c2.115-1.579 5.876-1.145 7.899.551 1.74 1.46 1.653 6.613 1.653 6.613s5.895-1.54 7.532.368c1.924 2.242 1.276 6.839-.919 8.817-1.774 1.599-7.164 0-7.164 0" style="fill:#ff5;fill-opacity:1;stroke:#000;stroke-width:1;stroke-linecap:round;stroke-linejoin:round;stroke-miterlimit:4;stroke-opacity:1;stroke-dasharray:none;stroke-dashoffset:0"/><path d="M190.68 195.472a4.133 4.133 0 1 1-8.267 0 4.133 4.133 0 1 1 8.267 0" style="fill:#f55;fill-opacity:1;stroke:#000;stroke-width:2;stroke-linecap:round;stroke-linejoin:round;stroke-miterlimit:4;stroke-opacity:1;stroke-dasharray:none;stroke-dashoffset:0" transform="rotate(180 180.643 526.916)"/><path d="M244.034 896.498c-7.745-12.383-15.099-25.131-20.548-38.674-4.063-10.097-6.601-20.776-8.92-31.411-1.428-6.555-2.106-13.253-3.058-19.894l-22.628-.177c.856 11.362 1.176 20.101 2.974 29.982 2.337 12.843 5.529 25.61 10.109 37.834 2.864 7.643 6.68 14.44 10.782 21.986.683-2.75 3.942-2.675 4.463-4.31-5.953-11.376-11.378-23.148-14.83-35.499-4.052-14.496-6.84-35.039-6.718-44.653 2.808.046 8.267.27 11.075.317 2.321 14.8 4.57 28.02 8.994 41.446 2.686 8.153 6.7 15.82 10.569 23.483 2.673 5.293 6.476 11.319 8.72 15.504 3.107 1.161 5.19 1.749 6.165 3.986.479.027 2.372.053 2.851.08" style="fill:#ff5;fill-opacity:1;stroke:#55a;stroke-width:2;stroke-linecap:round;stroke-linejoin:round;stroke-miterlimit:4;stroke-opacity:1;stroke-dasharray:none;stroke-dashoffset:0"/><path d="M200.23 880.696c.196 2.026.79 4.54-.515 6.116-1.722 2.08-5.173 2.774-7.805 2.17-2.564-.587-4.434-3.046-5.925-5.214-1.19-1.731-1.643-3.882-2.195-5.909-.896 1.022-2.176 1.896-3.527 2.056-1.33.157-2.616-.629-3.846-1.16 2.155-1.782 4.37-3.783 5.435-6.362 1.031-2.497.853-5.393.616-8.081 1.82 4.322 3.587 8.727 6.174 12.636 1.319 1.992 2.44 4.633 4.697 5.412 1.516.524 3.174-.497 4.723-.913.738-.198 1.45-.485 2.167-.75m-31.623-14.837s-2.34 4.393-4.42 5.48c-1.465.767-3.435 1.02-4.949.354-1.65-.727-3.359-4.243-3.359-4.243s2.027-2.834 3.536-2.828c1.215.005 1.654 1.987 2.828 2.298 2.08.55 6.364-1.06 6.364-1.06m-.176-12.264c-1.599-1.468-3.423-2.797-4.255-4.754-.773-1.82-1.195-4.088-.438-5.914.71-1.714 2.377-3.386 4.215-3.635 1.168-.159 2.215.857 3.195 1.512.4.267 1.08.676 1.068.97-1.216.274-2.606.785-3.401 1.79-1.05 1.324-1.207 3.22-1.276 4.908-.07 1.732.459 3.385.892 5.123m12.97-1.061c0-.302 3.91-3.285 4.688-5.59.67-1.985.844-4.521-.297-6.279-.946-1.456-2.96-1.954-4.654-2.34-1.293-.296-2.658-.05-3.98.066.156 1.32.46 2.691 1.133 3.845.677 1.157 2.274 1.653 2.804 2.885.977 2.272.694 4.978.306 7.413" style="fill:#ff5;fill-opacity:1;stroke:#000;stroke-width:1;stroke-linecap:round;stroke-linejoin:round;stroke-miterlimit:4;stroke-opacity:1;stroke-dasharray:none;stroke-dashoffset:0"/><path d="M178.278 827.367c2.196-.325 4.493-1.517 5.764-3.337 1.568-2.244 1.547-5.355 1.416-8.09-.115-2.41-2.238-4.586-1.921-6.978.261-1.977 3.033-5.157 3.033-5.157l-2.528-2.225s-2.715 1.988-3.438 3.439c-1.079 2.162-1.046 4.763-1.011 7.18.023 1.606 1.138 3.18.809 4.752-.315 1.501-1.016 3.593-2.528 3.843-1.138.188-2.127-1.141-2.73-2.124-.829-1.345-.873-3.072-.911-4.651-.06-2.555 1.737-5.107 1.112-7.585-.4-1.588-1.614-2.971-2.932-3.944-.49-.36-1.72-.606-1.72-.606l-1.82 3.033s1.88.927 2.225 1.82c.91 2.353-1.015 4.964-1.112 7.484-.093 2.397-.176 4.88.505 7.18.514 1.736 1.186 3.66 2.63 4.753 1.407 1.066 3.41 1.472 5.157 1.213" style="fill:#ff5;fill-opacity:1;stroke:none"/><path d="M275.324 888.72c-12.29-16.272-22.653-34.4-28.87-53.772-5.443-16.961-6.23-35.198-6.839-53.001-.277-8.09.337-16.222 1.454-24.239.407-2.921 1.222-5.772 1.905-8.642" style="fill:none;stroke:#55a;stroke-width:2;stroke-linecap:round;stroke-linejoin:round;stroke-miterlimit:4;stroke-opacity:1;stroke-dasharray:none;stroke-dashoffset:0"/><g style="stroke:#000;stroke-opacity:1"><path d="M37.75 702.562c14.388 10.79 27.765 23.362 38.08 38.042 7.356 10.468 12.663 22.48 16.319 34.74 2.96 9.926 4.75 21.713 4.351 30.768l-26.25-12.25c-1.029-8.764-3.02-17.545-6.768-25.502-5.064-10.751-12.26-20.674-20.744-28.998A44.9 44.9 0 0 0 30 730.612v-22z" style="fill:#ff5;fill-opacity:1;stroke:#000;stroke-width:2;stroke-linecap:round;stroke-linejoin:round;stroke-miterlimit:4;stroke-opacity:1;stroke-dasharray:none" transform="rotate(180 180 782.362)"/><path d="M34.75 706.362c9.136 5.704 17.308 12.331 24.497 20.057 8.75 9.404 16.373 20.05 22.2 31.495 4.82 9.466 8.266 19.737 10.261 30.17.99 5.172 1.076 10.5.792 15.778m-61.75-78a88.5 88.5 0 0 1 16.587 12.995c6.242 6.223 11.86 13.193 16.37 20.766 3.632 6.097 6.412 12.748 8.423 19.554 1.623 5.491 3.279 12.79 2.87 16.935" style="fill:none;stroke:#000;stroke-width:2;stroke-linecap:round;stroke-linejoin:round;stroke-miterlimit:4;stroke-opacity:1;stroke-dasharray:none;stroke-dashoffset:0" transform="rotate(180 180 782.362)"/><path d="m80.25 285.75-.25-4.5 4 .25v3.5l4.25 1-1-9.25-7.5.75-2.25-8.5 3.25-1 1.5 4.5 4-1-2.5-8.25-7.5 2.5-4-8.5 4.25-1.5 1.75 3.75 4-1.25-3.5-8.75-7.5 3.75-4.25-8 3.75-2.75 2 4.25 4.25-2-4.75-7.75-7 4.25-5-6.75 3.75-2.75 1.75 2.75 3.25-2-4.75-7-7.25 5.75-5.5-6.5 3.5-3.5 3.25 3.75 2.5-2.5-6.25-7.25-6.5 6-6.25-6 3-3.75 4 4L51 212l-6.75-6-6.5 6.5-6.822-5.25 3.572-3.5 3.25 2.5 3-2.75-7-4.75-3.25 3.5" style="fill:none;stroke:#000;stroke-width:2;stroke-linecap:round;stroke-linejoin:round;stroke-miterlimit:4;stroke-opacity:1;stroke-dasharray:none;stroke-dashoffset:0" transform="rotate(180 180 526.181)"/></g><path d="M271.185 890.841c-12.437-16.669-22.777-35.252-29.154-54.996-5.167-16-6.383-33.161-6.907-49.967-.308-9.88.804-19.79 2.222-29.573.458-3.159 1.263-6.252 2.024-9.36" style="fill:none;stroke:#55a;stroke-width:2;stroke-linecap:round;stroke-linejoin:round;stroke-miterlimit:4;stroke-opacity:1;stroke-dasharray:none;stroke-dashoffset:0"/><path d="M85.383 166.117s-4.047 8.85-5.657 13.435c-1.643 4.682-3.267 9.422-4.066 14.32-.816 5.006-1.008 10.138-.707 15.202.234 3.936 1.014 7.836 1.945 11.667.862 3.55 1.853 7.103 3.359 10.43 2.037 4.502 4.773 8.675 7.601 12.728 2.95 4.226 6.049 8.407 9.723 12.02 2.933 2.886 6.29 5.336 9.722 7.602 3.874 2.557 12.198 6.718 12.198 6.718" style="fill:none;stroke:#55a;stroke-width:2;stroke-linecap:round;stroke-linejoin:round;stroke-miterlimit:4;stroke-opacity:1;stroke-dasharray:none;stroke-dashoffset:0" transform="rotate(180 180 526.181)"/><path d="M102.177 703.935c-.855 8.231-1.42 16.797.62 24.816 1.373 5.393 4.313 10.376 7.611 14.858 2.173 2.954 5.048 5.345 7.856 7.702 0 0-3.08-16.338-5.736-24.187-2.714-8.018-10.351-23.189-10.351-23.189" style="fill:#55a;fill-opacity:1;stroke:#55a;stroke-width:2;stroke-linecap:round;stroke-linejoin:round;stroke-miterlimit:4;stroke-opacity:1;stroke-dasharray:none;stroke-dashoffset:0" transform="rotate(180 180 782.362)"/><path d="M89.095 170.713s-3.411.027-4.596 1.061c-1.377 1.202-2.01 3.3-1.944 5.127.065 1.818 1.127 3.557 2.298 4.95 1.662 1.976 4.07 3.231 6.364 4.419 1.837.951 5.833 2.121 5.833 2.121m-2.12 14.849s-4.838-.157-7.249-.353c-2.069-.169-4.298.154-6.187-.707-1.745-.796-3.374-2.179-4.243-3.89-.724-1.427-.864-3.207-.53-4.772.486-2.273 1.654-4.647 3.536-6.01 1.562-1.134 3.726-1.227 5.656-1.238 3.79-.023 11.137 2.298 11.137 2.298" style="fill:none;stroke:#55a;stroke-width:2;stroke-linecap:round;stroke-linejoin:round;stroke-miterlimit:4;stroke-opacity:1;stroke-dasharray:none;stroke-dashoffset:0" transform="rotate(180 180 526.181)"/><path d="M95.99 703.67s-5.788-1.858-8.662-1.328c-1.377.255-2.963.823-3.713 2.088-.696 1.175-.661 2.882-.176 4.175.607 1.618 2.025 2.958 3.535 3.605 2.572 1.103 8.309 0 8.309 0z" style="fill:#55a;fill-opacity:1;stroke:none" transform="rotate(180 180 782.362)"/><path d="M97.183 729.65s-4.64 1.345-6.991 1.906c-2.017.48-4.032 1.468-6.096 1.25-1.907-.203-3.888-.987-5.25-2.311-1.137-1.105-1.83-2.718-2.005-4.278-.254-2.265.108-4.833 1.466-6.682 1.127-1.536 3.152-2.29 4.98-2.896 3.591-1.19 11.295-1.295 11.295-1.295" style="fill:none;stroke:#55a;stroke-width:2;stroke-linecap:round;stroke-linejoin:round;stroke-miterlimit:4;stroke-opacity:1;stroke-dasharray:none;stroke-dashoffset:0" transform="rotate(180 180 782.362)"/><path d="M95.339 718.973s-6.518-.073-9.32 1.342c-1.233.624-2.57 1.626-2.911 2.954-.318 1.234.216 2.703 1.055 3.673 1.05 1.216 2.79 1.94 4.412 2.035 2.765.163 7.887-2.561 7.887-2.561z" style="fill:#55a;fill-opacity:1;stroke:none" transform="rotate(180 180 782.362)"/><path d="M102.982 743.336s-4.19 2.406-6.342 3.507c-1.845.945-3.57 2.381-5.626 2.657-1.901.255-4.011-.038-5.648-1.002-1.366-.804-2.422-2.207-2.96-3.681-.783-2.14-1.04-4.721-.159-6.84.732-1.759 2.52-2.97 4.154-3.992 3.207-2.006 10.667-3.932 10.667-3.932" style="fill:none;stroke:#55a;stroke-width:2;stroke-linecap:round;stroke-linejoin:round;stroke-miterlimit:4;stroke-opacity:1;stroke-dasharray:none;stroke-dashoffset:0" transform="rotate(180 180 782.362)"/><path d="M97.756 733.218s-5.563 1.5-7.653 3.338c-1.039.913-2.113 2.189-2.13 3.56-.017 1.273.85 2.574 1.894 3.318 1.31.933 3.17 1.224 4.77.933 2.724-.497 7.056-4.356 7.056-4.356z" style="fill:#55a;fill-opacity:1;stroke:none" transform="rotate(180 180 782.362)"/><path d="M112.145 754.281s-3.325 3.506-5.07 5.177c-1.498 1.434-2.738 3.305-4.63 4.158-1.748.789-3.853 1.113-5.698.659-1.539-.379-2.952-1.42-3.891-2.679-1.363-1.826-2.348-4.225-2.111-6.507.196-1.895 1.563-3.568 2.835-5.015 2.498-2.84 9.092-6.824 9.092-6.824" style="fill:none;stroke:#55a;stroke-width:2;stroke-linecap:round;stroke-linejoin:round;stroke-miterlimit:4;stroke-opacity:1;stroke-dasharray:none;stroke-dashoffset:0" transform="rotate(180 180 782.362)"/><path d="M104.46 746.204s-5.124 3.2-6.665 5.662c-.738 1.179-1.397 2.702-1.02 4.02.349 1.225 1.552 2.223 2.766 2.637 1.52.518 3.388.264 4.836-.473 2.468-1.257 5.512-6.195 5.512-6.195z" style="fill:#55a;fill-opacity:1;stroke:none" transform="rotate(180 180 782.362)"/><path d="M98.216 697.069c-2.095-.581-4.427-.96-6.079-2.376-1.782-1.528-3.469-3.744-3.537-6.09-.023-.754.458-1.515 1.019-2.019.49-.44 1.298-.77 1.852-.698 2.254 3.724 4.511 7.446 6.745 11.183" style="fill:#55a;fill-opacity:1;stroke:#55a;stroke-width:2;stroke-linecap:round;stroke-linejoin:round;stroke-miterlimit:4;stroke-opacity:1;stroke-dasharray:none;stroke-dashoffset:0" transform="rotate(180 180 782.362)"/><path d="M111.633 754.495c-2.644 2.357-5.87 5.822-7.139 9.604-.785 2.34-.94 5.1-.058 7.407.731 1.912 2.269 3.618 4.134 4.54 1.88.929 4.332 1.3 6.32.605 2.16-.756 3.47-2.962 4.793-4.738" style="fill:none;stroke:#55a;stroke-width:2;stroke-linecap:round;stroke-linejoin:round;stroke-miterlimit:4;stroke-opacity:1;stroke-dasharray:none;stroke-dashoffset:0" transform="rotate(180 180 782.362)"/><path d="M115.134 755.99s-4.63 5.02-5.544 8.186c-.384 1.328-.638 3 .136 4.145.984 1.455 3.076 2.31 4.822 2.122 1.922-.206 3.698-2.13 4.693-3.408.342-3.76-.362-8.199-.362-8.199z" style="fill:#55a;fill-opacity:1;stroke:none" transform="rotate(180 180 782.362)"/><path d="M223.073 97.554s-.118-2.697.265-3.965c.205-.68 1.057-1.85 1.057-1.85s-4.343 1.576-6.608 1.586c-2.35.01-4.55-1.219-6.872-1.586-2.795-.442-5.637-.961-8.458-.737-3.169.253-6.389.938-9.25 2.323-1.3.63-3.436 2.643-3.436 2.643s5.855-2.742 8.986-3.436a25.3 25.3 0 0 1 7.4-.529c2.344.183 4.53 1.393 6.873 1.586 2.815.232 5.694.056 8.457-.528.751-.159 2.16-.799 2.16-.799s-.679 1.696-.776 2.593.202 1.642.202 2.699m-2.833 3.07s-1.593.549-2.375.375c-1.887-.419-3.003-2.55-4.807-3.244-1.484-.572-3.134-.623-4.724-.675-1.781-.06-3.609-.052-5.332.405-2.334.619-4.481 1.851-6.546 3.104-1.785 1.083-3.22 2.678-4.994 3.78-.684.424-2.16 1.08-2.16 1.08s3.848.364 5.737.067c3.07-.484 5.795-2.348 8.84-2.97 1.681-.343 3.415-.402 5.13-.405 1.634-.002 3.264.193 4.889.373.609.067 1.213.357 1.819.265 1.651-.25 4.522-2.155 4.522-2.155" style="fill:none;stroke:#55a;stroke-width:2;stroke-linecap:round;stroke-linejoin:round;stroke-miterlimit:4;stroke-opacity:1;stroke-dasharray:none;stroke-dashoffset:0" transform="rotate(180 180 526.181)"/><path d="M196.389 105.92s3.185 3.043 5.196 3.78c1.44.527 3.056.363 4.59.337 2.307-.039 4.704.02 6.883-.742 1.308-.457 2.398-1.402 3.512-2.227.792-.587 2.244-1.927 2.244-1.927s-2.771-1.228-4.204-1.717c-1.436-.49-2.877-1.065-4.387-1.215a19.4 19.4 0 0 0-6.613.472c-2.559.644-7.221 3.24-7.221 3.24" style="fill:none;stroke:#55a;stroke-width:2;stroke-linecap:round;stroke-linejoin:round;stroke-miterlimit:4;stroke-opacity:1;stroke-dasharray:none;stroke-dashoffset:0" transform="rotate(180 180 526.181)"/><path d="M213.463 106.494a5.399 3.948 0 1 1-10.798 0 5.399 3.948 0 1 1 10.798 0" style="fill:none;stroke:#55a;stroke-width:2.08166599;stroke-linecap:round;stroke-linejoin:round;stroke-miterlimit:4;stroke-opacity:1;stroke-dasharray:none;stroke-dashoffset:0" transform="matrix(-1 0 0 -.92308 360 1044.609)"/><path d="M210.358 105.212a1.957 1.518 0 1 1-3.914 0 1.957 1.518 0 1 1 3.914 0m44.392-6.087s-1.715-1.279-2.75-3.25c-.941-1.793-2.953-2.989-4.875-3.625-1.582-.524-3.338-.128-5 0-1.892.146-3.73.961-5.625.875-1.03-.047-2.003-.49-3-.75-.46-.12-1.375-.375-1.375-.375l1 5.584-.375-4.959s2.452 1.023 3.75 1.25c1.683.294 3.416.156 5.125.125 2.045-.038 4.172-.984 6.125-.375 2.833.884 7 5.5 7 5.5" style="fill:#55a;fill-opacity:1;stroke:#55a;stroke-width:2;stroke-linecap:round;stroke-linejoin:round;stroke-miterlimit:4;stroke-opacity:1;stroke-dasharray:none;stroke-dashoffset:0" transform="rotate(180 180 526.181)"/><path d="M232.209 611.155c.013 2.147.039 4.879.436 7.276.432 2.61 1.543 5.07 2.106 7.655.486 2.23.656 4.52 1.095 6.76.198 1.01.665 1.98.694 3.008.03 1.06.063 2.262-.54 3.133-1.2 1.733-3.809 1.88-5.455 3.197-.732.585-1.314 1.335-1.92 2.053m-9.25-10.125c-1.262-.463-2.455.8-3.106 1.806-.481.743-.512 1.787-.279 2.641.336 1.23 1.15 2.483 2.28 3.072 1.293.673 2.993.6 4.37.124 1.037-.358 1.568-1.575 2.528-2.105 1.214-.67 2.616-.94 3.957-1.288" style="fill:none;stroke:#55a;stroke-width:2;stroke-linecap:round;stroke-linejoin:round;stroke-miterlimit:4;stroke-opacity:1;stroke-dasharray:none;stroke-dashoffset:0" transform="rotate(180 180 782.362)"/><path d="M208.875 130.625s-2.754-.86-4.125-.625c-.698.12-1.44.442-1.875 1-.74.948-.989 2.303-.875 3.5.122 1.28.602 2.72 1.625 3.5 1.613 1.228 3.988 1.254 6 1 1.943-.245 3.615-1.516 5.375-2.375 1.19-.58 2.269-1.39 3.5-1.875 1.363-.537 2.785-1.107 4.25-1.125.9-.011 2.361-.235 2.625.625.199.648-.757 1.22-1.375 1.5-1.67.757-3.7-.225-5.5.125-1.968.382-3.706 1.547-5.625 2.125-1.8.542-3.629 1.43-5.5 1.25-1.541-.148-3.158-.777-4.25-1.875-.737-.74-1.178-1.832-1.25-2.875-.074-1.08.192-2.286.875-3.125.859-1.055 2.265-1.838 3.625-1.875.913-.025 2.5 1.125 2.5 1.125m35-1.375s2.307.921 3 1.875c.606.834.746 1.97.75 3 .005 1.415-.073 3.056-1 4.125-.588.678-1.604.943-2.5 1-1.331.085-2.626-.532-3.875-1-1.309-.49-2.47-1.314-3.75-1.875-1.184-.519-2.337-1.275-3.625-1.375-.807-.063-1.747 1.01-2.375.5-.259-.21-.16-.707 0-1 .332-.609 1.06-1.056 1.75-1.125 1.024-.102 1.937.7 2.875 1.125 1.324.599 2.575 1.35 3.875 2 1.367.684 2.608 1.817 4.125 2 1.185.143 2.657.095 3.5-.75.993-.995 1.01-2.726.875-4.125-.112-1.17-.57-2.392-1.375-3.25-.574-.611-2.25-1.125-2.25-1.125m-28.875 14s2.664-.759 4-1.125c1.248-.342 2.456-1.004 3.75-1 1.425.004 2.73.836 4.125 1.125 1.154.239 2.349.753 3.5.5.824-.181 1.29-1.25 2.125-1.375 1.2-.179 2.399.49 3.5 1 .682.315 1.875 1.25 1.875 1.25s-1.862-.943-2.875-1c-1.322-.074-2.557.745-3.875.875-1.66.164-3.342.054-5-.125-1.097-.118-2.16-.457-3.25-.625-1.078-.166-2.162-.456-3.25-.375-1.119.083-2.138.728-3.25.875-.454.06-1.375 0-1.375 0" style="fill:#55a;fill-opacity:1;stroke:#55a;stroke-width:2;stroke-linecap:round;stroke-linejoin:round;stroke-miterlimit:4;stroke-opacity:1;stroke-dasharray:none;stroke-dashoffset:0" transform="rotate(180 180 526.181)"/><path d="M222.25 147.625s2.264 1.165 3.5 1.375c1.11.189 2.28.138 3.375-.125 1.25-.3 3.5-1.625 3.5-1.625m.875-44.75s3.289-2.474 5.125-3.375c1.502-.737 3.08-1.51 4.75-1.625 1.524-.105 3.035.439 4.5.875 1.164.347 2.2 1.068 3.375 1.375.975.255 3 .375 3 .375" style="fill:none;stroke:#55a;stroke-width:2;stroke-linecap:round;stroke-linejoin:round;stroke-miterlimit:4;stroke-opacity:1;stroke-dasharray:none;stroke-dashoffset:0" transform="rotate(180 180 526.181)"/><path d="M252.83 616.897s-2.889 2.508-4.586 3.343a11.5 11.5 0 0 1-3.87 1.133c-2.002.205-4.103.194-6.017-.486-1.15-.409-2.116-1.312-3.103-2.094-.701-.557-1.992-1.842-1.992-1.842s2.394-1.33 3.634-1.872c1.243-.542 2.49-1.17 3.803-1.376 1.914-.3 3.897-.233 5.776.227 2.243.548 6.356 2.967 6.356 2.967" style="fill:none;stroke:#55a;stroke-width:2;stroke-linecap:round;stroke-linejoin:round;stroke-miterlimit:4;stroke-opacity:1;stroke-dasharray:none;stroke-dashoffset:0" transform="rotate(180 180 782.362)"/><path d="M213.463 106.494a5.399 3.948 0 1 1-10.798 0 5.399 3.948 0 1 1 10.798 0" style="fill:none;stroke:#55a;stroke-width:2.22961283;stroke-linecap:round;stroke-linejoin:round;stroke-miterlimit:4;stroke-opacity:1;stroke-dasharray:none;stroke-dashoffset:0" transform="matrix(.87198 -.03712 -.0169 -.92206 -62.28 1053.177)"/><path d="M210.358 105.212a1.957 1.518 0 1 1-3.914 0 1.957 1.518 0 1 1 3.914 0" style="fill:#55a;fill-opacity:1;stroke:#55a;stroke-width:2.14214277;stroke-linecap:round;stroke-linejoin:round;stroke-miterlimit:4;stroke-opacity:1;stroke-dasharray:none;stroke-dashoffset:0" transform="matrix(.87198 -.03712 -.0183 -.9989 -62.139 1060.921)"/><path d="m215.75 109.875-5.125 4.5m25.125-2.875 5.125 3.75" style="fill:none;stroke:#55a;stroke-width:2;stroke-linecap:round;stroke-linejoin:round;stroke-miterlimit:4;stroke-opacity:1;stroke-dasharray:none;stroke-dashoffset:0" transform="rotate(180 180 526.181)"/><path d="M135.63 787.549c-.33-.641-.86-1.304-1.854-1.416-1.789-.201-3.16 1.255-3.383 3.242-.157 1.391.253 2.366.614 3.49.384 1.198 1.025 2.301 1.63 3.404.775 1.415 2.556 4.111 2.556 4.111s2.335-2.233 3.406-3.44c.835-.942 1.705-1.875 2.345-2.957.602-1.017 1.217-1.876 1.374-3.267.223-1.988-.79-3.712-2.58-3.913-.993-.112-1.656.418-2.12.97l-.177-.222.62-1.943c.311-.971 1.13-2.892 1.13-2.892-2.031.175-2.031.175-3.974-.446 0 0 .373 2.054.46 3.07l.174 2.032zm-3.953 25.227c-.27-.669-.735-1.378-1.714-1.581-1.763-.366-3.263.957-3.67 2.916-.283 1.37.034 2.378.29 3.532.271 1.228.808 2.385 1.308 3.54.642 1.48 2.166 4.33 2.166 4.33s2.531-2.009 3.709-3.112c.918-.86 1.87-1.709 2.608-2.727.693-.957 1.386-1.756 1.67-3.126.406-1.959-.444-3.77-2.207-4.135-.979-.203-1.688.263-2.202.77l-.155-.237.798-1.877c.399-.939 1.393-2.775 1.393-2.775-2.04-.015-2.04-.015-3.917-.813 0 0 .181 2.08.174 3.1l-.014 2.04zm-8.027 23.934c-.157-.704-.502-1.48-1.436-1.838-1.68-.646-3.374.417-4.091 2.284-.503 1.307-.352 2.353-.287 3.532.07 1.256.412 2.485.72 3.705.393 1.565 1.436 4.623 1.436 4.623s2.823-1.572 4.164-2.47c1.045-.7 2.122-1.384 3.015-2.27.838-.832 1.65-1.508 2.153-2.815.717-1.867.171-3.79-1.509-4.437-.933-.358-1.709-.014-2.297.403l-.115-.258 1.09-1.724c.546-.862 1.824-2.513 1.824-2.513-2.01-.344-2.01-.344-3.734-1.435 0 0-.158 2.082-.33 3.087l-.344 2.01zm-11.942 23.44c-.047-.72-.268-1.54-1.135-2.038-1.56-.898-3.398-.11-4.395 1.624-.698 1.214-.711 2.27-.83 3.446-.124 1.252.024 2.519.139 3.771.147 1.607.705 4.79.705 4.79s3.032-1.117 4.495-1.798c1.14-.53 2.31-1.039 3.33-1.776.957-.692 1.864-1.235 2.562-2.448.997-1.734.755-3.72-.805-4.617-.867-.498-1.686-.278-2.332.043l-.074-.273 1.345-1.534c.672-.767 2.189-2.202 2.189-2.202-1.933-.65-1.933-.65-3.467-1.994 0 0-.477 2.032-.803 2.999l-.65 1.933zm-13.99 19.758c.084-.716.016-1.562-.745-2.21-1.371-1.166-3.322-.726-4.618.797-.907 1.067-1.112 2.103-1.442 3.238-.351 1.208-.436 2.48-.55 3.733-.148 1.607-.179 4.838-.179 4.838s3.185-.547 4.748-.95c1.218-.313 2.46-.6 3.597-1.14 1.067-.507 2.057-.875 2.965-1.941 1.296-1.524 1.419-3.52.048-4.686-.762-.648-1.607-.58-2.3-.383l-.023-.282 1.6-1.264c.8-.631 2.554-1.766 2.554-1.766-1.783-.991-1.783-.991-3.046-2.592 0 0-.84 1.912-1.335 2.803L98 879.885zm154.457 9.286c-.004.721-.175 1.553-1.01 2.103-1.503.99-3.385.315-4.486-1.355-.77-1.169-.847-2.223-1.036-3.39-.2-1.241-.13-2.514-.09-3.772.049-1.613.413-4.824.413-4.824s3.094.932 4.596 1.522c1.17.46 2.369.897 3.43 1.572.998.633 1.936 1.12 2.707 2.288 1.1 1.67.979 3.667-.524 4.657-.835.55-1.666.38-2.33.099l-.057.277 1.434 1.45c.718.725 2.32 2.064 2.32 2.064-1.89.767-1.89.767-3.34 2.202 0 0-.6-2-.983-2.946l-.767-1.89zm-10.559-20.067c-.124.71-.43 1.501-1.345 1.905-1.647.727-3.39-.252-4.198-2.082-.566-1.28-.466-2.333-.459-3.514.008-1.258.29-2.502.537-3.735.317-1.582 1.21-4.688 1.21-4.688s2.896 1.433 4.28 2.265c1.077.648 2.186 1.278 3.121 2.12.879.79 1.723 1.425 2.288 2.706.808 1.83.357 3.778-1.29 4.505-.915.404-1.706.097-2.314-.29l-.102.264 1.173 1.668c.587.834 1.944 2.42 1.944 2.42-1.991.443-1.991.443-3.66 1.616 0 0-.258-2.071-.48-3.067l-.441-1.991zm-8.977-20.603c-.16.704-.505 1.478-1.44 1.836-1.68.643-3.373-.422-4.088-2.29-.5-1.308-.348-2.354-.28-3.533.07-1.256.415-2.484.723-3.703.396-1.565 1.444-4.622 1.444-4.622s2.82 1.577 4.16 2.477c1.044.702 2.12 1.387 3.012 2.274.837.833 1.648 1.51 2.149 2.818.715 1.868.166 3.791-1.515 4.434-.934.358-1.71.012-2.297-.405l-.116.258 1.089 1.725c.544.862 1.82 2.516 1.82 2.516-2.012.34-2.012.34-3.737 1.43 0 0-.154-2.083-.325-3.088l-.34-2.011zm-7.466-23.704c-.266.67-.727 1.383-1.705 1.592-1.76.375-3.268-.939-3.686-2.895-.292-1.369.02-2.379.268-3.533.265-1.23.795-2.39 1.288-3.548.633-1.484 2.14-4.342 2.14-4.342s2.544 1.993 3.728 3.09c.923.854 1.88 1.697 2.624 2.711.699.953 1.396 1.747 1.688 3.116.418 1.956-.422 3.772-2.182 4.148-.978.208-1.69-.253-2.207-.756l-.153.237.808 1.873c.405.936 1.41 2.766 1.41 2.766-2.04.027-2.04.027-3.913.836 0 0 .17-2.082.156-3.101l-.026-2.04zm-2.973-24.355c-.329.642-.856 1.307-1.849 1.422-1.788.208-3.164-1.243-3.395-3.23-.161-1.39.245-2.366.601-3.492.38-1.2 1.017-2.305 1.618-3.41.77-1.418 2.542-4.12 2.542-4.12s2.343 2.225 3.418 3.428c.838.939 1.711 1.868 2.356 2.948.605 1.015 1.224 1.872 1.385 3.262.23 1.987-.777 3.715-2.565 3.922-.993.116-1.658-.411-2.125-.961l-.176.222.628 1.94c.314.97 1.141 2.888 1.141 2.888-2.033-.167-2.033-.167-3.973.461 0 0 .365-2.056.448-3.072l.167-2.033z" style="fill:#fff;fill-opacity:1;stroke:none"/><path d="M179.435 764.724S170 772.362 170 782.362s8.87 17.827 8.87 17.827S190 792.362 190 782.362s-10.565-17.638-10.565-17.638" style="fill:#ff5;fill-opacity:1;stroke:#000;stroke-width:2;stroke-linecap:round;stroke-linejoin:round;stroke-miterlimit:4;stroke-opacity:1;stroke-dasharray:none"/><path d="M180.1 770.775s-5.665 3.535-5.665 12.301c0 6.316 5.1 10.982 5.1 10.982s6.607-5.23 6.607-11.547-6.042-11.736-6.042-11.736" style="fill:#ff5;fill-opacity:1;stroke:#000;stroke-width:2;stroke-linecap:round;stroke-linejoin:round;stroke-miterlimit:4;stroke-opacity:1;stroke-dasharray:none"/><path d="M180.1 776.411s-2.085 4.044-2.085 6.477c0 2.432 2.085 5.722 2.085 5.722s2.461-4.232 2.461-6.665-2.461-5.534-2.461-5.534" style="fill:#ff5;fill-opacity:1;stroke:#000;stroke-width:2;stroke-linecap:round;stroke-linejoin:round;stroke-miterlimit:4;stroke-opacity:1;stroke-dasharray:none"/><path d="M148 772.362v20h20s-3-5-3-10 3-10 3-10zm64 0v20h-20s3-5 3-10-3-10-3-10z" style="fill:#f55;fill-opacity:1;stroke:none"/><path d="M30 662.362v360h270" style="fill:none;stroke:#55a;stroke-width:2;stroke-miterlimit:4;stroke-opacity:1;stroke-dasharray:none"/><path d="M60 542.362h270v360" style="fill:none;stroke:#55a;stroke-width:2;stroke-linecap:butt;stroke-linejoin:miter;stroke-miterlimit:4;stroke-opacity:1;stroke-dasharray:none;stroke-dashoffset:0"/><path d="M249.105 900.901c15.22-5.602 30.137-12.176 44.281-20.093 12.856-7.195 25.382-15.028 36.614-24.754" style="fill:none;stroke:#55a;stroke-width:2;stroke-linecap:round;stroke-linejoin:round;stroke-miterlimit:4;stroke-opacity:1;stroke-dasharray:none;stroke-dashoffset:0"/><path d="M95 613.362c1 4 5 14 12 14 9 0 13-8 13-18 0-7-2.579-11.612-5-17-2.578-5.737-6.38-10.857-10-16-4.645-6.598-15-19-15-19s-10.355 12.402-15 19c-3.62 5.143-7.422 10.263-10 16-2.421 5.388-5 10-5 17 0 10 4 18 13 18 7 0 11-10 12-14 1-1 1 0 1 1-1 8-1 10-2 16s-4 17-4 17c5-2 15-2 20 0 0 0-3-11-4-17s-1-8-2-16c0-1 0-2 1-1m-62.5 17c.5 2 2.5 7 6 7 4.5 0 6.5-4 6.5-9 0-3.5-1.29-5.806-2.5-8.5-1.289-2.868-3.19-5.429-5-8-2.323-3.299-7.5-9.5-7.5-9.5s-5.177 6.201-7.5 9.5c-1.81 2.571-3.711 5.132-5 8-1.21 2.694-2.5 5-2.5 8.5 0 5 2 9 6.5 9 3.5 0 5.5-5 6-7 .5-.5.5 0 .5.5-.5 4-.5 5-1 8s-2 8.5-2 8.5c2.5-1 7.5-1 10 0 0 0-1.5-5.5-2-8.5s-.5-4-1-8c0-.5 0-1 .5-.5m232.5 321c-1-4-5-14-12-14-9 0-13 8-13 18 0 7 2.579 11.612 5 17 2.578 5.737 6.38 10.858 10 16 4.645 6.598 15 19 15 19s10.355-12.402 15-19c3.62-5.142 7.422-10.263 10-16 2.421-5.388 5-10 5-17 0-10-4-18-13-18-7 0-11 10-12 14-1 1-1 0-1-1 1-8 1-10 2-16s4-17 4-17c-5 2-15 2-20 0 0 0 3 11 4 17s1 8 2 16c0 1 0 2-1 1m62.5-17c-.5-2-2.5-7-6-7-4.5 0-6.5 4-6.5 9 0 3.5 1.29 5.806 2.5 8.5 1.289 2.869 3.19 5.429 5 8 2.323 3.3 7.5 9.5 7.5 9.5s5.177-6.2 7.5-9.5c1.81-2.571 3.711-5.131 5-8 1.21-2.694 2.5-5 2.5-8.5 0-5-2-9-6.5-9-3.5 0-5.5 5-6 7-.5.5-.5 0-.5-.5.5-4 .5-5 1-8s2-8.5 2-8.5c-2.5 1-7.5 1-10 0 0 0 1.5 5.5 2 8.5s.5 4 1 8c0 .5 0 1-.5.5" style="fill:#000;fill-opacity:1;stroke:none"/></g></svg>