<?xml version="1.0" encoding="UTF-8" standalone="no"?>
<svg
   width="100"
   height="100"
   version="1.1"
   id="svg1"
   xmlns="http://www.w3.org/2000/svg"
   xmlns:svg="http://www.w3.org/2000/svg">
  <defs
     id="defs1" />
  <g
     transform="translate(0,-512.362)"
     id="g1">
    <path
       d="m 58.333333,574.58422 c 3.333333,4.44444 11.666666,11.11111 20,11.11111 15.000001,0 21.666667,-8.88888 21.666667,-20 0,-11.1111 -6.666666,-21.11111 -21.666667,-21.11111 -8.333334,0 -13.333333,5.55556 -18.333333,8.88889 -1.666667,1.11112 -3.333334,0 -1.666667,-1.11111 5,-3.33333 13.333333,-12.22222 13.333333,-20 0,-8.88888 -8.333333,-20 -21.666666,-20 -13.333333,0 -21.666666,11.11112 -21.666666,20 0,7.77778 8.333333,16.66667 13.333333,20 1.666667,1.11111 0,2.22223 -1.666667,1.11111 -5,-3.33333 -10,-8.88889 -18.333334,-8.88889 C 6.6666667,544.58422 0,554.58423 0,565.69533 c 0,11.11112 6.6666667,20 21.666666,20 8.333334,0 16.666667,-6.66667 20.000001,-11.11111 1.666667,-1.1111 1.666667,0 1.666667,1.11111 -1.666667,8.88889 -1.666667,11.11112 -3.333334,17.77778 -1.666667,6.66667 -6.666667,18.88889 -6.666667,18.88889 8.333334,-2.22223 25,-2.22223 33.333334,0 0,0 -5.000001,-12.22222 -6.666667,-18.88889 -1.666667,-6.66666 -1.666667,-8.88889 -3.333334,-17.77778 0,-1.11111 0,-2.22221 1.666667,-1.11111"
       style="fill:#000000;fill-opacity:1;stroke:none;stroke-width:1.36083"
       id="path1" />
  </g>
</svg>
