<svg xmlns="http://www.w3.org/2000/svg" width="360" height="540"><g transform="translate(0 -512.362)"><rect width="359" height="539" x=".5" y="512.862" rx="29.944" ry="29.944" style="fill:#fff;stroke:#000;stroke-width:.99999976"/><g style="fill:#f55"><path d="m10 80-5 7v7l5-7v43h5V80z" style="fill:#f55;fill-opacity:1;stroke:none" transform="translate(5 462.362)"/><path d="M30 520c-5.54 0-10 4.46-10 10v30c0 5.54 4.46 10 10 10s10-4.46 10-10v-30c0-5.54-4.46-10-10-10m0 5c2.77 0 5 2.23 5 5v30c0 2.77-2.23 5-5 5s-5-2.23-5-5v-30c0-2.77 2.23-5 5-5" style="fill:#f55;fill-opacity:1;stroke:none" transform="translate(5 22.362)"/></g><g style="fill:#f55"><path d="m10 80-5 7v7l5-7v43h5V80z" style="fill:#f55;fill-opacity:1;stroke:none" transform="rotate(180 177.5 551.181)"/><path d="M30 520c-5.54 0-10 4.46-10 10v30c0 5.54 4.46 10 10 10s10-4.46 10-10v-30c0-5.54-4.46-10-10-10m0 5c2.77 0 5 2.23 5 5v30c0 2.77-2.23 5-5 5s-5-2.23-5-5v-30c0-2.77 2.23-5 5-5" style="fill:#f55;fill-opacity:1;stroke:none" transform="rotate(180 177.5 771.181)"/></g><path d="M29.5 611.362c0-5.523-2.858-9-7-9s-7.5 4.477-7.5 10c.017.478.01.946 0 1.406 0 3.65 1.338 7.189 2.5 10.5 1.195 3.406 2.917 6.39 4.531 9.438 2.5 4.72 7.969 13.656 7.969 13.656s5.468-8.936 7.969-13.656c1.614-3.047 3.336-6.032 4.531-9.438 1.162-3.311 2.5-6.85 2.5-10.5a28 28 0 0 1 0-1.406c0-5.523-3.358-10-7.5-10s-7 3.477-7 9c0 1-1 1-1 0m300 342c0 5.523-2.858 9-7 9s-7.5-4.477-7.5-10c.017-.478.009-.945 0-1.406 0-3.65 1.338-7.188 2.5-10.5 1.195-3.406 2.917-6.39 4.531-9.438 2.5-4.72 7.969-13.656 7.969-13.656s5.468 8.937 7.969 13.656c1.614 3.048 3.336 6.032 4.531 9.438 1.162 3.312 2.5 6.85 2.5 10.5-.014.487-.009.957 0 1.406 0 5.523-3.358 10-7.5 10s-7-3.477-7-9c0-1-1-1-1 0m-240.5-378c0-11.046-5.716-18-14-18s-15 8.954-15 20c.035.956.018 1.891 0 2.813 0 7.298 2.677 14.377 5 21 2.389 6.81 5.834 12.78 9.063 18.875 5 9.44 15.937 27.312 15.937 27.312s10.936-17.873 15.938-27.312c3.228-6.095 6.673-12.064 9.062-18.875 2.323-6.623 5-13.702 5-21a56 56 0 0 1 0-2.813c0-11.046-6.716-20-15-20s-14 6.954-14 18c0 2-2 2-2 0m180 0c0-11.046-5.716-18-14-18s-15 8.954-15 20c.035.956.018 1.891 0 2.813 0 7.298 2.677 14.377 5 21 2.389 6.81 5.834 12.78 9.063 18.875 5 9.44 15.937 27.312 15.937 27.312s10.936-17.873 15.938-27.312c3.228-6.095 6.673-12.064 9.062-18.875 2.323-6.623 5-13.702 5-21a56 56 0 0 1 0-2.813c0-11.046-6.716-20-15-20s-14 6.954-14 18c0 2-2 2-2 0m-90 60c0-11.046-5.716-18-14-18s-15 8.954-15 20c.035.956.018 1.891 0 2.813 0 7.298 2.677 14.377 5 21 2.389 6.81 5.834 12.78 9.063 18.875 5 9.44 15.937 27.312 15.937 27.312s10.936-17.873 15.938-27.312c3.228-6.095 6.673-12.064 9.062-18.875 2.323-6.623 5-13.702 5-21a56 56 0 0 1 0-2.813c0-11.046-6.716-20-15-20s-14 6.954-14 18c0 2-2 2-2 0m-90 60c0-11.046-5.716-18-14-18s-15 8.954-15 20c.035.956.018 1.891 0 2.813 0 7.298 2.677 14.377 5 21 2.389 6.81 5.834 12.78 9.063 18.875 5 9.44 15.937 27.312 15.937 27.312s10.936-17.873 15.938-27.312c3.228-6.095 6.673-12.064 9.062-18.875 2.323-6.623 5-13.702 5-21a56 56 0 0 1 0-2.813c0-11.046-6.716-20-15-20s-14 6.954-14 18c0 2-2 2-2 0m180 0c0-11.046-5.716-18-14-18s-15 8.954-15 20c.035.956.018 1.891 0 2.813 0 7.298 2.677 14.377 5 21 2.389 6.81 5.834 12.78 9.063 18.875 5 9.44 15.937 27.312 15.937 27.312s10.936-17.873 15.938-27.312c3.228-6.095 6.673-12.064 9.062-18.875 2.323-6.623 5-13.702 5-21a56 56 0 0 1 0-2.813c0-11.046-6.716-20-15-20s-14 6.954-14 18c0 2-2 2-2 0m-180 174c0 11.046-5.716 18-14 18s-15-8.954-15-20c.035-.955.018-1.891 0-2.812 0-7.299 2.677-14.377 5-21 2.389-6.811 5.834-12.781 9.063-18.875 5-9.44 15.937-27.313 15.937-27.313s10.936 17.873 15.938 27.313c3.228 6.094 6.673 12.064 9.062 18.875 2.323 6.623 5 13.701 5 21a56 56 0 0 0 0 2.812c0 11.046-6.716 20-15 20s-14-6.954-14-18c0-2-2-2-2 0m180 0c0 11.046-5.716 18-14 18s-15-8.954-15-20c.035-.955.018-1.891 0-2.812 0-7.299 2.677-14.377 5-21 2.389-6.811 5.834-12.781 9.063-18.875 5-9.44 15.937-27.313 15.937-27.313s10.936 17.873 15.938 27.313c3.228 6.094 6.673 12.064 9.062 18.875 2.323 6.623 5 13.701 5 21a56 56 0 0 0 0 2.812c0 11.046-6.716 20-15 20s-14-6.954-14-18c0-2-2-2-2 0m-90 60c0 11.046-5.716 18-14 18s-15-8.954-15-20c.035-.955.018-1.891 0-2.812 0-7.299 2.677-14.377 5-21 2.389-6.811 5.834-12.781 9.063-18.875 5-9.44 15.937-27.313 15.937-27.313s10.936 17.873 15.938 27.313c3.228 6.094 6.673 12.064 9.062 18.875 2.323 6.623 5 13.701 5 21a56 56 0 0 0 0 2.812c0 11.046-6.716 20-15 20s-14-6.954-14-18c0-2-2-2-2 0m-90 60c0 11.046-5.716 18-14 18s-15-8.954-15-20c.035-.955.018-1.891 0-2.812 0-7.299 2.677-14.377 5-21 2.389-6.811 5.834-12.781 9.063-18.875 5-9.44 15.937-27.313 15.937-27.313s10.936 17.873 15.938 27.313c3.228 6.094 6.673 12.064 9.062 18.875 2.323 6.623 5 13.701 5 21a56 56 0 0 0 0 2.812c0 11.046-6.716 20-15 20s-14-6.954-14-18c0-2-2-2-2 0m180 0c0 11.046-5.716 18-14 18s-15-8.954-15-20c.035-.955.018-1.891 0-2.812 0-7.299 2.677-14.377 5-21 2.389-6.811 5.834-12.781 9.063-18.875 5-9.44 15.937-27.313 15.937-27.313s10.936 17.873 15.938 27.313c3.228 6.094 6.673 12.064 9.062 18.875 2.323 6.623 5 13.701 5 21a56 56 0 0 0 0 2.812c0 11.046-6.716 20-15 20s-14-6.954-14-18c0-2-2-2-2 0" style="fill:#f55;fill-opacity:1;stroke:none"/></g></svg>