<svg xmlns="http://www.w3.org/2000/svg" width="360" height="540"><g transform="translate(0 -512.362)"><rect width="359" height="539" x=".5" y="512.862" rx="29.944" ry="29.944" style="fill:#fff;stroke:#000;stroke-width:.99999976"/><path d="M30 542.362v5h5v35a5 5 0 0 1-10 0v-5h-5v5c0 5.523 4.477 10 10 10s10-4.477 10-10v-40zm300 480v-5h-5v-35a5 5 0 0 1 10 0v5h5v-5c0-5.523-4.477-10-10-10s-10 4.477-10 10v40z" style="fill:#f55;fill-opacity:1;stroke:none"/><path d="M60 542.362h270v360" style="fill:none;stroke:#55a;stroke-width:2;stroke-linecap:butt;stroke-linejoin:miter;stroke-miterlimit:4;stroke-opacity:1;stroke-dasharray:none;stroke-dashoffset:0"/><path d="M30 662.362v360h270" style="fill:none;stroke:#55a;stroke-width:2;stroke-miterlimit:4;stroke-opacity:1;stroke-dasharray:none"/><path d="m30 858.4 48.981 30.981" style="fill:none;stroke:#55a;stroke-width:2;stroke-linecap:round;stroke-linejoin:round;stroke-miterlimit:4;stroke-dasharray:none"/><path d="m30 851.018 52.69 33.818M30 843.636l52.036 33.382M30 836.254l36.763 23.782M30 828.873 58.254 847.2M30 821.49l23.454 15.492M30 814.11l19.309 11.999" style="fill:none;stroke:#55a;stroke-width:2;stroke-linecap:round;stroke-linejoin:round;stroke-miterlimit:4;stroke-opacity:1;stroke-dasharray:none;stroke-dashoffset:0"/><path d="m32.727 295.856 13.527 9.164m-8.291-12.873 7.855 5.454" style="fill:none;stroke:#55a;stroke-width:2;stroke-linecap:round;stroke-linejoin:round;stroke-miterlimit:4;stroke-opacity:1;stroke-dasharray:none;stroke-dashoffset:0" transform="translate(0 512.362)"/><path d="M130.175 659.374c-5.805 3.46-11.672 6.817-17.415 10.379-9.192 5.701-18.364 11.448-27.267 17.59-6.834 4.717-13.607 9.544-20.054 14.778-6.938 5.633-13.443 11.785-20 17.859-5.235 4.848-10.293 9.886-15.439 14.83v74.969c4.718-2.932 8.713-5.286 13.431-8.217 1.349 6.684 2.217 13.611 4.19 20.198 2.229 7.433 5.078 14.717 8.59 21.637 2.882 5.683 6.403 11.046 10.17 16.184 2.776 3.785 6.033 7.193 9.117 10.73 3.53 4.05 6.873 8.202 10.743 12.013l52.906-70.082 7.564-.176 9.851-20.582 16.494.145-.47-18.434-16.288-.113-.264-20.826 18.966.106c-1.935-8.326-3.922-17.342-6.652-25.79-2.575-7.968-5.444-15.886-9.147-23.396-4.363-8.848-9.806-17.14-15.305-25.331-4.274-6.368-9.147-12.314-13.72-18.471" style="fill:#000;stroke:none"/><path d="M193.683 572.889s10.71 1.181 16.046 1.926c4.72.658 9.435 1.38 14.121 2.246 6.881 1.272 20.54 4.333 20.54 4.333s1.11 9.102 1.765 13.64a571 571 0 0 0 2.407 15.083c.7 4.074 1.017 8.25 2.247 12.196 1.204 3.862 2.44 7.918 4.974 11.072 1.628 2.026 6.258 4.653 6.258 4.653s1.698-2.313 2.889-3.049c1.569-.969 3.451-1.576 5.295-1.604 2.05-.031 4.09.716 5.937 1.604 1.794.863 3.61 1.946 4.814 3.53 1.28 1.685 2.018 3.834 2.247 5.938.24 2.203-.234 4.486-.963 6.579-.772 2.218-1.872 4.434-3.53 6.098-1.574 1.579-3.668 2.646-5.777 3.37-2.297.787-4.793.997-7.22.962a23.7 23.7 0 0 1-6.9-1.123 31 31 0 0 1-8.345-4.172c-1.822-1.29-3.334-2.984-4.814-4.654-1.47-1.657-4.012-5.295-4.012-5.295l-64.026.32s7.849-5.606 11.072-9.146c3.267-3.586 6.118-7.645 8.184-12.035 2.206-4.686 3.539-9.804 4.333-14.923.648-4.177.695-8.466.32-12.677-.352-3.97-1.236-7.903-2.406-11.714-1.394-4.539-5.456-13.158-5.456-13.158" style="fill:#ff5;fill-opacity:1;stroke:none"/><path d="m140.451 654.56 6.767-2.76 98.579 1.664 4.172 3.447-10.159 12.516h-96.323l-3.628-5.986-4.7-6.27z" style="fill:#000;fill-opacity:1;stroke:none"/><path d="m330 567.362-.5 122.5-18.5-12-1-97.818z" style="fill:#f55;fill-opacity:1;stroke:none"/><path d="m109.47 542.362 28.53 36s10.763-2.848 16.244-3.782c6.724-1.145 13.522-2.066 20.341-2.218 10.702-.238 21.425.738 32.048 2.057 12.62 1.567 37.514 6.943 37.514 6.943l27.94-39z" style="fill:#f55;fill-opacity:1;stroke:#55a;stroke-width:2;stroke-linecap:round;stroke-linejoin:round;stroke-miterlimit:4;stroke-opacity:1;stroke-dasharray:none;stroke-dashoffset:0"/><path d="m125.565 543.844 17.582 26.32c7.041-2.252 11.53-2.976 20.506-3.903l-4.488-22.417h-6.217l5.556 18.883c-5.566.742-7.465.843-12.679 2.298l-13.116-21.18zm43.257 0 4.326 21.706c10.935-.935 19.395-.597 30.33.606l5.239-22.312h-7.011l-3.717 17.638c-8.592-1.088-12.713-.88-19.927-.4l-2.925-17.238zm50.531 0-7.322 23.613c7.982.611 18.22 3.972 26.905 5.88l15.658-29.493h-6.879l-11.78 24.575c-4.85-1.219-12.525-3.63-17.375-4.248l6.746-20.327z" style="fill:#fff;fill-opacity:1;stroke:#fff;stroke-width:2;stroke-linecap:round;stroke-linejoin:round;stroke-miterlimit:4;stroke-opacity:1;stroke-dasharray:none;stroke-dashoffset:0"/><path d="M194.342 573.886c2.05 5.877 5.044 11.506 6.15 17.63 1.118 6.189 1.192 12.621.41 18.86-.634 5.068-2.058 10.08-4.1 14.761-1.668 3.824-3.833 7.502-6.56 10.66-3.614 4.185-7.99 7.78-12.71 10.66-2.828 1.726-5.989 2.901-9.163 3.85-3.166.948-6.446 1.666-9.748 1.81-3.867.167-8.421 1.143-11.56-1.125-1.019-.737-1.333-2.208-1.524-3.452-.185-1.197.389-2.4.401-3.612.01-.886.018-1.8-.24-2.649-.277-.905-.702-1.814-1.365-2.488-.605-.616-1.903-.494-2.248-1.285-.33-.755-.051-1.857.562-2.408.983-.883 2.62-.349 3.933-.482 1.336-.135 2.684-.502 4.014-.32 1.694.23 3.147 1.205 4.816 1.765.117-.715-1.328-2.186-1.926-2.97-.678.547-2.021.501-3.05.642-1.223.168-2.464.14-3.693.241-1.072.089-2.135.327-3.211.321-.97-.005-2.095.234-2.89-.32-.49-.343-.79-1.008-.803-1.606-.012-.527.411-.972.642-1.445.4-.818 1.108-1.516 1.285-2.408.313-1.583.265-3.386-.482-4.817-.685-1.312-2.066-2.191-3.371-2.89-1.569-.84-3.479-.803-5.138-1.445-1.116-.431-2.707-.52-3.21-1.605-.858-1.849.726-4.033 1.444-5.94 1.425-3.786 3.91-7.09 5.62-10.757 1.246-2.676 2.695-5.315 3.37-8.188.345-1.462.58-3.015.322-4.495-.34-1.96-1.936-3.527-2.408-5.46-.395-1.614-.214-3.317-.321-4.976" style="fill:none;stroke:#55a;stroke-width:2;stroke-linecap:round;stroke-linejoin:round;stroke-miterlimit:4;stroke-opacity:1;stroke-dasharray:none;stroke-dashoffset:0"/><path d="M174.387 593.965c-4.516-3.515-8.612-6.172-13.403-8.356-3.098-1.413-6.338-2.968-9.766-3-2.152-.019-6.19.955-6.203 1.772-.006.41.808.621 1.298.732 2.273.514 4.685-.692 7.009-.447 2.82.297 5.535 1.237 8.15 2.3 4.537 1.842 9.291 4.228 12.915 6.999" style="fill:#55a;fill-opacity:1;stroke:#55a;stroke-width:2;stroke-linecap:round;stroke-linejoin:round;stroke-miterlimit:4;stroke-opacity:1;stroke-dasharray:none;stroke-dashoffset:0"/><path d="M145.5 591.612c1 .417 1.986.553 3 .52 1.456-.046 2.797-.914 4.25-1.02 2.754-.2 5.573.073 8.25.75 2.461.623 4.777 1.775 7 3 1.417.781 2.667 1.834 4 2.75m-24.267-3.194c1.314.292 2.6.766 3.942.876 1.749.143 3.508-.454 5.255-.292 2.245.207 4.526.655 6.57 1.606 2.841 1.321 5.06 3.698 7.59 5.547" style="fill:none;stroke:#55a;stroke-width:2;stroke-linecap:round;stroke-linejoin:round;stroke-miterlimit:4;stroke-opacity:1;stroke-dasharray:none;stroke-dashoffset:0"/><path d="M148.901 596.024c.098 1.167-.225 2.451.292 3.503.669 1.36 2 2.393 3.358 3.066 1.462.724 3.186.94 4.817.876 1.71-.068 3.382-.66 4.964-1.314.987-.408 1.766-1.249 2.773-1.606.882-.313 1.85-.292 2.774-.438" style="fill:none;stroke:#55a;stroke-width:2;stroke-linecap:round;stroke-linejoin:round;stroke-miterlimit:4;stroke-opacity:1;stroke-dasharray:none;stroke-dashoffset:0"/><path d="M156.638 596.024c.292 1.07.919 2.102.876 3.211a3.7 3.7 0 0 1-.73 2.044c-.504.668-1.362.973-2.043 1.46" style="fill:none;stroke:#55a;stroke-width:2;stroke-linecap:round;stroke-linejoin:round;stroke-miterlimit:4;stroke-opacity:1;stroke-dasharray:none;stroke-dashoffset:0"/><path d="M152.405 600.257c.791.039 1.53-.963 1.606-1.752.07-.74-.429-1.826-1.168-1.898-.857-.083-1.708 1.038-1.752 1.898-.037.73.585 1.716 1.314 1.752" style="fill:#55a;stroke:#55a;stroke-width:2;stroke-linecap:round;stroke-linejoin:round;stroke-miterlimit:4;stroke-opacity:1;stroke-dasharray:none;stroke-dashoffset:0"/><path d="M149.193 602.447c1.314 1.216 2.52 2.562 3.942 3.65 1.094.836 2.254 1.61 3.503 2.189 1.16.537 2.433.779 3.65 1.168" style="fill:none;stroke:#55a;stroke-width:2;stroke-linecap:round;stroke-linejoin:round;stroke-miterlimit:4;stroke-opacity:1;stroke-dasharray:none;stroke-dashoffset:0"/><path d="M150.799 612.665c.584.876 1.545 1.596 1.752 2.628.204 1.02-.092 2.156-.597 3.066-.46.827-1.182 1.63-2.078 1.932-.928.312-1.999.03-2.924-.292-1.127-.392-1.95-1.391-3.014-1.932-.838-.426-1.693-.922-2.628-1.022-.588-.063-1.16.286-1.752.279-.533-.006-1.164.052-1.575-.288-.36-.297-.716-.888-.507-1.305.32-.638 1.352-.609 2.065-.57 1.312.069 2.513.818 3.667 1.446 1.103.6 1.938 1.637 3.066 2.19.86.422 1.815 1.01 2.756.824 1.112-.22 2.07-1.16 2.645-2.138.383-.653.493-1.488.386-2.237-.135-.948-.97-1.656-1.262-2.58m12.262 7.299c1.8.68 3.826 1.223 5.209 2.269 1.082.819 1.391 2.425 1.215 3.716-.214 1.564-1.337 3.032-2.628 3.941-1.148.81-2.684.973-4.087 1.022-1.68.06-3.34-.446-4.964-.876-1.398-.37-2.691-1.08-4.087-1.46-1.004-.273-2.026-.618-3.066-.583-1.156.038-2.241 1.178-3.358.875-.73-.198-1.574-.849-1.605-1.605-.035-.828.873-1.511 1.605-1.898 1.255-.663 2.833-.66 4.234-.438 1.42.226 2.633 1.156 3.941 1.752 1.466.668 2.827 1.617 4.38 2.043 1.415.39 2.935.698 4.38.438 1.296-.232 2.761-.681 3.55-1.736.752-1.006.979-2.508.631-3.714-.278-.968-1.199-1.658-2.011-2.252-.984-.72-2.365-.91-3.339-1.494" style="fill:#55a;stroke:#55a;stroke-width:2;stroke-linecap:round;stroke-linejoin:round;stroke-miterlimit:4;stroke-opacity:1;stroke-dasharray:none;stroke-dashoffset:0"/><path d="m287.5 663.862 42.5 27.5v9.5l-47.5-31.5z" style="fill:#ff5;fill-opacity:1;stroke:#55a;stroke-width:2;stroke-linecap:round;stroke-linejoin:round;stroke-miterlimit:4;stroke-dasharray:none"/><path d="M284.5 562.362c-3.833 6.334-8.34 11.498-10.616 18.116-1.956 5.687-2.65 11.876-2.384 17.884.303 6.827 1.709 13.763 4.5 20 2.343 5.235 6.667 9.334 10 14 1.5-4.833 2.166-10.01 4.5-14.5 2.137-4.111 5.176-7.771 8.5-11 1.626-1.58 3.667-2.666 5.5-4l-1-14.5c-3-1.833-6.388-3.147-9-5.5a29.4 29.4 0 0 1-6.5-8.5c-1.88-3.718-2.333-8-3.5-12" style="fill:#ff5;fill-opacity:1;stroke:#55a;stroke-width:2;stroke-linecap:round;stroke-linejoin:round;stroke-miterlimit:4;stroke-opacity:1;stroke-dasharray:none;stroke-dashoffset:0"/><path d="M284.737 562.594s-4.125 11.68-4.237 17.768c-.062 3.399 2 10 2 10l-10.5 7 10.5 8s-1.863 7.651-1.5 11.5c.525 5.56 5.237 15.914 5.237 15.914s1.67-10.387 3.97-15.03c1.721-3.474 4.53-6.315 7.147-9.177 2.045-2.237 6.646-6.207 6.646-6.207v-15.5s-7.58-2.837-10.5-5.5c-2.493-2.274-4.06-5.448-5.5-8.5-1.533-3.247-3.263-10.268-3.263-10.268m-10.987 34.863 30.25-.22m-21.5-6.5 20.5-.375m-21.862-7.25h14.996m-14.561-7.542 7.625-.126m-7.073 29.418 19.134-.302M282 612.487l11.362-.302m-10.737 6.802 6.655-.021" style="fill:#ff5;fill-opacity:1;stroke:#55a;stroke-width:2;stroke-linecap:round;stroke-linejoin:round;stroke-miterlimit:4;stroke-opacity:1;stroke-dasharray:none;stroke-dashoffset:0"/><path d="m330 558.362-26 17.5v98.5l6 3.7v-97.7l20-13z" style="fill:#ff5;fill-opacity:1;stroke:#55a;stroke-width:2;stroke-linecap:round;stroke-linejoin:round;stroke-miterlimit:4;stroke-opacity:1;stroke-dasharray:none;stroke-dashoffset:0"/><path d="m242.813 649.582 3.207 3.864-88.506-.129s4.297-.474 6.414-.898c1.82-.364 3.616-.855 5.387-1.41 1.304-.41 3.848-1.411 3.848-1.411zm-99.512 19.845 96.872-.362-3.81 4.716-89.61.363zm23.949-13.967v11.61l12.699.18-.182-11.79zm29.025.362-.182 11.429h13.06l-.18-11.61zm28.116 0v11.247h11.791l-.18-11.61zm-85.698-.362h13.501l-.181 11.79-9.796.363s-1.762-2.936-2.72-4.353c-1.389-2.052-4.386-6.002-4.386-6.002z" style="fill:#ff5;fill-opacity:1;stroke:none"/><path d="M148.943 661.348a3 3 0 1 1-6 0 3 3 0 0 1 6 0zm27.754-.091a3 3 0 1 1-6 0 3 3 0 0 1 6 0zm28.661.182a3 3 0 1 1-6 0 3 3 0 0 1 6 0zm28.117-.544a3 3 0 1 1-6 0 3 3 0 0 1 6 0z" style="fill:#ff5;fill-opacity:1;stroke:#000;stroke-width:2;stroke-miterlimit:4"/><path d="M163.548 661.755a3.5 3.5 0 1 1-7 0 3.5 3.5 0 0 1 7 0m28.064-.309a3.5 3.5 0 1 1-7 0 3.5 3.5 0 0 1 7 0m29.024.181a3.5 3.5 0 1 1-7 0 3.5 3.5 0 0 1 7 0m26.121-.725-3.681 4.225c-1.27 1.458-2.775-1.385-2.775-3.318a3.5 3.5 0 0 1 3.5-3.5c1.933 0 4.226 1.135 2.956 2.593" style="fill:#ff5;fill-opacity:1;stroke:none"/><path d="m147.493 674.207 89.106-.379-55.739 78.489s-3.38-15.702-5.877-23.32c-2.87-8.753-6.468-17.275-10.427-25.593-2.881-6.053-6.25-11.866-9.67-17.632-2.333-3.936-7.393-11.565-7.393-11.565" style="fill:#55a;fill-opacity:1;stroke:none"/><path d="m166.726 684.54 46.749-.165-28.748 38.865s-2.274-8.018-3.72-11.92a116 116 0 0 0-4.833-11.207c-1.62-3.269-3.456-6.432-5.373-9.536-1.277-2.065-4.075-6.037-4.075-6.037" style="fill:#fff;fill-opacity:1;stroke:none"/><path d="M130.056 659.539c4.045 5.245 9.738 11.985 14.03 18.39a232 232 0 0 1 14.408 24.646c3.684 7.306 7.05 14.81 9.67 22.56 2.898 8.583 4.36 17.316 6.635 26.353 1.517.127 4.17.063 5.687.19-.758-3.602-1.596-6.837-2.464-10.238-1.62-6.342-2.971-12.775-5.119-18.959-2.369-6.82-5.418-13.393-8.531-19.906-3.146-6.58-6.458-13.1-10.238-19.338-3.062-5.052-6.594-9.806-10.048-14.598-2.946-4.087-6.636-8.652-9.1-12.065-1.201.759-3.729 2.206-4.93 2.965" style="fill:#ff5;fill-opacity:1;stroke:#000;stroke-width:2;stroke-linecap:round;stroke-linejoin:round;stroke-miterlimit:4;stroke-opacity:1;stroke-dasharray:none;stroke-dashoffset:0"/><path d="m173.839 687.97 31.68-.11-19.481 25.91s-1.541-5.345-2.521-7.947a77 77 0 0 0-3.275-7.471c-1.098-2.18-2.342-4.288-3.642-6.357-.865-1.377-2.761-4.025-2.761-4.025" style="fill:#55a;fill-opacity:1;stroke:none"/><path d="m254.912 659.388 5.657 1.414 7.955.177 6.01-1.591 4.066-2.652 9.9 6.126-67.297 89.687-33.643-.53z" style="fill:#000;fill-opacity:1;stroke:none"/><path d="M271.031 662.487c-.847-.029-1.454.997-1.844 1.75-1.512 2.926.803 7.338-1.406 9.781-4.463 4.937-13.711 1.319-19.375 4.813a3.9 3.9 0 0 0-1.5 1.75c-3.214 7.486 2.996 18.298-2.5 24.312-4.037 4.42-12.406.506-17.625 3.438-.7.394-1.3 1.046-1.625 1.781-3.115 7.042 2.81 17.115-2.156 23-3.52 4.172-10.986 1.703-15.812 4.25a3.9 3.9 0 0 0-1.313 1.125c-1.94 2.64-3.761 5.758-3.875 9.031-.034.978.07 2.381.967 2.772s1.998-.485 2.69-1.178c2.084-2.091 1.296-6.195 3.53-8.125 4.23-3.653 11.464-1.388 16.188-4.375a3.87 3.87 0 0 0 1.469-1.719c2.99-7.062-2.993-17.222 2.156-22.906 4.018-4.436 12.394-.528 17.625-3.437a3.9 3.9 0 0 0 1.625-1.75c3.377-7.46-2.869-18.255 2.5-24.438 4.348-5.007 13.62-1.378 19.313-4.781a3.9 3.9 0 0 0 1.5-1.656c1.592-3.391 2.702-7.547 1.593-11.125-.31-1-1.079-2.277-2.125-2.313" style="font-size:medium;font-style:normal;font-variant:normal;font-weight:400;font-stretch:normal;text-indent:0;text-align:start;text-decoration:none;line-height:normal;letter-spacing:normal;word-spacing:normal;text-transform:none;direction:ltr;block-progression:tb;writing-mode:lr-tb;text-anchor:start;baseline-shift:baseline;color:#000;fill:#ff5;fill-opacity:1;stroke:none;stroke-width:4;marker:none;visibility:visible;display:inline;overflow:visible;font-family:Sans;-inkscape-font-specification:Sans"/><path d="M262.478 668.934a3.5 3.5 0 1 1-7 0 3.5 3.5 0 0 1 7 0m-1.945 19.976a3.5 3.5 0 1 1-7 0 3.5 3.5 0 0 1 7 0m-20.506 8.838a3.5 3.5 0 1 1-7 0 3.5 3.5 0 0 1 7 0m-.884 21.213a3.5 3.5 0 1 1-7 0 3.5 3.5 0 0 1 7 0m-20.683 8.309a3.5 3.5 0 1 1-7 0 3.5 3.5 0 0 1 7 0m.884 19.622a3.5 3.5 0 1 1-7 0 3.5 3.5 0 0 1 7 0" style="fill:#ff5;fill-opacity:1;stroke:none"/><path d="m249.496 655.937-69.2 95.93h7.584l66.924-92.707z" style="fill:#f55;fill-opacity:1;stroke:#000;stroke-width:2;stroke-linecap:round;stroke-linejoin:round;stroke-miterlimit:4;stroke-dasharray:none"/><path d="M244.158 581.676c1.485 7.569 2.487 15.22 3.783 22.821 1.074 6.296 1.281 12.817 3.31 18.873 1.259 3.76 2.939 7.494 5.416 10.59 1.332 1.665 3.233 2.78 4.916 4.092" style="fill:none;stroke:#55a;stroke-width:2;stroke-linecap:round;stroke-linejoin:round;stroke-miterlimit:4;stroke-opacity:1;stroke-dasharray:none;stroke-dashoffset:0"/><path d="M237.393 580.856c1.589 9.428 2.948 18.175 4.632 27.225 1.094 5.876 1.532 11.95 3.554 17.575 2.162 6.012 4.53 12.375 9.034 16.906 3.14 3.159 7.294 6.311 11.748 6.367 1.794.022 4.53-.672 4.794-2.446.22-1.474-2.114-2.783-3.217-3.1" style="fill:none;stroke:#55a;stroke-width:2;stroke-linecap:round;stroke-linejoin:round;stroke-miterlimit:4;stroke-opacity:1;stroke-dasharray:none;stroke-dashoffset:0"/><path d="M230.218 579.011c2.201 7.156 3.21 14.585 4.51 21.936 1.385 7.832 1.184 15.994 3.503 23.602 2.27 7.442 4.814 15.305 10.036 21.072 4.076 4.502 9.54 8.937 15.594 9.425 4.3.347 9.91-1.063 12.006-4.835 1.824-3.282 1.44-9.475-1.947-11.094-2.267-1.084-7.964-1.569-6.597 3.65" style="fill:none;stroke:#55a;stroke-width:2;stroke-linecap:round;stroke-linejoin:round;stroke-miterlimit:4;stroke-opacity:1;stroke-dasharray:none;stroke-dashoffset:0"/><path d="M223.658 578.191c2.036 5.835 2.688 12.013 3.966 18.034 2.681 12.64 3.145 25.91 7.764 37.976 2.315 6.048 5.439 11.99 9.812 16.766 3.635 3.969 7.907 8.198 13.164 9.345 6.78 1.48 15.66 1.134 20.454-3.885 4.094-4.285 5.912-12.745 2.514-17.601-3.363-4.805-12.427-7.012-17.217-3.629-3.093 2.185-2.84 7.716-1.507 11.26.416 1.104 1.78 1.71 2.665 2.327m-48.38-72.028c1.825 5.6 3.171 11.346 4.329 17.116 2.194 10.939 1.93 22.36 4.943 33.103 1.843 6.57 5.026 13.225 7.948 18.867m-24.805-70.521c1.82 5.25 3.208 10.65 4.332 16.09 1.907 9.232 2.698 18.533 4.073 27.987 1.351 9.294 5.415 18.33 9.84 26.4m-26.241-71.297c2.2 4.83 3.928 9.869 5.233 15.001 2.977 11.702 3.153 23.98 5.861 35.747 1.056 4.583 2.266 9.163 4.036 13.52 1.085 2.673 2.787 5.406 4.007 7.67m-19.414-51.642c1.063 7 1.836 14.09 3.168 21.066 1.248 6.54 2.555 13.093 4.514 19.455 1.108 3.595 2.86 6.96 4.076 10.524m-14.146-24.805c.964 5.367 1.883 10.77 3.408 16.009.896 3.075 2.192 6.019 3.358 9.001m-11.686-14.145c.684 4.964 1.997 9.883 4.305 14.35m-9.02-8.2c.571 2.753 1.197 5.56 2.665 7.995m-8.049-3.182c.418 1.254.521 2.635 1.507 3.708" style="fill:none;stroke:#55a;stroke-width:2;stroke-linecap:round;stroke-linejoin:round;stroke-miterlimit:4;stroke-opacity:1;stroke-dasharray:none;stroke-dashoffset:0"/><path d="m179.742 646.283 60.556-.154 2.565 3.536-69.748-.01z" style="fill:#000;fill-opacity:1;stroke:none"/><path d="m310 588.809 20-13m-20 21.042 20-13m-20 21.043 20-13m-20 21.042 20-13m-20 21.043 20-13m-20 21.043 20-13m-20 21.042 20-13m-20 21.043 20-13m-20 21.043 20-13m-20 21.042 20-13m-20 21.042 20-13m-20 21.043 20-13m-14 17.043 14-9m-8 13.042 8-5" style="fill:none;stroke:#55a;stroke-width:2;stroke-linecap:round;stroke-linejoin:round;stroke-miterlimit:4;stroke-dasharray:none"/><path d="M124.219 665.768c-.936.03-1.572 1.188-1.906 2.063-1.134 2.968-.765 6.49.156 9.531.2.664.609 1.287 1.125 1.75 5.269 4.73 15.177 3.54 19 9.5 4.05 6.317-1.21 15.256.75 22.5a3.95 3.95 0 0 0 .844 1.563c3.964 4.505 12.35 4.946 14.625 10.5 2.212 5.399-2.906 11.415-2.97 17.25-.004.421.06.849.188 1.25.875 2.718 1.752 5.75 3.906 7.625.726.631 1.868 1.385 2.726.949s.923-1.804.837-2.762c-.234-2.622-3.2-4.429-3.594-7.031-.902-5.959 3.754-11.822 3.094-17.813a3.93 3.93 0 0 0-.812-1.968c-3.79-4.787-12-5.302-14.875-10.688-3.564-6.675 1.531-15.473-.75-22.687a3.94 3.94 0 0 0-1.125-1.72c-5.29-4.708-15.233-3.504-19-9.5-1.475-2.345.983-5.772-.126-8.312-.386-.884-1.129-2.03-2.093-2" style="font-size:medium;font-style:normal;font-variant:normal;font-weight:400;font-stretch:normal;text-indent:0;text-align:start;text-decoration:none;line-height:normal;letter-spacing:normal;word-spacing:normal;text-transform:none;direction:ltr;block-progression:tb;writing-mode:lr-tb;text-anchor:start;baseline-shift:baseline;color:#000;fill:#ff5;fill-opacity:1;stroke:none;stroke-width:4;marker:none;visibility:visible;display:inline;overflow:visible;font-family:Sans;-inkscape-font-specification:Sans"/><path d="M135.962 672.446a3.5 3.5 0 1 1-7 0 3.5 3.5 0 0 1 7 0m4.423 20.344a3.5 3.5 0 1 1-7 0 3.5 3.5 0 0 1 7 0m16.585 12.605a3.5 3.5 0 1 1-7 0 3.5 3.5 0 0 1 7 0m-.663 21.23a3.5 3.5 0 1 1-7 0 3.5 3.5 0 0 1 7 0m14.153 13.931a3.5 3.5 0 1 1-7 0 3.5 3.5 0 0 1 7 0" style="fill:#ff5;fill-opacity:1;stroke:none"/><path d="m113.38 669.835-3.331 2.027s9.276 11.85 12.795 16.969c3.107 4.52 5.908 9.304 8.531 14.187 3.572 6.65 6.71 13.59 9.813 20.563 2.388 5.368 6.812 16.5 6.812 16.5l3.719-1.469s-4.43-11.093-6.906-16.656c-3.11-6.987-6.28-14.002-9.938-20.813-2.665-4.961-5.496-9.874-8.719-14.562-3.798-5.526-12.777-16.746-12.777-16.746" style="font-size:medium;font-style:normal;font-variant:normal;font-weight:400;font-stretch:normal;text-indent:0;text-align:start;text-decoration:none;line-height:normal;letter-spacing:normal;word-spacing:normal;text-transform:none;direction:ltr;block-progression:tb;writing-mode:lr-tb;text-anchor:start;baseline-shift:baseline;color:#000;fill:#ff5;fill-opacity:1;stroke:none;stroke-width:4;marker:none;visibility:visible;display:inline;overflow:visible;font-family:Sans;-inkscape-font-specification:Sans"/><path d="M108.875 676.375c-3.12 2.25-6.092 4.084-9.594 6.906-1.51 1.218-1.866 3.087-1.812 4.75.054 1.664.512 3.305.906 4.594.708 2.315 2.2 4.56 4.469 5.813 1.108.612 2.433 1.145 3.844 1.343 1.41.199 2.968.09 4.28-.812a219 219 0 0 1 9.532-6.219l-1.562-2.562c-3.27 2.006-6.389 4.068-9.657 6.312-.453.311-1.21.446-2.156.313-.947-.134-2.03-.552-2.844-1-1.367-.756-2.555-2.406-3.062-4.063-.362-1.182-.712-2.63-.75-3.812-.039-1.184.217-1.94.719-2.344 3.352-2.703 6.218-4.46 9.437-6.782z" style="font-size:medium;font-style:normal;font-variant:normal;font-weight:400;font-stretch:normal;text-indent:0;text-align:start;text-decoration:none;line-height:normal;letter-spacing:normal;word-spacing:normal;text-transform:none;direction:ltr;block-progression:tb;writing-mode:lr-tb;text-anchor:start;baseline-shift:baseline;color:#000;fill:#ff5;fill-opacity:1;stroke:none;stroke-width:3;marker:none;visibility:visible;display:inline;overflow:visible;font-family:Sans;-inkscape-font-specification:Sans"/><path d="M122.719 696.281c-3.099 1.734-6.46 3.08-9.75 5.438-1.305.935-1.957 2.363-2.281 3.75s-.32 2.823-.188 4.062c.276 2.603 1.607 5.128 3.688 6.782 1.086.863 2.477 1.725 4 2.25 1.522.524 3.298.773 4.843-.188 2.927-1.82 5.716-3.063 9.125-5.031l-1.5-2.594c-3.27 1.888-6.097 3.153-9.219 5.094-.38.237-1.202.247-2.28-.125-1.08-.372-2.282-1.08-3.126-1.75-1.352-1.075-2.377-3.033-2.562-4.782-.103-.971-.094-2.094.125-3.03.219-.937.61-1.601 1.125-1.97 2.943-2.109 6.166-3.433 9.469-5.28z" style="font-size:medium;font-style:normal;font-variant:normal;font-weight:400;font-stretch:normal;text-indent:0;text-align:start;text-decoration:none;line-height:normal;letter-spacing:normal;word-spacing:normal;text-transform:none;direction:ltr;block-progression:tb;writing-mode:lr-tb;text-anchor:start;baseline-shift:baseline;color:#000;fill:#ff5;fill-opacity:1;stroke:none;stroke-width:2.99999976;marker:none;visibility:visible;display:inline;overflow:visible;font-family:Sans;-inkscape-font-specification:Sans"/><path d="M134.469 716.594c-3.716 1.783-5.71 2.905-10.313 6.093-1.289.893-1.924 2.302-2.25 3.657a11.4 11.4 0 0 0-.219 3.937c.334 2.924 1.785 6.036 4.438 7.75 1.117.722 2.43 1.421 3.969 1.688 1.51.261 3.238-.006 4.844-1l.03.03 8.407-4.812-1.5-2.593-8.375 4.78-.063.032c-1.022.654-1.878.756-2.812.594s-1.94-.646-2.875-1.25c-1.617-1.044-2.82-3.404-3.063-5.531-.104-.92-.092-2.034.125-2.938.218-.904.603-1.556 1.063-1.875 4.545-3.148 6.25-4.089 9.906-5.844z" style="font-size:medium;font-style:normal;font-variant:normal;font-weight:400;font-stretch:normal;text-indent:0;text-align:start;text-decoration:none;line-height:normal;letter-spacing:normal;word-spacing:normal;text-transform:none;direction:ltr;block-progression:tb;writing-mode:lr-tb;text-anchor:start;baseline-shift:baseline;color:#000;fill:#ff5;fill-opacity:1;stroke:none;stroke-width:3;marker:none;visibility:visible;display:inline;overflow:visible;font-family:Sans;-inkscape-font-specification:Sans"/><path d="M149.313 735.3s-10.759 6.233-16 10.187a87.3 87.3 0 0 0-13.518 12.701c-4.235 4.915-7.992 10.403-10.688 16.406-2.626 5.848-4.436 11.764-5.357 17.956-.793 5.328-.821 10.743-.469 16.03.338 5.066 1.646 9.376 3.215 14.39 2.166 6.922 9.674 19.96 9.674 19.96l2.607-3.398s-6.637-11.898-8.469-17.75c-1.42-4.54-2.73-8.56-3.058-13.482-.34-5.088-.3-10.2.438-15.157.888-5.973 2.663-11.552 5.075-16.924 2.498-5.56 6.024-10.749 10.063-15.437a83.2 83.2 0 0 1 12.893-12.107c4.728-3.567 15.625-9.907 15.625-9.907z" style="font-size:medium;font-style:normal;font-variant:normal;font-weight:400;font-stretch:normal;text-indent:0;text-align:start;text-decoration:none;line-height:normal;letter-spacing:normal;word-spacing:normal;text-transform:none;direction:ltr;block-progression:tb;writing-mode:lr-tb;text-anchor:start;baseline-shift:baseline;color:#000;fill:#ff5;fill-opacity:1;stroke:none;stroke-width:4;marker:none;visibility:visible;display:inline;overflow:visible;font-family:Sans;-inkscape-font-specification:Sans"/><path d="m88.683 685.764-3.147 2.24s8.22 9.42 11.495 13.733c2.662 3.505 5.187 7.124 7.407 10.875 4.331 7.322 8.124 14.971 11.593 22.781 1.518 3.418 3.695 9.608 4.157 10.907-1.334 1.376-7.89 8.205-11.25 13.03-3.656 5.249-7.05 10.885-9.313 17.032-2.556 6.942-4.28 14.354-4.531 21.844-.296 8.812 1.08 17.688 3.594 26.062 2.686 8.954 12.361 25.523 12.361 25.523l2.576-3.429s-8.758-15.435-11.094-23.219c-2.406-8.02-3.716-16.516-3.437-24.812.233-6.96 1.842-13.97 4.281-20.594 2.09-5.677 5.297-11.032 8.844-16.125 3.217-4.619 11.719-13.469 11.719-13.469.522-.527.712-1.36.468-2.062 0 0-2.87-8.152-4.718-12.313-3.517-7.916-7.382-15.698-11.813-23.187-2.32-3.92-4.927-7.656-7.656-11.25-3.53-4.647-11.536-13.567-11.536-13.567" style="font-size:medium;font-style:normal;font-variant:normal;font-weight:400;font-stretch:normal;text-indent:0;text-align:start;text-decoration:none;line-height:normal;letter-spacing:normal;word-spacing:normal;text-transform:none;direction:ltr;block-progression:tb;writing-mode:lr-tb;text-anchor:start;baseline-shift:baseline;color:#000;fill:#ff5;fill-opacity:1;stroke:none;stroke-width:4;marker:none;visibility:visible;display:inline;overflow:visible;font-family:Sans;-inkscape-font-specification:Sans"/><path d="M100.406 705.768S97.9 724.1 95 732.331c-3.365 9.551-8.267 18.621-13.969 27.062-5.314 7.867-12.1 14.8-18.812 21.782-4.896 5.093-9.892 10.074-15.375 14.375C42.252 799.15 30 806.362 30 806.362v4s13.69-8.55 18.688-12.469c5.67-4.446 10.76-9.5 15.687-14.625 6.699-6.968 13.608-14.02 19.125-22.187 5.814-8.606 10.873-17.93 14.344-27.781 3.173-9.008 5.531-27.157 5.531-27.157z" style="font-size:medium;font-style:normal;font-variant:normal;font-weight:400;font-stretch:normal;text-indent:0;text-align:start;text-decoration:none;line-height:normal;letter-spacing:normal;word-spacing:normal;text-transform:none;direction:ltr;block-progression:tb;writing-mode:lr-tb;text-anchor:start;baseline-shift:baseline;color:#000;fill:#ff5;fill-opacity:1;stroke:none;stroke-width:3;marker:none;visibility:visible;display:inline;overflow:visible;font-family:Sans;-inkscape-font-specification:Sans"/><path d="M67.152 701.323s-.479 13.454-1.87 18.82c-1.714 6.606-3.954 13.119-7.126 19.032-3.469 6.466-7.98 12.43-12.968 17.937C41.45 761.237 30 769.554 30 769.554v5.035s13.83-10.013 18.156-14.79c5.148-5.682 9.863-11.91 13.532-18.75 3.377-6.296 5.702-13.1 7.468-19.906 1.603-6.177 1.996-22.77 1.996-22.77z" style="font-size:medium;font-style:normal;font-variant:normal;font-weight:400;font-stretch:normal;text-indent:0;text-align:start;text-decoration:none;line-height:normal;letter-spacing:normal;word-spacing:normal;text-transform:none;direction:ltr;block-progression:tb;writing-mode:lr-tb;text-anchor:start;baseline-shift:baseline;color:#000;fill:#ff5;fill-opacity:1;stroke:none;stroke-width:4;marker:none;visibility:visible;display:inline;overflow:visible;font-family:Sans;-inkscape-font-specification:Sans"/><path d="M90.125 696.05c-5.53 1.741-12.27 3.306-15.375 8.218-.468.74-.54 1.854-.125 2.625 2.181 4.057 8.628 3.797 11.875 7.063 2.452 2.467 6.247 5.658 5.281 9-.85 2.94-5.207 3.397-8.156 4.219-4.103 1.143-9.355-1.73-12.75.843-.722.548-1.12 1.682-.906 2.563.853 3.516 6.013 4.354 7.906 7.437 2.033 3.312 5.284 7.857 3.281 11.188-1.704 2.835-6.411 2.01-9.719 2-3.812-.012-7.61-3.694-11.187-2.375-.85.314-1.578 1.253-1.656 2.156-.35 4.03 4.572 6.845 5.625 10.75.854 3.172 2.732 7.495.437 9.844-2.417 2.474-6.995.518-10.375-.219-3.537-.771-6.4-4.919-9.968-4.312-.894.152-1.763.968-2 1.843-1.256 4.624 3.983 8.964 4.187 13.75.112 2.64.425 6.123-1.656 7.75-1.757 1.375-4.515.283-6.688-.218-1.167-.27-2.164-1.904-3.281-1.47-.93.363-1.555 1.822-1.187 2.75.51 1.29 2.46 1.355 3.812 1.657 2.756.616 5.788 1.139 8.469.25a2.9 2.9 0 0 0 1.5-1.187c1.73-2.797 2.129-6.369 2.031-9.657-.114-3.831-5.892-8.541-3.031-11.093 1.925-1.718 4.658 2.361 7.187 2.875 4.064.825 8.591 1.798 12.438.25.67-.27 1.269-.86 1.531-1.532 1.463-3.749.488-8.16-.5-12.062-.751-2.967-5.876-5.808-4.031-8.25 1.703-2.255 5.518 1.536 8.343 1.5 4.02-.052 8.542-.1 11.813-2.438.6-.429 1.034-1.174 1.125-1.906.575-4.622-1.595-9.38-3.937-13.406-1.29-2.216-6.234-3.127-5.344-5.531 1.086-2.934 6.342.005 9.344-.875 3.612-1.06 7.65-2.272 10.03-5.188a2.86 2.86 0 0 0 .594-2.094c-.54-4.186-3.493-7.88-6.437-10.906-2.745-2.821-10.138-2.347-10-6.281.17-4.839 11.322-2.237 12.813-6.844.306-.948-.362-2.987-1.313-2.687" style="font-size:medium;font-style:normal;font-variant:normal;font-weight:400;font-stretch:normal;text-indent:0;text-align:start;text-decoration:none;line-height:normal;letter-spacing:normal;word-spacing:normal;text-transform:none;direction:ltr;block-progression:tb;writing-mode:lr-tb;text-anchor:start;baseline-shift:baseline;color:#000;fill:#ff5;fill-opacity:1;stroke:none;stroke-width:3;marker:none;visibility:visible;display:inline;overflow:visible;font-family:Sans;-inkscape-font-specification:Sans"/><path d="M74.438 711.518c-.937.352-1.478 1.846-1.126 2.782.712 1.887 3.768 1.542 5.407 2.718.999.718 2.954 1.41 2.625 2.594-.333 1.198-2.386.775-3.625.875-1.947.158-4.319-1.658-5.844-.437-.781.625-1.064 2.188-.437 2.968 1.366 1.703 4.355.649 6.53.47 2.307-.191 5.08-.024 6.75-1.626.603-.577.899-1.599.688-2.406-.582-2.23-3.036-3.526-4.906-4.875-1.836-1.325-3.943-3.859-6.062-3.063" style="font-size:medium;font-style:normal;font-variant:normal;font-weight:400;font-stretch:normal;text-indent:0;text-align:start;text-decoration:none;line-height:normal;letter-spacing:normal;word-spacing:normal;text-transform:none;direction:ltr;block-progression:tb;writing-mode:lr-tb;text-anchor:start;baseline-shift:baseline;color:#000;fill:#ff5;fill-opacity:1;stroke:none;stroke-width:3;marker:none;visibility:visible;display:inline;overflow:visible;font-family:Sans;-inkscape-font-specification:Sans"/><path d="M93.844 702.08c-2.39 1.379-3.793 1.713-6.625 3.532-.64.411-.33 1.649.094 2.281.414.62 1.378.578 2.03.938.99.545 2.074 1.018 2.844 1.844.602.644.905 1.515 1.282 2.312.254.537.117 1.408.656 1.656.76.35 2.023-.053 2.375-.812.278-.598-.43-1.25-.719-1.844-.511-1.054-.98-2.176-1.781-3.031-.938-1.002-3.48-.942-3.406-2.313.09-1.66 3.913-.754 4.406-2.343.247-.797-.434-2.635-1.156-2.22m-3.5 27.095c-.82-.114-1.304 1.022-2 1.468-1.084.695-2.15 1.48-3.375 1.875-.42.136-.873.13-1.313.157-.301.018-.647-.156-.906 0-.647.389-1.093 1.245-1.062 2 .051 1.296 1.569 2.094 2.093 3.28.646 1.462-.11 3.788 1.25 4.626.706.435 2.004.207 2.438-.5.926-1.51-.702-3.5-1.406-5.125-.302-.695-1.51-1.252-1.188-1.938.125-.266.595-.032.875-.125 1.442-.48 2.718-1.37 4-2.187.742-.472 2.004-.692 2.125-1.563.114-.823-.708-1.854-1.531-1.968" style="font-size:medium;font-style:normal;font-variant:normal;font-weight:400;font-stretch:normal;text-indent:0;text-align:start;text-decoration:none;line-height:normal;letter-spacing:normal;word-spacing:normal;text-transform:none;direction:ltr;block-progression:tb;writing-mode:lr-tb;text-anchor:start;baseline-shift:baseline;color:#000;fill:#ff5;fill-opacity:1;stroke:none;stroke-width:2.5;marker:none;visibility:visible;display:inline;overflow:visible;font-family:Sans;-inkscape-font-specification:Sans"/><path d="M83.406 691.787c-1.547-.018-2.143 1.874-3.394 2.63-1.227.74-3.435.658-3.98 1.835-.36.776.034 2.062.968 2.362 1.719.552 3.346-1.323 4.837-2.222 1.363-.823 3.672-1.467 3.694-2.866.014-.826-1.13-1.728-2.125-1.74m-14.875 42.889c-.3.956-1.88 1.479-1.719 2.468.107.654 1.082.767 1.594 1.188.792.65 1.639 1.264 2.281 2.062.737.917 1.226 2.01 1.75 3.063.036.07.133.15.094.219-.036.064-.145.026-.219.03-1.174.084-2.366.17-3.53 0-.904-.13-1.763-.482-2.626-.78-.56-.195-1.107-.884-1.656-.657-.922.383-1.567 1.827-1.187 2.75.243.593 1.175.51 1.78.72 1.067.367 2.135.775 3.25.937 1.382.2 2.794.098 4.188.03.806-.038 1.729.188 2.406-.25.66-.424 1.14-1.248 1.188-2.03.05-.815-.601-1.521-.969-2.25-.634-1.26-1.242-2.557-2.125-3.657-.789-.983-1.81-1.757-2.781-2.562-.55-.456-1.08-1.602-1.719-1.281m-12.218 20.75c-.98-.228-2.277.707-2.5 1.687-.336 1.47 1.71 2.51 2.28 3.906.581 1.423 2.202 3.373 1.126 4.47-.712.724-2.013-.344-2.969-.688-1.468-.529-2.693-2.542-4.187-2.094-.957.287-1.789 1.637-1.5 2.594.5 1.659 3.028 1.718 4.656 2.312 1.863.68 3.871 1.942 5.781 1.406.794-.222 1.531-.954 1.75-1.75.672-2.445-.923-5.024-1.875-7.375-.645-1.591-.89-4.08-2.562-4.468m-17.094 16.25c-.885-.456-2.357.115-2.813 1-.943 1.828 1.367 3.905 1.688 5.937.181 1.153 1.04 2.776.125 3.5-.957.758-2.469-1.568-3.532-.969-.867.49-1.3 2.008-.812 2.875.938 1.668 3.65 1.88 5.531 1.532.777-.144 1.565-.694 1.907-1.407.864-1.805.068-4.023-.25-6-.357-2.213.149-5.441-1.844-6.468" style="font-size:medium;font-style:normal;font-variant:normal;font-weight:400;font-stretch:normal;text-indent:0;text-align:start;text-decoration:none;line-height:normal;letter-spacing:normal;word-spacing:normal;text-transform:none;direction:ltr;block-progression:tb;writing-mode:lr-tb;text-anchor:start;baseline-shift:baseline;color:#000;fill:#ff5;fill-opacity:1;stroke:none;stroke-width:3;marker:none;visibility:visible;display:inline;overflow:visible;font-family:Sans;-inkscape-font-specification:Sans"/><path d="M77.188 755.393c-.998-.29-1.765 1.195-2.782 1.407-1.052.218-2.222-.59-3.219-.188-.71.287-1.724.938-1.562 1.688.495 2.284 2.154 5.425 1.438 6.968-.352.757 1.943.747 2.5.125 1.344-1.502-2.206-4.377-.97-5.968.508-.653 1.673.002 2.47-.22 1.216-.336 3.043-.446 3.406-1.655.24-.801-.479-1.923-1.281-2.157m-24.469 21.469c-.611-.197-.949.946-1.125 1.563-.64 2.238-1.052 5.205.468 6.968.544.63 1.794 1.058 2.438.532 1.58-1.293-1.576-4.721-.094-6.125 1.524-1.444 4.94 2.052 6.282.437.529-.637-.004-1.858-.626-2.406-1.726-1.52-4.571-.517-6.843-.875-.168-.026-.392.037-.5-.094M34.156 795.3c-.27.786-1.766 1.171-1.531 1.968.312 1.06 2.038.902 3.125 1.094.77.136 1.754.544 2.344.031.626-.544.853-1.84.312-2.468-.55-.64-1.7.08-2.531-.063-.594-.102-1.23-.916-1.719-.562m78.375-114.081c-2.448 1.819-5.1 3.009-7.875 5.906-1.305 1.363-1.203 3.287-.437 4.5.522.829 1.292 1.315 2.125 1.625s1.756.474 2.719-.031c3.479-1.828 5.063-3.213 7.812-5.094l-1.406-2.062c-2.853 1.951-4.27 3.238-7.563 4.968.087-.045-.276.029-.687-.125-.412-.153-.817-.483-.906-.625-.295-.467-.417-.872.124-1.437 2.446-2.554 4.883-3.611 7.594-5.625a25 25 0 0 1-1.5-2m12.719 20.562c-2.029 1.13-4.358 1.482-7 3.25-1.04.696-1.579 1.814-1.781 2.938-.203 1.123-.08 2.332.625 3.343.637.917 1.616 1.287 2.562 1.438.947.151 1.936.11 2.813-.469 2.407-1.586 3.835-1.98 6.344-3.812l-1.47-2.032c-2.272 1.66-3.633 2.026-6.25 3.75-.09.06-.598.168-1.062.094s-.837-.307-.906-.406c-.173-.248-.297-.86-.187-1.469s.433-1.143.687-1.312c2.172-1.454 4.357-1.74 6.844-3.125zm11.5 20.063s-5.258 2.497-8.437 4.656c-1.068.725-1.306 1.87-1.344 2.938s.176 2.198 1 3.093c1.541 1.676 4.069 1.558 5.969.438 2.075-1.224 6.625-4.094 6.625-4.094l-1.344-2.094s-4.59 2.869-6.563 4.032c-1.073.632-2.386.528-2.844.03-.111-.12-.364-.727-.343-1.312.02-.584.345-1.033.25-.969 2.852-1.937 8.094-4.468 8.094-4.468z" style="font-size:medium;font-style:normal;font-variant:normal;font-weight:400;font-stretch:normal;text-indent:0;text-align:start;text-decoration:none;line-height:normal;letter-spacing:normal;word-spacing:normal;text-transform:none;direction:ltr;block-progression:tb;writing-mode:lr-tb;text-anchor:start;baseline-shift:baseline;color:#000;fill:#ff5;fill-opacity:1;stroke:none;stroke-width:2.5;marker:none;visibility:visible;display:inline;overflow:visible;font-family:Sans;-inkscape-font-specification:Sans"/><path d="M46.836 797.658c1.472 8.193 2.269 15.862 4.561 23.418 2.439 8.04 5.704 15.865 9.637 23.289 2.85 5.38 6.31 10.446 10.038 15.258 5.29 6.827 11.914 13.173 17.402 19.196" style="fill:none;stroke:#ff5;stroke-width:4;stroke-linecap:butt;stroke-linejoin:round;stroke-miterlimit:4;stroke-opacity:1;stroke-dasharray:none;stroke-dashoffset:0"/><path d="M155.576 764.572c-4.549 3.202-9.155 8.257-11.982 11.884-2.364 3.032-4.692 6.312-6.281 10.062-1.74 4.106-2.73 8.5-3.188 12.844-.481 4.563-.572 10.922 1.656 16.813l2.75-4.094c-.45-2.944-.812-8.462-.406-12.313.426-4.034 1.327-8.036 2.875-11.687 1.363-3.215 3.463-6.253 5.75-9.188 2.512-3.222 4.888-6.922 8.906-9.25z" style="font-size:medium;font-style:normal;font-variant:normal;font-weight:400;font-stretch:normal;text-indent:0;text-align:start;text-decoration:none;line-height:normal;letter-spacing:normal;word-spacing:normal;text-transform:none;direction:ltr;block-progression:tb;writing-mode:lr-tb;text-anchor:start;baseline-shift:baseline;color:#000;fill:#ff5;fill-opacity:1;stroke:none;stroke-width:4;marker:none;visibility:visible;display:inline;overflow:visible;font-family:Sans;-inkscape-font-specification:Sans"/><path d="M141.875 754.162a3.5 3.5 0 1 1-7 0 3.5 3.5 0 0 1 7 0m7.726.913a3.5 3.5 0 1 1-7 0 3.5 3.5 0 0 1 7 0m-7.731 6.932a3.5 3.5 0 1 1-7 0 3.5 3.5 0 0 1 7 0" style="fill:#ff5;fill-opacity:1;stroke:none"/><path d="M141.875 754.162a3.5 3.5 0 1 1-7 0 3.5 3.5 0 0 1 7 0m7.726.913a3.5 3.5 0 1 1-7 0 3.5 3.5 0 0 1 7 0m-7.731 6.932a3.5 3.5 0 1 1-7 0 3.5 3.5 0 0 1 7 0" style="fill:#ff5;fill-opacity:1;stroke:none" transform="rotate(-16.448 185.632 811.664)"/><path d="M141.875 754.162a3.5 3.5 0 1 1-7 0 3.5 3.5 0 0 1 7 0m7.726.913a3.5 3.5 0 1 1-7 0 3.5 3.5 0 0 1 7 0m-7.731 6.932a3.5 3.5 0 1 1-7 0 3.5 3.5 0 0 1 7 0" style="fill:#ff5;fill-opacity:1;stroke:none" transform="rotate(-27.894 201.89 816.278)"/><path d="M141.875 754.162a3.5 3.5 0 1 1-7 0 3.5 3.5 0 0 1 7 0m7.726.913a3.5 3.5 0 1 1-7 0 3.5 3.5 0 0 1 7 0m-7.731 6.932a3.5 3.5 0 1 1-7 0 3.5 3.5 0 0 1 7 0" style="fill:#ff5;fill-opacity:1;stroke:none" transform="rotate(-59.302 182.933 805.089)"/><path d="m156.135 754.304 12.677.203-4.87 10.957h4.87l5.68-10.754h13.19l-4.668 10.55h5.479l4.87-10.753h14.202l-4.87 10.957h4.464l-2.637 4.87-8.725-.61 5.073-10.347h-4.667l-5.275 10.753-14.61-.406 4.668-9.942h-4.464l-5.276 10.551-14.203-.406 5.682-10.55-4.261-.203-2.332 3.652z" style="fill:#55a;stroke:none"/><path d="m151.565 764.246-8.319-4.464 3.855 8.725zm-12.085 12.453-8.93-3.062 5.213 7.987zm-7.378 16.295-9.412.736 7.956 5.261zm-1.206 17.195-7.194 6.113 9.53-.401zm-23.026-67.137 8.342 4.418-3.903-8.704zm-9.765 11.83 9.06 2.655-5.57-7.744zm-7.755 14.941 9.42.62-7.121-6.347zm-4.938 16.465 9.333-1.422-8.32-4.665zm-1.768 15.006 8.964-2.96-8.982-3.21zm1.203 15.083 8.41-4.292-9.367-1.805zm4.315 15.035 7.031-6.3-9.516.652zm5.726 13.718 7.03-6.3-9.515.652zm6.989 12.112 6.034-7.26-9.318 2.035z" style="fill:#ff5;fill-opacity:1;stroke:none"/><path d="M36.571 733.675c4.753-4.243 8.941-8.71 13.707-12.73 4.003-3.377 8.318-6.366 12.477-9.548-.237 1.697-.36 3.41-.713 5.092-.45 2.15-1.188 4.243-1.782 6.365-3.446 2.016-6.747 4.245-10.338 6.047a62 62 0 0 1-7.486 3.183c-1.914.663-3.726 1.06-5.865 1.591m-1.441 4.979c3.228-1.076 6.505-2.036 9.685-3.228 2.233-.837 4.475-1.68 6.587-2.751 2.346-1.19 4.477-2.71 6.716-4.066-.387 1.634-.475 3.356-1.162 4.903-.582 1.31-1.636 2.392-2.454 3.588-2.325.677-4.585 1.585-6.974 2.033-2.247.42-4.557.717-6.845.598-1.889-.099-3.703-.718-5.554-1.077m-.141 4.105c2.346.12 4.69.346 7.038.36 1.648.011 3.304.02 4.942-.19 1.819-.234 3.595-.792 5.393-1.188-.704 1.17-1.244 2.5-2.114 3.511-.736.856-1.707 1.392-2.561 2.089-1.662-.164-3.348-.126-4.985-.49-1.54-.342-3.086-.802-4.5-1.581-1.168-.643-2.142-1.674-3.213-2.511m-.499 4.411c1.626.808 3.214 1.697 4.878 2.425 1.168.51 2.342 1.023 3.58 1.36 1.375.374 2.832.486 4.247.73-.907.686-1.753 1.546-2.723 2.06-.821.435-1.698.552-2.547.828-1.125-.633-2.337-1.118-3.374-1.898-.976-.733-1.916-1.558-2.65-2.59-.607-.852-.94-1.944-1.411-2.915m-1.199 6.156c.956.826 1.881 1.72 2.87 2.477.693.531 1.39 1.065 2.144 1.45.836.427 1.748.631 2.622.947-.636.535-1.247 1.226-1.908 1.605-.558.321-1.124.36-1.686.54-.655-.635-1.379-1.148-1.966-1.906-.552-.712-1.072-1.503-1.445-2.46-.307-.789-.421-1.768-.632-2.653" style="fill:#f55;fill-opacity:1;stroke:#f55;stroke-width:2;stroke-linecap:round;stroke-linejoin:round;stroke-miterlimit:4;stroke-dasharray:none"/><path d="M104.195 715.565c1.257 2.604 2.876 5.363 4.204 8.1 1.57 3.235 2.962 6.553 4.444 9.83-2.963 3.007-6.173 5.79-8.888 9.022-3.829 4.558-7.401 9.381-10.368 14.542-3.044 5.295-5.624 10.9-7.541 16.698-1.788 5.408-2.925 11.046-3.636 16.697-.623 4.947-.754 9.966-.539 14.947.238 5.512.875 11.031 2.02 16.428 1.023 4.82 2.555 9.535 4.31 14.14 1.83 4.804 3.913 9.54 6.463 14.004 2.112 3.697 4.847 7.002 7.271 10.503l-11.042 14.947c-4.802-5.476-9.922-10.69-14.408-16.428-4.41-5.64-8.746-11.399-12.254-17.64-2.787-4.96-4.937-10.272-6.91-15.609-1.61-4.351-2.904-8.822-4-13.33-1.096-4.511-1.615-9.849-2.567-13.69 2.983-2.824 8.574-8.051 12.708-12.232 4.36-4.409 8.83-8.74 12.75-13.544 5.49-6.724 10.569-13.822 15.006-21.283 3.149-5.294 6.078-10.78 8.188-16.567 2.297-6.299 3.77-12.83 4.789-19.535" style="fill:#f55;fill-opacity:1;stroke:none"/><path d="M146.928 651.797a90 90 0 0 0-12.602 5.094c-7.905 3.897-15.276 8.8-22.79 13.406-8.497 5.209-17.01 10.412-25.203 16.087a322 322 0 0 0-19.304 14.478c-7.285 5.9-14.303 12.131-21.181 18.5-5.43 5.028-10.933 10.367-15.848 15.55" style="fill:none;stroke:#55a;stroke-width:2;stroke-linecap:round;stroke-linejoin:round;stroke-miterlimit:4;stroke-opacity:1;stroke-dasharray:none;stroke-dashoffset:0"/><path d="M163.379 779.88s.273-1.673.8-2.2 1.454-.8 2.2-.8c.745 0 1.673.273 2.2.8s.8 1.455.8 2.2-.4 1.8-.8 2.2-.8.6-1.2 1-.6.4-1 .8l-1 1c-.4.4-1 1.2-1.4 2s-.6 2-.6 2-.2-1.2-.6-2-1-1.6-1.4-2l-1-1c-.4-.4-.6-.4-1-.8s-.8-.6-1.2-1-.8-1.455-.8-2.2.273-1.673.8-2.2 1.454-.8 2.2-.8c.745 0 1.673.273 2.2.8s.8 2.2.8 2.2" style="fill:#f55;stroke:none"/><path d="M71.771 184.325c-.766-3.24-.715-6.792-2.298-9.722-1.466-2.714-3.754-5.074-6.364-6.718-1.624-1.023-3.56-1.724-5.48-1.768-2.015-.046-4.01.733-5.833 1.591-1.76.828-3.285 2.107-4.773 3.359-1.148.966-2.608 1.796-3.182 3.182-.339.817-.366 1.847 0 2.652.517 1.14 1.679 1.976 2.828 2.475 1.087.47 2.4.689 3.536.353 1.085-.32 1.808-1.366 2.651-2.121.994-.89 1.886-1.886 2.829-2.829.176.649.115 1.416.53 1.945.749.955 2.121 1.178 3.182 1.768-.943.884-2.139 1.558-2.828 2.651-.726 1.15-1.099 2.536-1.238 3.89-.176 1.708-.153 3.55.53 5.126.715 1.648 2.357 2.71 3.536 4.066" style="fill:none;stroke:#55a;stroke-width:2;stroke-linecap:round;stroke-linejoin:round;stroke-miterlimit:4;stroke-opacity:1;stroke-dasharray:none;stroke-dashoffset:0" transform="translate(0 512.362)"/><path d="M48.027 170.672c.984-.552 2.718.961 3.061 2.163.335 1.168-.575 2.48-1.414 3.359-.946.99-2.475 1.178-3.712 1.767m8.132-12.021c-1.827-1.944-3.08-4.669-5.48-5.833a5.9 5.9 0 0 0-4.066-.354c-1.417.405-2.737 1.414-3.536 2.652-.589.913-.92 2.117-.707 3.182.241 1.202 1.27 2.122 2.121 3.005 1.08 1.12 2.475 1.886 3.713 2.829" style="fill:none;stroke:#55a;stroke-width:2;stroke-linecap:round;stroke-linejoin:round;stroke-miterlimit:4;stroke-opacity:1;stroke-dasharray:none;stroke-dashoffset:0" transform="translate(0 512.362)"/><path d="M40.835 167.532c-1.178.117-2.474-.174-3.535.353-1.008.5-2.006 1.388-2.298 2.475-.345 1.284.196 2.752.884 3.889 1.363 2.253 3.882 3.576 6.01 5.127 1.903 1.386 3.899 2.67 6.01 3.712 1.188.586 2.423 1.715 3.713 1.414 1.096-.256 1.982-1.394 2.298-2.475.185-.632-.085-1.343-.354-1.944-.274-.614-.825-1.061-1.237-1.591" style="fill:none;stroke:#55a;stroke-width:2;stroke-linecap:round;stroke-linejoin:round;stroke-miterlimit:4;stroke-opacity:1;stroke-dasharray:none;stroke-dashoffset:0" transform="translate(0 512.362)"/><path d="M47.523 179.564c-.618.318-.927 1.256-1.264 2.136m-9.313-4.8c-1.001.826-2.356 1.352-3.005 2.476-.537.93-.858 2.158-.53 3.182.28.872 1.318 1.275 1.944 1.944.856.915 1.477 2.071 2.475 2.828 1.197.909 2.63 1.506 4.066 1.945 1.538.47 3.177.902 4.773.707 1.075-.131 2.402-.337 3.005-1.237.525-.784.361-1.958 0-2.829-.382-.924-1.257-1.617-2.121-2.121-.95-.555-2.112-1.14-3.182-.884-.933.224-1.67 1.099-2.121 1.945-.366.683-.46 1.53-.354 2.298.097.705.59 1.296.884 1.944" style="fill:none;stroke:#55a;stroke-width:2;stroke-linecap:round;stroke-linejoin:round;stroke-miterlimit:4;stroke-opacity:1;stroke-dasharray:none;stroke-dashoffset:0" transform="translate(0 512.362)"/><path d="M35.002 186.27c-.648.53-1.586.834-1.945 1.59-.353.746-.295 1.706 0 2.476.568 1.48 1.86 2.66 3.182 3.535 1.507.998 3.373 1.33 5.127 1.768 1.1.274 2.311.964 3.359.53.74-.306 1.274-1.155 1.414-1.944.15-.845-.176-1.802-.707-2.475-.67-.85-1.75-1.513-2.829-1.591-.818-.06-1.7.321-2.298.884-.518.488-.762 1.243-.884 1.944-.121.7.118 1.415.177 2.122m1.768 4.949 2.121 3.182 3.359 2.298" style="fill:none;stroke:#55a;stroke-width:2;stroke-linecap:round;stroke-linejoin:round;stroke-miterlimit:4;stroke-opacity:1;stroke-dasharray:none;stroke-dashoffset:0" transform="translate(0 512.362)"/><path d="M37.123 195.285c-.471 1.886-1.15 3.732-1.414 5.657-.281 2.044-.118 4.125-.177 6.187l4.596-.176c-.059-2.18-.37-4.369-.176-6.541.128-1.439.589-2.828.883-4.243z" style="fill:#ff5;stroke:#55a;stroke-width:2;stroke-linecap:round;stroke-linejoin:round;stroke-miterlimit:4;stroke-opacity:1;stroke-dasharray:none;stroke-dashoffset:0" transform="translate(0 512.362)"/><path d="M49.674 159.753c1.591-2.592 2.6-5.65 4.773-7.778a22.7 22.7 0 0 1 9.37-5.48c2.886-.843 6.008-.295 9.015-.353 3.594-.07 7.224.503 10.783 0 2.733-.387 5.428-1.19 7.955-2.299 1.768-.775 3.608-1.617 4.95-3.005.752-.777 1.06-1.885 1.591-2.828-.236 2.475.011 5.044-.707 7.424a22.1 22.1 0 0 1-4.066 7.602c-2.078 2.52-4.673 4.737-7.601 6.187-2.553 1.264-5.49 1.583-8.309 2-4.029.597-8.127.571-12.197.707-2.297.077-4.66-.472-6.895.061-1.854.442-3.417 1.357-5.126 2.535z" style="fill:#ff5;fill-opacity:1;stroke:#55a;stroke-width:2;stroke-linecap:round;stroke-linejoin:round;stroke-miterlimit:4;stroke-opacity:1;stroke-dasharray:none;stroke-dashoffset:0" transform="translate(0 512.362)"/><path d="m89.047 660.183-5.176 3.565-.05-1.092-6.88 1.926 1.065-1.681-10.337 2.4c-.064.005 1.414-1.586 1.353-1.571l-10.084 3.038c-.227.044.241-1.321.058-1.181l-7.905 8.09.59.663 8.894-4.572-1.516-.438 8.965-.724-.817-.724 10.845.399-1.396-.856c.106-.01 10.307-1.967 10.409-1.998l-1.784-.534c1.27-.697 4.04-1.347 5.032-1.948.991-.602-1.001-.475-.943-.51l3.713-3.105-3.984 1.847z" style="font-size:medium;font-style:normal;font-variant:normal;font-weight:400;font-stretch:normal;text-indent:0;text-align:start;text-decoration:none;line-height:normal;letter-spacing:normal;word-spacing:normal;text-transform:none;direction:ltr;block-progression:tb;writing-mode:lr-tb;text-anchor:start;baseline-shift:baseline;color:#000;fill:#55a;fill-opacity:1;fill-rule:nonzero;stroke:#55a;stroke-width:1;stroke-linecap:round;stroke-linejoin:round;stroke-miterlimit:4;stroke-opacity:1;stroke-dasharray:none;marker:none;visibility:visible;display:inline;overflow:visible;font-family:Sans;-inkscape-font-specification:Sans"/><path d="m30 851.018 53.444 35.305" style="fill:none;stroke:#55a;stroke-width:2;stroke-linecap:butt;stroke-linejoin:round;stroke-miterlimit:4;stroke-opacity:1;stroke-dasharray:none;stroke-dashoffset:0" transform="rotate(180 180 782.362)"/><path d="m30 858.4 50.175 32.395" style="fill:none;stroke:#55a;stroke-width:2;stroke-linecap:butt;stroke-linejoin:round;stroke-miterlimit:4;stroke-dasharray:none" transform="rotate(180 180 782.362)"/><path d="m30 843.636 52.036 33.382M30 836.254l36.763 23.782M30 828.873 58.254 847.2M30 821.49l23.454 15.492M30 814.11l19.309 11.999" style="fill:none;stroke:#55a;stroke-width:2;stroke-linecap:round;stroke-linejoin:round;stroke-miterlimit:4;stroke-opacity:1;stroke-dasharray:none;stroke-dashoffset:0" transform="rotate(180 180 782.362)"/><path d="m32.727 295.856 13.527 9.164m-8.291-12.873 7.855 5.454" style="fill:none;stroke:#55a;stroke-width:2;stroke-linecap:round;stroke-linejoin:round;stroke-miterlimit:4;stroke-opacity:1;stroke-dasharray:none;stroke-dashoffset:0" transform="rotate(180 180 526.181)"/><path d="M130.175 659.374c-5.805 3.46-11.672 6.817-17.415 10.379-9.192 5.701-18.364 11.448-27.267 17.59-6.834 4.717-13.607 9.544-20.054 14.778-6.938 5.633-13.443 11.785-20 17.859-5.235 4.848-10.293 9.886-15.439 14.83v74.969c4.718-2.932 8.713-5.286 13.431-8.217 1.349 6.684 2.217 13.611 4.19 20.198 2.229 7.433 5.078 14.717 8.59 21.637 2.882 5.683 6.403 11.046 10.17 16.184 2.776 3.785 6.033 7.193 9.117 10.73 3.53 4.05 6.873 8.202 10.743 12.013l52.906-70.082 7.564-.176 9.851-20.582 16.494.145-.47-18.434-16.288-.113-.264-20.626 18.12-.704c-1.936-8.326-3.263-16.95-5.806-25.18-2.472-8-5.444-15.886-9.147-23.396-4.363-8.848-9.806-17.14-15.305-25.331-4.274-6.368-9.147-12.314-13.72-18.471" style="fill:#000;stroke:none" transform="rotate(180 180 782.362)"/><path d="M193.683 572.889s10.71 1.181 16.046 1.926c4.72.658 9.435 1.38 14.121 2.246 6.881 1.272 20.54 4.333 20.54 4.333s1.11 9.102 1.765 13.64a571 571 0 0 0 2.407 15.083c.7 4.074 1.017 8.25 2.247 12.196 1.204 3.862 2.44 7.918 4.974 11.072 1.628 2.026 6.258 4.653 6.258 4.653s1.698-2.313 2.889-3.049c1.569-.969 3.451-1.576 5.295-1.604 2.05-.031 4.09.716 5.937 1.604 1.794.863 3.61 1.946 4.814 3.53 1.28 1.685 2.018 3.834 2.247 5.938.24 2.203-.234 4.486-.963 6.579-.772 2.218-1.872 4.434-3.53 6.098-1.574 1.579-3.668 2.646-5.777 3.37-2.297.787-4.793.997-7.22.962a23.7 23.7 0 0 1-6.9-1.123 31 31 0 0 1-8.345-4.172c-1.822-1.29-3.334-2.984-4.814-4.654-1.47-1.657-4.012-5.295-4.012-5.295l-64.026.32s7.849-5.606 11.072-9.146c3.267-3.586 6.118-7.645 8.184-12.035 2.206-4.686 3.539-9.804 4.333-14.923.648-4.177.695-8.466.32-12.677-.352-3.97-1.236-7.903-2.406-11.714-1.394-4.539-5.456-13.158-5.456-13.158" style="fill:#ff5;fill-opacity:1;stroke:none" transform="rotate(180 180 782.362)"/><path d="m140.451 654.56 6.767-2.76 98.579 1.664 4.172 3.447-10.159 12.516h-96.323l-3.628-5.986-4.7-6.27z" style="fill:#000;fill-opacity:1;stroke:none" transform="rotate(180 180 782.362)"/><path d="m330 567.362-.5 122.5-18.5-12-1-97.818z" style="fill:#f55;fill-opacity:1;stroke:none" transform="rotate(180 180 782.362)"/><path d="m109.47 542.362 28.53 36s10.763-2.848 16.244-3.782c6.724-1.145 13.522-2.066 20.341-2.218 10.702-.238 21.425.738 32.048 2.057 12.62 1.567 37.514 6.943 37.514 6.943l27.94-39z" style="fill:#f55;fill-opacity:1;stroke:#55a;stroke-width:2;stroke-linecap:round;stroke-linejoin:round;stroke-miterlimit:4;stroke-opacity:1;stroke-dasharray:none;stroke-dashoffset:0" transform="rotate(180 180 782.362)"/><path d="m125.565 543.844 17.582 26.32c7.041-2.252 11.53-2.976 20.506-3.903l-4.488-22.417h-6.217l5.556 18.883c-5.566.742-7.465.843-12.679 2.298l-13.116-21.18zm43.257 0 4.326 21.706c10.935-.935 19.395-.597 30.33.606l5.239-22.312h-7.011l-3.717 17.638c-8.592-1.088-12.713-.88-19.927-.4l-2.925-17.238zm50.531 0-7.322 23.613c7.982.611 18.22 3.972 26.905 5.88l15.658-29.493h-6.879l-11.78 24.575c-4.85-1.219-12.525-3.63-17.375-4.248l6.746-20.327z" style="fill:#fff;fill-opacity:1;stroke:#fff;stroke-width:2;stroke-linecap:round;stroke-linejoin:round;stroke-miterlimit:4;stroke-opacity:1;stroke-dasharray:none;stroke-dashoffset:0" transform="rotate(180 180 782.362)"/><path d="M194.342 573.886c2.05 5.877 5.044 11.506 6.15 17.63 1.118 6.189 1.192 12.621.41 18.86-.634 5.068-2.058 10.08-4.1 14.761-1.668 3.824-3.833 7.502-6.56 10.66-3.614 4.185-7.99 7.78-12.71 10.66-2.828 1.726-5.989 2.901-9.163 3.85-3.166.948-6.446 1.666-9.748 1.81-3.867.167-8.421 1.143-11.56-1.125-1.019-.737-1.333-2.208-1.524-3.452-.185-1.197.389-2.4.401-3.612.01-.886.018-1.8-.24-2.649-.277-.905-.702-1.814-1.365-2.488-.605-.616-1.903-.494-2.248-1.285-.33-.755-.051-1.857.562-2.408.983-.883 2.62-.349 3.933-.482 1.336-.135 2.684-.502 4.014-.32 1.694.23 3.147 1.205 4.816 1.765.117-.715-1.328-2.186-1.926-2.97-.678.547-2.021.501-3.05.642-1.223.168-2.464.14-3.693.241-1.072.089-2.135.327-3.211.321-.97-.005-2.095.234-2.89-.32-.49-.343-.79-1.008-.803-1.606-.012-.527.411-.972.642-1.445.4-.818 1.108-1.516 1.285-2.408.313-1.583.265-3.386-.482-4.817-.685-1.312-2.066-2.191-3.371-2.89-1.569-.84-3.479-.803-5.138-1.445-1.116-.431-2.707-.52-3.21-1.605-.858-1.849.726-4.033 1.444-5.94 1.425-3.786 3.91-7.09 5.62-10.757 1.246-2.676 2.695-5.315 3.37-8.188.345-1.462.58-3.015.322-4.495-.34-1.96-1.936-3.527-2.408-5.46-.395-1.614-.214-3.317-.321-4.976" style="fill:none;stroke:#55a;stroke-width:2;stroke-linecap:round;stroke-linejoin:round;stroke-miterlimit:4;stroke-opacity:1;stroke-dasharray:none;stroke-dashoffset:0" transform="rotate(180 180 782.362)"/><path d="M174.387 593.965c-4.516-3.515-8.612-6.172-13.403-8.356-3.098-1.413-6.338-2.968-9.766-3-2.152-.019-6.19.955-6.203 1.772-.006.41.808.621 1.298.732 2.273.514 4.685-.692 7.009-.447 2.82.297 5.535 1.237 8.15 2.3 4.537 1.842 9.291 4.228 12.915 6.999" style="fill:#55a;fill-opacity:1;stroke:#55a;stroke-width:2;stroke-linecap:round;stroke-linejoin:round;stroke-miterlimit:4;stroke-opacity:1;stroke-dasharray:none;stroke-dashoffset:0" transform="rotate(180 180 782.362)"/><path d="M145.5 591.612c1 .417 1.986.553 3 .52 1.456-.046 2.797-.914 4.25-1.02 2.754-.2 5.573.073 8.25.75 2.461.623 4.777 1.775 7 3 1.417.781 2.667 1.834 4 2.75m-24.267-3.194c1.314.292 2.6.766 3.942.876 1.749.143 3.508-.454 5.255-.292 2.245.207 4.526.655 6.57 1.606 2.841 1.321 5.06 3.698 7.59 5.547" style="fill:none;stroke:#55a;stroke-width:2;stroke-linecap:round;stroke-linejoin:round;stroke-miterlimit:4;stroke-opacity:1;stroke-dasharray:none;stroke-dashoffset:0" transform="rotate(180 180 782.362)"/><path d="M148.901 596.024c.098 1.167-.225 2.451.292 3.503.669 1.36 2 2.393 3.358 3.066 1.462.724 3.186.94 4.817.876 1.71-.068 3.382-.66 4.964-1.314.987-.408 1.766-1.249 2.773-1.606.882-.313 1.85-.292 2.774-.438" style="fill:none;stroke:#55a;stroke-width:2;stroke-linecap:round;stroke-linejoin:round;stroke-miterlimit:4;stroke-opacity:1;stroke-dasharray:none;stroke-dashoffset:0" transform="rotate(180 180 782.362)"/><path d="M156.638 596.024c.292 1.07.919 2.102.876 3.211a3.7 3.7 0 0 1-.73 2.044c-.504.668-1.362.973-2.043 1.46" style="fill:none;stroke:#55a;stroke-width:2;stroke-linecap:round;stroke-linejoin:round;stroke-miterlimit:4;stroke-opacity:1;stroke-dasharray:none;stroke-dashoffset:0" transform="rotate(180 180 782.362)"/><path d="M152.405 600.257c.791.039 1.53-.963 1.606-1.752.07-.74-.429-1.826-1.168-1.898-.857-.083-1.708 1.038-1.752 1.898-.037.73.585 1.716 1.314 1.752" style="fill:#55a;stroke:#55a;stroke-width:2;stroke-linecap:round;stroke-linejoin:round;stroke-miterlimit:4;stroke-opacity:1;stroke-dasharray:none;stroke-dashoffset:0" transform="rotate(180 180 782.362)"/><path d="M149.193 602.447c1.314 1.216 2.52 2.562 3.942 3.65 1.094.836 2.254 1.61 3.503 2.189 1.16.537 2.433.779 3.65 1.168" style="fill:none;stroke:#55a;stroke-width:2;stroke-linecap:round;stroke-linejoin:round;stroke-miterlimit:4;stroke-opacity:1;stroke-dasharray:none;stroke-dashoffset:0" transform="rotate(180 180 782.362)"/><path d="M150.799 612.665c.584.876 1.545 1.596 1.752 2.628.204 1.02-.092 2.156-.597 3.066-.46.827-1.182 1.63-2.078 1.932-.928.312-1.999.03-2.924-.292-1.127-.392-1.95-1.391-3.014-1.932-.838-.426-1.693-.922-2.628-1.022-.588-.063-1.16.286-1.752.279-.533-.006-1.164.052-1.575-.288-.36-.297-.716-.888-.507-1.305.32-.638 1.352-.609 2.065-.57 1.312.069 2.513.818 3.667 1.446 1.103.6 1.938 1.637 3.066 2.19.86.422 1.815 1.01 2.756.824 1.112-.22 2.07-1.16 2.645-2.138.383-.653.493-1.488.386-2.237-.135-.948-.97-1.656-1.262-2.58m12.262 7.299c1.8.68 3.826 1.223 5.209 2.269 1.082.819 1.391 2.425 1.215 3.716-.214 1.564-1.337 3.032-2.628 3.941-1.148.81-2.684.973-4.087 1.022-1.68.06-3.34-.446-4.964-.876-1.398-.37-2.691-1.08-4.087-1.46-1.004-.273-2.026-.618-3.066-.583-1.156.038-2.241 1.178-3.358.875-.73-.198-1.574-.849-1.605-1.605-.035-.828.873-1.511 1.605-1.898 1.255-.663 2.833-.66 4.234-.438 1.42.226 2.633 1.156 3.941 1.752 1.466.668 2.827 1.617 4.38 2.043 1.415.39 2.935.698 4.38.438 1.296-.232 2.761-.681 3.55-1.736.752-1.006.979-2.508.631-3.714-.278-.968-1.199-1.658-2.011-2.252-.984-.72-2.365-.91-3.339-1.494" style="fill:#55a;stroke:#55a;stroke-width:2;stroke-linecap:round;stroke-linejoin:round;stroke-miterlimit:4;stroke-opacity:1;stroke-dasharray:none;stroke-dashoffset:0" transform="rotate(180 180 782.362)"/><path d="m287.5 663.862 42.5 27.5v9.5l-47.5-31.5z" style="fill:#ff5;fill-opacity:1;stroke:#55a;stroke-width:2;stroke-linecap:round;stroke-linejoin:round;stroke-miterlimit:4;stroke-dasharray:none" transform="rotate(180 180 782.362)"/><path d="M284.5 562.362c-3.833 6.334-8.34 11.498-10.616 18.116-1.956 5.687-2.65 11.876-2.384 17.884.303 6.827 1.709 13.763 4.5 20 2.343 5.235 6.667 9.334 10 14 1.5-4.833 2.166-10.01 4.5-14.5 2.137-4.111 5.176-7.771 8.5-11 1.626-1.58 3.667-2.666 5.5-4l-1-14.5c-3-1.833-6.388-3.147-9-5.5a29.4 29.4 0 0 1-6.5-8.5c-1.88-3.718-2.333-8-3.5-12" style="fill:#ff5;fill-opacity:1;stroke:#55a;stroke-width:2;stroke-linecap:round;stroke-linejoin:round;stroke-miterlimit:4;stroke-opacity:1;stroke-dasharray:none;stroke-dashoffset:0" transform="rotate(180 180 782.362)"/><path d="M284.737 562.594s-4.125 11.68-4.237 17.768c-.062 3.399 2 10 2 10l-10.5 7 10.5 8s-1.863 7.651-1.5 11.5c.525 5.56 5.237 15.914 5.237 15.914s1.67-10.387 3.97-15.03c1.721-3.474 4.53-6.315 7.147-9.177 2.045-2.237 6.646-6.207 6.646-6.207v-15.5s-7.58-2.837-10.5-5.5c-2.493-2.274-4.06-5.448-5.5-8.5-1.533-3.247-3.263-10.268-3.263-10.268m-10.987 34.863 30.25-.22m-21.5-6.5 20.5-.375m-21.862-7.25h14.996m-14.561-7.542 7.625-.126m-7.073 29.418 19.134-.302M282 612.487l11.362-.302m-10.737 6.802 6.655-.021" style="fill:#ff5;fill-opacity:1;stroke:#55a;stroke-width:2;stroke-linecap:round;stroke-linejoin:round;stroke-miterlimit:4;stroke-opacity:1;stroke-dasharray:none;stroke-dashoffset:0" transform="rotate(180 180 782.362)"/><path d="m330 558.362-26 17.5v98.5l6 3.7v-97.7l20-13z" style="fill:#ff5;fill-opacity:1;stroke:#55a;stroke-width:2;stroke-linecap:round;stroke-linejoin:round;stroke-miterlimit:4;stroke-opacity:1;stroke-dasharray:none;stroke-dashoffset:0" transform="rotate(180 180 782.362)"/><path d="m242.813 649.582 3.207 3.864-88.506-.129s4.297-.474 6.414-.898c1.82-.364 3.616-.855 5.387-1.41 1.304-.41 3.848-1.411 3.848-1.411zm-99.512 19.845 96.872-.362-3.81 4.716-89.61.363zm23.949-13.967v11.61l12.699.18-.182-11.79zm29.025.362-.182 11.429h13.06l-.18-11.61zm28.116 0v11.247h11.791l-.18-11.61zm-85.698-.362h13.501l-.181 11.79-9.796.363s-1.762-2.936-2.72-4.353c-1.389-2.052-4.386-6.002-4.386-6.002z" style="fill:#ff5;fill-opacity:1;stroke:none" transform="rotate(180 180 782.362)"/><path d="M148.943 661.348a3 3 0 1 1-6 0 3 3 0 0 1 6 0zm27.754-.091a3 3 0 1 1-6 0 3 3 0 0 1 6 0zm28.661.182a3 3 0 1 1-6 0 3 3 0 0 1 6 0zm28.117-.544a3 3 0 1 1-6 0 3 3 0 0 1 6 0z" style="fill:#ff5;fill-opacity:1;stroke:#000;stroke-width:2;stroke-miterlimit:4" transform="rotate(180 180 782.362)"/><path d="M163.548 661.755a3.5 3.5 0 1 1-7 0 3.5 3.5 0 0 1 7 0m28.064-.309a3.5 3.5 0 1 1-7 0 3.5 3.5 0 0 1 7 0m29.024.181a3.5 3.5 0 1 1-7 0 3.5 3.5 0 0 1 7 0m26.121-.725-3.681 4.225c-1.27 1.458-2.775-1.385-2.775-3.318a3.5 3.5 0 0 1 3.5-3.5c1.933 0 4.226 1.135 2.956 2.593" style="fill:#ff5;fill-opacity:1;stroke:none" transform="rotate(180 180 782.362)"/><path d="m147.493 674.207 89.106-.379-55.739 78.489s-3.38-15.702-5.877-23.32c-2.87-8.753-6.468-17.275-10.427-25.593-2.881-6.053-6.25-11.866-9.67-17.632-2.333-3.936-7.393-11.565-7.393-11.565" style="fill:#55a;fill-opacity:1;stroke:none" transform="rotate(180 180 782.362)"/><path d="m166.726 684.54 46.749-.165-28.748 38.865s-2.274-8.018-3.72-11.92a116 116 0 0 0-4.833-11.207c-1.62-3.269-3.456-6.432-5.373-9.536-1.277-2.065-4.075-6.037-4.075-6.037" style="fill:#fff;fill-opacity:1;stroke:none" transform="rotate(180 180 782.362)"/><path d="M130.056 659.539c4.045 5.245 9.738 11.985 14.03 18.39a232 232 0 0 1 14.408 24.646c3.684 7.306 7.05 14.81 9.67 22.56 2.898 8.583 4.36 17.316 6.635 26.353 1.517.127 4.17.063 5.687.19-.758-3.602-1.596-6.837-2.464-10.238-1.62-6.342-2.971-12.775-5.119-18.959-2.369-6.82-5.418-13.393-8.531-19.906-3.146-6.58-6.458-13.1-10.238-19.338-3.062-5.052-6.594-9.806-10.048-14.598-2.946-4.087-6.636-8.652-9.1-12.065-1.201.759-3.729 2.206-4.93 2.965" style="fill:#ff5;fill-opacity:1;stroke:#000;stroke-width:2;stroke-linecap:round;stroke-linejoin:round;stroke-miterlimit:4;stroke-opacity:1;stroke-dasharray:none;stroke-dashoffset:0" transform="rotate(180 180 782.362)"/><path d="m173.839 687.97 31.68-.11-19.481 25.91s-1.541-5.345-2.521-7.947a77 77 0 0 0-3.275-7.471c-1.098-2.18-2.342-4.288-3.642-6.357-.865-1.377-2.761-4.025-2.761-4.025" style="fill:#55a;fill-opacity:1;stroke:none" transform="rotate(180 180 782.362)"/><path d="m254.912 659.388 5.657 1.414 7.955.177 6.01-1.591 4.066-2.652 10.662 6.364-68.059 89.95-33.643-.53z" style="fill:#000;fill-opacity:1;stroke:none" transform="rotate(180 180 782.362)"/><path d="M271.031 662.487c-.847-.029-1.454.997-1.844 1.75-1.512 2.926.803 7.338-1.406 9.781-4.463 4.937-13.711 1.319-19.375 4.813a3.9 3.9 0 0 0-1.5 1.75c-3.214 7.486 2.996 18.298-2.5 24.312-4.037 4.42-12.406.506-17.625 3.438-.7.394-1.3 1.046-1.625 1.781-3.115 7.042 2.81 17.115-2.156 23-3.52 4.172-10.986 1.703-15.812 4.25a3.9 3.9 0 0 0-1.313 1.125c-1.94 2.64-3.761 5.758-3.875 9.031-.034.978.07 2.381.967 2.772s1.998-.485 2.69-1.178c2.084-2.091 1.296-6.195 3.53-8.125 4.23-3.653 11.464-1.388 16.188-4.375a3.87 3.87 0 0 0 1.469-1.719c2.99-7.062-2.993-17.222 2.156-22.906 4.018-4.436 12.394-.528 17.625-3.437a3.9 3.9 0 0 0 1.625-1.75c3.377-7.46-2.869-18.255 2.5-24.438 4.348-5.007 13.62-1.378 19.313-4.781a3.9 3.9 0 0 0 1.5-1.656c1.592-3.391 2.702-7.547 1.593-11.125-.31-1-1.079-2.277-2.125-2.313" style="font-size:medium;font-style:normal;font-variant:normal;font-weight:400;font-stretch:normal;text-indent:0;text-align:start;text-decoration:none;line-height:normal;letter-spacing:normal;word-spacing:normal;text-transform:none;direction:ltr;block-progression:tb;writing-mode:lr-tb;text-anchor:start;baseline-shift:baseline;color:#000;fill:#ff5;fill-opacity:1;stroke:none;stroke-width:4;marker:none;visibility:visible;display:inline;overflow:visible;font-family:Sans;-inkscape-font-specification:Sans" transform="rotate(180 180 782.362)"/><path d="M262.478 668.934a3.5 3.5 0 1 1-7 0 3.5 3.5 0 0 1 7 0m-1.945 19.976a3.5 3.5 0 1 1-7 0 3.5 3.5 0 0 1 7 0m-20.506 8.838a3.5 3.5 0 1 1-7 0 3.5 3.5 0 0 1 7 0m-.884 21.213a3.5 3.5 0 1 1-7 0 3.5 3.5 0 0 1 7 0m-20.683 8.309a3.5 3.5 0 1 1-7 0 3.5 3.5 0 0 1 7 0m.884 19.622a3.5 3.5 0 1 1-7 0 3.5 3.5 0 0 1 7 0" style="fill:#ff5;fill-opacity:1;stroke:none" transform="rotate(180 180 782.362)"/><path d="m249.496 655.937-69.2 95.93h7.584l66.924-92.707z" style="fill:#f55;fill-opacity:1;stroke:#000;stroke-width:2;stroke-linecap:round;stroke-linejoin:round;stroke-miterlimit:4;stroke-dasharray:none" transform="rotate(180 180 782.362)"/><path d="M244.158 581.676c1.485 7.569 2.487 15.22 3.783 22.821 1.074 6.296 1.281 12.817 3.31 18.873 1.259 3.76 2.939 7.494 5.416 10.59 1.332 1.665 3.233 2.78 4.916 4.092" style="fill:none;stroke:#55a;stroke-width:2;stroke-linecap:round;stroke-linejoin:round;stroke-miterlimit:4;stroke-opacity:1;stroke-dasharray:none;stroke-dashoffset:0" transform="rotate(180 180 782.362)"/><path d="M237.393 580.856c1.589 9.428 2.948 18.175 4.632 27.225 1.094 5.876 1.532 11.95 3.554 17.575 2.162 6.012 4.53 12.375 9.034 16.906 3.14 3.159 7.294 6.311 11.748 6.367 1.794.022 4.53-.672 4.794-2.446.22-1.474-2.114-2.783-3.217-3.1" style="fill:none;stroke:#55a;stroke-width:2;stroke-linecap:round;stroke-linejoin:round;stroke-miterlimit:4;stroke-opacity:1;stroke-dasharray:none;stroke-dashoffset:0" transform="rotate(180 180 782.362)"/><path d="M230.218 579.011c2.201 7.156 3.21 14.585 4.51 21.936 1.385 7.832 1.184 15.994 3.503 23.602 2.27 7.442 4.814 15.305 10.036 21.072 4.076 4.502 9.54 8.937 15.594 9.425 4.3.347 9.91-1.063 12.006-4.835 1.824-3.282 1.44-9.475-1.947-11.094-2.267-1.084-7.964-1.569-6.597 3.65" style="fill:none;stroke:#55a;stroke-width:2;stroke-linecap:round;stroke-linejoin:round;stroke-miterlimit:4;stroke-opacity:1;stroke-dasharray:none;stroke-dashoffset:0" transform="rotate(180 180 782.362)"/><path d="M223.658 578.191c2.036 5.835 2.688 12.013 3.966 18.034 2.681 12.64 3.145 25.91 7.764 37.976 2.315 6.048 5.439 11.99 9.812 16.766 3.635 3.969 7.907 8.198 13.164 9.345 6.78 1.48 15.66 1.134 20.454-3.885 4.094-4.285 5.912-12.745 2.514-17.601-3.363-4.805-12.427-7.012-17.217-3.629-3.093 2.185-2.84 7.716-1.507 11.26.416 1.104 1.78 1.71 2.665 2.327m-48.38-72.028c1.825 5.6 3.171 11.346 4.329 17.116 2.194 10.939 1.93 22.36 4.943 33.103 1.843 6.57 5.026 13.225 7.948 18.867m-24.805-70.521c1.82 5.25 3.208 10.65 4.332 16.09 1.907 9.232 2.698 18.533 4.073 27.987 1.351 9.294 5.415 18.33 9.84 26.4m-26.241-71.297c2.2 4.83 3.928 9.869 5.233 15.001 2.977 11.702 3.153 23.98 5.861 35.747 1.056 4.583 2.266 9.163 4.036 13.52 1.085 2.673 2.787 5.406 4.007 7.67m-19.414-51.642c1.063 7 1.836 14.09 3.168 21.066 1.248 6.54 2.555 13.093 4.514 19.455 1.108 3.595 2.86 6.96 4.076 10.524m-14.146-24.805c.964 5.367 1.883 10.77 3.408 16.009.896 3.075 2.192 6.019 3.358 9.001m-11.686-14.145c.684 4.964 1.997 9.883 4.305 14.35m-9.02-8.2c.571 2.753 1.197 5.56 2.665 7.995m-8.049-3.182c.418 1.254.521 2.635 1.507 3.708" style="fill:none;stroke:#55a;stroke-width:2;stroke-linecap:round;stroke-linejoin:round;stroke-miterlimit:4;stroke-opacity:1;stroke-dasharray:none;stroke-dashoffset:0" transform="rotate(180 180 782.362)"/><path d="m179.742 646.283 60.556-.154 2.565 3.536-69.748-.01z" style="fill:#000;fill-opacity:1;stroke:none" transform="rotate(180 180 782.362)"/><path d="m310 588.809 20-13m-20 21.042 20-13m-20 21.043 20-13m-20 21.042 20-13m-20 21.043 20-13m-20 21.043 20-13m-20 21.042 20-13m-20 21.043 20-13m-20 21.043 20-13m-20 21.042 20-13m-20 21.042 20-13m-20 21.043 20-13m-14 17.043 14-9m-8 13.042 8-5" style="fill:none;stroke:#55a;stroke-width:2;stroke-linecap:round;stroke-linejoin:round;stroke-miterlimit:4;stroke-dasharray:none" transform="rotate(180 180 782.362)"/><path d="M124.219 665.768c-.936.03-1.572 1.188-1.906 2.063-1.134 2.968-.765 6.49.156 9.531.2.664.609 1.287 1.125 1.75 5.269 4.73 15.177 3.54 19 9.5 4.05 6.317-1.21 15.256.75 22.5a3.95 3.95 0 0 0 .844 1.563c3.964 4.505 12.35 4.946 14.625 10.5 2.212 5.399-2.906 11.415-2.97 17.25-.004.421.06.849.188 1.25.875 2.718 1.752 5.75 3.906 7.625.726.631 1.868 1.385 2.726.949s.923-1.804.837-2.762c-.234-2.622-3.2-4.429-3.594-7.031-.902-5.959 3.754-11.822 3.094-17.813a3.93 3.93 0 0 0-.812-1.968c-3.79-4.787-12-5.302-14.875-10.688-3.564-6.675 1.531-15.473-.75-22.687a3.94 3.94 0 0 0-1.125-1.72c-5.29-4.708-15.233-3.504-19-9.5-1.475-2.345.983-5.772-.126-8.312-.386-.884-1.129-2.03-2.093-2" style="font-size:medium;font-style:normal;font-variant:normal;font-weight:400;font-stretch:normal;text-indent:0;text-align:start;text-decoration:none;line-height:normal;letter-spacing:normal;word-spacing:normal;text-transform:none;direction:ltr;block-progression:tb;writing-mode:lr-tb;text-anchor:start;baseline-shift:baseline;color:#000;fill:#ff5;fill-opacity:1;stroke:none;stroke-width:4;marker:none;visibility:visible;display:inline;overflow:visible;font-family:Sans;-inkscape-font-specification:Sans" transform="rotate(180 180 782.362)"/><path d="M135.962 672.446a3.5 3.5 0 1 1-7 0 3.5 3.5 0 0 1 7 0m4.423 20.344a3.5 3.5 0 1 1-7 0 3.5 3.5 0 0 1 7 0m16.585 12.605a3.5 3.5 0 1 1-7 0 3.5 3.5 0 0 1 7 0m-.663 21.23a3.5 3.5 0 1 1-7 0 3.5 3.5 0 0 1 7 0m14.153 13.931a3.5 3.5 0 1 1-7 0 3.5 3.5 0 0 1 7 0" style="fill:#ff5;fill-opacity:1;stroke:none" transform="rotate(180 180 782.362)"/><path d="m113.38 669.835-3.331 2.027s9.276 11.85 12.795 16.969c3.107 4.52 5.908 9.304 8.531 14.187 3.572 6.65 6.71 13.59 9.813 20.563 2.388 5.368 6.812 16.5 6.812 16.5l3.719-1.469s-4.43-11.093-6.906-16.656c-3.11-6.987-6.28-14.002-9.938-20.813-2.665-4.961-5.496-9.874-8.719-14.562-3.798-5.526-12.777-16.746-12.777-16.746" style="font-size:medium;font-style:normal;font-variant:normal;font-weight:400;font-stretch:normal;text-indent:0;text-align:start;text-decoration:none;line-height:normal;letter-spacing:normal;word-spacing:normal;text-transform:none;direction:ltr;block-progression:tb;writing-mode:lr-tb;text-anchor:start;baseline-shift:baseline;color:#000;fill:#ff5;fill-opacity:1;stroke:none;stroke-width:4;marker:none;visibility:visible;display:inline;overflow:visible;font-family:Sans;-inkscape-font-specification:Sans" transform="rotate(180 180 782.362)"/><path d="M108.875 676.375c-3.12 2.25-6.092 4.084-9.594 6.906-1.51 1.218-1.866 3.087-1.812 4.75.054 1.664.512 3.305.906 4.594.708 2.315 2.2 4.56 4.469 5.813 1.108.612 2.433 1.145 3.844 1.343 1.41.199 2.968.09 4.28-.812a219 219 0 0 1 9.532-6.219l-1.562-2.562c-3.27 2.006-6.389 4.068-9.657 6.312-.453.311-1.21.446-2.156.313-.947-.134-2.03-.552-2.844-1-1.367-.756-2.555-2.406-3.062-4.063-.362-1.182-.712-2.63-.75-3.812-.039-1.184.217-1.94.719-2.344 3.352-2.703 6.218-4.46 9.437-6.782z" style="font-size:medium;font-style:normal;font-variant:normal;font-weight:400;font-stretch:normal;text-indent:0;text-align:start;text-decoration:none;line-height:normal;letter-spacing:normal;word-spacing:normal;text-transform:none;direction:ltr;block-progression:tb;writing-mode:lr-tb;text-anchor:start;baseline-shift:baseline;color:#000;fill:#ff5;fill-opacity:1;stroke:none;stroke-width:3;marker:none;visibility:visible;display:inline;overflow:visible;font-family:Sans;-inkscape-font-specification:Sans" transform="rotate(180 180 782.362)"/><path d="M122.719 696.281c-3.099 1.734-6.46 3.08-9.75 5.438-1.305.935-1.957 2.363-2.281 3.75s-.32 2.823-.188 4.062c.276 2.603 1.607 5.128 3.688 6.782 1.086.863 2.477 1.725 4 2.25 1.522.524 3.298.773 4.843-.188 2.927-1.82 5.716-3.063 9.125-5.031l-1.5-2.594c-3.27 1.888-6.097 3.153-9.219 5.094-.38.237-1.202.247-2.28-.125-1.08-.372-2.282-1.08-3.126-1.75-1.352-1.075-2.377-3.033-2.562-4.782-.103-.971-.094-2.094.125-3.03.219-.937.61-1.601 1.125-1.97 2.943-2.109 6.166-3.433 9.469-5.28z" style="font-size:medium;font-style:normal;font-variant:normal;font-weight:400;font-stretch:normal;text-indent:0;text-align:start;text-decoration:none;line-height:normal;letter-spacing:normal;word-spacing:normal;text-transform:none;direction:ltr;block-progression:tb;writing-mode:lr-tb;text-anchor:start;baseline-shift:baseline;color:#000;fill:#ff5;fill-opacity:1;stroke:none;stroke-width:2.99999976;marker:none;visibility:visible;display:inline;overflow:visible;font-family:Sans;-inkscape-font-specification:Sans" transform="rotate(180 180 782.362)"/><path d="M134.469 716.594c-3.716 1.783-5.71 2.905-10.313 6.093-1.289.893-1.924 2.302-2.25 3.657a11.4 11.4 0 0 0-.219 3.937c.334 2.924 1.785 6.036 4.438 7.75 1.117.722 2.43 1.421 3.969 1.688 1.51.261 3.238-.006 4.844-1l.03.03 8.407-4.812-1.5-2.593-8.375 4.78-.063.032c-1.022.654-1.878.756-2.812.594s-1.94-.646-2.875-1.25c-1.617-1.044-2.82-3.404-3.063-5.531-.104-.92-.092-2.034.125-2.938.218-.904.603-1.556 1.063-1.875 4.545-3.148 6.25-4.089 9.906-5.844z" style="font-size:medium;font-style:normal;font-variant:normal;font-weight:400;font-stretch:normal;text-indent:0;text-align:start;text-decoration:none;line-height:normal;letter-spacing:normal;word-spacing:normal;text-transform:none;direction:ltr;block-progression:tb;writing-mode:lr-tb;text-anchor:start;baseline-shift:baseline;color:#000;fill:#ff5;fill-opacity:1;stroke:none;stroke-width:3;marker:none;visibility:visible;display:inline;overflow:visible;font-family:Sans;-inkscape-font-specification:Sans" transform="rotate(180 180 782.362)"/><path d="M149.313 735.3s-10.759 6.233-16 10.187a87.3 87.3 0 0 0-13.518 12.701c-4.235 4.915-7.992 10.403-10.688 16.406-2.626 5.848-4.436 11.764-5.357 17.956-.793 5.328-.821 10.743-.469 16.03.338 5.066 1.646 9.376 3.215 14.39 2.166 6.922 9.674 19.96 9.674 19.96l2.607-3.398s-6.637-11.898-8.469-17.75c-1.42-4.54-2.73-8.56-3.058-13.482-.34-5.088-.3-10.2.438-15.157.888-5.973 2.663-11.552 5.075-16.924 2.498-5.56 6.024-10.749 10.063-15.437a83.2 83.2 0 0 1 12.893-12.107c4.728-3.567 15.625-9.907 15.625-9.907z" style="font-size:medium;font-style:normal;font-variant:normal;font-weight:400;font-stretch:normal;text-indent:0;text-align:start;text-decoration:none;line-height:normal;letter-spacing:normal;word-spacing:normal;text-transform:none;direction:ltr;block-progression:tb;writing-mode:lr-tb;text-anchor:start;baseline-shift:baseline;color:#000;fill:#ff5;fill-opacity:1;stroke:none;stroke-width:4;marker:none;visibility:visible;display:inline;overflow:visible;font-family:Sans;-inkscape-font-specification:Sans" transform="rotate(180 180 782.362)"/><path d="m88.683 685.764-3.147 2.24s8.22 9.42 11.495 13.733c2.662 3.505 5.187 7.124 7.407 10.875 4.331 7.322 8.124 14.971 11.593 22.781 1.518 3.418 3.695 9.608 4.157 10.907-1.334 1.376-7.89 8.205-11.25 13.03-3.656 5.249-7.05 10.885-9.313 17.032-2.556 6.942-4.28 14.354-4.531 21.844-.296 8.812 1.08 17.688 3.594 26.062 2.686 8.954 12.361 25.523 12.361 25.523l2.576-3.429s-8.758-15.435-11.094-23.219c-2.406-8.02-3.716-16.516-3.437-24.812.233-6.96 1.842-13.97 4.281-20.594 2.09-5.677 5.297-11.032 8.844-16.125 3.217-4.619 11.719-13.469 11.719-13.469.522-.527.712-1.36.468-2.062 0 0-2.87-8.152-4.718-12.313-3.517-7.916-7.382-15.698-11.813-23.187-2.32-3.92-4.927-7.656-7.656-11.25-3.53-4.647-11.536-13.567-11.536-13.567" style="font-size:medium;font-style:normal;font-variant:normal;font-weight:400;font-stretch:normal;text-indent:0;text-align:start;text-decoration:none;line-height:normal;letter-spacing:normal;word-spacing:normal;text-transform:none;direction:ltr;block-progression:tb;writing-mode:lr-tb;text-anchor:start;baseline-shift:baseline;color:#000;fill:#ff5;fill-opacity:1;stroke:none;stroke-width:4;marker:none;visibility:visible;display:inline;overflow:visible;font-family:Sans;-inkscape-font-specification:Sans" transform="rotate(180 180 782.362)"/><path d="M100.406 705.768S97.9 724.1 95 732.331c-3.365 9.551-8.267 18.621-13.969 27.062-5.314 7.867-12.1 14.8-18.812 21.782-4.896 5.093-9.892 10.074-15.375 14.375C42.252 799.15 30 806.362 30 806.362v4s13.69-8.55 18.688-12.469c5.67-4.446 10.76-9.5 15.687-14.625 6.699-6.968 13.608-14.02 19.125-22.187 5.814-8.606 10.873-17.93 14.344-27.781 3.173-9.008 5.531-27.157 5.531-27.157z" style="font-size:medium;font-style:normal;font-variant:normal;font-weight:400;font-stretch:normal;text-indent:0;text-align:start;text-decoration:none;line-height:normal;letter-spacing:normal;word-spacing:normal;text-transform:none;direction:ltr;block-progression:tb;writing-mode:lr-tb;text-anchor:start;baseline-shift:baseline;color:#000;fill:#ff5;fill-opacity:1;stroke:none;stroke-width:3;marker:none;visibility:visible;display:inline;overflow:visible;font-family:Sans;-inkscape-font-specification:Sans" transform="rotate(180 180 782.362)"/><path d="M67.152 701.323s-.479 13.454-1.87 18.82c-1.714 6.606-3.954 13.119-7.126 19.032-3.469 6.466-7.98 12.43-12.968 17.937C41.45 761.237 30 769.554 30 769.554v5.035s13.83-10.013 18.156-14.79c5.148-5.682 9.863-11.91 13.532-18.75 3.377-6.296 5.702-13.1 7.468-19.906 1.603-6.177 1.996-22.77 1.996-22.77z" style="font-size:medium;font-style:normal;font-variant:normal;font-weight:400;font-stretch:normal;text-indent:0;text-align:start;text-decoration:none;line-height:normal;letter-spacing:normal;word-spacing:normal;text-transform:none;direction:ltr;block-progression:tb;writing-mode:lr-tb;text-anchor:start;baseline-shift:baseline;color:#000;fill:#ff5;fill-opacity:1;stroke:none;stroke-width:4;marker:none;visibility:visible;display:inline;overflow:visible;font-family:Sans;-inkscape-font-specification:Sans" transform="rotate(180 180 782.362)"/><path d="M90.125 696.05c-5.53 1.741-12.27 3.306-15.375 8.218-.468.74-.54 1.854-.125 2.625 2.181 4.057 8.628 3.797 11.875 7.063 2.452 2.467 6.247 5.658 5.281 9-.85 2.94-5.207 3.397-8.156 4.219-4.103 1.143-9.355-1.73-12.75.843-.722.548-1.12 1.682-.906 2.563.853 3.516 6.013 4.354 7.906 7.437 2.033 3.312 5.284 7.857 3.281 11.188-1.704 2.835-6.411 2.01-9.719 2-3.812-.012-7.61-3.694-11.187-2.375-.85.314-1.578 1.253-1.656 2.156-.35 4.03 4.572 6.845 5.625 10.75.854 3.172 2.732 7.495.437 9.844-2.417 2.474-6.995.518-10.375-.219-3.537-.771-6.4-4.919-9.968-4.312-.894.152-1.763.968-2 1.843-1.256 4.624 3.983 8.964 4.187 13.75.112 2.64.425 6.123-1.656 7.75-1.757 1.375-4.515.283-6.688-.218-1.167-.27-2.164-1.904-3.281-1.47-.93.363-1.555 1.822-1.187 2.75.51 1.29 2.46 1.355 3.812 1.657 2.756.616 5.788 1.139 8.469.25a2.9 2.9 0 0 0 1.5-1.187c1.73-2.797 2.129-6.369 2.031-9.657-.114-3.831-5.892-8.541-3.031-11.093 1.925-1.718 4.658 2.361 7.187 2.875 4.064.825 8.591 1.798 12.438.25.67-.27 1.269-.86 1.531-1.532 1.463-3.749.488-8.16-.5-12.062-.751-2.967-5.876-5.808-4.031-8.25 1.703-2.255 5.518 1.536 8.343 1.5 4.02-.052 8.542-.1 11.813-2.438.6-.429 1.034-1.174 1.125-1.906.575-4.622-1.595-9.38-3.937-13.406-1.29-2.216-6.234-3.127-5.344-5.531 1.086-2.934 6.342.005 9.344-.875 3.612-1.06 7.65-2.272 10.03-5.188a2.86 2.86 0 0 0 .594-2.094c-.54-4.186-3.493-7.88-6.437-10.906-2.745-2.821-10.138-2.347-10-6.281.17-4.839 11.322-2.237 12.813-6.844.306-.948-.362-2.987-1.313-2.687" style="font-size:medium;font-style:normal;font-variant:normal;font-weight:400;font-stretch:normal;text-indent:0;text-align:start;text-decoration:none;line-height:normal;letter-spacing:normal;word-spacing:normal;text-transform:none;direction:ltr;block-progression:tb;writing-mode:lr-tb;text-anchor:start;baseline-shift:baseline;color:#000;fill:#ff5;fill-opacity:1;stroke:none;stroke-width:3;marker:none;visibility:visible;display:inline;overflow:visible;font-family:Sans;-inkscape-font-specification:Sans" transform="rotate(180 180 782.362)"/><path d="M74.438 711.518c-.937.352-1.478 1.846-1.126 2.782.712 1.887 3.768 1.542 5.407 2.718.999.718 2.954 1.41 2.625 2.594-.333 1.198-2.386.775-3.625.875-1.947.158-4.319-1.658-5.844-.437-.781.625-1.064 2.188-.437 2.968 1.366 1.703 4.355.649 6.53.47 2.307-.191 5.08-.024 6.75-1.626.603-.577.899-1.599.688-2.406-.582-2.23-3.036-3.526-4.906-4.875-1.836-1.325-3.943-3.859-6.062-3.063" style="font-size:medium;font-style:normal;font-variant:normal;font-weight:400;font-stretch:normal;text-indent:0;text-align:start;text-decoration:none;line-height:normal;letter-spacing:normal;word-spacing:normal;text-transform:none;direction:ltr;block-progression:tb;writing-mode:lr-tb;text-anchor:start;baseline-shift:baseline;color:#000;fill:#ff5;fill-opacity:1;stroke:none;stroke-width:3;marker:none;visibility:visible;display:inline;overflow:visible;font-family:Sans;-inkscape-font-specification:Sans" transform="rotate(180 180 782.362)"/><path d="M93.844 702.08c-2.39 1.379-3.793 1.713-6.625 3.532-.64.411-.33 1.649.094 2.281.414.62 1.378.578 2.03.938.99.545 2.074 1.018 2.844 1.844.602.644.905 1.515 1.282 2.312.254.537.117 1.408.656 1.656.76.35 2.023-.053 2.375-.812.278-.598-.43-1.25-.719-1.844-.511-1.054-.98-2.176-1.781-3.031-.938-1.002-3.48-.942-3.406-2.313.09-1.66 3.913-.754 4.406-2.343.247-.797-.434-2.635-1.156-2.22m-3.5 27.095c-.82-.114-1.304 1.022-2 1.468-1.084.695-2.15 1.48-3.375 1.875-.42.136-.873.13-1.313.157-.301.018-.647-.156-.906 0-.647.389-1.093 1.245-1.062 2 .051 1.296 1.569 2.094 2.093 3.28.646 1.462-.11 3.788 1.25 4.626.706.435 2.004.207 2.438-.5.926-1.51-.702-3.5-1.406-5.125-.302-.695-1.51-1.252-1.188-1.938.125-.266.595-.032.875-.125 1.442-.48 2.718-1.37 4-2.187.742-.472 2.004-.692 2.125-1.563.114-.823-.708-1.854-1.531-1.968" style="font-size:medium;font-style:normal;font-variant:normal;font-weight:400;font-stretch:normal;text-indent:0;text-align:start;text-decoration:none;line-height:normal;letter-spacing:normal;word-spacing:normal;text-transform:none;direction:ltr;block-progression:tb;writing-mode:lr-tb;text-anchor:start;baseline-shift:baseline;color:#000;fill:#ff5;fill-opacity:1;stroke:none;stroke-width:2.5;marker:none;visibility:visible;display:inline;overflow:visible;font-family:Sans;-inkscape-font-specification:Sans" transform="rotate(180 180 782.362)"/><path d="M83.406 691.787c-1.547-.018-2.143 1.874-3.394 2.63-1.227.74-3.435.658-3.98 1.835-.36.776.034 2.062.968 2.362 1.719.552 3.346-1.323 4.837-2.222 1.363-.823 3.672-1.467 3.694-2.866.014-.826-1.13-1.728-2.125-1.74m-14.875 42.889c-.3.956-1.88 1.479-1.719 2.468.107.654 1.082.767 1.594 1.188.792.65 1.639 1.264 2.281 2.062.737.917 1.226 2.01 1.75 3.063.036.07.133.15.094.219-.036.064-.145.026-.219.03-1.174.084-2.366.17-3.53 0-.904-.13-1.763-.482-2.626-.78-.56-.195-1.107-.884-1.656-.657-.922.383-1.567 1.827-1.187 2.75.243.593 1.175.51 1.78.72 1.067.367 2.135.775 3.25.937 1.382.2 2.794.098 4.188.03.806-.038 1.729.188 2.406-.25.66-.424 1.14-1.248 1.188-2.03.05-.815-.601-1.521-.969-2.25-.634-1.26-1.242-2.557-2.125-3.657-.789-.983-1.81-1.757-2.781-2.562-.55-.456-1.08-1.602-1.719-1.281m-12.218 20.75c-.98-.228-2.277.707-2.5 1.687-.336 1.47 1.71 2.51 2.28 3.906.581 1.423 2.202 3.373 1.126 4.47-.712.724-2.013-.344-2.969-.688-1.468-.529-2.693-2.542-4.187-2.094-.957.287-1.789 1.637-1.5 2.594.5 1.659 3.028 1.718 4.656 2.312 1.863.68 3.871 1.942 5.781 1.406.794-.222 1.531-.954 1.75-1.75.672-2.445-.923-5.024-1.875-7.375-.645-1.591-.89-4.08-2.562-4.468m-17.094 16.25c-.885-.456-2.357.115-2.813 1-.943 1.828 1.367 3.905 1.688 5.937.181 1.153 1.04 2.776.125 3.5-.957.758-2.469-1.568-3.532-.969-.867.49-1.3 2.008-.812 2.875.938 1.668 3.65 1.88 5.531 1.532.777-.144 1.565-.694 1.907-1.407.864-1.805.068-4.023-.25-6-.357-2.213.149-5.441-1.844-6.468" style="font-size:medium;font-style:normal;font-variant:normal;font-weight:400;font-stretch:normal;text-indent:0;text-align:start;text-decoration:none;line-height:normal;letter-spacing:normal;word-spacing:normal;text-transform:none;direction:ltr;block-progression:tb;writing-mode:lr-tb;text-anchor:start;baseline-shift:baseline;color:#000;fill:#ff5;fill-opacity:1;stroke:none;stroke-width:3;marker:none;visibility:visible;display:inline;overflow:visible;font-family:Sans;-inkscape-font-specification:Sans" transform="rotate(180 180 782.362)"/><path d="M77.188 755.393c-.998-.29-1.765 1.195-2.782 1.407-1.052.218-2.222-.59-3.219-.188-.71.287-1.724.938-1.562 1.688.495 2.284 2.154 5.425 1.438 6.968-.352.757 1.943.747 2.5.125 1.344-1.502-2.206-4.377-.97-5.968.508-.653 1.673.002 2.47-.22 1.216-.336 3.043-.446 3.406-1.655.24-.801-.479-1.923-1.281-2.157m-24.469 21.469c-.611-.197-.949.946-1.125 1.563-.64 2.238-1.052 5.205.468 6.968.544.63 1.794 1.058 2.438.532 1.58-1.293-1.576-4.721-.094-6.125 1.524-1.444 4.94 2.052 6.282.437.529-.637-.004-1.858-.626-2.406-1.726-1.52-4.571-.517-6.843-.875-.168-.026-.392.037-.5-.094M34.156 795.3c-.27.786-1.766 1.171-1.531 1.968.312 1.06 2.038.902 3.125 1.094.77.136 1.754.544 2.344.031.626-.544.853-1.84.312-2.468-.55-.64-1.7.08-2.531-.063-.594-.102-1.23-.916-1.719-.562m78.375-114.081c-2.448 1.819-5.1 3.009-7.875 5.906-1.305 1.363-1.203 3.287-.437 4.5.522.829 1.292 1.315 2.125 1.625s1.756.474 2.719-.031c3.479-1.828 5.063-3.213 7.812-5.094l-1.406-2.062c-2.853 1.951-4.27 3.238-7.563 4.968.087-.045-.276.029-.687-.125-.412-.153-.817-.483-.906-.625-.295-.467-.417-.872.124-1.437 2.446-2.554 4.883-3.611 7.594-5.625a25 25 0 0 1-1.5-2m12.719 20.562c-2.029 1.13-4.358 1.482-7 3.25-1.04.696-1.579 1.814-1.781 2.938-.203 1.123-.08 2.332.625 3.343.637.917 1.616 1.287 2.562 1.438.947.151 1.936.11 2.813-.469 2.407-1.586 3.835-1.98 6.344-3.812l-1.47-2.032c-2.272 1.66-3.633 2.026-6.25 3.75-.09.06-.598.168-1.062.094s-.837-.307-.906-.406c-.173-.248-.297-.86-.187-1.469s.433-1.143.687-1.312c2.172-1.454 4.357-1.74 6.844-3.125zm11.5 20.063s-5.258 2.497-8.437 4.656c-1.068.725-1.306 1.87-1.344 2.938s.176 2.198 1 3.093c1.541 1.676 4.069 1.558 5.969.438 2.075-1.224 6.625-4.094 6.625-4.094l-1.344-2.094s-4.59 2.869-6.563 4.032c-1.073.632-2.386.528-2.844.03-.111-.12-.364-.727-.343-1.312.02-.584.345-1.033.25-.969 2.852-1.937 8.094-4.468 8.094-4.468z" style="font-size:medium;font-style:normal;font-variant:normal;font-weight:400;font-stretch:normal;text-indent:0;text-align:start;text-decoration:none;line-height:normal;letter-spacing:normal;word-spacing:normal;text-transform:none;direction:ltr;block-progression:tb;writing-mode:lr-tb;text-anchor:start;baseline-shift:baseline;color:#000;fill:#ff5;fill-opacity:1;stroke:none;stroke-width:2.5;marker:none;visibility:visible;display:inline;overflow:visible;font-family:Sans;-inkscape-font-specification:Sans" transform="rotate(180 180 782.362)"/><path d="M46.836 797.658c1.472 8.193 2.269 15.862 4.561 23.418 2.439 8.04 5.704 15.865 9.637 23.289 2.85 5.38 6.31 10.446 10.038 15.258 5.29 6.827 11.914 13.173 17.402 19.196" style="fill:none;stroke:#ff5;stroke-width:4;stroke-linecap:butt;stroke-linejoin:round;stroke-miterlimit:4;stroke-opacity:1;stroke-dasharray:none;stroke-dashoffset:0" transform="rotate(180 180 782.362)"/><path d="M155.576 764.572c-4.549 3.202-9.155 8.257-11.982 11.884-2.364 3.032-4.692 6.312-6.281 10.062-1.74 4.106-2.73 8.5-3.188 12.844-.481 4.563-.572 10.922 1.656 16.813l2.75-4.094c-.45-2.944-.812-8.462-.406-12.313.426-4.034 1.327-8.036 2.875-11.687 1.363-3.215 3.463-6.253 5.75-9.188 2.512-3.222 4.888-6.922 8.906-9.25z" style="font-size:medium;font-style:normal;font-variant:normal;font-weight:400;font-stretch:normal;text-indent:0;text-align:start;text-decoration:none;line-height:normal;letter-spacing:normal;word-spacing:normal;text-transform:none;direction:ltr;block-progression:tb;writing-mode:lr-tb;text-anchor:start;baseline-shift:baseline;color:#000;fill:#ff5;fill-opacity:1;stroke:none;stroke-width:4;marker:none;visibility:visible;display:inline;overflow:visible;font-family:Sans;-inkscape-font-specification:Sans" transform="rotate(180 180 782.362)"/><path d="M141.875 754.162a3.5 3.5 0 1 1-7 0 3.5 3.5 0 0 1 7 0m7.726.913a3.5 3.5 0 1 1-7 0 3.5 3.5 0 0 1 7 0m-7.731 6.932a3.5 3.5 0 1 1-7 0 3.5 3.5 0 0 1 7 0" style="fill:#ff5;fill-opacity:1;stroke:none" transform="rotate(180 180 782.362)"/><path d="M141.875 754.162a3.5 3.5 0 1 1-7 0 3.5 3.5 0 0 1 7 0m7.726.913a3.5 3.5 0 1 1-7 0 3.5 3.5 0 0 1 7 0m-7.731 6.932a3.5 3.5 0 1 1-7 0 3.5 3.5 0 0 1 7 0" style="fill:#ff5;fill-opacity:1;stroke:none" transform="rotate(163.552 184.235 781.548)"/><path d="M141.875 754.162a3.5 3.5 0 1 1-7 0 3.5 3.5 0 0 1 7 0m7.726.913a3.5 3.5 0 1 1-7 0 3.5 3.5 0 0 1 7 0m-7.731 6.932a3.5 3.5 0 1 1-7 0 3.5 3.5 0 0 1 7 0" style="fill:#ff5;fill-opacity:1;stroke:none" transform="rotate(152.106 188.423 776.926)"/><path d="M141.875 754.162a3.5 3.5 0 1 1-7 0 3.5 3.5 0 0 1 7 0m7.726.913a3.5 3.5 0 1 1-7 0 3.5 3.5 0 0 1 7 0m-7.731 6.932a3.5 3.5 0 1 1-7 0 3.5 3.5 0 0 1 7 0" style="fill:#ff5;fill-opacity:1;stroke:none" transform="rotate(120.698 192.937 780.693)"/><path d="m156.135 754.304 12.677.203-4.87 10.957h4.87l5.68-10.754h13.19l-4.668 10.55h5.479l4.87-10.753h14.202l-4.87 10.957h4.464l-2.637 4.87-8.725-.61 5.073-10.347h-4.667l-5.275 10.753-14.61-.406 4.668-9.942h-4.464l-5.276 10.551-14.203-.406 5.682-10.55-4.261-.203-2.232 3.652z" style="fill:#55a;stroke:none" transform="rotate(180 180 782.362)"/><path d="m151.565 764.246-8.319-4.464 3.855 8.725zm-12.085 12.453-8.93-3.062 5.213 7.987zm-7.378 16.295-9.412.736 7.956 5.261zm-1.206 17.195-7.194 6.113 9.53-.401zm-23.026-67.137 8.342 4.418-3.903-8.704zm-9.765 11.83 9.06 2.655-5.57-7.744zm-7.755 14.941 9.42.62-7.121-6.347zm-4.938 16.465 9.333-1.422-8.32-4.665zm-1.768 15.006 8.964-2.96-8.982-3.21zm1.203 15.083 8.41-4.292-9.367-1.805zm4.315 15.035 7.031-6.3-9.516.652zm5.726 13.718 7.03-6.3-9.515.652zm6.989 12.112 6.034-7.26-9.318 2.035z" style="fill:#ff5;fill-opacity:1;stroke:none" transform="rotate(180 180 782.362)"/><path d="M36.571 733.675c4.753-4.243 8.941-8.71 13.707-12.73 4.003-3.377 8.318-6.366 12.477-9.548-.237 1.697-.36 3.41-.713 5.092-.45 2.15-1.188 4.243-1.782 6.365-3.446 2.016-6.747 4.245-10.338 6.047a62 62 0 0 1-7.486 3.183c-1.914.663-3.726 1.06-5.865 1.591m-1.441 4.979c3.228-1.076 6.505-2.036 9.685-3.228 2.233-.837 4.475-1.68 6.587-2.751 2.346-1.19 4.477-2.71 6.716-4.066-.387 1.634-.475 3.356-1.162 4.903-.582 1.31-1.636 2.392-2.454 3.588-2.325.677-4.585 1.585-6.974 2.033-2.247.42-4.557.717-6.845.598-1.889-.099-3.703-.718-5.554-1.077m-.141 4.105c2.346.12 4.69.346 7.038.36 1.648.011 3.304.02 4.942-.19 1.819-.234 3.595-.792 5.393-1.188-.704 1.17-1.244 2.5-2.114 3.511-.736.856-1.707 1.392-2.561 2.089-1.662-.164-3.348-.126-4.985-.49-1.54-.342-3.086-.802-4.5-1.581-1.168-.643-2.142-1.674-3.213-2.511m-.499 4.411c1.626.808 3.214 1.697 4.878 2.425 1.168.51 2.342 1.023 3.58 1.36 1.375.374 2.832.486 4.247.73-.907.686-1.753 1.546-2.723 2.06-.821.435-1.698.552-2.547.828-1.125-.633-2.337-1.118-3.374-1.898-.976-.733-1.916-1.558-2.65-2.59-.607-.852-.94-1.944-1.411-2.915m-1.199 6.156c.956.826 1.881 1.72 2.87 2.477.693.531 1.39 1.065 2.144 1.45.836.427 1.748.631 2.622.947-.636.535-1.247 1.226-1.908 1.605-.558.321-1.124.36-1.686.54-.655-.635-1.379-1.148-1.966-1.906-.552-.712-1.072-1.503-1.445-2.46-.307-.789-.421-1.768-.632-2.653" style="fill:#f55;fill-opacity:1;stroke:#f55;stroke-width:2;stroke-linecap:round;stroke-linejoin:round;stroke-miterlimit:4;stroke-dasharray:none" transform="rotate(180 180 782.362)"/><path d="M104.195 715.565c1.257 2.604 2.876 5.363 4.204 8.1 1.57 3.235 2.962 6.553 4.444 9.83-2.963 3.007-6.173 5.79-8.888 9.022-3.829 4.558-7.401 9.381-10.368 14.542-3.044 5.295-5.624 10.9-7.541 16.698-1.788 5.408-2.925 11.046-3.636 16.697-.623 4.947-.754 9.966-.539 14.947.238 5.512.875 11.031 2.02 16.428 1.023 4.82 2.555 9.535 4.31 14.14 1.83 4.804 3.913 9.54 6.463 14.004 2.112 3.697 4.847 7.002 7.271 10.503l-11.042 14.947c-4.802-5.476-9.922-10.69-14.408-16.428-4.41-5.64-8.746-11.399-12.254-17.64-2.787-4.96-4.937-10.272-6.91-15.609-1.61-4.351-2.904-8.822-4-13.33-1.096-4.511-1.615-9.849-2.567-13.69 2.983-2.824 8.574-8.051 12.708-12.232 4.36-4.409 8.83-8.74 12.75-13.544 5.49-6.724 10.569-13.822 15.006-21.283 3.149-5.294 6.078-10.78 8.188-16.567 2.297-6.299 3.77-12.83 4.789-19.535" style="fill:#f55;fill-opacity:1;stroke:none" transform="rotate(180 180 782.362)"/><path d="M146.928 651.797a90 90 0 0 0-12.602 5.094c-7.905 3.897-15.276 8.8-22.79 13.406-8.497 5.209-17.01 10.412-25.203 16.087a322 322 0 0 0-19.304 14.478c-7.285 5.9-14.303 12.131-21.181 18.5-5.43 5.028-10.933 10.367-15.848 15.55" style="fill:none;stroke:#55a;stroke-width:2;stroke-linecap:round;stroke-linejoin:round;stroke-miterlimit:4;stroke-opacity:1;stroke-dasharray:none;stroke-dashoffset:0" transform="rotate(180 180 782.362)"/><path d="M163.379 779.88s.273-1.673.8-2.2 1.454-.8 2.2-.8c.745 0 1.673.273 2.2.8s.8 1.455.8 2.2-.4 1.8-.8 2.2-.8.6-1.2 1-.6.4-1 .8l-1 1c-.4.4-1 1.2-1.4 2s-.6 2-.6 2-.2-1.2-.6-2-1-1.6-1.4-2l-1-1c-.4-.4-.6-.4-1-.8s-.8-.6-1.2-1-.8-1.455-.8-2.2.273-1.673.8-2.2 1.454-.8 2.2-.8c.745 0 1.673.273 2.2.8s.8 2.2.8 2.2" style="fill:#f55;stroke:none" transform="rotate(180 180 782.362)"/><path d="M71.771 184.325c-.766-3.24-.715-6.792-2.298-9.722-1.466-2.714-3.754-5.074-6.364-6.718-1.624-1.023-3.56-1.724-5.48-1.768-2.015-.046-4.01.733-5.833 1.591-1.76.828-3.285 2.107-4.773 3.359-1.148.966-2.608 1.796-3.182 3.182-.339.817-.366 1.847 0 2.652.517 1.14 1.679 1.976 2.828 2.475 1.087.47 2.4.689 3.536.353 1.085-.32 1.808-1.366 2.651-2.121.994-.89 1.886-1.886 2.829-2.829.176.649.115 1.416.53 1.945.749.955 2.121 1.178 3.182 1.768-.943.884-2.139 1.558-2.828 2.651-.726 1.15-1.099 2.536-1.238 3.89-.176 1.708-.153 3.55.53 5.126.715 1.648 2.357 2.71 3.536 4.066" style="fill:none;stroke:#55a;stroke-width:2;stroke-linecap:round;stroke-linejoin:round;stroke-miterlimit:4;stroke-opacity:1;stroke-dasharray:none;stroke-dashoffset:0" transform="rotate(180 180 526.181)"/><path d="M48.027 170.672c.984-.552 2.718.961 3.061 2.163.335 1.168-.575 2.48-1.414 3.359-.946.99-2.475 1.178-3.712 1.767m8.132-12.021c-1.827-1.944-3.08-4.669-5.48-5.833a5.9 5.9 0 0 0-4.066-.354c-1.417.405-2.737 1.414-3.536 2.652-.589.913-.92 2.117-.707 3.182.241 1.202 1.27 2.122 2.121 3.005 1.08 1.12 2.475 1.886 3.713 2.829" style="fill:none;stroke:#55a;stroke-width:2;stroke-linecap:round;stroke-linejoin:round;stroke-miterlimit:4;stroke-opacity:1;stroke-dasharray:none;stroke-dashoffset:0" transform="rotate(180 180 526.181)"/><path d="M40.835 167.532c-1.178.117-2.474-.174-3.535.353-1.008.5-2.006 1.388-2.298 2.475-.345 1.284.196 2.752.884 3.889 1.363 2.253 3.882 3.576 6.01 5.127 1.903 1.386 3.899 2.67 6.01 3.712 1.188.586 2.423 1.715 3.713 1.414 1.096-.256 1.982-1.394 2.298-2.475.185-.632-.085-1.343-.354-1.944-.274-.614-.825-1.061-1.237-1.591" style="fill:none;stroke:#55a;stroke-width:2;stroke-linecap:round;stroke-linejoin:round;stroke-miterlimit:4;stroke-opacity:1;stroke-dasharray:none;stroke-dashoffset:0" transform="rotate(180 180 526.181)"/><path d="M47.523 179.564c-.618.318-.927 1.256-1.264 2.136m-9.313-4.8c-1.001.826-2.356 1.352-3.005 2.476-.537.93-.858 2.158-.53 3.182.28.872 1.318 1.275 1.944 1.944.856.915 1.477 2.071 2.475 2.828 1.197.909 2.63 1.506 4.066 1.945 1.538.47 3.177.902 4.773.707 1.075-.131 2.402-.337 3.005-1.237.525-.784.361-1.958 0-2.829-.382-.924-1.257-1.617-2.121-2.121-.95-.555-2.112-1.14-3.182-.884-.933.224-1.67 1.099-2.121 1.945-.366.683-.46 1.53-.354 2.298.097.705.59 1.296.884 1.944" style="fill:none;stroke:#55a;stroke-width:2;stroke-linecap:round;stroke-linejoin:round;stroke-miterlimit:4;stroke-opacity:1;stroke-dasharray:none;stroke-dashoffset:0" transform="rotate(180 180 526.181)"/><path d="M35.002 186.27c-.648.53-1.586.834-1.945 1.59-.353.746-.295 1.706 0 2.476.568 1.48 1.86 2.66 3.182 3.535 1.507.998 3.373 1.33 5.127 1.768 1.1.274 2.311.964 3.359.53.74-.306 1.274-1.155 1.414-1.944.15-.845-.176-1.802-.707-2.475-.67-.85-1.75-1.513-2.829-1.591-.818-.06-1.7.321-2.298.884-.518.488-.762 1.243-.884 1.944-.121.7.118 1.415.177 2.122m1.768 4.949 2.121 3.182 3.359 2.298" style="fill:none;stroke:#55a;stroke-width:2;stroke-linecap:round;stroke-linejoin:round;stroke-miterlimit:4;stroke-opacity:1;stroke-dasharray:none;stroke-dashoffset:0" transform="rotate(180 180 526.181)"/><path d="M37.123 195.285c-.471 1.886-1.15 3.732-1.414 5.657-.281 2.044-.118 4.125-.177 6.187l4.596-.176c-.059-2.18-.37-4.369-.176-6.541.128-1.439.589-2.828.883-4.243z" style="fill:#ff5;stroke:#55a;stroke-width:2;stroke-linecap:round;stroke-linejoin:round;stroke-miterlimit:4;stroke-opacity:1;stroke-dasharray:none;stroke-dashoffset:0" transform="rotate(180 180 526.181)"/><path d="M49.674 159.753c1.591-2.592 2.6-5.65 4.773-7.778a22.7 22.7 0 0 1 9.37-5.48c2.886-.843 6.008-.295 9.015-.353 3.594-.07 7.224.503 10.783 0 2.733-.387 5.428-1.19 7.955-2.299 1.768-.775 3.608-1.617 4.95-3.005.752-.777 1.06-1.885 1.591-2.828-.236 2.475.011 5.044-.707 7.424a22.1 22.1 0 0 1-4.066 7.602c-2.078 2.52-4.673 4.737-7.601 6.187-2.553 1.264-5.49 1.583-8.309 2-4.029.597-8.127.571-12.197.707-2.297.077-4.66-.472-6.895.061-1.854.442-3.417 1.357-5.126 2.535z" style="fill:#ff5;fill-opacity:1;stroke:#55a;stroke-width:2;stroke-linecap:round;stroke-linejoin:round;stroke-miterlimit:4;stroke-opacity:1;stroke-dasharray:none;stroke-dashoffset:0" transform="rotate(180 180 526.181)"/><path d="m89.047 660.183-5.176 3.565-.05-1.092-6.88 1.926 1.065-1.681-10.337 2.4c-.064.005 1.414-1.586 1.353-1.571l-10.084 3.038c-.227.044.241-1.321.058-1.181l-7.905 8.09.59.663 8.894-4.572-1.516-.438 8.965-.724-.817-.724 10.845.399-1.396-.856c.106-.01 10.307-1.967 10.409-1.998l-1.784-.534c1.27-.697 4.04-1.347 5.032-1.948.991-.602-1.001-.475-.943-.51l3.713-3.105-3.984 1.847z" style="font-size:medium;font-style:normal;font-variant:normal;font-weight:400;font-stretch:normal;text-indent:0;text-align:start;text-decoration:none;line-height:normal;letter-spacing:normal;word-spacing:normal;text-transform:none;direction:ltr;block-progression:tb;writing-mode:lr-tb;text-anchor:start;baseline-shift:baseline;color:#000;fill:#55a;fill-opacity:1;fill-rule:nonzero;stroke:#55a;stroke-width:1;stroke-linecap:round;stroke-linejoin:round;stroke-miterlimit:4;stroke-opacity:1;stroke-dasharray:none;marker:none;visibility:visible;display:inline;overflow:visible;font-family:Sans;-inkscape-font-specification:Sans" transform="rotate(180 180 782.362)"/><path d="M29.5 611.362c0-5.523-2.858-9-7-9s-7.5 4.477-7.5 10c.017.478.01.946 0 1.406 0 3.65 1.338 7.189 2.5 10.5 1.195 3.406 2.917 6.39 4.531 9.438 2.5 4.72 7.969 13.656 7.969 13.656s5.468-8.936 7.969-13.656c1.614-3.047 3.336-6.032 4.531-9.438 1.162-3.311 2.5-6.85 2.5-10.5a28 28 0 0 1 0-1.406c0-5.523-3.358-10-7.5-10s-7 3.477-7 9c0 1-1 1-1 0m59.5-36c0-11.046-5.716-18-14-18s-15 8.954-15 20c.035.956.018 1.891 0 2.813 0 7.298 2.677 14.377 5 21 2.389 6.81 5.834 12.78 9.063 18.875 5 9.44 15.937 27.312 15.937 27.312s10.936-17.873 15.938-27.312c3.228-6.095 6.673-12.064 9.062-18.875 2.323-6.623 5-13.702 5-21a56 56 0 0 1 0-2.813c0-11.046-6.716-20-15-20s-14 6.954-14 18c0 2-2 2-2 0m241.5 378c0 5.523 2.858 9 7 9s7.5-4.477 7.5-10a25 25 0 0 1 0-1.406c0-3.65-1.338-7.188-2.5-10.5-1.195-3.406-2.917-6.39-4.531-9.438-2.5-4.72-7.969-13.656-7.969-13.656s-5.468 8.937-7.969 13.656c-1.614 3.048-3.336 6.032-4.531 9.438-1.162 3.312-2.5 6.85-2.5 10.5.014.487.009.957 0 1.406 0 5.523 3.358 10 7.5 10s7-3.477 7-9c0-1 1-1 1 0m-59.5 36c0 11.046 5.716 18 14 18s15-8.954 15-20a50 50 0 0 1 0-2.812c0-7.299-2.677-14.377-5-21-2.389-6.811-5.834-12.781-9.062-18.875-5.002-9.44-15.938-27.313-15.938-27.313s-10.936 17.873-15.937 27.313c-3.23 6.094-6.674 12.064-9.063 18.875-2.323 6.623-5 13.701-5 21 .028.974.019 1.914 0 2.812 0 11.046 6.716 20 15 20s14-6.954 14-18c0-2 2-2 2 0" style="fill:#f55;fill-opacity:1;stroke:none"/></g></svg>