<svg xmlns="http://www.w3.org/2000/svg" width="360" height="540"><g transform="translate(0 -512.362)"><rect width="359" height="539" x=".5" y="512.862" rx="29.944" ry="29.944" style="fill:#fff;stroke:#000;stroke-width:.99999976"/><path d="M30 542.362c-5.523 0-10 4.477-10 10v30c0 5.523 4.477 10 10 10 .434 0 .862-.04 1.281-.094A9.97 9.97 0 0 0 40 597.362v-5c-1.64 0-3.088-.812-4-2.031 2.424-1.825 4-4.7 4-7.969v-30c0-5.523-4.477-10-10-10m0 5a5 5 0 0 1 5 5v30c0 .716-.167 1.385-.437 2a10.03 10.03 0 0 0-9.563-7v-25a5 5 0 0 1 5-5m-5 35a5 5 0 0 1 5 5 5 5 0 0 1-5-5m305 440c5.523 0 10-4.478 10-10v-30c0-5.523-4.477-10-10-10-.434 0-.862.04-1.281.094a9.97 9.97 0 0 0-8.719-5.094v5c1.64 0 3.088.812 4 2.031-2.424 1.825-4 4.7-4 7.969v30c0 5.523 4.477 10 10 10m0-5a5 5 0 0 1-5-5v-30c0-.716.167-1.385.438-2a10.03 10.03 0 0 0 9.562 7v25a5 5 0 0 1-5 5m5-35a5 5 0 0 1-5-5 5 5 0 0 1 5 5" style="fill:#f55;fill-opacity:1;stroke:none"/><path d="m144.719 248.656-.5 3.281-.125.813-1.125-1.094-.281.531-3.157-1.406.844 3.719.344 2.906.375 1.219 3.875 2 1.094-2.5 5.593 5.156 2.25 2.094 1-2.906.563-1.625 6.406 6.156 2 1.969 1.188-2.563.687-1.437 5.906 7.219 2.124 2.436 1.532-1.937 1.25-1.563 5.094 6.001 2.188 2.531 1.187-3.125.281-.719 6.344 6.844 2.656 2.875.782-3.844.125-.593.906 1.125.25-.531 6.25 5.468 2.563 2.219.718-3.312.219-.97 1.094 1.063.062-.219 4.281 3.188 2.657 1.969.5-3.281.125-.813 1.125 1.094.281-.531 3.188 1.406-.625-2.75 1.03.312-1.345-3.209-2.654-2.197-1.875-2-1.094 2.5-5.594-5.156-2.25-2.094-1 2.906-.562 1.625-6.406-6.156-2-1.969-1.188 2.563-.687 1.437-5.907-7.219-1.77-2.348-1.532 1.938-1.25 1.562-5.448-6.089-2.187-2.531-1.188 3.125-.281.719-6.344-6.844-2.656-2.875-.781 3.844-.125.593-.906-1.125-.25.531-6.25-5.468-2.563-2.219-.719 3.313-.219.968-1.093-1.062-.063.219-4.281-3.188z" style="font-size:medium;font-style:normal;font-variant:normal;font-weight:400;font-stretch:normal;text-indent:0;text-align:start;text-decoration:none;line-height:normal;letter-spacing:normal;word-spacing:normal;text-transform:none;direction:ltr;block-progression:tb;writing-mode:lr-tb;text-anchor:start;baseline-shift:baseline;color:#000;fill:#ff5;fill-opacity:1;stroke:none;stroke-width:4;marker:none;visibility:visible;display:inline;overflow:visible;font-family:Sans;-inkscape-font-specification:Sans" transform="translate(0 512.362)"/><path d="m213.503 192.682-8.546 73.21 10.071 1.872 20.989-78.16zm-89.759 31.595c-2.593 3.535-5.552 6.83-7.778 10.606-1.714 2.908-3.014 6.05-4.243 9.193-1.533 3.922-3.178 7.87-3.89 12.02-.755 4.416.054 8.974-.353 13.436-.552 6.058-2.02 12-2.828 18.03a275 275 0 0 0-1.414 12.729c-.327 3.764-.472 7.542-.708 11.314 3.182-1.533 6.395-3.002 9.546-4.597 3.81-1.928 7.836-3.532 11.314-6.01 3.803-2.71 7.456-5.807 10.253-9.546 2.368-3.165 4.057-6.855 5.303-10.607 1.253-3.769 1.86-7.763 2.11-11.727.28-4.455-.14-8.945-.695-13.375-.449-3.578-.89-7.218-2.122-10.607-1.512-4.163-3.884-7.996-6.364-11.667-1.452-2.15-3.205-4.089-4.95-6.01-1.008-1.11-2.12-2.122-3.181-3.182" style="fill:#55a;fill-opacity:1;stroke:none" transform="translate(0 512.362)"/><path d="M89.26 158.223s10.406 8.096 15.745 11.96c5.218 3.776 10.342 7.726 15.91 10.96 4.225 2.454 8.71 4.444 13.203 6.364a146 146 0 0 0 12.253 4.596c3.372 1.096 10.253 2.829 10.253 2.829l-1.06-8.132s-11.668-3.189-17.325-5.303a113 113 0 0 1-12.728-5.657c-4.03-2.106-7.88-4.553-11.667-7.071-4.004-2.663-7.81-5.614-11.667-8.485-2.496-1.858-7.425-5.657-7.425-5.657z" style="fill:#f55;fill-opacity:1;stroke:none" transform="translate(0 512.362)"/><path d="M30 206s14.344-12.522 21.75-18.5c6.615-5.339 13.506-10.325 20.25-15.5 4.337-3.328 13-10 13-10s9.615 7.732 14.5 11.5c3.96 3.054 7.834 6.236 12 9 3.859 2.56 12 7 12 7s-8.387 4.103-12 7c-4.784 3.837-8.614 8.755-12.5 13.5-4.69 5.726-9.605 11.424-13 18-4.038 7.82-6.744 16.375-8.5 25-.9 4.422-.758 8.994-1 13.5-.268 4.996-.14 10.01-.5 15-.326 4.516-.906 9.011-1.5 13.5-.576 4.346-2 13-2 13s-3.886-7.008-7.25-8.75c-2.895-1.499-6.502-1.024-9.75-.75-4.109.346-8.23 1.332-12 3-2.198.972-3.894 2.841-6 4-1.438.791-3.062 1.209-4.5 2-1.053.58-3 2-3 2z" style="fill:#000;fill-opacity:1;stroke:none" transform="translate(0 512.362)"/><path d="M159.051 61.143s-10.506 9.83-15.117 15.33c-5.2 6.202-10.206 12.68-14.053 19.802-3.514 6.505-6.113 13.528-8.09 20.653-2.042 7.353-3.833 22.57-3.833 22.57l21.292-10.22s2.14-10.262 4.045-15.118c2.053-5.231 4.75-10.237 7.878-14.905 2.778-4.144 9.582-11.497 9.582-11.497z" style="fill:#000004;fill-opacity:1;stroke:none" transform="translate(0 512.362)"/><path d="m217.369 30 51.392 88.796 8.322-3.635L227.102 30z" style="fill:#ff5455;fill-opacity:1;stroke:none" transform="translate(0 512.362)"/><path d="M292.217 542.362a138 138 0 0 0-2.913 25.826c-.202 11.303.99 22.625 3.479 33.652a145 145 0 0 0 7.26 23.044 45 45 0 0 0-12.13-.609c-3.7.316-7.36 1.092-10.87 2.305l-50.173-84.218z" style="fill:#ff5;fill-opacity:1;stroke:#55a;stroke-width:2;stroke-linecap:round;stroke-linejoin:round;stroke-miterlimit:4;stroke-opacity:1;stroke-dasharray:none"/><path d="M276.492 683.413c-17.232 8.904-25.108 12.996-38.67 16.556-15.813 4.151-32.424 6.081-48.756 5.332-14.711-.675-29.53-3.57-43.294-8.805-18.461-7.021-35.06-16.47-51.237-29.763 5.995-4.27 16.424-10.897 25.222-15.282 10.26-5.114 15.873-8.977 31.94-12.758 4.345 2.49 8.497 5.487 13.177 7.311 6.323 2.465 13.043 4.068 19.793 4.773 6.826.713 13.757.149 20.58-.587 6.903-.744 13.852-1.754 20.468-3.857 6.437-2.046 12.103-4.54 18.425-8.434-1.29 17.275-.392 22.175 9.34 31.303 2.17 1.8 13.746 8.993 19.393 7.905 4.923 3.58 1.122 5.1 3.62 6.306" style="fill:#ffff58;fill-opacity:1;stroke:none"/><path d="M256.097 53.528c-2.529-1.882-6.232-2.153-8.054-.18-2.105 2.28-1.091 6.92.946 9.262 2.392 2.75 7.654 4.727 10.62 2.607 1.36-.971 1.27-3.54.444-4.993-.415-.73-1.357-1.094-2.27-1.094" style="fill:none;stroke:#000;stroke-width:2.5;stroke-linecap:round;stroke-linejoin:round;stroke-miterlimit:4;stroke-opacity:1;stroke-dasharray:none" transform="translate(0 512.362)"/><path d="M263.26 71c2.031-1.78 1.058-3.638 0-4.87-.868-1.012-2.823-1.313-3.956-.608-2.98 1.853-4.462 6.78-3.167 10.043 1.303 3.285 5.823 6.022 9.254 5.174 2.35-.58 4.668-2.808 3.957-6.087m-7-11.565c-.828-1.293-.64-3.673.609-4.565 1.262-.902 3.735-.399 4.565.913.894 1.414.24 4.047-1.218 4.87-1.201.677-3.212-.056-3.956-1.218m-11.87-18.87c.353 2.95-1.558 7.434-4.565 7.913-3.15.503-5.888-3.45-7.124-6.39-1.259-2.997-1.97-7.547.428-9.74 1.65-1.508 5.153-1.31 6.696.304.841.88 1.093 2.904 0 3.653" style="fill:none;stroke:#000;stroke-width:2.5;stroke-linecap:round;stroke-linejoin:round;stroke-miterlimit:4;stroke-opacity:1;stroke-dasharray:none;stroke-dashoffset:0" transform="translate(0 512.362)"/><path d="M230.696 30c.913 5.884 4.284 6.336 7.304 5.696 2.106-.447 3.747-3.596 3.043-5.696m1.044 0c-1.016 1.694.584 3.17 1.826 3.26 1.37.102 3.011-1.933 2.519-3.26" style="fill:none;stroke:#000;stroke-width:2.5;stroke-linecap:butt;stroke-linejoin:round;stroke-miterlimit:4;stroke-opacity:1;stroke-dasharray:none;stroke-dashoffset:0" transform="translate(0 512.362)"/><path d="M274.217 83.783a6.5 6.5 0 0 0-1.586-1.216c-1.83-1.015-4.22-1.335-5.842-.346-2.798 1.704-2.467 6.335-1.053 9.006 1.491 2.819 5.392 5.217 8.481 4.425 1.772-.454 3.513-2.797 3.044-4.565-.35-1.316-1.81-3.248-3.652-1.826m5.782 3.348c-.51-1.318.208-3.437 1.522-3.957 1.302-.515 3.393.481 3.784 1.826.4 1.375-.884 3.262-2.262 3.652-1.091.31-2.634-.464-3.044-1.521m.305 7.608c1.562.454 1.068-3.325 0-4.26-1.155-1.012-3.505-.502-4.566.608-1.999 2.094-2.017 6.051-.748 8.654 1.353 2.777 4.814 5.973 7.764 5.058 2.523-.782 3.529-3.214 3.028-7.32" style="fill:none;stroke:#000;stroke-width:2.5;stroke-linecap:round;stroke-linejoin:round;stroke-miterlimit:4;stroke-opacity:1;stroke-dasharray:none;stroke-dashoffset:0" transform="translate(0 512.362)"/><path d="M158.69 30s.797 19.914 1.25 29.87c.289 6.352.438 12.714.937 19.054.607 7.727.827 15.549 2.499 23.117 1.328 6.012 2.875 12.15 5.935 17.493 2.531 4.42 5.763 8.725 9.996 11.558 2.463 1.648 5.48 2.58 8.434 2.812 3.79.297 7.68-.562 11.246-1.875 4.558-1.678 8.548-4.667 12.496-7.497 3.662-2.626 6.962-5.728 10.308-8.747 2.57-2.318 7.497-7.184 7.497-7.184" style="fill:none;stroke:#55a;stroke-width:2.5;stroke-linecap:butt;stroke-linejoin:round;stroke-miterlimit:4;stroke-opacity:1;stroke-dasharray:none;stroke-dashoffset:0" transform="translate(0 512.362)"/><path d="M170.56 542.555s-3.23 4.665-5.31 6.56c-1.665 1.518-5.623 3.749-5.623 3.749" style="fill:none;stroke:#55a;stroke-width:2.5;stroke-linecap:round;stroke-linejoin:round;stroke-miterlimit:4;stroke-opacity:1;stroke-dasharray:none;stroke-dashoffset:0"/><path d="M177.12 30.193s-4.32 6.863-7.184 9.684c-2.924 2.88-9.996 7.184-9.996 7.184" style="fill:none;stroke:#55a;stroke-width:2.5;stroke-linecap:round;stroke-linejoin:round;stroke-miterlimit:4;stroke-opacity:1;stroke-dasharray:none;stroke-dashoffset:0" transform="translate(0 512.362)"/><path d="M183.993 542.555s-7.246 10.413-11.87 14.682c-3.523 3.252-11.871 8.122-11.871 8.122m28.427-22.804s6.702 13.33 12.183 18.118c5.506 4.81 19.68 9.684 19.68 9.684" style="fill:none;stroke:#55a;stroke-width:2.5;stroke-linecap:round;stroke-linejoin:round;stroke-miterlimit:4;stroke-opacity:1;stroke-dasharray:none;stroke-dashoffset:0"/><path d="M194.302 542.555s5.276 9.822 9.371 13.432c3.529 3.111 12.495 6.56 12.495 6.56m-16.244-19.992s3.195 6.71 5.936 9.06c1.91 1.637 6.872 3.123 6.872 3.123" style="fill:none;stroke:#55a;stroke-width:2.5;stroke-linecap:round;stroke-linejoin:round;stroke-miterlimit:4;stroke-opacity:1;stroke-dasharray:none;stroke-dashoffset:0"/><path d="M180.473 579.908s.548 4.052.34 6.066c-.394 3.802-2.014 7.375-2.972 11.075-.627 2.42-1.914 4.779-1.819 7.278.075 1.963.592 4.093 1.86 5.593.85 1.004 2.51.965 3.485 1.848.817.74 1.831 2.755 1.831 2.755" style="fill:none;stroke:#55a;stroke-width:1.99999976;stroke-linecap:round;stroke-linejoin:round;stroke-miterlimit:4;stroke-opacity:1;stroke-dasharray:none;stroke-dashoffset:0"/><path d="M193.63 604.238s3.198 3.597 2.767 5.649c-.272 1.298-1.732 2.341-3.039 2.57-1.684.293-3.216-1.163-4.806-1.79-1.51-.594-3.04-2.59-4.492-1.868-.682.339-1.084 1.644-.575 2.21.618.685 1.815-.392 2.737-.416 3.2-.083 7.04 2.922 9.558.945.871-.684.707-2.21.467-3.292-.346-1.557-2.617-4.008-2.617-4.008m26.89-25.266s-8.749-6.254-13.744-7.574c-3.93-1.038-8.24-1.275-12.133-.103-1.566.472-4.15 2.761-4.15 2.761s3.816-1.383 5.8-1.641c4.01-.522 8.189-.798 12.12.214 4.363 1.124 12.108 6.343 12.108 6.343m-59.578-6.054s6.116-2.84 9.274-2.377c3.502.514 9.096 5.483 9.096 5.483s-5.916-4.084-9.336-4.306c-3.218-.209-9.235 2.882-9.235 2.882z" style="fill:#55a;fill-opacity:1;stroke:#55a;stroke-width:1.99999976;stroke-linecap:round;stroke-linejoin:round;stroke-miterlimit:4;stroke-opacity:1;stroke-dasharray:none;stroke-dashoffset:0"/><path d="M197.092 621.998s-3.93-1.536-6.041-1.668c-1.915-.119-3.77.712-5.678.819-2.177.122-4.454-.745-6.542-.203-.948.246-2.408 1.488-2.408 1.488s1.7-.104 2.542-.016c2.23.231 4.314 1.447 6.532 1.424 2.447-.025 4.709-1.4 7.159-1.723 1.462-.193 4.436-.12 4.436-.12" style="fill:#55a;fill-opacity:1;stroke:#55a;stroke-width:1.99999964;stroke-linecap:round;stroke-linejoin:round;stroke-miterlimit:4;stroke-opacity:1;stroke-dasharray:none;stroke-dashoffset:0"/><path d="M192.453 627.116s-3.679 1.442-5.616 1.513c-1.656.06-4.881-.939-4.881-.939" style="fill:none;stroke:#55a;stroke-width:1.99999976;stroke-linecap:round;stroke-linejoin:round;stroke-miterlimit:4;stroke-opacity:1;stroke-dasharray:none;stroke-dashoffset:0"/><path d="M178.667 581.895s-4.791-4.1-9.136-4.142c-4.65-.044-7.392 2.662-7.392 2.662m56.997 3.102s-9.376-7.14-14.706-7.066c-7.19.1-12.54 4.317-12.54 4.317" style="fill:none;stroke:#55a;stroke-width:1.99999976;stroke-linecap:round;stroke-linejoin:round;stroke-miterlimit:4;stroke-opacity:1;stroke-dasharray:none"/><path d="M218.056 585.74c-5.516-.693-7.47-3.855-12.544-4.252-4.35-.34-13.101 1.231-13.101 1.231m-30.787 1.259c5.033-2.648 4.77-3.255 9.85-2.925 6.551.425 8.415 1.212 8.064 1.072m35.905 4.549c-4.937 1.285-7.291 2.526-12.893 2.904-4.15.28-9.712-1.033-10.134-5.171" style="fill:none;stroke:#55a;stroke-width:1.99999976;stroke-linecap:round;stroke-linejoin:round;stroke-miterlimit:4;stroke-opacity:1;stroke-dasharray:none"/><path d="M205.44 582.664c.953 5.126-2.45 7.07-5.805 6.673-2.276-.27-4.423-3.248-3.37-6.198" style="fill:none;stroke:#55a;stroke-width:1.99999976;stroke-linecap:round;stroke-linejoin:round;stroke-miterlimit:4;stroke-opacity:1;stroke-dasharray:none"/><path d="M199.177 585.514c-.019-.744.612-1.743 1.356-1.775.805-.035 1.68.983 1.629 1.788-.048.754-.973 1.531-1.726 1.47-.646-.052-1.242-.835-1.259-1.483m-27.095-.812c.015-.728-.819-1.658-1.661-1.627-.737.027-1.43.895-1.352 1.527.082.66.995 1.313 1.763 1.265.608-.037 1.24-.639 1.25-1.165" style="fill:#55a;fill-opacity:1;stroke:#55a;stroke-width:1.99999976;stroke-linecap:round;stroke-linejoin:round;stroke-miterlimit:4;stroke-opacity:1;stroke-dasharray:none;stroke-dashoffset:0"/><path d="M178.166 590.54c-1.934 2.523-2.046 4.74-6.095 6.912m20.289-13.842c1.61 7.204 7.236 9.358 11.683 12.543" style="fill:none;stroke:#55a;stroke-width:1.99999976;stroke-linecap:round;stroke-linejoin:round;stroke-miterlimit:4;stroke-opacity:1;stroke-dasharray:none;stroke-dashoffset:0"/><path d="M161.54 586.608c2.712 1.794 6.167 2.827 10.552 2.643 3.25-.136 6.52-2.665 6.536-5.667" style="fill:none;stroke:#55a;stroke-width:2;stroke-linecap:round;stroke-linejoin:round;stroke-miterlimit:4;stroke-opacity:1;stroke-dasharray:none"/><path d="M166.642 581.281c-.977 4.985 1.136 7.632 4.942 7.495 1.674-.06 5.045-4.168 2.476-7.994" style="fill:none;stroke:#55a;stroke-width:2;stroke-linecap:round;stroke-linejoin:round;stroke-miterlimit:4;stroke-opacity:1;stroke-dasharray:none"/><path d="M192.014 634.006s-3.755-1.23-5.693-1.19c-1.656.033-4.82 1.214-4.82 1.214" style="fill:none;stroke:#55a;stroke-width:1.99999976;stroke-linecap:round;stroke-linejoin:round;stroke-miterlimit:4;stroke-opacity:1;stroke-dasharray:none;stroke-dashoffset:0"/><path d="M224.418 69.872c-1.846 5.394-5.166 10.816-5.11 16.608.054 5.678 2.292 11.38 5.323 16.182 2.357 3.736 5.617 7.206 9.581 9.156 3.801 1.869 8.375 1.277 12.562 1.916" style="fill:none;stroke:#55a;stroke-width:2.5;stroke-linecap:round;stroke-linejoin:round;stroke-miterlimit:4;stroke-opacity:1;stroke-dasharray:none;stroke-dashoffset:0" transform="translate(0 512.362)"/><path d="M227.612 75.408c-.852 3.123-2.307 7.175-2.13 10.86.203 4.216 1.51 8.48 3.62 12.136 1.756 3.044 4.156 5.979 7.24 7.665 2.344 1.282 5.251.994 7.877 1.49" style="fill:none;stroke:#55a;stroke-width:2.5;stroke-linecap:round;stroke-linejoin:round;stroke-miterlimit:4;stroke-opacity:1;stroke-dasharray:none;stroke-dashoffset:0" transform="translate(0 512.362)"/><path d="M231.231 81.796c-.284 2.271-1.178 4.548-.851 6.813.43 2.989 1.527 6.127 3.62 8.304 1.693 1.763 4.4 2.13 6.6 3.194m10.859 22.57c-.852 3.052-2.353 5.993-2.555 9.155-.252 3.937.258 8.04 1.703 11.71 1.644 4.178 4.396 7.996 7.665 11.073 1.994 1.877 4.45 3.33 7.026 4.258 1.823.657 3.833.568 5.75.852" style="fill:none;stroke:#55a;stroke-width:2.5;stroke-linecap:round;stroke-linejoin:round;stroke-miterlimit:4;stroke-opacity:1;stroke-dasharray:none;stroke-dashoffset:0" transform="translate(0 512.362)"/><path d="M255.078 129.703c-.426 2.271-1.41 4.507-1.277 6.813.179 3.116 1.182 6.256 2.768 8.943 1.3 2.205 3.217 4.08 5.323 5.536 1.333.922 2.98 1.278 4.471 1.916M161.393 96.7c-3.193 4.33-7.085 8.223-9.581 12.989-2.75 5.249-3.833 11.213-5.749 16.82m16.395-23.208c-2.058 3.194-4.57 6.137-6.175 9.581-1.726 3.704-2.413 7.807-3.62 11.71m11.285-13.839c-1.064 1.774-2.356 3.43-3.193 5.323-.698 1.577-.994 2.753-1.49 4.953m-9.589 4.594c6.61 3.734 14.673 7.614 22.576 9.829 6.553 1.837 13.426 2.554 20.228 2.768 7.753.243 15.557-.425 23.208-1.704 5.213-.87 10.417-2.097 15.33-4.045 4.429-1.756 8.375-4.542 12.563-6.813" style="fill:none;stroke:#55a;stroke-width:2.5;stroke-linecap:round;stroke-linejoin:round;stroke-miterlimit:4;stroke-opacity:1;stroke-dasharray:none;stroke-dashoffset:0" transform="translate(0 512.362)"/><path d="M139.037 130.555c5.82 3.335 11.31 7.327 17.46 10.007 6.132 2.673 12.627 4.532 19.162 5.962 6.153 1.346 12.44 2.327 18.737 2.432 6.987.116 13.976-.842 20.866-2.006 5.618-.95 11.175-2.328 16.608-4.046 3.707-1.172 7.24-2.839 10.859-4.258" style="fill:none;stroke:#000;stroke-width:2.5;stroke-linecap:round;stroke-linejoin:round;stroke-miterlimit:4;stroke-opacity:1;stroke-dasharray:none;stroke-dashoffset:0" transform="translate(0 512.362)"/><path d="M133.5 133.749c5.04 2.98 9.865 6.357 15.118 8.942 5.144 2.532 10.484 4.72 15.97 6.388 6.525 1.983 13.242 3.445 20.014 4.258 7.19.864 14.493 1.152 21.718.639 5.819-.413 11.582-1.583 17.246-2.981 7.17-1.769 14.053-4.542 21.08-6.813" style="fill:none;stroke:#000;stroke-width:2.5;stroke-linecap:round;stroke-linejoin:round;stroke-miterlimit:4;stroke-opacity:1;stroke-dasharray:none;stroke-dashoffset:0" transform="translate(0 512.362)"/><path d="M126.262 136.73c5.677 3.335 11.084 7.182 17.033 10.007 6.634 3.15 13.597 5.634 20.653 7.665 7.037 2.024 14.237 3.587 21.505 4.471 5.711.695 11.502.945 17.247.639 6.445-.343 12.875-1.31 19.163-2.768 4.504-1.044 8.854-2.682 13.2-4.259 3.742-1.357 7.382-2.98 11.073-4.47" style="fill:none;stroke:#000;stroke-width:2.5;stroke-linecap:round;stroke-linejoin:round;stroke-miterlimit:4;stroke-opacity:1;stroke-dasharray:none;stroke-dashoffset:0" transform="translate(0 512.362)"/><path d="M99.647 151.42c6.742 4.756 13.168 9.995 20.227 14.267 7.849 4.748 15.918 9.285 24.486 12.562 7.676 2.935 15.77 4.735 23.847 6.254 7.653 1.44 15.43 2.306 23.208 2.688 8.295.408 16.678.66 24.912-.425 8.123-1.071 16.028-3.514 23.847-5.962 7.46-2.336 14.85-4.992 21.93-8.304 4.06-1.899 7.808-4.4 11.711-6.6" style="fill:none;stroke:#000;stroke-width:2.5;stroke-linecap:round;stroke-linejoin:round;stroke-miterlimit:4;stroke-opacity:1;stroke-dasharray:none;stroke-dashoffset:0" transform="translate(0 512.362)"/><path d="m125.18 136.163-12.68 6.587 7.25 5.25 7.18-10.087zm11.239 7.494L129.75 155.5l13.25 6.25 5.75-11.25zM161 154.25l-3.919 12.093 13.5 4.25L174 157.657zm25.25 5.75-1 12.593 14.424.505L199 159.5zm25.5-.25 1.163 12.843 14.087-2.75-2.907-13.18zm24.663-7.18 5.293 13.397 12.03-4.57L250.75 154l-4.5-6.25zM111.5 158.75l8-10.5 10.25 7-6.419 12.093z" style="fill:#000;fill-opacity:1;stroke:none" transform="translate(0 512.362)"/><path d="m136.744 174.93 5.762-13.523L156.848 166l-4.348 14zm30.925 9.43 2.831-13.61 14.843 1.919-1.169 13.674zm31.831 2.39-.25-14.5h14l1.5 13.5-15.5 2zm30.5-4.25-3.174-12.924 14.767-4.337 4.337 12.848-15.68 5.413zm28.75-9.75L253.5 161l3-1 15.75 7z" style="fill:#000;fill-opacity:1;stroke:none" transform="translate(0 512.362)"/><path d="m107.413 147.68.337 4.57 5.581-.989-1.081-5.011zM125.5 144l4.75-1.25.587 4.843-4.837 1.75zm4 19.25 5.25-2.5 1.25 4.75-4 2.25zm20-6.75 5-1.75 1.424 4.843-4.674 2.157zm9 17.5 2.75 4.75 4-3.25-3-4.5z" style="fill:none;stroke:#000;stroke-width:2.5;stroke-linecap:round;stroke-linejoin:round;stroke-miterlimit:4;stroke-opacity:1;stroke-dasharray:none;stroke-dashoffset:0" transform="translate(0 512.362)"/><path d="m175.564 677.077 3.989-3.25 2.976 3.035-4 4z" style="fill:none;stroke:#000;stroke-width:2.5;stroke-linecap:round;stroke-linejoin:round;stroke-miterlimit:4;stroke-opacity:1;stroke-dasharray:none;stroke-dashoffset:0"/><path d="M188.25 179.174 192 175.5l3 4.75-3.75 2.25z" style="fill:none;stroke:#000;stroke-width:2.5;stroke-linecap:round;stroke-linejoin:round;stroke-miterlimit:4;stroke-opacity:1;stroke-dasharray:none;stroke-dashoffset:0" transform="translate(0 512.362)"/><path d="m202.215 678.94 3.174-3.75 3.332 3.408-3 3z" style="fill:none;stroke:#000;stroke-width:2.5;stroke-linecap:round;stroke-linejoin:round;stroke-miterlimit:4;stroke-opacity:1;stroke-dasharray:none;stroke-dashoffset:0"/><path d="m217.663 177.506 3.587-4.006 3.75 3-2.565 4.669zM228.75 162.5l2.5-4.5 4.25 1.75-2 4.75zm17.5 8 2.25-4.75 4.75 2.5-2 4.25z" style="fill:none;stroke:#000;stroke-width:2.5;stroke-linecap:round;stroke-linejoin:round;stroke-miterlimit:4;stroke-opacity:1;stroke-dasharray:none;stroke-dashoffset:0" transform="translate(0 512.362)"/><path d="M95 155c7.667 5.667 14.265 11.267 22 16 5.5 3.365 11.337 6.18 17.25 8.75 6.673 2.9 13.498 5.523 20.5 7.5 6.873 1.94 13.934 3.208 21 4.25 7.15 1.054 14.36 1.941 21.588 2.015 9.03.091 18.136-.34 27.018-1.971 9.203-1.691 18.132-4.76 26.894-8.044 8.722-3.268 17.275-7.392 25.442-11.558" style="fill:none;stroke:#000;stroke-width:2.5;stroke-linecap:round;stroke-linejoin:round;stroke-miterlimit:4;stroke-opacity:1;stroke-dasharray:none;stroke-dashoffset:0" transform="translate(0 512.362)"/><path d="M148.25 130a1 1 0 1 1-2 0 1 1 0 0 1 2 0" style="fill:none;stroke:#000;stroke-width:2.5;stroke-linecap:round;stroke-linejoin:round;stroke-miterlimit:4;stroke-opacity:1;stroke-dashoffset:0" transform="translate(0 512.362)"/><path d="M148.25 130a1 1 0 1 1-2 0 1 1 0 0 1 2 0" style="fill:none;stroke:#000;stroke-width:2.5;stroke-linecap:round;stroke-linejoin:round;stroke-miterlimit:4;stroke-opacity:1;stroke-dashoffset:0" transform="translate(6.75 516.112)"/><path d="M148.25 130a1 1 0 1 1-2 0 1 1 0 0 1 2 0" style="fill:none;stroke:#000;stroke-width:2.5;stroke-linecap:round;stroke-linejoin:round;stroke-miterlimit:4;stroke-opacity:1;stroke-dashoffset:0" transform="translate(13.25 519.112)"/><path d="M148.25 130a1 1 0 1 1-2 0 1 1 0 0 1 2 0" style="fill:none;stroke:#000;stroke-width:2.5;stroke-linecap:round;stroke-linejoin:round;stroke-miterlimit:4;stroke-opacity:1;stroke-dashoffset:0" transform="translate(19.75 520.862)"/><path d="M148.25 130a1 1 0 1 1-2 0 1 1 0 0 1 2 0" style="fill:none;stroke:#000;stroke-width:2.5;stroke-linecap:round;stroke-linejoin:round;stroke-miterlimit:4;stroke-opacity:1;stroke-dashoffset:0" transform="translate(27.25 523.112)"/><path d="M148.25 130a1 1 0 1 1-2 0 1 1 0 0 1 2 0" style="fill:none;stroke:#000;stroke-width:2.5;stroke-linecap:round;stroke-linejoin:round;stroke-miterlimit:4;stroke-opacity:1;stroke-dashoffset:0" transform="translate(34 524.862)"/><path d="M148.25 130a1 1 0 1 1-2 0 1 1 0 0 1 2 0" style="fill:none;stroke:#000;stroke-width:2.5;stroke-linecap:round;stroke-linejoin:round;stroke-miterlimit:4;stroke-opacity:1;stroke-dashoffset:0" transform="translate(41.25 525.362)"/><path d="M196.8 656.05a1 1 0 1 1-2-.001 1 1 0 0 1 2 0m6.887-.363a1 1 0 1 1-2 0 1 1 0 0 1 2 0" style="fill:none;stroke:#000;stroke-width:2.5;stroke-linecap:round;stroke-linejoin:round;stroke-miterlimit:4;stroke-opacity:1;stroke-dashoffset:0"/><path d="M148.25 130a1 1 0 1 1-2 0 1 1 0 0 1 2 0" style="fill:none;stroke:#000;stroke-width:2.5;stroke-linecap:round;stroke-linejoin:round;stroke-miterlimit:4;stroke-opacity:1;stroke-dashoffset:0" transform="translate(62.75 524.362)"/><path d="M148.25 130a1 1 0 1 1-2 0 1 1 0 0 1 2 0" style="fill:none;stroke:#000;stroke-width:2.5;stroke-linecap:round;stroke-linejoin:round;stroke-miterlimit:4;stroke-opacity:1;stroke-dashoffset:0" transform="translate(70.25 523.362)"/><path d="M225.475 651.524a1 1 0 1 1-2 0 1 1 0 0 1 2 0" style="fill:none;stroke:#000;stroke-width:2.5;stroke-linecap:round;stroke-linejoin:round;stroke-miterlimit:4;stroke-opacity:1;stroke-dashoffset:0"/><path d="M148.25 130a1 1 0 1 1-2 0 1 1 0 0 1 2 0" style="fill:none;stroke:#000;stroke-width:2.5;stroke-linecap:round;stroke-linejoin:round;stroke-miterlimit:4;stroke-opacity:1;stroke-dashoffset:0" transform="translate(83.5 519.862)"/><path d="M148.25 130a1 1 0 1 1-2 0 1 1 0 0 1 2 0" style="fill:none;stroke:#000;stroke-width:2.5;stroke-linecap:round;stroke-linejoin:round;stroke-miterlimit:4;stroke-opacity:1;stroke-dashoffset:0" transform="translate(88.75 517.362)"/><path d="M148.25 130a1 1 0 1 1-2 0 1 1 0 0 1 2 0" style="fill:none;stroke:#000;stroke-width:2.5;stroke-linecap:round;stroke-linejoin:round;stroke-miterlimit:4;stroke-opacity:1;stroke-dashoffset:0" transform="translate(94.25 515.612)"/><path d="M312.57 717.38s-1.37.53-2.056.392c-.626-.126-1.224-.548-1.606-1.056-.374-.498-.554-1.8-.554-1.8m6.631.744s3.378-.848 4.59.083c1.277.98 1.635 3.06 1.302 4.622-.506 2.377-3.06 3.796-4.673 5.61-.981 1.104-1.78 2.516-3.043 3.206-1.236.676-2.836 1.305-4.072.715-.965-.46-1.543-1.742-1.68-2.877-.122-1.012.044-2.366.832-2.972 1.058-.814 2.675-.37 3.832.18.618.295 1.121.896 1.414 1.55.3.673.26 2.24.26 2.24" style="fill:none;stroke:#55a;stroke-width:1.99999964;stroke-linecap:round;stroke-linejoin:round;stroke-miterlimit:4;stroke-opacity:1;stroke-dasharray:none;stroke-dashoffset:0"/><path d="M321.533 719.96s2.128.93 2.77 1.826c.647.902.981 2.12.833 3.216-.241 1.782-1.53 3.306-2.695 4.682a18.2 18.2 0 0 1-4.897 4.03c-1.348.76-2.827 1.369-4.335 1.504-1.126.1-2.655.422-3.342-.534-.587-.817-.27-2.255.288-3.112.421-.647 1.264-.864 1.978-1.023.969-.217 2.188-.531 2.956.126.688.59.7 2.756.7 2.756" style="fill:none;stroke:#55a;stroke-width:1.99999964;stroke-linecap:round;stroke-linejoin:round;stroke-miterlimit:4;stroke-opacity:1;stroke-dasharray:none;stroke-dashoffset:0"/><path d="M323.788 729.052s2.58 2.098 2.648 3.574c.046.997-.864 1.843-1.562 2.56-1.781 1.832-4.151 3.03-6.438 4.184-1.406.709-2.852 1.766-4.427 1.657-.737-.05-1.632-.39-1.948-1.053-.29-.61.044-1.403.386-1.984.642-1.09 1.644-2.597 2.91-2.453.792.09 1.172 1.157 1.427 1.907.265.78.027 2.466.027 2.466m9.223-4.013s.995 1.737.91 2.675c-.136 1.526-1.156 2.93-2.235 4.027-1.4 1.421-3.275 2.432-5.195 2.999-1 .295-2.327.824-3.125.159-.983-.82-1.054-2.661-.465-3.794.508-.976 1.825-1.737 2.921-1.574.827.124 1.36 1.048 1.754 1.78.396.737.514 2.453.514 2.453" style="fill:none;stroke:#55a;stroke-width:1.99999964;stroke-linecap:round;stroke-linejoin:round;stroke-miterlimit:4;stroke-opacity:1;stroke-dasharray:none;stroke-dashoffset:0"/><path d="M318.146 746.154s-.688 1.162-1.163 1.606c-.447.419-.999.695-1.54.954-1.073.514-2.202.887-3.35 1.177-3.546.897-7.18 1.775-10.838 1.72-2.63-.04-5.607.05-7.756-1.47-1.866-1.32-3.05-3.678-3.447-5.929-.686-3.887.796-7.926 2.087-11.656 1.09-3.15 2.749-6.124 4.699-8.828 1.686-2.336 3.727-4.44 5.96-6.261 1.69-1.38 3.524-2.662 5.551-3.471 1.158-.462 2.472-1.114 3.663-.748.966.298 2.054 1.164 2.114 2.172.128 2.141-2.44 3.548-3.909 5.11-.845.899-1.823 1.667-2.796 2.424-1.055.822-2.293 2.181-3.29 2.296-.652 2.215.796 1.691.887 6.079.085 4.108-1.547 6.802-3.38 8.992" style="fill:none;stroke:#55a;stroke-width:1.99999964;stroke-linecap:round;stroke-linejoin:round;stroke-miterlimit:4;stroke-opacity:1;stroke-dasharray:none;stroke-dashoffset:0"/><path d="M248.478 116.928c-1.562 4.116-4.185 7.975-4.685 12.35-.658 5.763.187 11.86 2.343 17.246 1.53 3.822 4.319 7.105 7.239 10.007 2.598 2.582 5.62 4.844 8.943 6.388 3.387 1.573 7.239 1.845 10.858 2.768" style="fill:none;stroke:#55a;stroke-width:2.5;stroke-linecap:round;stroke-linejoin:round;stroke-miterlimit:4;stroke-opacity:1;stroke-dasharray:none;stroke-dashoffset:0" transform="translate(0 512.362)"/><path d="M168.207 119.057c-29.428 8.653-51.29 20.05-74.051 35.631-3.96 2.711-7.915 5.438-11.73 8.35C64.484 176.736 47.2 190.24 30 205.9" style="fill:none;stroke:#55a;stroke-width:2;stroke-linecap:round;stroke-linejoin:round;stroke-miterlimit:4;stroke-opacity:1;stroke-dasharray:none;stroke-dashoffset:0" transform="translate(0 512.362)"/><path d="m206.484 30 70.599 141.39 18.118-8.435L218.667 30z" style="fill:#000;fill-opacity:1;stroke:none" transform="translate(0 512.362)"/><path d="m60.458 344.485 3.889-4.95 5.657 2.829-4.243 5.303 5.657 3.889 9.192-13.081-10.96-6.718 5.657-10.96 5.657 1.768-2.475 5.303 6.364 2.475 4.596-15.203-12.374-3.535 3.535-16.264h6.364l-1.768 9.9 6.01 1.06 2.122-17.677h-10.96V272.36h6.01l-.353 8.485 6.717-.707 1.061-15.556-11.314-1.768 1.06-16.263 7.072 1.06-.707 7.779 6.364 1.06 3.889-15.203-12.374-5.303 8.131-15.203 5.657 2.829-3.182 7.07 6.01 1.769 6.718-10.254-9.192-8.838 10.96-12.375 5.657 4.596-5.657 4.597 4.596 5.657 11.314-10.254-8.132-11.667 5.023-2.371m7.487 4.13-2.201.882 3.523 5.284 6.165-3.376" style="fill:none;stroke:#5456aa;stroke-width:2;stroke-linecap:round;stroke-linejoin:round;stroke-miterlimit:4;stroke-opacity:1;stroke-dasharray:none;stroke-dashoffset:0" transform="translate(0 512.362)"/><path d="M148.846 201.296c-6.953 4.596-14.468 8.438-20.86 13.788-5.241 4.388-10.273 9.215-14.142 14.85-2.805 4.085-4.685 8.772-6.364 13.435-2.43 6.75-4.25 13.763-5.303 20.86-.761 5.134-.25 10.385-.707 15.556-.556 6.275-1.662 12.49-2.475 18.738-.598 4.595-.882 9.24-1.768 13.789-.885 4.545-2.036 9.053-3.535 13.435-1.95 5.695-4.28 11.283-7.071 16.617-1.744 3.331-3.615 6.648-6.01 9.546-1.542 1.863-3.536 3.3-5.304 4.95" style="fill:none;stroke:#5456aa;stroke-width:2;stroke-linecap:round;stroke-linejoin:round;stroke-miterlimit:4;stroke-opacity:1;stroke-dasharray:none;stroke-dashoffset:0" transform="translate(0 512.362)"/><path d="m63.64 200.235-.354-6.364 6.364.354 3.536-6.01 4.596 6.363h6.364l-.707 6.364 5.303 3.182-6.01 4.596.353 5.657-4.95-.707-4.242 6.364-4.95-7.424-4.596 1.767v-6.01l-6.718-3.89z" style="fill:#ffff57;fill-opacity:1;stroke:none" transform="translate(0 512.362)"/><path d="m68.09 203.794 5.406-5.077 5.12 5.521-5.18 4.897z" style="fill:#f55;fill-opacity:1;stroke:#000;stroke-width:2;stroke-linecap:round;stroke-linejoin:round;stroke-miterlimit:4;stroke-opacity:1;stroke-dasharray:none;stroke-dashoffset:0" transform="translate(0 512.362)"/><path d="m154.624 187.068 16.85 3.785 10.045 62.605-10.546-6.054z" style="fill:#55a;fill-opacity:1;stroke:none" transform="translate(0 512.362)"/><path d="M159.642 203.27s-8.084 1.711-11.857 3.33c-4.662 1.998-8.93 4.86-13.081 7.777-2.123 1.493-4.152 3.138-6.01 4.95-1.675 1.633-4.597 5.303-4.597 5.303s2.873 3.146 4.246 4.773c1.702 2.019 3.475 3.995 4.947 6.188 1.109 1.652 2.903 5.216 2.903 5.216s6.611-1.672 9.971-1.534c3.34.136 6.545 1.388 9.753 2.328 5.15 1.509 15.203 5.303 15.203 5.303zm-50.751 51.387s3.43 4.143 4.213 6.646c.702 2.241.896 4.77.294 7.04-.503 1.894-1.841 3.499-3.123 4.98-1.103 1.277-3.855 3.28-3.855 3.28s.795-6.88 1.189-10.423c.427-3.84.045-7.682 1.282-11.523" style="fill:#f55;fill-opacity:1;stroke:none" transform="translate(0 512.362)"/><path d="M113.49 244.783s1.198-4.043 2.476-5.657c1.097-1.386 2.492-2.931 4.242-3.182.997-.143 2.255.233 2.829 1.06.47.679.227 1.683 0 2.476-.307 1.068-1.016 2.01-1.768 2.828-.797.868-1.857 1.455-2.829 2.121-.917.63-2.828 1.768-2.828 1.768z" style="fill:#fff;fill-opacity:1;stroke:none" transform="translate(0 512.362)"/><path d="m109.217 254.967 1.799-6.649s2.553 3.42 3.535 5.304c1.346 2.58 2.678 5.265 3.182 8.131.517 2.937.458 6.039-.221 8.941-.477 2.034-1.507 3.93-2.643 5.683-1.128 1.74-2.441 3.424-4.079 4.696-1.525 1.186-5.18 2.6-5.18 2.6l1.163-7.07s3.767-3.194 4.95-5.304c1.076-1.92 1.687-4.163 1.768-6.364.066-1.801-.359-3.643-1.061-5.303-.736-1.739-3.213-4.665-3.213-4.665" style="fill:#ff5;fill-opacity:1;stroke:none" transform="translate(0 512.362)"/><path d="M138.131 244.985s6.707-.687 10.008-.202c3.798.558 7.327 2.296 10.96 3.535 2.964 1.012 5.981 1.901 8.839 3.182 4.283 1.92 8.355 4.294 12.374 6.718 2.911 1.755 5.607 3.849 8.486 5.657 2.55 1.602 5.107 3.205 7.778 4.596 2.526 1.316 5.028 2.795 7.778 3.536 2.287.616 4.705.589 7.07.707 2.12.105 6.365 0 6.365 0l.177 9.9-4.066-4.95-1.06 3.888-7.779-6.363-1.414 3.535-8.132-8.132-2.121 3.89-7.778-9.9-2.988 3.615-6.912-7.858-2.121 3.182-8.132-8.485-1.414 3.182-9.9-7.071-.707 3.182-9.192-5.303.353 2.828-5.115-1.494z" style="fill:#000;fill-opacity:1;stroke:#000;stroke-linecap:round;stroke-linejoin:round;stroke-opacity:1" transform="translate(0 512.362)"/><path d="m234.556 707.434 5.094.352-.002-5.844-4.023 1.202z" style="fill:#f55;fill-opacity:1;stroke:none"/><path d="M239.476 749.198c.118-16.617-.006-31.297.112-47.914 6.01-1.886 10.942-3.71 16.281-5.907 5.276-2.17 10.338-4.83 15.539-7.175 2.934-1.323 5.892-2.593 8.839-3.889.681 2.841.636 3.625 1.439 6.345-2.357 2.71-4.852 5.307-7.071 8.132-2.142 2.725-4.229 5.512-6.01 8.485-2.575 4.294-4.762 8.826-6.718 13.435a76 76 0 0 0-3.14 8.9c-1.037 3.662-2.062 8.096-2.415 11.16-3.064 1.532-4.314 1.763-6.408 2.78-3.56 1.731-6.44 3.644-10.448 5.648" style="fill:#000;fill-opacity:1;stroke:none"/><path d="m239.597 713.304-.01 37.83-7.07 5.304-7.425 8.485-3.536 8.132-1.414 7.071h-6.01l18.757-66.822c2.362.234 4.347.114 6.708 0" style="fill:#f55;fill-opacity:1;stroke:none"/><path d="M91.57 189.629c-.133-2.318-3.92-4.316-2.828-6.364 1.434-2.691 7.285-4.093 9.01-1.579.81 1.181-2.084 2.256-2.214 3.682-.115 1.26 1.336 3.553 1.336 3.553h12.02l-1.06 3.89H96.52s-1.449 1.375-1.5 2.285c-.073 1.296 2.662 2.544 1.757 3.475-1.791 1.843-5.941-.933-6.974-3.286-.795-1.808 1.881-3.684 1.767-5.656m-52.326 15.909s5.501.227 7.071 2.122c1.437 1.733.708 6.717.708 6.717s2.706-2.496 4.242-2.121c1.558.38 2.865 2.287 2.829 3.89-.035 1.508-1.444 2.934-2.829 3.535-1.41.612-4.596-.354-4.596-.354s2.099 5.812 4.636 6.976c2.363 1.084 5.383.133 7.738-.966 2.041-.95 2.757-4.086 4.95-4.596 1.199-.278 3.034-.063 3.536 1.06.902 2.023-2.587 3.81-2.829 6.011-.234 2.134-.127 4.79 1.414 6.284.949.918 2.579.901 3.89.747.853-.1 2.35-1.06 2.35-1.06s-1.67-3.873-.583-5.264c1.1-1.404 3.791-1.651 5.304-.707 1.58.987 2.196 3.49 1.767 5.304-.3 1.272-2.773 2.773-2.773 2.773l1.36 7.48s-3.284-2.738-5.25-3.467c-1.957-.726-4.244-.096-6.214-.79-1.902-.67-3.887-1.6-5.154-3.168-1.335-1.653-2.121-6.01-2.121-6.01s-4.644 2.524-7.071 2.121c-3-.498-5.514-2.937-7.425-5.303-1.313-1.625-2.19-3.684-2.49-5.752-.3-2.083.647-4.167.763-6.27.064-1.176.265-2.396-.04-3.535-.56-2.09-3.183-5.656-3.183-5.656m-3.182 73.892s3.957-.461 5.304.707c1.715 1.488 1.843 6.557 1.843 6.557s1.347-3.537 2.914-3.742c1.405-.184 3.312 1.154 3.388 2.569.096 1.797-3.93 3.701-3.93 3.701s2.306 3.41 5.581-.882c.912-1.194 1.407-2.688 1.763-4.148.378-1.545.368-4.757.368-4.757l4.605.085s-1.115 3.688-.976 5.567c.11 1.487.346 3.203 1.414 4.243.933.907 3.737 1.132 3.737 1.132s-.47-1.51-.201-2.193c.521-1.32 1.763-2.802 3.182-2.828 1.264-.024 2.614 1.187 2.927 2.412.257 1.006-.47 2.114-1.16 2.89-.27.305-1.07.587-1.07.587s2.65 1.7 3.545 2.95c.963 1.341 1.782 4.623 1.782 4.623s-4.245-3.052-6.731-3.563c-1.415-.29-2.912.679-4.319.354a8.16 8.16 0 0 1-4.167-2.475c-.77-.868-1.414-3.182-1.414-3.182s-2.487 3.197-4.247 4.05c-1.5.727-3.32 1.048-4.95.702-1.628-.344-3.144-1.387-4.233-2.644-.757-.874-1.022-2.081-1.401-3.173a20 20 0 0 1-.725-2.824c-.178-.934-.032-1.935-.354-2.829-.52-1.446-2.475-3.889-2.475-3.889" style="fill:#000;fill-opacity:1;stroke:#ff5;stroke-width:2;stroke-linecap:round;stroke-linejoin:round;stroke-miterlimit:4;stroke-opacity:1;stroke-dasharray:none;stroke-dashoffset:0" transform="translate(0 512.362)"/><path d="M85.206 162.759c5.068 4.124 9.876 8.59 15.203 12.374 6.864 4.875 14.145 9.16 21.506 13.246a186 186 0 0 0 14.592 7.253c3.979 1.772 8.02 3.428 12.15 4.81 3.54 1.185 7.197 1.984 10.796 2.975m12.038-11.003 14.478 8.882M172 199l13 8m-12.25.75L185 214m-10.5 1.25 11.75 6.5M176 222l10.25 6.5m-8.75 1.5 9.5 6m-8.25 1.5 7.75 4m-6.75 3.5 7.25 4.5" style="fill:none;stroke:#5456aa;stroke-width:2;stroke-linecap:round;stroke-linejoin:round;stroke-miterlimit:4;stroke-opacity:1;stroke-dasharray:none;stroke-dashoffset:0" transform="translate(0 512.362)"/><path d="m212.38 709.694-12.728 8.132m11.968-1.296-11 7m10 1.5-10 5.5m10.5 1.75-11.25 6m10.75.75-10.75 5.75m10.25 1.25-11.5 6.5m10.25.25-9.75 5.25m8.75 2.25-9.25 5.75" style="fill:none;stroke:#5456aa;stroke-width:2;stroke-linecap:round;stroke-linejoin:round;stroke-miterlimit:4;stroke-opacity:1;stroke-dasharray:none;stroke-dashoffset:0"/><path d="m187.5 256.5-6.799-4.866m25.549 5.116L199.5 260m-.207 2.528 6.237 2.5" style="fill:none;stroke:#5456aa;stroke-width:2;stroke-linecap:round;stroke-linejoin:round;stroke-miterlimit:4;stroke-opacity:1;stroke-dasharray:none;stroke-dashoffset:0" transform="translate(0 512.362)"/><path d="M302.5 134c-.833-2.167-3.279-4.313-2.5-6.5.902-2.532 4.319-4.183 7-4 2.727.186 5.408 2.494 6.5 5 1.07 2.456.13 4.631-.75 8 3.01-1.847 4.26-2.296 6.25-1.5 3.133 1.253 5.716 5.132 5.5 8.5-.181 2.832-2.738 5.848-5.5 6.5-2.47.583-4.667-2-7-3 .5 3 2.631 6.177 1.5 9-.93 2.32-3.5 4.515-6 4.5-2.733-.017-5.499-2.456-6.5-5-1.114-2.83 1-6 1.5-9-1.833 1.333-3.243 4.214-5.5 4-3.639-.345-7.257-4.353-7.5-8-.19-2.861 2.583-5.458 5-7 2.287-1.46 5.333-1 8-1.5" style="fill:#ff5;fill-opacity:1;stroke:#5456aa;stroke-width:2;stroke-linecap:round;stroke-linejoin:round;stroke-miterlimit:4;stroke-opacity:1;stroke-dasharray:none;stroke-dashoffset:0" transform="translate(0 512.362)"/><path d="m296.5 135-3.5-8.5 6 1.5 3 5.5zm15.5-1 2.5-5.5 6.5-1-2.5 6.5zm1.5 15 .5 6 5 .5-1-5.5zm-16 0-2 7 4.5-1.5 2.5-8.5z" style="fill:#55a;fill-opacity:1;stroke:#5456aa;stroke-width:2;stroke-linecap:round;stroke-linejoin:round;stroke-miterlimit:4;stroke-opacity:1;stroke-dasharray:none;stroke-dashoffset:0" transform="translate(0 512.362)"/><path d="m305 160.5 1.5 40.5 3.5-2-1.5-38.25zm6.5 31c.333-5.514 1.018-11.197 3.25-16.25 2.215-5.016 6.25-9.417 9.75-13.25.167 5.5.253 11.583-.75 17.25-.625 3.53-1.388 7.187-3.25 10.25-2.081 3.424-5.667 5.667-8.5 8.5-.167-2.167-.631-4.33-.5-6.5" style="fill:#ff5;fill-opacity:1;stroke:#5456aa;stroke-width:2;stroke-linecap:round;stroke-linejoin:round;stroke-miterlimit:4;stroke-opacity:1;stroke-dasharray:none;stroke-dashoffset:0" transform="translate(0 512.362)"/><path d="M320.5 171.5c-.833 3.833-1.324 7.758-2.5 11.5-1.299 4.134-5 12-5 12h0" style="fill:none;stroke:#5456aa;stroke-width:2;stroke-linecap:round;stroke-linejoin:round;stroke-miterlimit:4;stroke-opacity:1;stroke-dasharray:none;stroke-dashoffset:0" transform="translate(0 512.362)"/><path d="M287.5 172.5c4.833 3.833 11.176 6.303 14.5 11.5 3.05 4.767 2.667 11 4 16.5-3.833-3.833-8.007-7.354-11.5-11.5-2.234-2.652-4.747-5.266-6-8.5-.97-2.506-.667-5.333-1-8" style="fill:#ff5;fill-opacity:1;stroke:#5456aa;stroke-width:2;stroke-linecap:round;stroke-linejoin:round;stroke-miterlimit:4;stroke-opacity:1;stroke-dasharray:none;stroke-dashoffset:0" transform="translate(0 512.362)"/><path d="M292.5 181.5c2.5 2.333 5.378 4.319 7.5 7 2.502 3.16 4 7 6 10.5" style="fill:none;stroke:#5456aa;stroke-width:2;stroke-linecap:round;stroke-linejoin:round;stroke-miterlimit:4;stroke-opacity:1;stroke-dasharray:none;stroke-dashoffset:0" transform="translate(0 512.362)"/><path d="m297 141.5 11-10.5 9.25 10.75-9.75 10z" style="fill:#f55;fill-opacity:1;stroke:#5456aa;stroke-width:2;stroke-linecap:round;stroke-linejoin:round;stroke-miterlimit:4;stroke-opacity:1;stroke-dasharray:none;stroke-dashoffset:0" transform="translate(0 512.362)"/><path d="m303 141.5 4.5-4.5 4.5 4.5-4 4.75z" style="fill:#ff5;fill-opacity:1;stroke:#5456aa;stroke-width:2;stroke-linecap:round;stroke-linejoin:round;stroke-miterlimit:4;stroke-opacity:1;stroke-dasharray:none;stroke-dashoffset:0" transform="translate(0 512.362)"/><path d="m63.64 200.235-.354-6.364 6.364.354 3.536-6.01 4.596 6.363h6.364l-.707 6.364 5.303 3.182-6.01 4.596.353 5.657-4.95-.707-4.242 6.364-4.95-7.424-4.596 1.767v-6.01l-6.718-3.89z" style="fill:#ffff57;fill-opacity:1;stroke:none" transform="translate(-22.186 565.738)"/><path d="m68.09 203.794 5.406-5.077 5.12 5.521-5.18 4.897z" style="fill:#f55;fill-opacity:1;stroke:#000;stroke-width:2;stroke-linecap:round;stroke-linejoin:round;stroke-miterlimit:4;stroke-opacity:1;stroke-dasharray:none;stroke-dashoffset:0" transform="translate(-22.186 565.738)"/><path d="M117.097 762.053s2.24-3.573 3.904-4.784c1.43-1.04 3.189-2.153 4.942-1.925.998.13 2.109.83 2.439 1.782.27.78-.233 1.681-.665 2.384-.582.947-1.518 1.663-2.463 2.25-1.001.621-2.179.902-3.294 1.283-1.052.359-3.2.942-3.2.942zm2.84 5.093s3.145-2.81 5.08-3.51c1.662-.602 3.662-1.182 5.282-.476.923.403 1.795 1.384 1.848 2.39.043.824-.69 1.55-1.301 2.105-.823.748-1.92 1.175-2.991 1.476-1.135.32-2.344.262-3.522.317-1.11.053-3.335.017-3.335.017zm2.655 5.794s3.938-1.51 5.996-1.476c1.768.028 3.843.196 5.106 1.433.72.704 1.186 1.931.878 2.89-.252.785-1.197 1.203-1.965 1.505-1.034.407-2.212.416-3.32.317-1.174-.105-2.284-.59-3.404-.956-1.057-.345-3.123-1.17-3.123-1.17zm-.051 5.808s4.187-.506 6.175.026c1.707.457 3.68 1.124 4.605 2.631.526.858.68 2.162.149 3.017-.436.7-1.454.876-2.272.982-1.102.143-2.247-.134-3.298-.5-1.113-.386-2.072-1.126-3.07-1.753-.94-.592-2.745-1.895-2.745-1.895zM106.4 798.48s-.614 4.171-.134 6.172c.413 1.72 1.03 3.708 2.511 4.671.845.55 2.144.737 3.013.228.711-.418.913-1.43 1.04-2.246.172-1.098-.076-2.25-.414-3.31-.358-1.122-1.072-2.1-1.674-3.113-.567-.956-1.823-2.794-1.823-2.794zm4.962-2.784s.53 4.184 1.53 5.982c.86 1.545 1.987 3.295 3.674 3.825.96.302 2.263.134 2.962-.59.574-.594.496-1.624.4-2.443-.13-1.104-.679-2.147-1.289-3.077-.647-.985-1.597-1.735-2.45-2.55-.803-.768-2.505-2.2-2.505-2.2zm4.446-3.579s1.67 3.871 3.132 5.32c1.255 1.246 2.825 2.613 4.592 2.654 1.007.023 2.211-.5 2.682-1.391.385-.73.025-1.697-.296-2.457-.432-1.025-1.248-1.874-2.092-2.597-.895-.767-2.017-1.223-3.062-1.77-.985-.514-3.019-1.417-3.019-1.417zm4.359-4.625s2.938 3.025 4.82 3.86c1.615.718 3.568 1.438 5.235.848.949-.337 1.888-1.254 2.012-2.253.1-.82-.58-1.595-1.15-2.192-.768-.804-1.833-1.308-2.879-1.684-1.11-.398-2.32-.426-3.49-.565-1.104-.13-3.326-.252-3.326-.252z" style="fill:#fff;fill-opacity:1;stroke:none"/><path d="m186.323 194.578 2.121 62.58 10.253 5.303.707-67.176z" style="fill:#ff5;fill-opacity:1;stroke:#000;stroke-width:2;stroke-linecap:round;stroke-linejoin:round;stroke-miterlimit:4;stroke-opacity:1;stroke-dasharray:none;stroke-dashoffset:0" transform="translate(0 512.362)"/><path d="M191.272 199.882h2.829l.353 3.182-2.975.146z" style="fill:#000;fill-opacity:1;stroke:none" transform="translate(0 512.362)"/><path d="M191.659 719.198h2.828l.354 3.182-2.975.146zm-.25 7h2.828l.354 3.182-2.975.146zm-.25 6.25h2.828l.354 3.182-2.975.146zm0 7.25h2.828l.354 3.182-2.975.146zm-.25 6h2.828l.354 3.182-2.975.146zm.75 6.5h2.828l.354 3.182-2.975.146zm0 6h2.828l.354 3.182-2.975.146zm0 6.5h2.828l.354 3.182-2.975.146z" style="fill:#000;fill-opacity:1;stroke:none"/><path d="m209.125 706.487-9.25 5.75" style="fill:none;stroke:#5456aa;stroke-width:2;stroke-linecap:round;stroke-linejoin:round;stroke-miterlimit:4;stroke-opacity:1;stroke-dasharray:none;stroke-dashoffset:0"/><path d="M239.765 748.66c.118-16.617-.295-30.76-.177-47.376 6.01-1.886 10.942-3.71 16.281-5.907 5.276-2.17 10.338-4.83 15.539-7.175 2.934-1.323 5.892-2.593 8.839-3.889l1.802 6.83c-2.357 2.71-5.711 5.903-8.282 9.1-2.172 2.7-4.228 5.512-6.01 8.484-2.574 4.295-4.762 8.827-6.718 13.436-1.229 2.895-2.338 5.857-3.139 8.899-.878 3.337-1.457 7.128-1.81 10.192-3.065 1.532-5.252 2.17-7.84 3.34-2.858 1.292-4.478 2.062-8.485 4.066" style="fill:#000;fill-opacity:1;stroke:none" transform="rotate(180 179.475 782.237)"/><path d="m154.624 187.068 16.85 3.785 10.045 62.605-10.722-6.938z" style="fill:#55a;fill-opacity:1;stroke:none" transform="rotate(180 179.475 526.056)"/><path d="m209.125 706.487-9.25 5.75" style="fill:none;stroke:#5456aa;stroke-width:2;stroke-linecap:round;stroke-linejoin:round;stroke-miterlimit:4;stroke-opacity:1;stroke-dasharray:none;stroke-dashoffset:0" transform="rotate(180 179.475 782.237)"/><path d="m239.234 713.304.53 35.477s-6.138 3.436-8.661 5.834c-3.061 2.908-5.479 6.482-7.602 10.131-1.486 2.555-2.651 5.312-3.535 8.132-.72 2.294-1.415 7.071-1.415 7.071l-4.419.177 18.031-66.822c2.362.234 4.71.114 7.071 0" style="fill:#f55;fill-opacity:1;stroke:none" transform="rotate(180 179.475 782.237)"/><path d="m213.503 192.682-8.546 73.21 10.071 1.872 20.989-78.16zm-89.759 31.595c-2.593 3.535-5.552 6.83-7.778 10.606-1.714 2.908-3.014 6.05-4.243 9.193-1.533 3.922-2.92 7.922-3.89 12.02-1.041 4.41-1.515 8.937-2.048 13.436-.66 5.578-1.054 11.186-1.417 16.791-.294 4.537-.277 9.092-.617 13.625-.292 3.896-.985 7.885-1.22 11.657 3.181-1.533 6.394-3.002 9.545-4.597 3.81-1.928 7.836-3.532 11.314-6.01 3.803-2.71 7.456-5.807 10.253-9.546 2.368-3.165 4.057-6.855 5.303-10.607 1.253-3.769 1.86-7.763 2.11-11.727.28-4.455-.14-8.945-.695-13.375-.449-3.578-.89-7.218-2.122-10.607-1.512-4.163-3.884-7.996-6.364-11.667-1.452-2.15-3.205-4.089-4.95-6.01-1.008-1.11-2.12-2.122-3.181-3.182" style="fill:#55a;fill-opacity:1;stroke:none" transform="rotate(180 179.475 526.056)"/><path d="M89.26 158.223s10.406 8.096 15.745 11.96c5.218 3.776 10.342 7.726 15.91 10.96 4.225 2.454 8.71 4.444 13.203 6.364a146 146 0 0 0 12.253 4.596c3.372 1.096 10.253 2.829 10.253 2.829l-1.06-8.132s-11.668-3.189-17.325-5.303a113 113 0 0 1-12.728-5.657c-4.03-2.106-7.88-4.553-11.667-7.071-4.004-2.663-7.81-5.614-11.667-8.485-2.496-1.858-7.425-5.657-7.425-5.657z" style="fill:#f55;fill-opacity:1;stroke:none" transform="rotate(180 179.475 526.056)"/><path d="M30 206s14.344-12.522 21.75-18.5c6.615-5.339 13.506-10.325 20.25-15.5 4.337-3.328 13-10 13-10s9.615 7.732 14.5 11.5c3.96 3.054 7.834 6.236 12 9 3.859 2.56 12 7 12 7s-8.387 4.103-12 7c-4.784 3.837-8.614 8.755-12.5 13.5-4.69 5.726-9.605 11.424-13 18-4.038 7.82-6.744 16.375-8.5 25-.9 4.422-.758 8.994-1 13.5-.268 4.996-.14 10.01-.5 15-.326 4.516-.906 9.011-1.5 13.5-.576 4.346-2 13-2 13s-3.763-6.77-7-8.5c-2.955-1.579-6.656-1.191-10-1A37.9 37.9 0 0 0 44 301c-2.158.84-4.007 2.321-6 3.5-1.673.99-3.358 1.96-5 3-1.016.643-3 2-3 2z" style="fill:#000;fill-opacity:1;stroke:none" transform="rotate(180 179.475 526.056)"/><path d="M159.051 61.143s-10.506 9.83-15.117 15.33c-5.2 6.202-10.206 12.68-14.053 19.802-3.514 6.505-6.113 13.528-8.09 20.653-2.042 7.353-3.833 22.57-3.833 22.57l21.292-10.22s2.14-10.262 4.045-15.118c2.053-5.231 4.75-10.237 7.878-14.905 2.778-4.144 9.582-11.497 9.582-11.497z" style="fill:#000004;fill-opacity:1;stroke:none" transform="rotate(180 179.475 526.056)"/><path d="m217.369 30 51.392 88.796 8.322-3.635L227.102 30z" style="fill:#ff5455;fill-opacity:1;stroke:none" transform="rotate(180 179.475 526.056)"/><path d="M292.217 542.362a138 138 0 0 0-2.913 25.826c-.202 11.303.99 22.625 3.479 33.652a145 145 0 0 0 7.26 23.044 45 45 0 0 0-12.13-.609c-3.7.316-7.36 1.092-10.87 2.305l-50.173-84.218z" style="fill:#ff5;fill-opacity:1;stroke:#55a;stroke-width:2;stroke-linecap:round;stroke-linejoin:round;stroke-miterlimit:4;stroke-opacity:1;stroke-dasharray:none" transform="rotate(180 179.475 782.237)"/><path d="M276.492 683.413c-17.232 8.904-25.108 12.996-38.67 16.556-15.813 4.151-32.424 6.081-48.756 5.332-14.711-.675-29.53-3.57-43.294-8.805-18.461-7.021-35.06-16.47-51.237-29.763 5.995-4.27 16.424-10.897 25.222-15.282 10.26-5.114 15.873-8.977 31.94-12.758 4.345 2.49 8.497 5.487 13.177 7.311 6.323 2.465 13.043 4.068 19.793 4.773 6.826.713 13.757.149 20.58-.587 6.903-.744 13.852-1.754 20.468-3.857 6.437-2.046 12.103-4.54 18.425-8.434-1.29 17.275-.392 22.175 9.34 31.303 2.17 1.8 13.746 8.993 19.393 7.905 4.923 3.58 1.122 5.1 3.62 6.306" style="fill:#ffff58;fill-opacity:1;stroke:none" transform="rotate(180 179.475 782.237)"/><path d="M256.097 53.528c-2.529-1.882-6.232-2.153-8.054-.18-2.105 2.28-1.091 6.92.946 9.262 2.392 2.75 7.654 4.727 10.62 2.607 1.36-.971 1.27-3.54.444-4.993-.415-.73-1.357-1.094-2.27-1.094" style="fill:none;stroke:#000;stroke-width:2.5;stroke-linecap:round;stroke-linejoin:round;stroke-miterlimit:4;stroke-opacity:1;stroke-dasharray:none" transform="rotate(180 179.475 526.056)"/><path d="M263.26 71c2.031-1.78 1.058-3.638 0-4.87-.868-1.012-2.823-1.313-3.956-.608-2.98 1.853-4.462 6.78-3.167 10.043 1.303 3.285 5.823 6.022 9.254 5.174 2.35-.58 4.668-2.808 3.957-6.087m-7-11.565c-.828-1.293-.64-3.673.609-4.565 1.262-.902 3.735-.399 4.565.913.894 1.414.24 4.047-1.218 4.87-1.201.677-3.212-.056-3.956-1.218m-11.87-18.87c.353 2.95-1.558 7.434-4.565 7.913-3.15.503-5.888-3.45-7.124-6.39-1.259-2.997-1.97-7.547.428-9.74 1.65-1.508 5.153-1.31 6.696.304.841.88 1.093 2.904 0 3.653" style="fill:none;stroke:#000;stroke-width:2.5;stroke-linecap:round;stroke-linejoin:round;stroke-miterlimit:4;stroke-opacity:1;stroke-dasharray:none;stroke-dashoffset:0" transform="rotate(180 179.475 526.056)"/><path d="M230.696 30c.913 5.884 4.284 6.336 7.304 5.696 2.106-.447 3.747-3.596 3.043-5.696m1.044 0c-1.016 1.694.584 3.17 1.826 3.26 1.37.102 3.011-1.933 2.519-3.26" style="fill:none;stroke:#000;stroke-width:2.5;stroke-linecap:butt;stroke-linejoin:round;stroke-miterlimit:4;stroke-opacity:1;stroke-dasharray:none;stroke-dashoffset:0" transform="rotate(180 179.475 526.056)"/><path d="M274.217 83.783a6.5 6.5 0 0 0-1.586-1.216c-1.83-1.015-4.22-1.335-5.842-.346-2.798 1.704-2.467 6.335-1.053 9.006 1.491 2.819 5.392 5.217 8.481 4.425 1.772-.454 3.513-2.797 3.044-4.565-.35-1.316-1.81-3.248-3.652-1.826m5.782 3.348c-.51-1.318.208-3.437 1.522-3.957 1.302-.515 3.393.481 3.784 1.826.4 1.375-.884 3.262-2.262 3.652-1.091.31-2.634-.464-3.044-1.521m.305 7.608c1.562.454 1.068-3.325 0-4.26-1.155-1.012-3.505-.502-4.566.608-1.999 2.094-2.017 6.051-.748 8.654 1.353 2.777 4.814 5.973 7.764 5.058 2.523-.782 3.529-3.214 3.028-7.32" style="fill:none;stroke:#000;stroke-width:2.5;stroke-linecap:round;stroke-linejoin:round;stroke-miterlimit:4;stroke-opacity:1;stroke-dasharray:none;stroke-dashoffset:0" transform="rotate(180 179.475 526.056)"/><path d="M158.69 30s.797 19.914 1.25 29.87c.289 6.352.438 12.714.937 19.054.607 7.727.827 15.549 2.499 23.117 1.328 6.012 2.875 12.15 5.935 17.493 2.531 4.42 5.763 8.725 9.996 11.558 2.463 1.648 5.48 2.58 8.434 2.812 3.79.297 7.68-.562 11.246-1.875 4.558-1.678 8.548-4.667 12.496-7.497 3.662-2.626 6.962-5.728 10.308-8.747 2.57-2.318 7.497-7.184 7.497-7.184" style="fill:none;stroke:#55a;stroke-width:2.5;stroke-linecap:butt;stroke-linejoin:round;stroke-miterlimit:4;stroke-opacity:1;stroke-dasharray:none;stroke-dashoffset:0" transform="rotate(180 179.475 526.056)"/><path d="M170.56 542.555s-3.23 4.665-5.31 6.56c-1.665 1.518-5.623 3.749-5.623 3.749" style="fill:none;stroke:#55a;stroke-width:2.5;stroke-linecap:round;stroke-linejoin:round;stroke-miterlimit:4;stroke-opacity:1;stroke-dasharray:none;stroke-dashoffset:0" transform="rotate(180 179.475 782.237)"/><path d="M177.12 30.193s-4.32 6.863-7.184 9.684c-2.924 2.88-9.996 7.184-9.996 7.184" style="fill:none;stroke:#55a;stroke-width:2.5;stroke-linecap:round;stroke-linejoin:round;stroke-miterlimit:4;stroke-opacity:1;stroke-dasharray:none;stroke-dashoffset:0" transform="rotate(180 179.475 526.056)"/><path d="M183.993 542.555s-7.246 10.413-11.87 14.682c-3.523 3.252-11.871 8.122-11.871 8.122m28.427-22.804s6.702 13.33 12.183 18.118c5.506 4.81 19.68 9.684 19.68 9.684" style="fill:none;stroke:#55a;stroke-width:2.5;stroke-linecap:round;stroke-linejoin:round;stroke-miterlimit:4;stroke-opacity:1;stroke-dasharray:none;stroke-dashoffset:0" transform="rotate(180 179.475 782.237)"/><path d="M194.302 542.555s5.276 9.822 9.371 13.432c3.529 3.111 12.495 6.56 12.495 6.56m-16.244-19.992s3.195 6.71 5.936 9.06c1.91 1.637 6.872 3.123 6.872 3.123" style="fill:none;stroke:#55a;stroke-width:2.5;stroke-linecap:round;stroke-linejoin:round;stroke-miterlimit:4;stroke-opacity:1;stroke-dasharray:none;stroke-dashoffset:0" transform="rotate(180 179.475 782.237)"/><path d="M180.473 579.908s.548 4.052.34 6.066c-.394 3.802-2.014 7.375-2.972 11.075-.627 2.42-1.914 4.779-1.819 7.278.075 1.963.592 4.093 1.86 5.593.85 1.004 2.51.965 3.485 1.848.817.74 1.831 2.755 1.831 2.755" style="fill:none;stroke:#55a;stroke-width:1.99999976;stroke-linecap:round;stroke-linejoin:round;stroke-miterlimit:4;stroke-opacity:1;stroke-dasharray:none;stroke-dashoffset:0" transform="rotate(180 179.475 782.237)"/><path d="M193.63 604.238s3.198 3.597 2.767 5.649c-.272 1.298-1.732 2.341-3.039 2.57-1.684.293-3.216-1.163-4.806-1.79-1.51-.594-3.04-2.59-4.492-1.868-.682.339-1.084 1.644-.575 2.21.618.685 1.815-.392 2.737-.416 3.2-.083 7.04 2.922 9.558.945.871-.684.707-2.21.467-3.292-.346-1.557-2.617-4.008-2.617-4.008m26.89-25.266s-8.749-6.254-13.744-7.574c-3.93-1.038-8.24-1.275-12.133-.103-1.566.472-4.15 2.761-4.15 2.761s3.816-1.383 5.8-1.641c4.01-.522 8.189-.798 12.12.214 4.363 1.124 12.108 6.343 12.108 6.343m-59.578-6.054s6.116-2.84 9.274-2.377c3.502.514 9.096 5.483 9.096 5.483s-5.916-4.084-9.336-4.306c-3.218-.209-9.235 2.882-9.235 2.882z" style="fill:#55a;fill-opacity:1;stroke:#55a;stroke-width:1.99999976;stroke-linecap:round;stroke-linejoin:round;stroke-miterlimit:4;stroke-opacity:1;stroke-dasharray:none;stroke-dashoffset:0" transform="rotate(180 179.475 782.237)"/><path d="M197.092 621.998s-3.93-1.536-6.041-1.668c-1.915-.119-3.77.712-5.678.819-2.177.122-4.454-.745-6.542-.203-.948.246-2.408 1.488-2.408 1.488s1.7-.104 2.542-.016c2.23.231 4.314 1.447 6.532 1.424 2.447-.025 4.709-1.4 7.159-1.723 1.462-.193 4.436-.12 4.436-.12" style="fill:#55a;fill-opacity:1;stroke:#55a;stroke-width:1.99999964;stroke-linecap:round;stroke-linejoin:round;stroke-miterlimit:4;stroke-opacity:1;stroke-dasharray:none;stroke-dashoffset:0" transform="rotate(180 179.475 782.237)"/><path d="M192.453 627.116s-3.679 1.442-5.616 1.513c-1.656.06-4.881-.939-4.881-.939" style="fill:none;stroke:#55a;stroke-width:1.99999976;stroke-linecap:round;stroke-linejoin:round;stroke-miterlimit:4;stroke-opacity:1;stroke-dasharray:none;stroke-dashoffset:0" transform="rotate(180 179.475 782.237)"/><path d="M178.667 581.895s-4.791-4.1-9.136-4.142c-4.65-.044-7.392 2.662-7.392 2.662m56.997 3.102s-9.376-7.14-14.706-7.066c-7.19.1-12.54 4.317-12.54 4.317" style="fill:none;stroke:#55a;stroke-width:1.99999976;stroke-linecap:round;stroke-linejoin:round;stroke-miterlimit:4;stroke-opacity:1;stroke-dasharray:none" transform="rotate(180 179.475 782.237)"/><path d="M218.056 585.74c-5.516-.693-7.47-3.855-12.544-4.252-4.35-.34-13.101 1.231-13.101 1.231m-30.787 1.259c5.033-2.648 4.77-3.255 9.85-2.925 6.551.425 8.415 1.212 8.064 1.072m35.905 4.549c-4.937 1.285-7.291 2.526-12.893 2.904-4.15.28-9.712-1.033-10.134-5.171" style="fill:none;stroke:#55a;stroke-width:1.99999976;stroke-linecap:round;stroke-linejoin:round;stroke-miterlimit:4;stroke-opacity:1;stroke-dasharray:none" transform="rotate(180 179.475 782.237)"/><path d="M205.077 582.883c.952 5.125-2.087 6.852-5.442 6.454-2.276-.27-4.423-3.248-3.37-6.198" style="fill:none;stroke:#55a;stroke-width:1.99999976;stroke-linecap:round;stroke-linejoin:round;stroke-miterlimit:4;stroke-opacity:1;stroke-dasharray:none" transform="rotate(180 179.475 782.237)"/><path d="M198.959 586.024c-.193-.905.671-2.222 1.574-2.285.79-.056 1.69.984 1.629 1.788-.056.738-.987 1.348-1.726 1.397-.575.039-1.357-.336-1.477-.9m-26.877-1.322c.015-.728-.819-1.658-1.661-1.627-.737.027-1.43.895-1.352 1.527.082.66.995 1.313 1.763 1.265.608-.037 1.24-.639 1.25-1.165" style="fill:#55a;fill-opacity:1;stroke:#55a;stroke-width:1.99999976;stroke-linecap:round;stroke-linejoin:round;stroke-miterlimit:4;stroke-opacity:1;stroke-dasharray:none;stroke-dashoffset:0" transform="rotate(180 179.475 782.237)"/><path d="M178.166 590.54c-1.934 2.523-2.046 4.74-6.095 6.912m20.289-13.842c1.61 7.204 7.236 9.358 11.683 12.543" style="fill:none;stroke:#55a;stroke-width:1.99999976;stroke-linecap:round;stroke-linejoin:round;stroke-miterlimit:4;stroke-opacity:1;stroke-dasharray:none;stroke-dashoffset:0" transform="rotate(180 179.475 782.237)"/><path d="M161.54 586.608c2.712 1.794 6.167 2.827 10.552 2.643 3.25-.136 6.52-2.665 6.536-5.667" style="fill:none;stroke:#55a;stroke-width:2;stroke-linecap:round;stroke-linejoin:round;stroke-miterlimit:4;stroke-opacity:1;stroke-dasharray:none" transform="rotate(180 179.475 782.237)"/><path d="M166.642 581.281c-.977 4.985 1.136 7.632 4.942 7.495 1.674-.06 5.045-4.168 2.476-7.994" style="fill:none;stroke:#55a;stroke-width:2;stroke-linecap:round;stroke-linejoin:round;stroke-miterlimit:4;stroke-opacity:1;stroke-dasharray:none" transform="rotate(180 179.475 782.237)"/><path d="M192.014 634.006s-3.755-1.23-5.693-1.19c-1.656.033-4.82 1.214-4.82 1.214" style="fill:none;stroke:#55a;stroke-width:1.99999976;stroke-linecap:round;stroke-linejoin:round;stroke-miterlimit:4;stroke-opacity:1;stroke-dasharray:none;stroke-dashoffset:0" transform="rotate(180 179.475 782.237)"/><path d="M224.418 69.872c-1.846 5.394-5.166 10.816-5.11 16.608.054 5.678 2.292 11.38 5.323 16.182 2.357 3.736 5.617 7.206 9.581 9.156 3.801 1.869 8.375 1.277 12.562 1.916" style="fill:none;stroke:#55a;stroke-width:2.5;stroke-linecap:round;stroke-linejoin:round;stroke-miterlimit:4;stroke-opacity:1;stroke-dasharray:none;stroke-dashoffset:0" transform="rotate(180 179.475 526.056)"/><path d="M227.612 75.408c-.852 3.123-2.307 7.175-2.13 10.86.203 4.216 1.51 8.48 3.62 12.136 1.756 3.044 4.156 5.979 7.24 7.665 2.344 1.282 5.251.994 7.877 1.49" style="fill:none;stroke:#55a;stroke-width:2.5;stroke-linecap:round;stroke-linejoin:round;stroke-miterlimit:4;stroke-opacity:1;stroke-dasharray:none;stroke-dashoffset:0" transform="rotate(180 179.475 526.056)"/><path d="M231.231 81.796c-.284 2.271-1.178 4.548-.851 6.813.43 2.989 1.527 6.127 3.62 8.304 1.693 1.763 4.4 2.13 6.6 3.194m10.859 22.57c-.852 3.052-2.353 5.993-2.555 9.155-.252 3.937.258 8.04 1.703 11.71 1.644 4.178 4.396 7.996 7.665 11.073 1.994 1.877 4.45 3.33 7.026 4.258 1.823.657 3.833.568 5.75.852" style="fill:none;stroke:#55a;stroke-width:2.5;stroke-linecap:round;stroke-linejoin:round;stroke-miterlimit:4;stroke-opacity:1;stroke-dasharray:none;stroke-dashoffset:0" transform="rotate(180 179.475 526.056)"/><path d="M255.078 129.703c-.426 2.271-1.41 4.507-1.277 6.813.179 3.116 1.182 6.256 2.768 8.943 1.3 2.205 3.217 4.08 5.323 5.536 1.333.922 2.98 1.278 4.471 1.916M161.393 96.7c-3.193 4.33-7.085 8.223-9.581 12.989-2.75 5.249-3.833 11.213-5.749 16.82m16.395-23.208c-2.058 3.194-4.57 6.137-6.175 9.581-1.726 3.704-2.413 7.807-3.62 11.71m11.285-13.839c-1.064 1.774-2.356 3.43-3.193 5.323-.698 1.577-.994 2.753-1.49 4.953m-9.589 4.594c6.61 3.734 14.673 7.614 22.576 9.829 6.553 1.837 13.426 2.554 20.228 2.768 7.753.243 15.557-.425 23.208-1.704 5.213-.87 10.417-2.097 15.33-4.045 4.429-1.756 8.375-4.542 12.563-6.813" style="fill:none;stroke:#55a;stroke-width:2.5;stroke-linecap:round;stroke-linejoin:round;stroke-miterlimit:4;stroke-opacity:1;stroke-dasharray:none;stroke-dashoffset:0" transform="rotate(180 179.475 526.056)"/><path d="M139.037 130.555c5.82 3.335 11.31 7.327 17.46 10.007 6.132 2.673 12.627 4.532 19.162 5.962 6.153 1.346 12.44 2.327 18.737 2.432 6.987.116 13.976-.842 20.866-2.006 5.618-.95 11.175-2.328 16.608-4.046 3.707-1.172 7.24-2.839 10.859-4.258" style="fill:none;stroke:#000;stroke-width:2.5;stroke-linecap:round;stroke-linejoin:round;stroke-miterlimit:4;stroke-opacity:1;stroke-dasharray:none;stroke-dashoffset:0" transform="rotate(180 179.475 526.056)"/><path d="M133.5 133.749c5.04 2.98 9.865 6.357 15.118 8.942 5.144 2.532 10.484 4.72 15.97 6.388 6.525 1.983 13.242 3.445 20.014 4.258 7.19.864 14.493 1.152 21.718.639 5.819-.413 11.582-1.583 17.246-2.981 7.17-1.769 14.053-4.542 21.08-6.813" style="fill:none;stroke:#000;stroke-width:2.5;stroke-linecap:round;stroke-linejoin:round;stroke-miterlimit:4;stroke-opacity:1;stroke-dasharray:none;stroke-dashoffset:0" transform="rotate(180 179.475 526.056)"/><path d="M126.262 136.73c5.677 3.335 11.084 7.182 17.033 10.007 6.634 3.15 13.597 5.634 20.653 7.665 7.037 2.024 14.237 3.587 21.505 4.471 5.711.695 11.502.945 17.247.639 6.445-.343 12.875-1.31 19.163-2.768 4.504-1.044 8.854-2.682 13.2-4.259 3.742-1.357 7.382-2.98 11.073-4.47" style="fill:none;stroke:#000;stroke-width:2.5;stroke-linecap:round;stroke-linejoin:round;stroke-miterlimit:4;stroke-opacity:1;stroke-dasharray:none;stroke-dashoffset:0" transform="rotate(180 179.475 526.056)"/><path d="M99.647 151.42c6.742 4.756 13.168 9.995 20.227 14.267 7.849 4.748 15.918 9.285 24.486 12.562 7.676 2.935 15.77 4.735 23.847 6.254 7.653 1.44 15.43 2.306 23.208 2.688 8.295.408 16.678.66 24.912-.425 8.123-1.071 16.028-3.514 23.847-5.962 7.46-2.336 14.85-4.992 21.93-8.304 4.06-1.899 7.808-4.4 11.711-6.6" style="fill:none;stroke:#000;stroke-width:2.5;stroke-linecap:round;stroke-linejoin:round;stroke-miterlimit:4;stroke-opacity:1;stroke-dasharray:none;stroke-dashoffset:0" transform="rotate(180 179.475 526.056)"/><path d="m125.18 136.163-12.68 6.587 7.25 5.25 7.18-10.087zm11.239 7.494L129.75 155.5l13.25 6.25 5.75-11.25zM161 154.25l-3.919 12.093 13.5 4.25L174 157.657zm25.25 5.75-1 12.593 14.424.505L199 159.5zm25.5-.25 1.163 12.843 14.087-2.75-2.907-13.18zm24.663-7.18 5.293 13.397 12.03-4.57L250.75 154l-4.5-6.25zM111.5 158.75l8-10.5 10.25 7-6.419 12.093z" style="fill:#000;fill-opacity:1;stroke:none" transform="rotate(180 179.475 526.056)"/><path d="m136.744 174.93 5.762-13.523L156.848 166l-4.348 14zm30.925 9.43 2.831-13.61 14.843 1.919-1.169 13.674zm31.831 2.39-.25-14.5h14l1.5 13.5-15.5 2zm30.5-4.25-3.174-12.924 14.767-4.337 4.337 12.848-15.68 5.413zm28.75-9.75L253.5 161l3-1 15.75 7z" style="fill:#000;fill-opacity:1;stroke:none" transform="rotate(180 179.475 526.056)"/><path d="m107.413 147.68.337 4.57 5.581-.989-1.081-5.011zM125.5 144l4.75-1.25.587 4.843-4.837 1.75zm4 19.25 5.25-2.5 1.25 4.75-4 2.25zm20-6.75 5-1.75 1.424 4.843-4.674 2.157zm9 17.5 2.75 4.75 4-3.25-3-4.5z" style="fill:none;stroke:#000;stroke-width:2.5;stroke-linecap:round;stroke-linejoin:round;stroke-miterlimit:4;stroke-opacity:1;stroke-dasharray:none;stroke-dashoffset:0" transform="rotate(180 179.475 526.056)"/><path d="m175.564 677.077 3.989-3.25 2.976 3.035-4 4z" style="fill:none;stroke:#000;stroke-width:2.5;stroke-linecap:round;stroke-linejoin:round;stroke-miterlimit:4;stroke-opacity:1;stroke-dasharray:none;stroke-dashoffset:0" transform="rotate(180 179.475 782.237)"/><path d="M188.25 179.174 192 175.5l3 4.75-3.75 2.25z" style="fill:none;stroke:#000;stroke-width:2.5;stroke-linecap:round;stroke-linejoin:round;stroke-miterlimit:4;stroke-opacity:1;stroke-dasharray:none;stroke-dashoffset:0" transform="rotate(180 179.475 526.056)"/><path d="m202.215 678.94 3.174-3.75 3.332 3.408-3 3z" style="fill:none;stroke:#000;stroke-width:2.5;stroke-linecap:round;stroke-linejoin:round;stroke-miterlimit:4;stroke-opacity:1;stroke-dasharray:none;stroke-dashoffset:0" transform="rotate(180 179.475 782.237)"/><path d="m217.663 177.506 3.587-4.006 3.75 3-2.565 4.669zM228.75 162.5l2.5-4.5 4.25 1.75-2 4.75zm17.5 8 2.25-4.75 4.75 2.5-2 4.25z" style="fill:none;stroke:#000;stroke-width:2.5;stroke-linecap:round;stroke-linejoin:round;stroke-miterlimit:4;stroke-opacity:1;stroke-dasharray:none;stroke-dashoffset:0" transform="rotate(180 179.475 526.056)"/><path d="M95 155c7.667 5.667 14.265 11.267 22 16 5.5 3.365 11.337 6.18 17.25 8.75 6.673 2.9 13.498 5.523 20.5 7.5 6.873 1.94 13.934 3.208 21 4.25 7.15 1.054 14.36 1.941 21.588 2.015 9.03.091 18.136-.34 27.018-1.971 9.203-1.691 18.132-4.76 26.894-8.044 8.722-3.268 17.275-7.392 25.442-11.558" style="fill:none;stroke:#000;stroke-width:2.5;stroke-linecap:round;stroke-linejoin:round;stroke-miterlimit:4;stroke-opacity:1;stroke-dasharray:none;stroke-dashoffset:0" transform="rotate(180 179.475 526.056)"/><path d="M148.25 130a1 1 0 1 1-2 0 1 1 0 0 1 2 0" style="fill:none;stroke:#000;stroke-width:2.5;stroke-linecap:round;stroke-linejoin:round;stroke-miterlimit:4;stroke-opacity:1;stroke-dashoffset:0" transform="rotate(180 179.475 526.056)"/><path d="M148.25 130a1 1 0 1 1-2 0 1 1 0 0 1 2 0" style="fill:none;stroke:#000;stroke-width:2.5;stroke-linecap:round;stroke-linejoin:round;stroke-miterlimit:4;stroke-opacity:1;stroke-dashoffset:0" transform="rotate(180 176.1 524.181)"/><path d="M148.25 130a1 1 0 1 1-2 0 1 1 0 0 1 2 0" style="fill:none;stroke:#000;stroke-width:2.5;stroke-linecap:round;stroke-linejoin:round;stroke-miterlimit:4;stroke-opacity:1;stroke-dashoffset:0" transform="rotate(180 172.85 522.681)"/><path d="M148.25 130a1 1 0 1 1-2 0 1 1 0 0 1 2 0" style="fill:none;stroke:#000;stroke-width:2.5;stroke-linecap:round;stroke-linejoin:round;stroke-miterlimit:4;stroke-opacity:1;stroke-dashoffset:0" transform="rotate(180 169.6 521.806)"/><path d="M148.25 130a1 1 0 1 1-2 0 1 1 0 0 1 2 0" style="fill:none;stroke:#000;stroke-width:2.5;stroke-linecap:round;stroke-linejoin:round;stroke-miterlimit:4;stroke-opacity:1;stroke-dashoffset:0" transform="rotate(180 165.85 520.681)"/><path d="M148.25 130a1 1 0 1 1-2 0 1 1 0 0 1 2 0" style="fill:none;stroke:#000;stroke-width:2.5;stroke-linecap:round;stroke-linejoin:round;stroke-miterlimit:4;stroke-opacity:1;stroke-dashoffset:0" transform="rotate(180 162.475 519.806)"/><path d="M148.25 130a1 1 0 1 1-2 0 1 1 0 0 1 2 0" style="fill:none;stroke:#000;stroke-width:2.5;stroke-linecap:round;stroke-linejoin:round;stroke-miterlimit:4;stroke-opacity:1;stroke-dashoffset:0" transform="rotate(180 158.85 519.556)"/><path d="M196.8 656.05a1 1 0 1 1-2-.001 1 1 0 0 1 2 0m6.887-.363a1 1 0 1 1-2 0 1 1 0 0 1 2 0" style="fill:none;stroke:#000;stroke-width:2.5;stroke-linecap:round;stroke-linejoin:round;stroke-miterlimit:4;stroke-opacity:1;stroke-dashoffset:0" transform="rotate(180 179.475 782.237)"/><path d="M148.25 130a1 1 0 1 1-2 0 1 1 0 0 1 2 0" style="fill:none;stroke:#000;stroke-width:2.5;stroke-linecap:round;stroke-linejoin:round;stroke-miterlimit:4;stroke-opacity:1;stroke-dashoffset:0" transform="rotate(180 148.1 520.056)"/><path d="M148.25 130a1 1 0 1 1-2 0 1 1 0 0 1 2 0" style="fill:none;stroke:#000;stroke-width:2.5;stroke-linecap:round;stroke-linejoin:round;stroke-miterlimit:4;stroke-opacity:1;stroke-dashoffset:0" transform="rotate(180 144.35 520.556)"/><path d="M225.475 651.524a1 1 0 1 1-2 0 1 1 0 0 1 2 0" style="fill:none;stroke:#000;stroke-width:2.5;stroke-linecap:round;stroke-linejoin:round;stroke-miterlimit:4;stroke-opacity:1;stroke-dashoffset:0" transform="rotate(180 179.475 782.237)"/><path d="M148.25 130a1 1 0 1 1-2 0 1 1 0 0 1 2 0" style="fill:none;stroke:#000;stroke-width:2.5;stroke-linecap:round;stroke-linejoin:round;stroke-miterlimit:4;stroke-opacity:1;stroke-dashoffset:0" transform="rotate(180 137.725 522.306)"/><path d="M148.25 130a1 1 0 1 1-2 0 1 1 0 0 1 2 0" style="fill:none;stroke:#000;stroke-width:2.5;stroke-linecap:round;stroke-linejoin:round;stroke-miterlimit:4;stroke-opacity:1;stroke-dashoffset:0" transform="rotate(180 135.1 523.556)"/><path d="M148.25 130a1 1 0 1 1-2 0 1 1 0 0 1 2 0" style="fill:none;stroke:#000;stroke-width:2.5;stroke-linecap:round;stroke-linejoin:round;stroke-miterlimit:4;stroke-opacity:1;stroke-dashoffset:0" transform="rotate(180 132.35 524.431)"/><path d="M312.57 717.38s-1.37.53-2.056.392c-.626-.126-1.224-.548-1.606-1.056-.374-.498-.554-1.8-.554-1.8m6.631.744s3.378-.848 4.59.083c1.277.98 1.635 3.06 1.302 4.622-.506 2.377-3.06 3.796-4.673 5.61-.981 1.104-1.78 2.516-3.043 3.206-1.236.676-2.836 1.305-4.072.715-.965-.46-1.543-1.742-1.68-2.877-.122-1.012.044-2.366.832-2.972 1.058-.814 2.675-.37 3.832.18.618.295 1.121.896 1.414 1.55.3.673.26 2.24.26 2.24" style="fill:none;stroke:#55a;stroke-width:1.99999964;stroke-linecap:round;stroke-linejoin:round;stroke-miterlimit:4;stroke-opacity:1;stroke-dasharray:none;stroke-dashoffset:0" transform="rotate(180 179.475 782.237)"/><path d="M321.533 719.96s2.128.93 2.77 1.826c.647.902.981 2.12.833 3.216-.241 1.782-1.53 3.306-2.695 4.682a18.2 18.2 0 0 1-4.897 4.03c-1.348.76-2.827 1.369-4.335 1.504-1.126.1-2.655.422-3.342-.534-.587-.817-.27-2.255.288-3.112.421-.647 1.264-.864 1.978-1.023.969-.217 2.188-.531 2.956.126.688.59.7 2.756.7 2.756" style="fill:none;stroke:#55a;stroke-width:1.99999964;stroke-linecap:round;stroke-linejoin:round;stroke-miterlimit:4;stroke-opacity:1;stroke-dasharray:none;stroke-dashoffset:0" transform="rotate(180 179.475 782.237)"/><path d="M323.788 729.052s2.58 2.098 2.648 3.574c.046.997-.864 1.843-1.562 2.56-1.781 1.832-4.151 3.03-6.438 4.184-1.406.709-2.852 1.766-4.427 1.657-.737-.05-1.632-.39-1.948-1.053-.29-.61.044-1.403.386-1.984.642-1.09 1.644-2.597 2.91-2.453.792.09 1.172 1.157 1.427 1.907.265.78.027 2.466.027 2.466m9.223-4.013s.995 1.737.91 2.675c-.136 1.526-1.156 2.93-2.235 4.027-1.4 1.421-3.275 2.432-5.195 2.999-1 .295-2.327.824-3.125.159-.983-.82-1.054-2.661-.465-3.794.508-.976 1.825-1.737 2.921-1.574.827.124 1.36 1.048 1.754 1.78.396.737.514 2.453.514 2.453" style="fill:none;stroke:#55a;stroke-width:1.99999964;stroke-linecap:round;stroke-linejoin:round;stroke-miterlimit:4;stroke-opacity:1;stroke-dasharray:none;stroke-dashoffset:0" transform="rotate(180 179.475 782.237)"/><path d="M318.146 746.154s-.688 1.162-1.163 1.606c-.447.419-.999.695-1.54.954-1.073.514-2.202.887-3.35 1.177-3.546.897-7.18 1.775-10.838 1.72-2.63-.04-5.607.05-7.756-1.47-1.866-1.32-3.05-3.678-3.447-5.929-.686-3.887.796-7.926 2.087-11.656 1.09-3.15 2.749-6.124 4.699-8.828 1.686-2.336 3.727-4.44 5.96-6.261 1.69-1.38 3.524-2.662 5.551-3.471 1.158-.462 2.472-1.114 3.663-.748.966.298 2.054 1.164 2.114 2.172.128 2.141-2.44 3.548-3.909 5.11-.845.899-1.823 1.667-2.796 2.424-1.055.822-2.293 2.181-3.29 2.296-.652 2.215.796 1.691.887 6.079.085 4.108-1.547 6.802-3.38 8.992" style="fill:none;stroke:#55a;stroke-width:1.99999964;stroke-linecap:round;stroke-linejoin:round;stroke-miterlimit:4;stroke-opacity:1;stroke-dasharray:none;stroke-dashoffset:0" transform="rotate(180 179.475 782.237)"/><path d="M248.478 116.928c-1.562 4.116-4.185 7.975-4.685 12.35-.658 5.763.187 11.86 2.343 17.246 1.53 3.822 4.319 7.105 7.239 10.007 2.598 2.582 5.62 4.844 8.943 6.388 3.387 1.573 7.239 1.845 10.858 2.768" style="fill:none;stroke:#55a;stroke-width:2.5;stroke-linecap:round;stroke-linejoin:round;stroke-miterlimit:4;stroke-opacity:1;stroke-dasharray:none;stroke-dashoffset:0" transform="rotate(180 179.475 526.056)"/><path d="M168.207 119.057c-29.428 8.653-51.29 20.05-74.051 35.631-3.96 2.711-7.915 5.438-11.73 8.35C64.484 176.736 47.2 190.24 30 205.9" style="fill:none;stroke:#55a;stroke-width:2;stroke-linecap:round;stroke-linejoin:round;stroke-miterlimit:4;stroke-opacity:1;stroke-dasharray:none;stroke-dashoffset:0" transform="rotate(180 179.475 526.056)"/><path d="m206.484 30 70.599 141.39 18.118-8.435L218.667 30z" style="fill:#000;fill-opacity:1;stroke:none" transform="rotate(180 179.475 526.056)"/><path d="m60.458 344.485 3.889-4.95 5.657 2.829-4.243 5.303 5.657 3.889 9.192-13.081-10.96-6.718 5.657-10.96 5.657 1.768-2.475 5.303 6.364 2.475 4.596-15.203-12.374-3.535 3.535-16.264h6.364l-1.768 9.9 6.01 1.06 2.122-17.677h-10.96V272.36h6.01l-.353 8.485 6.717-.707 1.061-15.556-11.314-1.768 1.06-16.263 7.072 1.06-.707 7.779 6.364 1.06 3.889-15.203-12.374-5.303 8.131-15.203 5.657 2.829-3.182 7.07 6.01 1.769 6.718-10.254-9.192-8.838 10.96-12.375 5.657 4.596-5.657 4.597 4.596 5.657 11.314-10.254-8.132-11.667 5.023-2.371m7.487 4.13-2.201.882 3.523 5.284 6.165-3.376" style="fill:none;stroke:#5456aa;stroke-width:2;stroke-linecap:round;stroke-linejoin:round;stroke-miterlimit:4;stroke-opacity:1;stroke-dasharray:none;stroke-dashoffset:0" transform="rotate(180 179.475 526.056)"/><path d="M148.846 201.296c-6.953 4.596-14.468 8.438-20.86 13.788-5.241 4.388-10.273 9.215-14.142 14.85-2.805 4.085-4.685 8.772-6.364 13.435-2.43 6.75-4.25 13.763-5.303 20.86-.761 5.134-.25 10.385-.707 15.556-.556 6.275-1.662 12.49-2.475 18.738-.598 4.595-.882 9.24-1.768 13.789-.885 4.545-2.036 9.053-3.535 13.435-1.95 5.695-4.28 11.283-7.071 16.617-1.744 3.331-3.615 6.648-6.01 9.546-1.542 1.863-3.536 3.3-5.304 4.95" style="fill:none;stroke:#5456aa;stroke-width:2;stroke-linecap:round;stroke-linejoin:round;stroke-miterlimit:4;stroke-opacity:1;stroke-dasharray:none;stroke-dashoffset:0" transform="rotate(180 179.475 526.056)"/><path d="m63.64 200.235-.354-6.364 6.364.354 3.536-6.01 4.596 6.363h6.364l-.707 6.364 5.303 3.182-6.01 4.596.353 5.657-4.95-.707-4.242 6.364-4.95-7.424-4.596 1.767v-6.01l-6.718-3.89z" style="fill:#ffff57;fill-opacity:1;stroke:none" transform="rotate(180 179.475 526.056)"/><path d="m68.09 203.794 5.406-5.077 5.12 5.521-5.18 4.897z" style="fill:#f55;fill-opacity:1;stroke:#000;stroke-width:2;stroke-linecap:round;stroke-linejoin:round;stroke-miterlimit:4;stroke-opacity:1;stroke-dasharray:none;stroke-dashoffset:0" transform="rotate(180 179.475 526.056)"/><path d="M159.642 203.27s-8.084 1.711-11.857 3.33c-4.662 1.998-8.93 4.86-13.081 7.777-2.123 1.493-4.152 3.138-6.01 4.95-1.675 1.633-4.597 5.303-4.597 5.303s2.873 3.146 4.246 4.773c1.702 2.019 3.475 3.995 4.947 6.188 1.109 1.652 2.903 5.216 2.903 5.216s6.611-1.672 9.971-1.534c3.34.136 6.545 1.388 9.753 2.328 5.15 1.509 15.203 5.303 15.203 5.303zm-50.751 51.387s3.43 4.143 4.213 6.646c.702 2.241.896 4.77.294 7.04-.503 1.894-1.841 3.499-3.123 4.98-1.103 1.277-3.855 3.28-3.855 3.28s.795-6.88 1.189-10.423c.427-3.84.045-7.682 1.282-11.523" style="fill:#f55;fill-opacity:1;stroke:none" transform="rotate(180 179.475 526.056)"/><path d="M113.49 244.783s1.198-4.043 2.476-5.657c1.097-1.386 2.492-2.931 4.242-3.182.997-.143 2.255.233 2.829 1.06.47.679.227 1.683 0 2.476-.307 1.068-1.016 2.01-1.768 2.828-.797.868-1.857 1.455-2.829 2.121-.917.63-2.828 1.768-2.828 1.768z" style="fill:#fff;fill-opacity:1;stroke:none" transform="rotate(180 179.475 526.056)"/><path d="m109.217 254.967 1.799-6.649s2.553 3.42 3.535 5.304c1.346 2.58 2.678 5.265 3.182 8.131.517 2.937.458 6.039-.221 8.941-.477 2.034-1.507 3.93-2.643 5.683-1.128 1.74-2.441 3.424-4.079 4.696-1.525 1.186-5.18 2.6-5.18 2.6l1.163-7.07s3.767-3.194 4.95-5.304c1.076-1.92 1.687-4.163 1.768-6.364.066-1.801-.359-3.643-1.061-5.303-.736-1.739-3.213-4.665-3.213-4.665" style="fill:#ff5;fill-opacity:1;stroke:none" transform="rotate(180 179.475 526.056)"/><path d="M138.131 244.985s6.707-.687 10.008-.202c3.798.558 7.327 2.296 10.96 3.535 2.964 1.012 5.981 1.901 8.839 3.182 4.283 1.92 8.355 4.294 12.374 6.718 2.911 1.755 5.607 3.849 8.486 5.657 2.55 1.602 5.107 3.205 7.778 4.596 2.526 1.316 5.028 2.795 7.778 3.536 2.287.616 4.705.589 7.07.707 2.167.108 6.509 0 6.509 0l.265 9.369-4.298-4.42-1.06 3.89-7.779-6.364-1.414 3.535-8.132-8.132-2.121 3.89-7.778-9.9-2.988 3.615-6.912-7.858-2.121 3.182-8.132-8.485-1.414 3.182-9.9-7.071-.707 3.182-9.192-5.303.353 2.828-5.115-1.494z" style="fill:#000;fill-opacity:1;stroke:#000;stroke-linecap:round;stroke-linejoin:round;stroke-opacity:1" transform="rotate(180 179.475 526.056)"/><path d="m234.638 706.94 5.17.66-.28-6.506-4.536 2.134z" style="fill:#f55;fill-opacity:1;stroke:none" transform="rotate(180 179.475 782.237)"/><path d="M91.57 189.629c-.133-2.318-3.92-4.316-2.828-6.364 1.434-2.691 7.285-4.093 9.01-1.579.81 1.181-2.084 2.256-2.214 3.682-.115 1.26 1.336 3.553 1.336 3.553h12.02l-1.06 3.89H96.52s-1.449 1.375-1.5 2.285c-.073 1.296 2.662 2.544 1.757 3.475-1.791 1.843-5.941-.933-6.974-3.286-.795-1.808 1.881-3.684 1.767-5.656m-52.326 15.909s5.501.227 7.071 2.122c1.437 1.733.708 6.717.708 6.717s2.706-2.496 4.242-2.121c1.558.38 2.865 2.287 2.829 3.89-.035 1.508-1.444 2.934-2.829 3.535-1.41.612-4.596-.354-4.596-.354s2.099 5.812 4.636 6.976c2.363 1.084 5.383.133 7.738-.966 2.041-.95 2.757-4.086 4.95-4.596 1.199-.278 3.034-.063 3.536 1.06.902 2.023-2.587 3.81-2.829 6.011-.234 2.134-.127 4.79 1.414 6.284.949.918 2.579.901 3.89.747.853-.1 2.35-1.06 2.35-1.06s-1.67-3.873-.583-5.264c1.1-1.404 3.791-1.651 5.304-.707 1.58.987 2.196 3.49 1.767 5.304-.3 1.272-2.773 2.773-2.773 2.773l1.36 7.48s-3.284-2.738-5.25-3.467c-1.957-.726-4.244-.096-6.214-.79-1.902-.67-3.887-1.6-5.154-3.168-1.335-1.653-2.121-6.01-2.121-6.01s-4.644 2.524-7.071 2.121c-3-.498-5.514-2.937-7.425-5.303-1.313-1.625-2.19-3.684-2.49-5.752-.3-2.083.647-4.167.763-6.27.064-1.176.265-2.396-.04-3.535-.56-2.09-3.183-5.656-3.183-5.656m-3.182 73.892s3.957-.461 5.304.707c1.715 1.488 1.843 6.557 1.843 6.557s1.347-3.537 2.914-3.742c1.405-.184 3.312 1.154 3.388 2.569.096 1.797-3.93 3.701-3.93 3.701s2.306 3.41 5.581-.882c.912-1.194 1.407-2.688 1.763-4.148.378-1.545.368-4.757.368-4.757l4.605.085s-1.115 3.688-.976 5.567c.11 1.487.346 3.203 1.414 4.243.933.907 3.737 1.132 3.737 1.132s-.47-1.51-.201-2.193c.521-1.32 1.763-2.802 3.182-2.828 1.264-.024 2.614 1.187 2.927 2.412.257 1.006-.47 2.114-1.16 2.89-.27.305-1.07.587-1.07.587s2.65 1.7 3.545 2.95c.963 1.341 1.782 4.623 1.782 4.623s-4.245-3.052-6.731-3.563c-1.415-.29-2.912.679-4.319.354a8.16 8.16 0 0 1-4.167-2.475c-.77-.868-1.414-3.182-1.414-3.182s-2.487 3.197-4.247 4.05c-1.5.727-3.32 1.048-4.95.702-1.628-.344-3.144-1.387-4.233-2.644-.757-.874-1.022-2.081-1.401-3.173a20 20 0 0 1-.725-2.824c-.178-.934-.032-1.935-.354-2.829-.52-1.446-2.475-3.889-2.475-3.889" style="fill:#000;fill-opacity:1;stroke:#ff5;stroke-width:2;stroke-linecap:round;stroke-linejoin:round;stroke-miterlimit:4;stroke-opacity:1;stroke-dasharray:none;stroke-dashoffset:0" transform="rotate(180 179.475 526.056)"/><path d="M85.206 162.759c5.068 4.124 9.876 8.59 15.203 12.374 6.864 4.875 14.145 9.16 21.506 13.246a186 186 0 0 0 14.592 7.253c3.979 1.772 8.02 3.428 12.15 4.81 3.54 1.185 7.197 1.984 10.796 2.975m12.038-11.003 14.478 8.882M172 199l13 8m-12.25.75L185 214m-10.5 1.25 11.75 6.5M176 222l10.25 6.5m-8.75 1.5 9.5 6m-8.25 1.5 7.75 4m-6.75 3.5 7.25 4.5" style="fill:none;stroke:#5456aa;stroke-width:2;stroke-linecap:round;stroke-linejoin:round;stroke-miterlimit:4;stroke-opacity:1;stroke-dasharray:none;stroke-dashoffset:0" transform="rotate(180 179.475 526.056)"/><path d="m212.38 709.694-12.728 8.132m11.968-1.296-11 7m10 1.5-10 5.5m10.5 1.75-11.25 6m10.75.75-10.75 5.75m10.25 1.25-11.5 6.5m10.25.25-9.75 5.25m8.75 2.25-9.25 5.75" style="fill:none;stroke:#5456aa;stroke-width:2;stroke-linecap:round;stroke-linejoin:round;stroke-miterlimit:4;stroke-opacity:1;stroke-dasharray:none;stroke-dashoffset:0" transform="rotate(180 179.475 782.237)"/><path d="m187.5 256.5-6.799-4.866m25.549 5.116L199.5 260m.5 2.793 5.53 2.146" style="fill:none;stroke:#5456aa;stroke-width:2;stroke-linecap:round;stroke-linejoin:round;stroke-miterlimit:4;stroke-opacity:1;stroke-dasharray:none;stroke-dashoffset:0" transform="rotate(180 179.475 526.056)"/><path d="M302.5 134c-.833-2.167-3.279-4.313-2.5-6.5.902-2.532 4.319-4.183 7-4 2.727.186 5.408 2.494 6.5 5 1.07 2.456.13 4.631-.75 8 3.01-1.847 4.26-2.296 6.25-1.5 3.133 1.253 5.716 5.132 5.5 8.5-.181 2.832-2.738 5.848-5.5 6.5-2.47.583-4.667-2-7-3 .5 3 2.631 6.177 1.5 9-.93 2.32-3.5 4.515-6 4.5-2.733-.017-5.499-2.456-6.5-5-1.114-2.83 1-6 1.5-9-1.833 1.333-3.243 4.214-5.5 4-3.639-.345-7.257-4.353-7.5-8-.19-2.861 2.583-5.458 5-7 2.287-1.46 5.333-1 8-1.5" style="fill:#ff5;fill-opacity:1;stroke:#5456aa;stroke-width:2;stroke-linecap:round;stroke-linejoin:round;stroke-miterlimit:4;stroke-opacity:1;stroke-dasharray:none;stroke-dashoffset:0" transform="rotate(180 179.475 526.056)"/><path d="m296.5 135-3.5-8.5 6 1.5 3 5.5zm15.5-1 2.5-5.5 6.5-1-2.5 6.5zm1.5 15 .5 6 5 .5-1-5.5zm-16 0-2 7 4.5-1.5 2.5-8.5z" style="fill:#55a;fill-opacity:1;stroke:#5456aa;stroke-width:2;stroke-linecap:round;stroke-linejoin:round;stroke-miterlimit:4;stroke-opacity:1;stroke-dasharray:none;stroke-dashoffset:0" transform="rotate(180 179.475 526.056)"/><path d="m305 160.5 1.5 40.5 3.5-2-1.5-38.25zm6.5 31c.333-5.514 1.018-11.197 3.25-16.25 2.215-5.016 6.25-9.417 9.75-13.25.167 5.5.253 11.583-.75 17.25-.625 3.53-1.388 7.187-3.25 10.25-2.081 3.424-5.667 5.667-8.5 8.5-.167-2.167-.631-4.33-.5-6.5" style="fill:#ff5;fill-opacity:1;stroke:#5456aa;stroke-width:2;stroke-linecap:round;stroke-linejoin:round;stroke-miterlimit:4;stroke-opacity:1;stroke-dasharray:none;stroke-dashoffset:0" transform="rotate(180 179.475 526.056)"/><path d="M320.5 171.5c-.833 3.833-1.324 7.758-2.5 11.5-1.299 4.134-5 12-5 12h0" style="fill:none;stroke:#5456aa;stroke-width:2;stroke-linecap:round;stroke-linejoin:round;stroke-miterlimit:4;stroke-opacity:1;stroke-dasharray:none;stroke-dashoffset:0" transform="rotate(180 179.475 526.056)"/><path d="M287.5 172.5c4.833 3.833 11.176 6.303 14.5 11.5 3.05 4.767 2.667 11 4 16.5-3.833-3.833-8.007-7.354-11.5-11.5-2.234-2.652-4.747-5.266-6-8.5-.97-2.506-.667-5.333-1-8" style="fill:#ff5;fill-opacity:1;stroke:#5456aa;stroke-width:2;stroke-linecap:round;stroke-linejoin:round;stroke-miterlimit:4;stroke-opacity:1;stroke-dasharray:none;stroke-dashoffset:0" transform="rotate(180 179.475 526.056)"/><path d="M292.5 181.5c2.5 2.333 5.378 4.319 7.5 7 2.502 3.16 4 7 6 10.5" style="fill:none;stroke:#5456aa;stroke-width:2;stroke-linecap:round;stroke-linejoin:round;stroke-miterlimit:4;stroke-opacity:1;stroke-dasharray:none;stroke-dashoffset:0" transform="rotate(180 179.475 526.056)"/><path d="m297 141.5 11-10.5 9.25 10.75-9.75 10z" style="fill:#f55;fill-opacity:1;stroke:#5456aa;stroke-width:2;stroke-linecap:round;stroke-linejoin:round;stroke-miterlimit:4;stroke-opacity:1;stroke-dasharray:none;stroke-dashoffset:0" transform="rotate(180 179.475 526.056)"/><path d="m303 141.5 4.5-4.5 4.5 4.5-4 4.75z" style="fill:#ff5;fill-opacity:1;stroke:#5456aa;stroke-width:2;stroke-linecap:round;stroke-linejoin:round;stroke-miterlimit:4;stroke-opacity:1;stroke-dasharray:none;stroke-dashoffset:0" transform="rotate(180 179.475 526.056)"/><path d="m63.64 200.235-.354-6.364 6.364.354 3.536-6.01 4.596 6.363h6.364l-.707 6.364 5.303 3.182-6.01 4.596.353 5.657-4.95-.707-4.242 6.364-4.95-7.424-4.596 1.767v-6.01l-6.718-3.89z" style="fill:#ffff57;fill-opacity:1;stroke:none" transform="rotate(180 190.568 499.368)"/><path d="m68.09 203.794 5.406-5.077 5.12 5.521-5.18 4.897z" style="fill:#f55;fill-opacity:1;stroke:#000;stroke-width:2;stroke-linecap:round;stroke-linejoin:round;stroke-miterlimit:4;stroke-opacity:1;stroke-dasharray:none;stroke-dashoffset:0" transform="rotate(180 190.568 499.368)"/><path d="M117.097 762.053s2.24-3.573 3.904-4.784c1.43-1.04 3.189-2.153 4.942-1.925.998.13 2.109.83 2.439 1.782.27.78-.233 1.681-.665 2.384-.582.947-1.518 1.663-2.463 2.25-1.001.621-2.179.902-3.294 1.283-1.052.359-3.2.942-3.2.942zm2.84 5.093s3.145-2.81 5.08-3.51c1.662-.602 3.662-1.182 5.282-.476.923.403 1.795 1.384 1.848 2.39.043.824-.69 1.55-1.301 2.105-.823.748-1.92 1.175-2.991 1.476-1.135.32-2.344.262-3.522.317-1.11.053-3.335.017-3.335.017zm2.655 5.794s3.938-1.51 5.996-1.476c1.768.028 3.843.196 5.106 1.433.72.704 1.186 1.931.878 2.89-.252.785-1.197 1.203-1.965 1.505-1.034.407-2.212.416-3.32.317-1.174-.105-2.284-.59-3.404-.956-1.057-.345-3.123-1.17-3.123-1.17zm-.051 5.808s4.187-.506 6.175.026c1.707.457 3.68 1.124 4.605 2.631.526.858.68 2.162.149 3.017-.436.7-1.454.876-2.272.982-1.102.143-2.247-.134-3.298-.5-1.113-.386-2.072-1.126-3.07-1.753-.94-.592-2.745-1.895-2.745-1.895zM106.4 798.48s-.614 4.171-.134 6.172c.413 1.72 1.03 3.708 2.511 4.671.845.55 2.144.737 3.013.228.711-.418.913-1.43 1.04-2.246.172-1.098-.076-2.25-.414-3.31-.358-1.122-1.072-2.1-1.674-3.113-.567-.956-1.823-2.794-1.823-2.794zm4.962-2.784s.53 4.184 1.53 5.982c.86 1.545 1.987 3.295 3.674 3.825.96.302 2.263.134 2.962-.59.574-.594.496-1.624.4-2.443-.13-1.104-.679-2.147-1.289-3.077-.647-.985-1.597-1.735-2.45-2.55-.803-.768-2.505-2.2-2.505-2.2zm4.446-3.579s1.67 3.871 3.132 5.32c1.255 1.246 2.825 2.613 4.592 2.654 1.007.023 2.211-.5 2.682-1.391.385-.73.025-1.697-.296-2.457-.432-1.025-1.248-1.874-2.092-2.597-.895-.767-2.017-1.223-3.062-1.77-.985-.514-3.019-1.417-3.019-1.417zm4.359-4.625s2.938 3.025 4.82 3.86c1.615.718 3.568 1.438 5.235.848.949-.337 1.888-1.254 2.012-2.253.1-.82-.58-1.595-1.15-2.192-.768-.804-1.833-1.308-2.879-1.684-1.11-.398-2.32-.426-3.49-.565-1.104-.13-3.326-.252-3.326-.252z" style="fill:#fff;fill-opacity:1;stroke:none" transform="rotate(180 179.475 782.237)"/><path d="m186.323 194.578 2.121 62.58 10.253 5.303.707-67.176z" style="fill:#ff5;fill-opacity:1;stroke:#000;stroke-width:2;stroke-linecap:round;stroke-linejoin:round;stroke-miterlimit:4;stroke-opacity:1;stroke-dasharray:none;stroke-dashoffset:0" transform="rotate(180 179.475 526.056)"/><path d="M191.272 199.882h2.829l.353 3.182-2.975.146z" style="fill:#000;fill-opacity:1;stroke:none" transform="rotate(180 179.475 526.056)"/><path d="M191.659 719.198h2.828l.354 3.182-2.975.146zm-.25 7h2.828l.354 3.182-2.975.146zm-.25 6.25h2.828l.354 3.182-2.975.146zm0 7.25h2.828l.354 3.182-2.975.146zm-.25 6h2.828l.354 3.182-2.975.146zm.75 6.5h2.828l.354 3.182-2.975.146zm0 6h2.828l.354 3.182-2.975.146zm0 6.5h2.828l.354 3.182-2.975.146z" style="fill:#000;fill-opacity:1;stroke:none" transform="rotate(180 179.475 782.237)"/><path d="M30 662.362v360h270" style="fill:none;stroke:#55a;stroke-width:2;stroke-miterlimit:4;stroke-opacity:1;stroke-dasharray:none"/><path d="M60 542.362h270v360" style="fill:none;stroke:#55a;stroke-width:2;stroke-linecap:butt;stroke-linejoin:miter;stroke-miterlimit:4;stroke-opacity:1;stroke-dasharray:none;stroke-dashoffset:0"/><path d="M29.5 611.362c0-5.523-2.858-9-7-9s-7.5 4.477-7.5 10c.017.478.01.946 0 1.406 0 3.65 1.338 7.189 2.5 10.5 1.195 3.406 2.917 6.39 4.531 9.438 2.5 4.72 7.969 13.656 7.969 13.656s5.468-8.936 7.969-13.656c1.614-3.047 3.336-6.032 4.531-9.438 1.162-3.311 2.5-6.85 2.5-10.5a28 28 0 0 1 0-1.406c0-5.523-3.358-10-7.5-10s-7 3.477-7 9c0 1-1 1-1 0m59.5-36c0-11.046-5.716-18-14-18s-15 8.954-15 20c.035.956.018 1.891 0 2.813 0 7.298 2.677 14.377 5 21 2.389 6.81 5.834 12.78 9.063 18.875 5 9.44 15.937 27.312 15.937 27.312s10.936-17.873 15.938-27.312c3.228-6.095 6.673-12.064 9.062-18.875 2.323-6.623 5-13.702 5-21a56 56 0 0 1 0-2.813c0-11.046-6.716-20-15-20s-14 6.954-14 18c0 2-2 2-2 0m241.5 378c0 5.523 2.858 9 7 9s7.5-4.477 7.5-10a25 25 0 0 1 0-1.406c0-3.65-1.338-7.188-2.5-10.5-1.195-3.406-2.917-6.39-4.531-9.438-2.5-4.72-7.969-13.656-7.969-13.656s-5.468 8.937-7.969 13.656c-1.614 3.048-3.336 6.032-4.531 9.438-1.162 3.312-2.5 6.85-2.5 10.5.014.487.009.957 0 1.406 0 5.523 3.358 10 7.5 10s7-3.477 7-9c0-1 1-1 1 0m-59.5 36c0 11.046 5.716 18 14 18s15-8.954 15-20a50 50 0 0 1 0-2.812c0-7.299-2.677-14.377-5-21-2.389-6.811-5.834-12.781-9.062-18.875-5.002-9.44-15.938-27.313-15.938-27.313s-10.936 17.873-15.937 27.313c-3.23 6.094-6.674 12.064-9.063 18.875-2.323 6.623-5 13.701-5 21 .028.974.019 1.914 0 2.812 0 11.046 6.716 20 15 20s14-6.954 14-18c0-2 2-2 2 0" style="fill:#f55;fill-opacity:1;stroke:none"/></g></svg>